<svg xmlns="http://www.w3.org/2000/svg" version="1.1" width="512px" height="512px" style="shape-rendering:geometricPrecision; text-rendering:geometricPrecision; image-rendering:optimizeQuality; fill-rule:evenodd; clip-rule:evenodd" xmlns:xlink="http://www.w3.org/1999/xlink">
<g><path style="opacity:0.965" fill="#000000" d="M 337.5,31.5 C 378.593,27.8013 410.76,42.8013 434,76.5C 441.903,89.7777 446.57,104.111 448,119.5C 454.203,111.548 462.036,109.382 471.5,113C 480.136,119.373 482.302,127.54 478,137.5C 466.167,149.333 454.333,161.167 442.5,173C 436.167,176.333 429.833,176.333 423.5,173C 411.333,160.833 399.167,148.667 387,136.5C 382.076,125.603 384.91,117.436 395.5,112C 402.905,110.049 409.071,111.882 414,117.5C 405.688,84.8635 384.688,66.8635 351,63.5C 314.193,67.472 293.693,87.8053 289.5,124.5C 278.898,120.099 267.898,117.099 256.5,115.5C 262.371,79.1335 282.037,53.3001 315.5,38C 322.807,35.2817 330.141,33.115 337.5,31.5 Z"/></g>
<g><path style="opacity:0.976" fill="#000000" d="M 204.5,127.5 C 207.85,127.335 211.183,127.502 214.5,128C 207.667,136.833 200.833,145.667 194,154.5C 192.578,157.03 192.245,159.697 193,162.5C 200.978,172.645 209.144,182.645 217.5,192.5C 175.914,201.25 147.747,225.583 133,265.5C 129.359,278.235 127.359,291.235 127,304.5C 116.833,314.667 106.667,324.833 96.5,335C 95.8333,335.667 95.1667,335.667 94.5,335C 84,324.5 73.5,314 63,303.5C 62.7975,243.077 86.2975,194.243 133.5,157C 154.915,141.622 178.581,131.789 204.5,127.5 Z"/></g>
<g><path style="opacity:0.972" fill="#000000" d="M 233.5,127.5 C 299.76,133.59 345.926,167.257 372,228.5C 375.274,237.322 377.941,246.322 380,255.5C 380.798,257.259 380.631,258.926 379.5,260.5C 371.689,254.523 364.022,248.356 356.5,242C 353.167,240 349.833,240 346.5,242C 336.643,250.024 326.643,257.857 316.5,265.5C 310.997,245.315 300.997,227.815 286.5,213C 271.177,202.222 254.177,195.556 235.5,193C 226.31,181.978 217.31,170.811 208.5,159.5C 216.857,148.815 225.191,138.148 233.5,127.5 Z"/></g>
<g><path style="opacity:0.982" fill="#000000" d="M 350.5,256.5 C 361.461,263.657 372.128,271.324 382.5,279.5C 384.461,327.794 369.127,369.628 336.5,405C 310.044,429.555 278.711,443.222 242.5,446C 172.167,446.5 101.834,446.667 31.5,446.5C 31.5,424.833 31.5,403.167 31.5,381.5C 98.1675,381.667 164.834,381.5 231.5,381C 279.432,374.068 308.265,346.901 318,299.5C 318.337,293.461 319.003,287.461 320,281.5C 330.356,273.302 340.522,264.969 350.5,256.5 Z"/></g>
<g><path style="opacity:0.979" fill="#000000" d="M 415.5,350.5 C 418.997,351.104 422.33,352.27 425.5,354C 444.061,371.893 461.894,390.393 479,409.5C 480.354,415.668 479.354,421.334 476,426.5C 459.167,443.333 442.333,460.167 425.5,477C 416.117,481.491 407.951,479.991 401,472.5C 399.594,464.251 399.094,455.917 399.5,447.5C 364.832,447.667 330.165,447.5 295.5,447C 326.002,432.83 350.668,411.83 369.5,384C 379.494,383.5 389.494,383.334 399.5,383.5C 399.094,375.083 399.594,366.749 401,358.5C 404.812,353.852 409.645,351.185 415.5,350.5 Z"/></g>
</svg>
