<svg xmlns="http://www.w3.org/2000/svg" version="1.1" width="512px" height="512px" style="shape-rendering:geometricPrecision; text-rendering:geometricPrecision; image-rendering:optimizeQuality; fill-rule:evenodd; clip-rule:evenodd" xmlns:xlink="http://www.w3.org/1999/xlink">
<g><path style="opacity:0.925" fill="#000000" d="M 94.5,7.5 C 109.367,5.01154 119.534,10.6782 125,24.5C 126.897,33.2593 125.064,41.0927 119.5,48C 123.041,54.2493 126.707,60.4159 130.5,66.5C 135.131,67.6616 139.798,67.8283 144.5,67C 151.705,50.4542 162.038,36.1209 175.5,24C 185.527,18.4498 190.027,21.2831 189,32.5C 151.557,66.6062 141.223,107.606 158,155.5C 165.405,171.636 175.738,185.636 189,197.5C 190.955,205.791 187.788,209.291 179.5,208C 164.301,196.122 152.801,181.289 145,163.5C 140,162.167 135,162.167 130,163.5C 126.627,169.748 123.127,175.915 119.5,182C 125.158,188.83 126.991,196.664 125,205.5C 119.557,218.642 109.724,224.142 95.5,222C 80.6675,216.505 75.1675,206.005 79,190.5C 84.1341,178.508 93.3007,173.008 106.5,174C 111.081,164.832 116.414,156.165 122.5,148C 128.167,147.667 133.833,147.333 139.5,147C 136.928,139.065 135.594,130.898 135.5,122.5C 125.145,122.168 114.812,122.501 104.5,123.5C 97.7199,137.042 87.0533,141.542 72.5,137C 59.1071,129.833 54.9404,119 60,104.5C 67.5422,91.5837 78.3755,87.7504 92.5,93C 98.9181,95.9108 102.918,100.744 104.5,107.5C 114.833,107.5 125.167,107.5 135.5,107.5C 135.594,99.1019 136.928,90.9352 139.5,83C 133.39,82.912 127.39,82.2453 121.5,81C 115.934,72.4263 110.768,63.593 106,54.5C 89.0747,55.9231 79.5747,48.0898 77.5,31C 78.432,19.6008 84.0987,11.7675 94.5,7.5 Z M 97.5,22.5 C 108.565,21.3899 112.398,26.0565 109,36.5C 102.56,42.0298 97.2268,41.0298 93,33.5C 92.4465,28.9939 93.9465,25.3272 97.5,22.5 Z M 80.5,105.5 C 88.456,106.294 91.6227,110.627 90,118.5C 86.6338,123.609 82.1338,124.776 76.5,122C 70.9308,114.868 72.2642,109.368 80.5,105.5 Z M 99.5,189.5 C 107.962,189.797 111.462,194.13 110,202.5C 103.306,209.66 97.6394,208.993 93,200.5C 92.6272,195.235 94.7938,191.568 99.5,189.5 Z"/></g>
<g><path style="opacity:0.925" fill="#000000" d="M 402.5,7.5 C 425.409,6.2389 435.242,16.9056 432,39.5C 426.687,51.3199 417.687,56.3199 405,54.5C 400.232,63.593 395.066,72.4263 389.5,81C 383.61,82.2453 377.61,82.912 371.5,83C 374.072,90.9352 375.406,99.1019 375.5,107.5C 385.833,107.5 396.167,107.5 406.5,107.5C 410.098,96.925 417.598,91.2584 429,90.5C 443.587,91.92 451.753,99.92 453.5,114.5C 450.351,134.126 439.017,141.626 419.5,137C 413.639,133.972 409.306,129.472 406.5,123.5C 396.188,122.501 385.855,122.168 375.5,122.5C 375.406,130.898 374.072,139.065 371.5,147C 377.167,147.333 382.833,147.667 388.5,148C 394.586,156.165 399.919,164.832 404.5,174C 421.4,173.741 431.067,181.908 433.5,198.5C 432.546,210.277 426.546,218.111 415.5,222C 393.821,223.321 383.988,213.154 386,191.5C 387.002,187.836 388.836,184.669 391.5,182C 387.873,175.915 384.373,169.748 381,163.5C 376,162.167 371,162.167 366,163.5C 358.568,180.591 347.735,195.091 333.5,207C 324.242,210.295 320.409,207.128 322,197.5C 360.681,161.442 370.347,118.775 351,69.5C 343.623,55.4462 333.956,43.1129 322,32.5C 320.973,21.2831 325.473,18.4498 335.5,24C 348.962,36.1209 359.295,50.4542 366.5,67C 371.202,67.8283 375.869,67.6616 380.5,66.5C 384.293,60.4159 387.959,54.2493 391.5,48C 380.467,30.3211 384.133,16.8211 402.5,7.5 Z M 405.5,22.5 C 413.991,21.4987 418.157,25.1653 418,33.5C 412.691,42.1764 407.024,42.5097 401,34.5C 399.474,29.2389 400.974,25.2389 405.5,22.5 Z M 427.5,105.5 C 437.096,106.89 439.93,111.89 436,120.5C 433.005,123.265 429.505,124.098 425.5,123C 420.931,120.459 419.431,116.625 421,111.5C 422.436,108.558 424.603,106.558 427.5,105.5 Z M 406.5,189.5 C 412.264,188.798 416.097,191.131 418,196.5C 418.299,204.534 414.466,208.034 406.5,207C 401.055,204.89 399.222,201.056 401,195.5C 402.36,192.977 404.193,190.977 406.5,189.5 Z"/></g>
<g><path style="opacity:0.92" fill="#000000" d="M 242.5,39.5 C 278.962,35.9779 306.128,49.9779 324,81.5C 336.887,112.293 332.721,140.46 311.5,166C 300.868,168.947 297.368,165.114 301,154.5C 321.247,128.493 321.58,102.159 302,75.5C 279.729,52.6188 254.229,48.1188 225.5,62C 197.996,80.5074 189.163,105.674 199,137.5C 202.25,144.34 206.25,150.673 211,156.5C 212.955,164.791 209.788,168.291 201.5,167C 192.572,159.036 186.405,149.203 183,137.5C 174.595,104.052 183.429,76.2189 209.5,54C 219.626,46.9315 230.626,42.0981 242.5,39.5 Z M 250.5,94.5 C 261.069,92.8665 268.569,96.8665 273,106.5C 274.45,125.779 274.95,145.112 274.5,164.5C 261.833,164.5 249.167,164.5 236.5,164.5C 236.333,146.497 236.5,128.497 237,110.5C 238.849,102.826 243.349,97.4922 250.5,94.5 Z"/></g>
<g><path style="opacity:0.937" fill="#000000" d="M 247.5,79.5 C 267.46,76.8874 280.96,84.8874 288,103.5C 289.616,127.125 289.949,150.791 289,174.5C 287.299,178.875 284.133,180.542 279.5,179.5C 279.5,190.167 279.5,200.833 279.5,211.5C 282.862,211.07 285.695,212.07 288,214.5C 289.388,219.372 289.888,224.372 289.5,229.5C 302.837,229.333 316.171,229.5 329.5,230C 332.5,232 335.5,232 338.5,230C 353.167,229.333 367.833,229.333 382.5,230C 386.641,231.135 389.975,233.469 392.5,237C 406.5,237.333 420.5,237.667 434.5,238C 439.012,238.508 442.512,240.675 445,244.5C 446.657,294.417 446.99,344.417 446,394.5C 442.311,417.557 431.644,436.557 414,451.5C 413.667,467.5 413.333,483.5 413,499.5C 412.535,500.931 411.701,502.097 410.5,503C 359.833,503.667 309.167,503.667 258.5,503C 256.232,501.442 255.066,499.276 255,496.5C 254.833,481.156 254.333,465.822 253.5,450.5C 218.934,413.432 183.434,377.098 147,341.5C 146.021,308.439 146.355,275.439 148,242.5C 150.618,237.884 154.451,234.717 159.5,233C 180.984,229.99 196.484,238.157 206,257.5C 207.616,261.347 208.616,265.347 209,269.5C 209.333,282.833 209.667,296.167 210,309.5C 213.667,312.5 217.333,315.5 221,318.5C 221.333,284.833 221.667,251.167 222,217.5C 223.471,213.042 226.638,211.042 231.5,211.5C 231.5,200.833 231.5,190.167 231.5,179.5C 226.867,180.542 223.701,178.875 222,174.5C 221.333,152.5 221.333,130.5 222,108.5C 224.717,93.6238 233.217,83.9572 247.5,79.5 Z M 250.5,94.5 C 243.349,97.4922 238.849,102.826 237,110.5C 236.5,128.497 236.333,146.497 236.5,164.5C 249.167,164.5 261.833,164.5 274.5,164.5C 274.95,145.112 274.45,125.779 273,106.5C 268.569,96.8665 261.069,92.8665 250.5,94.5 Z M 246.5,179.5 C 252.5,179.5 258.5,179.5 264.5,179.5C 264.5,190.167 264.5,200.833 264.5,211.5C 258.5,211.5 252.5,211.5 246.5,211.5C 246.5,200.833 246.5,190.167 246.5,179.5 Z M 236.5,226.5 C 249.167,226.5 261.833,226.5 274.5,226.5C 274.5,247.833 274.5,269.167 274.5,290.5C 261.833,290.5 249.167,290.5 236.5,290.5C 236.5,269.167 236.5,247.833 236.5,226.5 Z M 289.5,244.5 C 301.833,244.5 314.167,244.5 326.5,244.5C 326.5,259.833 326.5,275.167 326.5,290.5C 314.167,290.5 301.833,290.5 289.5,290.5C 289.5,275.167 289.5,259.833 289.5,244.5 Z M 342.5,244.5 C 354.833,244.5 367.167,244.5 379.5,244.5C 379.5,259.833 379.5,275.167 379.5,290.5C 366.833,290.5 354.167,290.5 341.5,290.5C 341.183,275.089 341.517,259.755 342.5,244.5 Z M 163.5,247.5 C 179.86,247.034 190.027,254.701 194,270.5C 194.5,278.159 194.666,285.826 194.5,293.5C 183.5,293.5 172.5,293.5 161.5,293.5C 161.333,278.83 161.5,264.163 162,249.5C 162.717,248.956 163.217,248.289 163.5,247.5 Z M 394.5,252.5 C 406.833,252.5 419.167,252.5 431.5,252.5C 431.5,265.167 431.5,277.833 431.5,290.5C 419.167,290.5 406.833,290.5 394.5,290.5C 394.5,277.833 394.5,265.167 394.5,252.5 Z M 236.5,305.5 C 301.5,305.5 366.5,305.5 431.5,305.5C 431.667,334.502 431.5,363.502 431,392.5C 423.03,429.803 400.197,451.303 362.5,457C 343.5,457.667 324.5,457.667 305.5,457C 274.51,452.258 253.01,435.425 241,406.5C 239.027,400.304 237.694,393.971 237,387.5C 236.5,360.169 236.333,332.835 236.5,305.5 Z M 161.5,308.5 C 172.5,308.5 183.5,308.5 194.5,308.5C 194.184,311.978 194.684,315.312 196,318.5C 204.333,324.833 212.667,331.167 221,337.5C 221.412,356.527 221.746,375.527 222,394.5C 202,374.5 182,354.5 162,334.5C 161.5,325.84 161.334,317.173 161.5,308.5 Z M 269.5,461.5 C 278.222,466.352 287.555,469.519 297.5,471C 322.167,473 346.833,473 371.5,471C 380.532,469.267 389.198,466.434 397.5,462.5C 398.498,471.475 398.832,480.475 398.5,489.5C 355.5,489.5 312.5,489.5 269.5,489.5C 269.5,480.167 269.5,470.833 269.5,461.5 Z"/></g>
<g><path style="opacity:0.912" fill="#000000" d="M 356.5,333.5 C 372.17,333.333 387.837,333.5 403.5,334C 408.986,339.081 408.653,343.748 402.5,348C 387.167,348.667 371.833,348.667 356.5,348C 349.939,343.178 349.939,338.345 356.5,333.5 Z"/></g>
</svg>
