<?xml version="1.0" encoding="UTF-8"?>
<!DOCTYPE svg PUBLIC "-//W3C//DTD SVG 1.1//EN" "http://www.w3.org/Graphics/SVG/1.1/DTD/svg11.dtd">
<svg xmlns="http://www.w3.org/2000/svg" version="1.1" width="500px" height="500px" style="shape-rendering:geometricPrecision; text-rendering:geometricPrecision; image-rendering:optimizeQuality; fill-rule:evenodd; clip-rule:evenodd" xmlns:xlink="http://www.w3.org/1999/xlink">
<g><path style="opacity:0.997" fill="#000000" d="M 244.5,41.5 C 251.5,41.5 258.5,41.5 265.5,41.5C 265.158,42.3382 264.492,42.6716 263.5,42.5C 260.5,42.5 257.5,42.5 254.5,42.5C 254.5,43.8333 254.5,45.1667 254.5,46.5C 257.5,46.5 260.5,46.5 263.5,46.5C 268.032,46.8182 272.366,46.4849 276.5,45.5C 277.167,45.5 277.833,45.5 278.5,45.5C 278.179,47.0481 277.179,47.7148 275.5,47.5C 275.5,48.8333 275.5,50.1667 275.5,51.5C 278.833,51.5 282.167,51.5 285.5,51.5C 285.5,53.5 285.5,55.5 285.5,57.5C 289.514,57.3345 293.514,57.5012 297.5,58C 296.62,59.3561 296.286,60.8561 296.5,62.5C 298.415,62.7845 300.081,62.4511 301.5,61.5C 301.833,61.5 302.167,61.5 302.5,61.5C 303.952,62.3019 305.618,62.8019 307.5,63C 306.62,64.3561 306.286,65.8561 306.5,67.5C 308.565,67.4828 310.565,67.1495 312.5,66.5C 313.167,66.5 313.5,66.1667 313.5,65.5C 314.75,65.5774 315.583,66.244 316,67.5C 316.494,69.1341 316.66,70.8008 316.5,72.5C 320.329,72.0726 323.996,72.0726 327.5,72.5C 330.059,72.1984 332.393,72.5318 334.5,73.5C 332.896,74.287 332.229,75.6203 332.5,77.5C 334.5,77.5 336.5,77.5 338.5,77.5C 340.857,77.3367 343.19,77.5034 345.5,78C 347.032,78.6995 348.032,79.8662 348.5,81.5C 351.768,82.487 355.102,82.8204 358.5,82.5C 358.5,84.1667 358.5,85.8333 358.5,87.5C 357.455,86.2053 356.455,84.872 355.5,83.5C 355.483,84.3937 355.149,85.3937 354.5,86.5C 352.952,86.1788 352.285,85.1788 352.5,83.5C 351.167,83.5 349.833,83.5 348.5,83.5C 348.5,85.1667 348.5,86.8333 348.5,88.5C 353.986,88.0307 357.319,88.364 358.5,89.5C 358.5,90.8333 358.5,92.1667 358.5,93.5C 362.167,93.5 365.833,93.5 369.5,93.5C 369.5,95.1667 369.5,96.8333 369.5,98.5C 372.833,98.5 376.167,98.5 379.5,98.5C 379.5,100.5 379.5,102.5 379.5,104.5C 382.385,104.806 385.052,104.473 387.5,103.5C 388.167,103.5 388.5,103.167 388.5,102.5C 388.833,102.5 389.167,102.5 389.5,102.5C 389.5,102.833 389.5,103.167 389.5,103.5C 390.341,105.379 390.675,107.379 390.5,109.5C 392.735,109.795 394.735,109.461 396.5,108.5C 396.5,108.167 396.5,107.833 396.5,107.5C 397.959,107.433 399.292,107.766 400.5,108.5C 400.5,110.167 400.5,111.833 400.5,113.5C 402.5,113.5 404.5,113.5 406.5,113.5C 407.167,113.5 407.5,113.167 407.5,112.5C 408.609,112.557 409.609,112.89 410.5,113.5C 410.5,114.167 410.5,114.833 410.5,115.5C 410.5,116.833 410.5,118.167 410.5,119.5C 412.167,119.5 413.833,119.5 415.5,119.5C 417.5,119.5 419.5,119.5 421.5,119.5C 425.167,119.5 428.833,119.5 432.5,119.5C 432.5,121.167 432.5,122.833 432.5,124.5C 434.167,124.5 435.833,124.5 437.5,124.5C 437.5,125.833 437.5,127.167 437.5,128.5C 441.908,128.062 443.575,130.062 442.5,134.5C 444.199,134.34 445.866,134.506 447.5,135C 448.252,135.671 448.586,136.504 448.5,137.5C 447.674,141.982 447.174,146.649 447,151.5C 446.502,148.518 446.335,145.518 446.5,142.5C 445.167,142.5 443.833,142.5 442.5,142.5C 442.034,148.491 441.701,154.491 441.5,160.5C 438.167,160.5 434.833,160.5 431.5,160.5C 431.325,162.621 431.659,164.621 432.5,166.5C 418.5,166.5 404.5,166.5 390.5,166.5C 386.833,166.5 383.167,166.5 379.5,166.5C 379.5,168.167 379.5,169.833 379.5,171.5C 377.833,171.5 376.167,171.5 374.5,171.5C 374.5,176.167 374.5,180.833 374.5,185.5C 375.919,186.451 377.585,186.784 379.5,186.5C 379.5,188.167 379.5,189.833 379.5,191.5C 379.5,193.5 379.5,195.5 379.5,197.5C 381.5,197.5 383.5,197.5 385.5,197.5C 386.167,197.5 386.5,197.167 386.5,196.5C 386.5,195.833 386.833,195.5 387.5,195.5C 387.918,196.222 388.584,196.722 389.5,197C 401.829,197.5 414.162,197.667 426.5,197.5C 426.5,272.167 426.5,346.833 426.5,421.5C 424.801,421.34 423.134,421.506 421.5,422C 422.308,422.308 422.975,422.808 423.5,423.5C 421.74,426.212 421.073,429.212 421.5,432.5C 419.833,432.5 418.167,432.5 416.5,432.5C 416.5,433.833 416.5,435.167 416.5,436.5C 412.162,436.378 411.828,436.045 415.5,435.5C 415.5,434.5 415.5,433.5 415.5,432.5C 413.833,432.5 412.167,432.5 410.5,432.5C 410.5,435.833 410.5,439.167 410.5,442.5C 410.167,442.5 409.833,442.5 409.5,442.5C 406.713,441.523 403.713,441.19 400.5,441.5C 400.5,443.167 400.5,444.833 400.5,446.5C 405.152,447 403.152,447.333 394.5,447.5C 394.5,449.167 394.5,450.833 394.5,452.5C 392.167,452.5 389.833,452.5 387.5,452.5C 383.167,452.5 378.833,452.5 374.5,452.5C 374.5,453.833 374.5,455.167 374.5,456.5C 376.167,456.5 377.833,456.5 379.5,456.5C 380.919,457.451 382.585,457.784 384.5,457.5C 294.294,458.829 203.961,458.829 113.5,457.5C 116.962,456.518 120.629,456.185 124.5,456.5C 124.5,455.167 124.5,453.833 124.5,452.5C 117.492,452.666 110.492,452.5 103.5,452C 104.38,450.644 104.714,449.144 104.5,447.5C 100.833,447.5 97.1667,447.5 93.5,447.5C 93.3505,446.448 93.5172,445.448 94,444.5C 95.049,446.107 96.549,446.773 98.5,446.5C 98.5,444.833 98.5,443.167 98.5,441.5C 95.2688,442.368 91.9355,442.368 88.5,441.5C 88.5,438.5 88.5,435.5 88.5,432.5C 86.5,432.5 84.5,432.5 82.5,432.5C 82.5,428.833 82.5,425.167 82.5,421.5C 80.7085,421.634 79.0418,421.301 77.5,420.5C 77.5,417.167 77.5,413.833 77.5,410.5C 77.5,408.833 77.5,407.167 77.5,405.5C 75.8333,405.5 74.1667,405.5 72.5,405.5C 72.5,336.167 72.5,266.833 72.5,197.5C 85.8699,197.778 99.2033,197.445 112.5,196.5C 112.5,197.167 112.833,197.5 113.5,197.5C 115.5,197.5 117.5,197.5 119.5,197.5C 119.5,195.5 119.5,193.5 119.5,191.5C 121.167,191.5 122.833,191.5 124.5,191.5C 124.5,184.833 124.5,178.167 124.5,171.5C 122.833,171.5 121.167,171.5 119.5,171.5C 119.5,169.833 119.5,168.167 119.5,166.5C 115.833,166.5 112.167,166.5 108.5,166.5C 94.5,166.5 80.5,166.5 66.5,166.5C 67.3414,164.621 67.6747,162.621 67.5,160.5C 63.8333,160.5 60.1667,160.5 56.5,160.5C 57.4137,157.272 57.7471,153.939 57.5,150.5C 55.5,150.5 53.5,150.5 51.5,150.5C 51.5,147.167 51.5,143.833 51.5,140.5C 53.5,140.5 55.5,140.5 57.5,140.5C 57.8128,136.958 57.4794,133.625 56.5,130.5C 57.6354,128.787 59.302,128.12 61.5,128.5C 61.5,127.167 61.5,125.833 61.5,124.5C 63.1667,124.5 64.8333,124.5 66.5,124.5C 70.1667,124.5 73.8333,124.5 77.5,124.5C 77.5,122.833 77.5,121.167 77.5,119.5C 81.1667,119.5 84.8333,119.5 88.5,119.5C 88.5,117.5 88.5,115.5 88.5,113.5C 91.8333,113.5 95.1667,113.5 98.5,113.5C 98.3573,111.738 98.6906,110.071 99.5,108.5C 100.425,107.438 101.425,107.438 102.5,108.5C 102.833,108.5 103.167,108.5 103.5,108.5C 105.167,108.5 106.833,108.5 108.5,108.5C 108.5,107.167 108.5,105.833 108.5,104.5C 112.371,104.815 116.038,104.482 119.5,103.5C 119.5,102.167 119.5,100.833 119.5,99.5C 122.625,98.5206 125.958,98.1872 129.5,98.5C 129.773,96.549 129.107,95.049 127.5,94C 131.821,93.501 136.154,93.3343 140.5,93.5C 140.5,91.8333 140.5,90.1667 140.5,88.5C 144.167,88.5 147.833,88.5 151.5,88.5C 151.5,86.8333 151.5,85.1667 151.5,83.5C 149.123,83.7845 146.956,83.7845 145,83.5C 144.517,84.448 144.351,85.448 144.5,86.5C 144.167,86.5 143.833,86.5 143.5,86.5C 143.5,85.1667 143.5,83.8333 143.5,82.5C 145.833,82.5 148.167,82.5 150.5,82.5C 150.421,81.0695 150.754,79.7362 151.5,78.5C 154.428,77.5159 157.428,77.1826 160.5,77.5C 160.137,75.0885 161.137,73.5885 163.5,73C 166.146,72.5026 168.813,72.3359 171.5,72.5C 172.5,71.1667 173.5,71.1667 174.5,72.5C 174.833,72.5 175.167,72.5 175.5,72.5C 177.979,73.6227 180.312,73.6227 182.5,72.5C 182.5,71.1667 182.5,69.8333 182.5,68.5C 185.625,67.5206 188.958,67.1872 192.5,67.5C 192.714,65.8561 192.38,64.3561 191.5,63C 195.152,62.5014 198.818,62.3347 202.5,62.5C 202.5,60.5 202.5,58.5 202.5,56.5C 202.5,54.8333 202.5,53.1667 202.5,51.5C 204.621,51.6747 206.621,51.3414 208.5,50.5C 208.918,51.2216 209.584,51.7216 210.5,52C 208.808,53.4007 208.141,55.2341 208.5,57.5C 210.167,57.5 211.833,57.5 213.5,57.5C 213.739,55.5328 213.406,53.6995 212.5,52C 216.152,51.5014 219.818,51.3347 223.5,51.5C 223.714,49.8561 223.38,48.3561 222.5,47C 226.821,46.501 231.154,46.3343 235.5,46.5C 238.5,46.5 241.5,46.5 244.5,46.5C 244.5,45.1667 244.5,43.8333 244.5,42.5C 244.5,42.1667 244.5,41.8333 244.5,41.5 Z M 252.5,159.5 C 254.607,160.468 256.941,160.802 259.5,160.5C 259.205,162.735 259.539,164.735 260.5,166.5C 259.869,172.795 260.702,178.795 263,184.5C 263.333,183.833 263.667,183.167 264,182.5C 264.494,184.134 264.66,185.801 264.5,187.5C 269.833,187.5 275.167,187.5 280.5,187.5C 280.5,189.167 280.5,190.833 280.5,192.5C 284.167,192.5 287.833,192.5 291.5,192.5C 291.5,193.833 291.5,195.167 291.5,196.5C 292.552,198.256 294.219,198.923 296.5,198.5C 296.5,199.833 296.5,201.167 296.5,202.5C 297.833,202.5 299.167,202.5 300.5,202.5C 300.077,204.781 300.744,206.448 302.5,207.5C 303.98,209.603 305.147,209.603 306,207.5C 306.498,210.817 306.665,214.15 306.5,217.5C 305.167,217.5 303.833,217.5 302.5,217.5C 301.072,219.074 300.739,220.741 301.5,222.5C 294.879,223.189 288.212,223.189 281.5,222.5C 281.768,220.901 281.434,219.568 280.5,218.5C 279.432,217.566 278.099,217.232 276.5,217.5C 276.838,213.849 275.172,212.183 271.5,212.5C 255.479,212.262 239.479,212.596 223.5,213.5C 223.634,215.292 223.301,216.958 222.5,218.5C 221.167,218.5 219.833,218.5 218.5,218.5C 217.891,223.812 217.391,229.146 217,234.5C 215.658,233.098 214.824,233.431 214.5,235.5C 217.204,239.654 218.537,244.32 218.5,249.5C 219.5,249.5 220.5,249.5 221.5,249.5C 221.833,249.5 222.167,249.5 222.5,249.5C 222.5,251.167 222.5,252.833 222.5,254.5C 224.5,254.5 226.5,254.5 228.5,254.5C 230.167,254.5 231.833,254.5 233.5,254.5C 233.433,257.766 235.099,259.266 238.5,259C 250.821,259.868 263.154,260.368 275.5,260.5C 278.833,260.5 282.167,260.5 285.5,260.5C 285.5,262.167 285.5,263.833 285.5,265.5C 287.5,265.5 289.5,265.5 291.5,265.5C 291.238,266.978 291.571,268.311 292.5,269.5C 293.716,270.002 294.883,270.335 296,270.5C 296.494,272.134 296.66,273.801 296.5,275.5C 300.5,274.833 302.167,276.5 301.5,280.5C 303.167,280.5 304.833,280.5 306.5,280.5C 306.335,283.85 306.502,287.183 307,290.5C 308.356,291.38 309.856,291.714 311.5,291.5C 311.5,301.833 311.5,312.167 311.5,322.5C 309.856,322.286 308.356,322.62 307,323.5C 306.502,326.482 306.335,329.482 306.5,332.5C 304.5,332.5 302.5,332.5 300.5,332.5C 300.5,334.5 300.5,336.5 300.5,338.5C 299.167,338.5 297.833,338.5 296.5,338.5C 296.5,339.833 296.5,341.167 296.5,342.5C 294.833,342.5 293.167,342.5 291.5,342.5C 291.5,344.167 291.5,345.833 291.5,347.5C 288.091,347.249 284.758,347.583 281.5,348.5C 280.548,350.045 280.215,351.712 280.5,353.5C 275.167,353.5 269.833,353.5 264.5,353.5C 264.78,356.272 264.113,358.772 262.5,361C 263.435,363.381 263.768,365.881 263.5,368.5C 260.96,371.282 259.96,374.448 260.5,378C 258.447,379.08 256.28,379.914 254,380.5C 253.316,381.784 253.483,382.951 254.5,384C 251.183,384.498 247.85,384.665 244.5,384.5C 245.412,383.262 245.579,381.928 245,380.5C 243.052,379.891 241.218,379.224 239.5,378.5C 238.864,374.219 237.364,370.219 235,366.5C 234.502,363.518 234.335,360.518 234.5,357.5C 234.67,356.178 234.337,355.011 233.5,354C 228.511,353.501 223.511,353.334 218.5,353.5C 216.833,353.5 215.167,353.5 213.5,353.5C 214.968,351.389 214.635,349.556 212.5,348C 209.183,347.502 205.85,347.335 202.5,347.5C 202.88,345.302 202.213,343.635 200.5,342.5C 199.5,342.5 198.5,342.5 197.5,342.5C 197.616,339.09 195.95,337.756 192.5,338.5C 192.576,336.696 192.243,334.696 191.5,332.5C 190.167,332.5 188.833,332.5 187.5,332.5C 187.5,329.167 187.5,325.833 187.5,322.5C 188.833,322.5 190.167,322.5 191.5,322.5C 191.5,320.833 191.5,319.167 191.5,317.5C 196.833,317.5 202.167,317.5 207.5,317.5C 207.5,319.167 207.5,320.833 207.5,322.5C 210.833,322.833 214.167,323.167 217.5,323.5C 217.5,324.833 217.5,326.167 217.5,327.5C 236.48,328.602 255.48,328.769 274.5,328C 276.107,326.951 276.773,325.451 276.5,323.5C 278.099,323.768 279.432,323.434 280.5,322.5C 281.167,322.5 281.5,322.167 281.5,321.5C 281.5,320.167 281.5,318.833 281.5,317.5C 282.833,317.5 284.167,317.5 285.5,317.5C 286.443,310.856 286.609,304.189 286,297.5C 284.951,295.893 283.451,295.227 281.5,295.5C 281.768,293.901 281.434,292.568 280.5,291.5C 280.875,286.505 278.542,284.505 273.5,285.5C 270.833,285.5 268.167,285.5 265.5,285.5C 265.5,283.833 265.5,282.167 265.5,280.5C 253.5,280.5 241.5,280.5 229.5,280.5C 225.833,280.5 222.167,280.5 218.5,280.5C 218.5,278.833 218.5,277.167 218.5,275.5C 216.833,275.5 215.167,275.5 213.5,275.5C 211.5,275.5 209.5,275.5 207.5,275.5C 209.191,271.556 207.857,269.556 203.5,269.5C 204.167,265.5 202.5,263.833 198.5,264.5C 198.167,261.167 197.833,257.833 197.5,254.5C 195.833,254.5 194.167,254.5 192.5,254.5C 191.851,240.459 192.518,226.792 194.5,213.5C 195.833,213.5 197.167,213.5 198.5,213.5C 198.5,211.5 198.5,209.5 198.5,207.5C 199.833,207.5 201.167,207.5 202.5,207.5C 202.5,205.833 202.5,204.167 202.5,202.5C 204.167,202.5 205.833,202.5 207.5,202.5C 207.5,200.833 207.5,199.167 207.5,197.5C 209.5,197.5 211.5,197.5 213.5,197.5C 213.5,195.833 213.5,194.167 213.5,192.5C 216.833,192.167 220.167,191.833 223.5,191.5C 223.67,190.178 223.337,189.011 222.5,188C 226.486,187.501 230.486,187.334 234.5,187.5C 234.5,185.833 234.5,184.167 234.5,182.5C 235.822,182.67 236.989,182.337 238,181.5C 238.499,176.511 238.666,171.511 238.5,166.5C 239.461,164.735 239.795,162.735 239.5,160.5C 243.857,160.414 248.19,160.08 252.5,159.5 Z"/></g>
<g><path style="opacity:0.995" fill="#3d3d3d" d="M 244.5,42.5 C 244.5,43.8333 244.5,45.1667 244.5,46.5C 241.5,46.5 238.5,46.5 235.5,46.5C 235.5,45.1667 235.5,43.8333 235.5,42.5C 238.5,42.5 241.5,42.5 244.5,42.5 Z"/></g>
<g><path style="opacity:0.008" fill="#000000" d="M 226.5,43.5 C 227.833,44.1667 227.833,44.1667 226.5,43.5 Z"/></g>
<g><path style="opacity:0.972" fill="#3a3938" d="M 263.5,42.5 C 263.5,43.8333 263.5,45.1667 263.5,46.5C 260.5,46.5 257.5,46.5 254.5,46.5C 254.5,45.1667 254.5,43.8333 254.5,42.5C 257.5,42.5 260.5,42.5 263.5,42.5 Z"/></g>
<g><path style="opacity:0.353" fill="#242224" d="M 265.5,41.5 C 267.167,41.5 268.833,41.5 270.5,41.5C 270.5,42.8333 270.5,44.1667 270.5,45.5C 272.5,45.5 274.5,45.5 276.5,45.5C 272.366,46.4849 268.032,46.8182 263.5,46.5C 263.5,45.1667 263.5,43.8333 263.5,42.5C 264.492,42.6716 265.158,42.3382 265.5,41.5 Z"/></g>
<g><path style="opacity:0.675" fill="#242426" d="M 244.5,41.5 C 244.5,41.8333 244.5,42.1667 244.5,42.5C 241.5,42.5 238.5,42.5 235.5,42.5C 235.5,43.8333 235.5,45.1667 235.5,46.5C 231.154,46.3343 226.821,46.501 222.5,47C 223.38,48.3561 223.714,49.8561 223.5,51.5C 219.818,51.3347 216.152,51.5014 212.5,52C 213.406,53.6995 213.739,55.5328 213.5,57.5C 211.833,57.5 210.167,57.5 208.5,57.5C 208.141,55.2341 208.808,53.4007 210.5,52C 209.584,51.7216 208.918,51.2216 208.5,50.5C 210.167,50.5 211.833,50.5 213.5,50.5C 213.5,49.1667 213.5,47.8333 213.5,46.5C 218.473,45.8363 223.473,45.5029 228.5,45.5C 228.5,44.1667 228.5,42.8333 228.5,41.5C 233.833,41.5 239.167,41.5 244.5,41.5 Z"/></g>
<g><path style="opacity:0.196" fill="#262528" d="M 278.5,45.5 C 280.764,46.2186 283.097,46.552 285.5,46.5C 285.5,47.8333 285.5,49.1667 285.5,50.5C 289.179,50.7244 292.846,51.0578 296.5,51.5C 296.5,53.1667 296.5,54.8333 296.5,56.5C 300.729,56.235 304.396,57.4016 307.5,60C 305.292,60.1909 303.292,60.6909 301.5,61.5C 300.081,62.4511 298.415,62.7845 296.5,62.5C 296.286,60.8561 296.62,59.3561 297.5,58C 293.514,57.5012 289.514,57.3345 285.5,57.5C 285.5,55.5 285.5,53.5 285.5,51.5C 282.167,51.5 278.833,51.5 275.5,51.5C 275.5,50.1667 275.5,48.8333 275.5,47.5C 277.179,47.7148 278.179,47.0481 278.5,45.5 Z"/></g>
<g><path style="opacity:0.671" fill="#181719" d="M 202.5,56.5 C 202.5,58.5 202.5,60.5 202.5,62.5C 198.818,62.3347 195.152,62.5014 191.5,63C 192.38,64.3561 192.714,65.8561 192.5,67.5C 188.958,67.1872 185.625,67.5206 182.5,68.5C 180.801,68.3398 179.134,68.5065 177.5,69C 178.337,70.0113 178.67,71.1779 178.5,72.5C 179.833,72.5 181.167,72.5 182.5,72.5C 180.312,73.6227 177.979,73.6227 175.5,72.5C 175.167,71.1667 174.833,71.1667 174.5,72.5C 173.5,71.1667 172.5,71.1667 171.5,72.5C 171.5,70.8333 171.5,69.1667 171.5,67.5C 175.135,66.8857 178.802,66.5524 182.5,66.5C 182.5,65.1667 182.5,63.8333 182.5,62.5C 185.839,62.1103 189.173,61.6103 192.5,61C 191.359,60.2588 191.359,59.4255 192.5,58.5C 195.706,57.1921 199.04,56.5254 202.5,56.5 Z"/></g>
<g><path style="opacity:0.353" fill="#1f1e20" d="M 302.5,61.5 C 307.203,61.4372 311.87,61.7705 316.5,62.5C 316.5,63.8333 316.5,65.1667 316.5,66.5C 319.93,66.1065 323.096,66.7732 326,68.5C 326.333,68.1667 326.667,67.8333 327,67.5C 327.494,69.1341 327.66,70.8008 327.5,72.5C 323.996,72.0726 320.329,72.0726 316.5,72.5C 316.66,70.8008 316.494,69.1341 316,67.5C 315.583,66.244 314.75,65.5774 313.5,65.5C 312.833,65.5 312.5,65.8333 312.5,66.5C 310.565,67.1495 308.565,67.4828 306.5,67.5C 306.286,65.8561 306.62,64.3561 307.5,63C 305.618,62.8019 303.952,62.3019 302.5,61.5 Z"/></g>
<g><path style="opacity:0.799" fill="#393939" d="M 182.5,68.5 C 182.5,69.8333 182.5,71.1667 182.5,72.5C 181.167,72.5 179.833,72.5 178.5,72.5C 178.67,71.1779 178.337,70.0113 177.5,69C 179.134,68.5065 180.801,68.3398 182.5,68.5 Z"/></g>
<g><path style="opacity:0.745" fill="#363635" d="M 328.5,73.5 C 329.397,74.5981 330.23,74.5981 331,73.5C 331.49,74.7932 331.657,76.1266 331.5,77.5C 330.167,77.5 328.833,77.5 327.5,77.5C 327.433,76.0413 327.766,74.7079 328.5,73.5 Z"/></g>
<g><path style="opacity:0.026" fill="#2a2a2b" d="M 334.5,73.5 C 335.833,73.5 337.167,73.5 338.5,73.5C 338.5,74.8333 338.5,76.1667 338.5,77.5C 336.5,77.5 334.5,77.5 332.5,77.5C 332.229,75.6203 332.896,74.287 334.5,73.5 Z"/></g>
<g><path style="opacity:0.035" fill="#212023" d="M 354.5,86.5 C 355.149,85.3937 355.483,84.3937 355.5,83.5C 356.455,84.872 357.455,86.2053 358.5,87.5C 362.154,87.9422 365.821,88.2756 369.5,88.5C 369.5,89.8333 369.5,91.1667 369.5,92.5C 372.568,92.5467 375.568,93.0467 378.5,94C 379.337,95.0113 379.67,96.1779 379.5,97.5C 383.013,97.3075 386.346,97.9741 389.5,99.5C 390.653,100.687 390.653,101.687 389.5,102.5C 389.167,102.5 388.833,102.5 388.5,102.5C 387.504,102.586 386.671,102.252 386,101.5C 385.472,102.816 385.972,103.483 387.5,103.5C 385.052,104.473 382.385,104.806 379.5,104.5C 379.5,102.5 379.5,100.5 379.5,98.5C 376.167,98.5 372.833,98.5 369.5,98.5C 369.5,96.8333 369.5,95.1667 369.5,93.5C 365.833,93.5 362.167,93.5 358.5,93.5C 358.5,92.1667 358.5,90.8333 358.5,89.5C 357.319,88.364 353.986,88.0307 348.5,88.5C 348.5,86.8333 348.5,85.1667 348.5,83.5C 349.833,83.5 351.167,83.5 352.5,83.5C 352.285,85.1788 352.952,86.1788 354.5,86.5 Z"/></g>
<g><path style="opacity:0.031" fill="#232024" d="M 143.5,82.5 C 143.5,83.8333 143.5,85.1667 143.5,86.5C 143.833,87.8333 144.167,87.8333 144.5,86.5C 144.351,85.448 144.517,84.448 145,83.5C 146.956,83.7845 149.123,83.7845 151.5,83.5C 151.5,85.1667 151.5,86.8333 151.5,88.5C 147.833,88.5 144.167,88.5 140.5,88.5C 140.5,90.1667 140.5,91.8333 140.5,93.5C 136.154,93.3343 131.821,93.501 127.5,94C 129.107,95.049 129.773,96.549 129.5,98.5C 125.958,98.1872 122.625,98.5206 119.5,99.5C 117.833,99.5 116.167,99.5 114.5,99.5C 114.5,100.833 114.5,102.167 114.5,103.5C 116.167,103.5 117.833,103.5 119.5,103.5C 116.038,104.482 112.371,104.815 108.5,104.5C 108.5,105.833 108.5,107.167 108.5,108.5C 106.833,108.5 105.167,108.5 103.5,108.5C 103.167,107.167 102.833,107.167 102.5,108.5C 101.425,107.438 100.425,107.438 99.5,108.5C 98.6906,110.071 98.3573,111.738 98.5,113.5C 95.1667,113.5 91.8333,113.5 88.5,113.5C 88.5,111.833 88.5,110.167 88.5,108.5C 91.8333,108.5 95.1667,108.5 98.5,108.5C 98.5,107.167 98.5,105.833 98.5,104.5C 102.188,104.219 105.855,103.719 109.5,103C 108.289,101.887 108.289,100.72 109.5,99.5C 114.01,97.9469 118.676,97.1136 123.5,97C 122.207,96.51 120.873,96.3433 119.5,96.5C 119.5,95.5 119.5,94.5 119.5,93.5C 122.833,93.1667 126.167,92.8333 129.5,92.5C 129.5,91.1667 129.5,89.8333 129.5,88.5C 133.179,88.2756 136.846,87.9422 140.5,87.5C 140.5,85.8333 140.5,84.1667 140.5,82.5C 141.5,82.5 142.5,82.5 143.5,82.5 Z"/></g>
<g><path style="opacity:0.816" fill="#434144" d="M 119.5,99.5 C 119.5,100.833 119.5,102.167 119.5,103.5C 117.833,103.5 116.167,103.5 114.5,103.5C 114.5,102.167 114.5,100.833 114.5,99.5C 116.167,99.5 117.833,99.5 119.5,99.5 Z"/></g>
<g><path style="opacity:0.775" fill="#222022" d="M 389.5,103.5 C 393.179,103.724 396.846,104.058 400.5,104.5C 400.5,105.833 400.5,107.167 400.5,108.5C 399.292,107.766 397.959,107.433 396.5,107.5C 395.167,107.833 395.167,108.167 396.5,108.5C 394.735,109.461 392.735,109.795 390.5,109.5C 390.675,107.379 390.341,105.379 389.5,103.5 Z"/></g>
<g><path style="opacity:0.667" fill="#1f1e1f" d="M 400.5,108.5 C 403.602,108.154 406.435,108.821 409,110.5C 409.333,110.167 409.667,109.833 410,109.5C 410.49,110.793 410.657,112.127 410.5,113.5C 409.609,112.89 408.609,112.557 407.5,112.5C 406.833,112.5 406.5,112.833 406.5,113.5C 404.5,113.5 402.5,113.5 400.5,113.5C 400.5,111.833 400.5,110.167 400.5,108.5 Z"/></g>
<g><path style="opacity:0.201" fill="#2d2a2c" d="M 88.5,113.5 C 88.5,115.5 88.5,117.5 88.5,119.5C 84.8333,119.5 81.1667,119.5 77.5,119.5C 77.5,117.5 77.5,115.5 77.5,113.5C 81.1667,113.5 84.8333,113.5 88.5,113.5 Z"/></g>
<g><path style="opacity:0.184" fill="#1f1b1e" d="M 410.5,113.5 C 414.167,113.5 417.833,113.5 421.5,113.5C 421.5,115.5 421.5,117.5 421.5,119.5C 419.5,119.5 417.5,119.5 415.5,119.5C 415.5,118.167 415.5,116.833 415.5,115.5C 413.833,115.5 412.167,115.5 410.5,115.5C 410.5,114.833 410.5,114.167 410.5,113.5 Z"/></g>
<g><path style="opacity:0.953" fill="#3f3d3e" d="M 410.5,115.5 C 412.167,115.5 413.833,115.5 415.5,115.5C 415.5,116.833 415.5,118.167 415.5,119.5C 413.833,119.5 412.167,119.5 410.5,119.5C 410.5,118.167 410.5,116.833 410.5,115.5 Z"/></g>
<g><path style="opacity:0.71" fill="#282426" d="M 77.5,119.5 C 77.5,121.167 77.5,122.833 77.5,124.5C 73.8333,124.5 70.1667,124.5 66.5,124.5C 66.5,122.833 66.5,121.167 66.5,119.5C 70.1667,119.5 73.8333,119.5 77.5,119.5 Z"/></g>
<g><path style="opacity:0.133" fill="#2b292b" d="M 56.5,130.5 C 57.4794,133.625 57.8128,136.958 57.5,140.5C 55.5,140.5 53.5,140.5 51.5,140.5C 51.5,143.833 51.5,147.167 51.5,150.5C 53.5,150.5 55.5,150.5 57.5,150.5C 57.7471,153.939 57.4137,157.272 56.5,160.5C 54.8333,160.5 53.1667,160.5 51.5,160.5C 50.5013,152.189 50.3347,143.856 51,135.5C 52.6995,134.594 54.5328,134.261 56.5,134.5C 56.5,133.167 56.5,131.833 56.5,130.5 Z"/></g>
<g><path style="opacity:0.671" fill="#272528" d="M 448.5,137.5 C 448.646,145.196 448.313,152.862 447.5,160.5C 442.949,159.554 440.616,161.387 440.5,166C 437.854,166.497 435.187,166.664 432.5,166.5C 431.659,164.621 431.325,162.621 431.5,160.5C 434.833,160.5 438.167,160.5 441.5,160.5C 441.701,154.491 442.034,148.491 442.5,142.5C 443.833,142.5 445.167,142.5 446.5,142.5C 446.335,145.518 446.502,148.518 447,151.5C 447.174,146.649 447.674,141.982 448.5,137.5 Z"/></g>
<g><path style="opacity:0.071" fill="#221e21" d="M 252.5,159.5 C 248.19,160.08 243.857,160.414 239.5,160.5C 239.795,162.735 239.461,164.735 238.5,166.5C 238.5,162.833 238.5,159.167 238.5,155.5C 245.833,155.5 253.167,155.5 260.5,155.5C 260.5,156.833 260.5,158.167 260.5,159.5C 258.833,159.5 257.167,159.5 255.5,159.5C 255.649,158.448 255.483,157.448 255,156.5C 254.623,157.942 253.79,158.942 252.5,159.5 Z"/></g>
<g><path style="opacity:0.061" fill="#3a363a" d="M 56.5,160.5 C 60.1667,160.5 63.8333,160.5 67.5,160.5C 67.6747,162.621 67.3414,164.621 66.5,166.5C 63.8127,166.664 61.146,166.497 58.5,166C 57.7556,164.185 57.0889,162.352 56.5,160.5 Z"/></g>
<g><path style="opacity:0.455" fill="#373237" d="M 390.5,166.5 C 390.863,168.911 389.863,170.411 387.5,171C 384.854,171.497 382.187,171.664 379.5,171.5C 379.5,169.833 379.5,168.167 379.5,166.5C 383.167,166.5 386.833,166.5 390.5,166.5 Z"/></g>
<g><path style="opacity:0.049" fill="#322e33" d="M 108.5,166.5 C 112.167,166.5 115.833,166.5 119.5,166.5C 119.5,168.167 119.5,169.833 119.5,171.5C 116.15,171.665 112.817,171.498 109.5,171C 108.62,169.644 108.286,168.144 108.5,166.5 Z"/></g>
<g><path style="opacity:0.037" fill="#241d24" d="M 379.5,171.5 C 379.5,173.167 379.5,174.833 379.5,176.5C 378.127,176.343 376.793,176.51 375.5,177C 376.308,177.308 376.975,177.808 377.5,178.5C 377.234,181.345 376.234,183.678 374.5,185.5C 374.5,180.833 374.5,176.167 374.5,171.5C 376.167,171.5 377.833,171.5 379.5,171.5 Z"/></g>
<g><path style="opacity:0.796" fill="#211f21" d="M 291.5,196.5 C 291.5,195.167 291.5,193.833 291.5,192.5C 287.833,192.5 284.167,192.5 280.5,192.5C 280.5,190.833 280.5,189.167 280.5,187.5C 275.167,187.5 269.833,187.5 264.5,187.5C 264.66,185.801 264.494,184.134 264,182.5C 263.667,183.167 263.333,183.833 263,184.5C 260.702,178.795 259.869,172.795 260.5,166.5C 261.552,166.649 262.552,166.483 263.5,166C 262.139,164.416 261.472,162.582 261.5,160.5C 262.833,160.5 264.167,160.5 265.5,160.5C 265.811,167.09 265.478,173.59 264.5,180C 265.126,180.75 265.626,181.584 266,182.5C 269.071,181.862 272.237,181.862 275.5,182.5C 275.5,183.5 275.5,184.5 275.5,185.5C 277.394,186.668 282.728,187.001 291.5,186.5C 291.5,187.833 291.5,189.167 291.5,190.5C 289.473,190.338 287.473,190.505 285.5,191C 289.152,191.499 292.818,191.665 296.5,191.5C 296.5,193.167 296.5,194.833 296.5,196.5C 294.833,196.5 293.167,196.5 291.5,196.5 Z"/></g>
<g><path style="opacity:0.518" fill="#2a242c" d="M 119.5,171.5 C 121.167,171.5 122.833,171.5 124.5,171.5C 124.5,178.167 124.5,184.833 124.5,191.5C 122.833,191.5 121.167,191.5 119.5,191.5C 119.5,184.833 119.5,178.167 119.5,171.5 Z"/></g>
<g><path style="opacity:0.573" fill="#232025" d="M 238.5,166.5 C 238.666,171.511 238.499,176.511 238,181.5C 236.989,182.337 235.822,182.67 234.5,182.5C 234.5,184.167 234.5,185.833 234.5,187.5C 230.486,187.334 226.486,187.501 222.5,188C 223.337,189.011 223.67,190.178 223.5,191.5C 220.167,191.833 216.833,192.167 213.5,192.5C 213.5,194.167 213.5,195.833 213.5,197.5C 211.5,197.5 209.5,197.5 207.5,197.5C 207.5,195.5 207.5,193.5 207.5,191.5C 209.5,191.5 211.5,191.5 213.5,191.5C 213.5,189.833 213.5,188.167 213.5,186.5C 215.292,186.366 216.958,186.699 218.5,187.5C 221.977,186.677 225.644,186.177 229.5,186C 228.62,184.644 228.286,183.144 228.5,181.5C 230.167,181.5 231.833,181.5 233.5,181.5C 233.5,174.5 233.5,167.5 233.5,160.5C 234.833,160.5 236.167,160.5 237.5,160.5C 237.205,162.735 237.539,164.735 238.5,166.5 Z"/></g>
<g><path style="opacity:0.498" fill="#29232b" d="M 119.5,191.5 C 119.5,193.5 119.5,195.5 119.5,197.5C 117.5,197.5 115.5,197.5 113.5,197.5C 112.833,197.5 112.5,197.167 112.5,196.5C 111.571,195.685 110.571,194.852 109.5,194C 112.5,191.997 115.833,191.164 119.5,191.5 Z"/></g>
<g><path style="opacity:0.431" fill="#261e27" d="M 379.5,191.5 C 381.5,191.5 383.5,191.5 385.5,191.5C 386.167,192.833 386.833,194.167 387.5,195.5C 386.833,195.5 386.5,195.833 386.5,196.5C 385.833,196.5 385.5,196.833 385.5,197.5C 383.5,197.5 381.5,197.5 379.5,197.5C 379.5,195.5 379.5,193.5 379.5,191.5 Z"/></g>
<g><path style="opacity:0.333" fill="#181518" d="M 302.5,217.5 C 303.833,217.5 305.167,217.5 306.5,217.5C 306.665,214.15 306.498,210.817 306,207.5C 305.147,209.603 303.98,209.603 302.5,207.5C 302.5,205.833 302.5,204.167 302.5,202.5C 304.167,202.5 305.833,202.5 307.5,202.5C 307.272,209.66 307.272,216.66 307.5,223.5C 305.833,223.5 304.167,223.5 302.5,223.5C 302.5,222.167 302.5,220.833 302.5,219.5C 303.552,219.649 304.552,219.483 305.5,219C 304.263,218.768 303.263,218.268 302.5,217.5 Z"/></g>
<g><path style="opacity:0.424" fill="#2e2a30" d="M 271.5,212.5 C 271.389,213.117 271.056,213.617 270.5,214C 271.793,214.49 273.127,214.657 274.5,214.5C 274.5,215.833 274.5,217.167 274.5,218.5C 271.5,218.5 268.5,218.5 265.5,218.5C 265.5,217.167 265.5,215.833 265.5,214.5C 257.201,213.35 246.201,213.184 232.5,214C 234.107,215.049 234.773,216.549 234.5,218.5C 230.5,218.5 226.5,218.5 222.5,218.5C 223.301,216.958 223.634,215.292 223.5,213.5C 239.479,212.596 255.479,212.262 271.5,212.5 Z"/></g>
<g><path style="opacity:0.037" fill="#1f1d1f" d="M 280.5,218.5 C 281.434,219.568 281.768,220.901 281.5,222.5C 288.212,223.189 294.879,223.189 301.5,222.5C 300.048,223.302 298.382,223.802 296.5,224C 298.744,224.05 300.411,224.883 301.5,226.5C 299.856,226.286 298.356,226.62 297,227.5C 295.704,225.185 293.704,224.185 291,224.5C 289.122,224.696 287.288,225.029 285.5,225.5C 284.159,223.88 282.326,222.88 280,222.5C 278.644,223.38 277.144,223.714 275.5,223.5C 275.5,222.167 275.5,220.833 275.5,219.5C 277.451,219.227 278.951,219.893 280,221.5C 280.483,220.552 280.649,219.552 280.5,218.5 Z"/></g>
<g><path style="opacity:0.192" fill="#332d31" d="M 301.5,226.5 C 301.5,227.5 301.5,228.5 301.5,229.5C 296.325,229.168 290.992,229.168 285.5,229.5C 285.5,228.167 285.5,226.833 285.5,225.5C 287.288,225.029 289.122,224.696 291,224.5C 293.704,224.185 295.704,225.185 297,227.5C 298.356,226.62 299.856,226.286 301.5,226.5 Z"/></g>
<g><path style="opacity:0.592" fill="#413e3f" d="M 187.5,239.5 C 188.5,239.5 189.5,239.5 190.5,239.5C 190.5,242.833 190.5,246.167 190.5,249.5C 189.167,249.5 187.833,249.5 186.5,249.5C 186.253,246.061 186.586,242.728 187.5,239.5 Z"/></g>
<g><path style="opacity:0.26" fill="#393438" d="M 222.5,249.5 C 222.167,249.5 221.833,249.5 221.5,249.5C 220.058,248.18 219.392,246.514 219.5,244.5C 220.833,244.5 222.167,244.5 223.5,244.5C 223.634,246.292 223.301,247.958 222.5,249.5 Z"/></g>
<g><path style="opacity:0.298" fill="#312e31" d="M 222.5,249.5 C 224.833,249.5 227.167,249.5 229.5,249.5C 229.634,251.292 229.301,252.958 228.5,254.5C 226.5,254.5 224.5,254.5 222.5,254.5C 222.5,252.833 222.5,251.167 222.5,249.5 Z"/></g>
<g><path style="opacity:0.15" fill="#2c2b2f" d="M 233.5,254.5 C 249.167,254.5 264.833,254.5 280.5,254.5C 280.5,256.167 280.5,257.833 280.5,259.5C 278.585,259.216 276.919,259.549 275.5,260.5C 263.154,260.368 250.821,259.868 238.5,259C 235.099,259.266 233.433,257.766 233.5,254.5 Z"/></g>
<g><path style="opacity:0.973" fill="#181719" d="M 285.5,260.5 C 287.5,260.5 289.5,260.5 291.5,260.5C 291.5,261.833 291.5,263.167 291.5,264.5C 294.817,264.781 297.983,264.781 301,264.5C 301.783,266.433 301.283,267.933 299.5,269C 301.046,270.44 301.879,272.273 302,274.5C 303.699,275.406 305.533,275.739 307.5,275.5C 307.335,279.182 307.501,282.848 308,286.5C 308.495,284.527 308.662,282.527 308.5,280.5C 309.822,280.33 310.989,280.663 312,281.5C 312.388,284.849 312.221,288.183 311.5,291.5C 309.856,291.714 308.356,291.38 307,290.5C 306.502,287.183 306.335,283.85 306.5,280.5C 304.833,280.5 303.167,280.5 301.5,280.5C 302.167,276.5 300.5,274.833 296.5,275.5C 296.66,273.801 296.494,272.134 296,270.5C 294.883,270.335 293.716,270.002 292.5,269.5C 291.571,268.311 291.238,266.978 291.5,265.5C 289.5,265.5 287.5,265.5 285.5,265.5C 285.5,263.833 285.5,262.167 285.5,260.5 Z"/></g>
<g><path style="opacity:0.773" fill="#232023" d="M 194.5,213.5 C 192.518,226.792 191.851,240.459 192.5,254.5C 194.167,254.5 195.833,254.5 197.5,254.5C 197.833,257.833 198.167,261.167 198.5,264.5C 202.5,263.833 204.167,265.5 203.5,269.5C 207.857,269.556 209.191,271.556 207.5,275.5C 205.833,275.5 204.167,275.5 202.5,275.5C 202.5,273.833 202.5,272.167 202.5,270.5C 200.833,270.5 199.167,270.5 197.5,270.5C 197.5,267.167 197.5,263.833 197.5,260.5C 195.5,260.5 193.5,260.5 191.5,260.5C 191.815,256.629 191.482,252.962 190.5,249.5C 190.5,246.167 190.5,242.833 190.5,239.5C 189.5,239.5 188.5,239.5 187.5,239.5C 187.001,232.51 186.668,225.51 186.5,218.5C 187.833,218.5 189.167,218.5 190.5,218.5C 191.972,218.728 192.306,215.061 191.5,207.5C 193.167,207.5 194.833,207.5 196.5,207.5C 196.741,209.886 196.075,211.886 194.5,213.5 Z"/></g>
<g><path style="opacity:1" fill="#222021" d="M 213.5,275.5 C 215.167,275.5 216.833,275.5 218.5,275.5C 218.5,277.167 218.5,278.833 218.5,280.5C 214.833,280.5 211.167,280.5 207.5,280.5C 207.5,279.5 207.5,278.5 207.5,277.5C 209.766,277.141 211.599,277.808 213,279.5C 213.49,278.207 213.657,276.873 213.5,275.5 Z"/></g>
<g><path style="opacity:0.163" fill="#282327" d="M 229.5,280.5 C 241.5,280.5 253.5,280.5 265.5,280.5C 265.5,282.167 265.5,283.833 265.5,285.5C 251.5,285.5 237.5,285.5 223.5,285.5C 223.5,284.167 223.5,282.833 223.5,281.5C 225.735,281.795 227.735,281.461 229.5,280.5 Z"/></g>
<g><path style="opacity:0.094" fill="#262225" d="M 273.5,285.5 C 278.542,284.505 280.875,286.505 280.5,291.5C 276.833,291.5 273.167,291.5 269.5,291.5C 269.5,289.833 269.5,288.167 269.5,286.5C 271.099,286.768 272.432,286.434 273.5,285.5 Z"/></g>
<g><path style="opacity:0.055" fill="#222021" d="M 280.5,291.5 C 281.434,292.568 281.768,293.901 281.5,295.5C 283.451,295.227 284.951,295.893 286,297.5C 286.609,304.189 286.443,310.856 285.5,317.5C 284.167,317.5 282.833,317.5 281.5,317.5C 281.5,318.833 281.5,320.167 281.5,321.5C 280.665,311.522 280.332,301.522 280.5,291.5 Z"/></g>
<g><path style="opacity:0.925" fill="#313132" d="M 313.5,296.5 C 314.5,296.5 315.5,296.5 316.5,296.5C 316.5,303.5 316.5,310.5 316.5,317.5C 315.5,317.5 314.5,317.5 313.5,317.5C 313.5,310.5 313.5,303.5 313.5,296.5 Z"/></g>
<g><path style="opacity:0.416" fill="#272428" d="M 280.5,322.5 C 279.432,323.434 278.099,323.768 276.5,323.5C 276.773,325.451 276.107,326.951 274.5,328C 255.48,328.769 236.48,328.602 217.5,327.5C 217.5,326.167 217.5,324.833 217.5,323.5C 214.167,323.167 210.833,322.833 207.5,322.5C 207.5,320.833 207.5,319.167 207.5,317.5C 202.167,317.5 196.833,317.5 191.5,317.5C 191.5,319.167 191.5,320.833 191.5,322.5C 190.167,322.5 188.833,322.5 187.5,322.5C 187.5,325.833 187.5,329.167 187.5,332.5C 185.833,332.5 184.167,332.5 182.5,332.5C 182.5,329.167 182.5,325.833 182.5,322.5C 183.833,322.5 185.167,322.5 186.5,322.5C 186.5,320.5 186.5,318.5 186.5,316.5C 188.527,316.662 190.527,316.495 192.5,316C 191.62,314.644 191.286,313.144 191.5,311.5C 196.833,311.5 202.167,311.5 207.5,311.5C 207.5,313.167 207.5,314.833 207.5,316.5C 209.5,316.5 211.5,316.5 213.5,316.5C 213.5,318.5 213.5,320.5 213.5,322.5C 218.833,322.5 224.167,322.5 229.5,322.5C 229.714,324.144 229.38,325.644 228.5,327C 244.196,327.818 256.529,327.651 265.5,326.5C 265.5,325.167 265.5,323.833 265.5,322.5C 270.5,322.5 275.5,322.5 280.5,322.5 Z"/></g>
<g><path style="opacity:0.541" fill="#1f1a1f" d="M 192.5,338.5 C 195.95,337.756 197.616,339.09 197.5,342.5C 198.5,342.5 199.5,342.5 200.5,342.5C 200.286,344.144 200.62,345.644 201.5,347C 200.437,348.188 199.103,348.688 197.5,348.5C 197.5,346.833 197.5,345.167 197.5,343.5C 195.5,343.5 193.5,343.5 191.5,343.5C 191.366,341.708 191.699,340.042 192.5,338.5 Z"/></g>
<g><path style="opacity:0.416" fill="#292429" d="M 202.5,347.5 C 205.85,347.335 209.183,347.502 212.5,348C 214.635,349.556 214.968,351.389 213.5,353.5C 211.565,354.15 209.565,354.483 207.5,354.5C 207.5,352.833 207.5,351.167 207.5,349.5C 208.552,349.649 209.552,349.483 210.5,349C 207.635,348.817 204.969,348.317 202.5,347.5 Z"/></g>
<g><path style="opacity:0.961" fill="#3b3a3c" d="M 268.5,355.5 C 270.833,355.5 273.167,355.5 275.5,355.5C 275.5,356.5 275.5,357.5 275.5,358.5C 272.482,358.665 269.482,358.498 266.5,358C 267.381,357.292 268.047,356.458 268.5,355.5 Z"/></g>
<g><path style="opacity:0.365" fill="#222024" d="M 218.5,353.5 C 223.511,353.334 228.511,353.501 233.5,354C 234.337,355.011 234.67,356.178 234.5,357.5C 229.26,358.449 223.927,358.782 218.5,358.5C 218.5,357.5 218.5,356.5 218.5,355.5C 222.182,355.665 225.848,355.499 229.5,355C 225.644,354.823 221.977,354.323 218.5,353.5 Z"/></g>
<g><path style="opacity:0.408" fill="#1d171f" d="M 239.5,378.5 C 241.218,379.224 243.052,379.891 245,380.5C 245.579,381.928 245.412,383.262 244.5,384.5C 238.743,386.105 237.076,384.105 239.5,378.5 Z"/></g>
<g><path style="opacity:0.365" fill="#1e1a1f" d="M 263.5,368.5 C 265.082,371.876 265.749,375.542 265.5,379.5C 263.833,379.5 262.167,379.5 260.5,379.5C 260.5,381.5 260.5,383.5 260.5,385.5C 257.956,385.104 255.789,385.771 254,387.5C 250.949,385.981 247.782,384.981 244.5,384.5C 247.85,384.665 251.183,384.498 254.5,384C 253.483,382.951 253.316,381.784 254,380.5C 256.28,379.914 258.447,379.08 260.5,378C 259.96,374.448 260.96,371.282 263.5,368.5 Z"/></g>
<g><path style="opacity:0.365" fill="#3d3a3d" d="M 77.5,410.5 C 77.5,413.833 77.5,417.167 77.5,420.5C 76.3403,419.389 75.007,418.389 73.5,417.5C 73.838,415.345 73.838,413.011 73.5,410.5C 74.8333,410.5 76.1667,410.5 77.5,410.5 Z"/></g>
<g><path style="opacity:0.369" fill="#333133" d="M 421.5,405.5 C 422.833,405.5 424.167,405.5 425.5,405.5C 425.665,408.85 425.498,412.183 425,415.5C 424.385,417.116 423.385,418.449 422,419.5C 421.501,414.845 421.334,410.179 421.5,405.5 Z"/></g>
<g><path style="opacity:0.827" fill="#1e1c1e" d="M 72.5,405.5 C 74.1667,405.5 75.8333,405.5 77.5,405.5C 77.5,407.167 77.5,408.833 77.5,410.5C 76.1667,410.5 74.8333,410.5 73.5,410.5C 73.838,413.011 73.838,415.345 73.5,417.5C 75.007,418.389 76.3403,419.389 77.5,420.5C 79.0418,421.301 80.7085,421.634 82.5,421.5C 82.5,425.167 82.5,428.833 82.5,432.5C 84.5,432.5 86.5,432.5 88.5,432.5C 88.5,435.5 88.5,438.5 88.5,441.5C 86.2166,441.392 84.2166,440.559 82.5,439C 84.1667,438.667 85.8333,438.333 87.5,438C 83.6717,437.837 80.3384,436.503 77.5,434C 78.1667,433.667 78.8333,433.333 79.5,433C 78.009,430.282 76.6756,427.449 75.5,424.5C 76.4908,422.877 75.8241,421.877 73.5,421.5C 72.5052,416.208 72.1718,410.875 72.5,405.5 Z"/></g>
<g><path style="opacity:0.41" fill="#221f22" d="M 416.5,436.5 C 415.048,437.302 413.382,437.802 411.5,438C 413.167,438.333 414.833,438.667 416.5,439C 414.612,440.394 412.612,441.56 410.5,442.5C 410.5,439.167 410.5,435.833 410.5,432.5C 412.167,432.5 413.833,432.5 415.5,432.5C 415.5,433.5 415.5,434.5 415.5,435.5C 411.828,436.045 412.162,436.378 416.5,436.5 Z"/></g>
<g><path style="opacity:0.941" fill="#222222" d="M 88.5,441.5 C 91.9355,442.368 95.2688,442.368 98.5,441.5C 98.5,443.167 98.5,444.833 98.5,446.5C 96.549,446.773 95.049,446.107 94,444.5C 93.5172,445.448 93.3505,446.448 93.5,447.5C 92.5489,446.081 92.2155,444.415 92.5,442.5C 90.901,442.768 89.5676,442.434 88.5,441.5 Z"/></g>
<g><path style="opacity:0.949" fill="#232022" d="M 409.5,442.5 C 408.5,442.5 407.5,442.5 406.5,442.5C 406.5,444.5 406.5,446.5 406.5,448.5C 404.833,448.5 403.167,448.5 401.5,448.5C 401.773,450.451 401.107,451.951 399.5,453C 396.518,453.498 393.518,453.665 390.5,453.5C 390.5,454.833 390.5,456.167 390.5,457.5C 388.5,457.5 386.5,457.5 384.5,457.5C 382.585,457.784 380.919,457.451 379.5,456.5C 383.048,456.905 386.381,456.405 389.5,455C 388.619,454.292 387.953,453.458 387.5,452.5C 389.833,452.5 392.167,452.5 394.5,452.5C 394.5,450.833 394.5,449.167 394.5,447.5C 403.152,447.333 405.152,447 400.5,446.5C 400.5,444.833 400.5,443.167 400.5,441.5C 403.713,441.19 406.713,441.523 409.5,442.5 Z"/></g>
<g><path style="opacity:0.01" fill="#150a13" d="M 88.5,444.5 C 89.209,443.596 90.209,443.263 91.5,443.5C 91.6567,444.873 91.49,446.207 91,447.5C 90.7645,445.881 89.9311,444.881 88.5,444.5 Z"/></g>
<g><path style="opacity:0.02" fill="#1e1b1e" d="M 407.5,443.5 C 408.675,443.281 409.675,443.614 410.5,444.5C 408.135,448.755 407.135,448.421 407.5,443.5 Z"/></g>
<g><path style="opacity:0.547" fill="#333033" d="M 93.5,447.5 C 97.1667,447.5 100.833,447.5 104.5,447.5C 104.714,449.144 104.38,450.644 103.5,452C 110.492,452.5 117.492,452.666 124.5,452.5C 124.5,453.833 124.5,455.167 124.5,456.5C 120.629,456.185 116.962,456.518 113.5,457.5C 111.833,457.5 110.167,457.5 108.5,457.5C 108.543,453.107 108.043,452.774 107,456.5C 104.599,454.364 101.765,453.197 98.5,453C 97.6198,451.644 97.2865,450.144 97.5,448.5C 95.901,448.768 94.5676,448.434 93.5,447.5 Z"/></g>
<g><path style="opacity:0.004" fill="#111111" d="M 93.5,450.5 C 94.2506,449.427 95.2506,449.26 96.5,450C 95.552,450.483 94.552,450.649 93.5,450.5 Z"/></g>
<g><path style="opacity:0.004" fill="#000000" d="M 402.5,449.5 C 403.833,450.167 403.833,450.167 402.5,449.5 Z"/></g>
<g><path style="opacity:0.973" fill="#444143" d="M 387.5,452.5 C 387.953,453.458 388.619,454.292 389.5,455C 386.381,456.405 383.048,456.905 379.5,456.5C 377.833,456.5 376.167,456.5 374.5,456.5C 374.5,455.167 374.5,453.833 374.5,452.5C 378.833,452.5 383.167,452.5 387.5,452.5 Z"/></g>
<g><path style="opacity:0.01" fill="#0e0e0e" d="M 391.5,454.5 C 395.243,454.459 395.41,455.126 392,456.5C 391.536,455.906 391.369,455.239 391.5,454.5 Z"/></g>
</svg>
