<svg xmlns="http://www.w3.org/2000/svg" version="1.1" width="512px" height="512px" style="shape-rendering:geometricPrecision; text-rendering:geometricPrecision; image-rendering:optimizeQuality; fill-rule:evenodd; clip-rule:evenodd" xmlns:xlink="http://www.w3.org/1999/xlink">
<g><path style="opacity:0.927" fill="#000000" d="M 426.5,9.5 C 444.88,9.06745 463.214,9.56745 481.5,11C 492.391,15.2211 498.891,23.0545 501,34.5C 501.667,69.1667 501.667,103.833 501,138.5C 498.167,152 490,160.167 476.5,163C 459.833,163.667 443.167,163.667 426.5,163C 412.911,160.245 404.911,152.078 402.5,138.5C 368.538,144.457 335.205,141.957 302.5,131C 286.713,123.94 271.046,116.607 255.5,109C 246.195,102.222 241.862,93.0549 242.5,81.5C 217.99,83.3774 194.324,88.8774 171.5,98C 151.613,100.4 140.28,91.7335 137.5,72C 138.282,63.7701 141.949,57.1035 148.5,52C 184.628,29.2774 223.961,15.6108 266.5,11C 309.749,7.64963 350.416,16.3163 388.5,37C 392.291,38.018 396.125,38.8513 400,39.5C 400.945,39.0946 401.612,38.428 402,37.5C 403.018,21.74 411.185,12.4066 426.5,9.5 Z M 272.5,26.5 C 312.06,24.8434 349.06,33.6768 383.5,53C 389.369,54.8074 395.369,55.6407 401.5,55.5C 401.827,77.7419 401.494,99.9086 400.5,122C 367.745,128.435 335.745,125.768 304.5,114C 291.167,107.667 277.833,101.333 264.5,95C 257.626,88.1718 256.792,80.6718 262,72.5C 267.28,68.2449 273.114,67.4115 279.5,70C 288.167,74 296.833,78 305.5,82C 316.125,82.362 319.125,77.6954 314.5,68C 303.619,62.726 292.619,57.726 281.5,53C 267.886,49.6491 256.553,53.3158 247.5,64C 219.956,66.175 193.29,72.175 167.5,82C 160.241,82.9148 155.908,79.7482 154.5,72.5C 154.556,69.8887 155.556,67.722 157.5,66C 192.888,43.9271 231.222,30.7605 272.5,26.5 Z M 425.5,26.5 C 442.503,26.3334 459.503,26.5001 476.5,27C 480.333,28.1667 482.833,30.6667 484,34.5C 484.667,69.1667 484.667,103.833 484,138.5C 482.895,141.937 480.728,144.437 477.5,146C 462.213,147.584 446.879,147.918 431.5,147C 425.49,146.754 421.323,143.92 419,138.5C 418.333,103.833 418.333,69.1667 419,34.5C 420.305,31.0386 422.471,28.372 425.5,26.5 Z M 450.5,48.5 C 457.304,49.5928 458.637,52.7595 454.5,58C 448.498,58.9931 446.332,56.4931 448,50.5C 448.995,49.9341 449.828,49.2674 450.5,48.5 Z"/></g>
<g><path style="opacity:0.925" fill="#000000" d="M 446.5,32.5 C 459.671,30.8293 468.505,36.1626 473,48.5C 473.906,68.5933 464.406,77.0933 444.5,74C 431.62,67.3445 427.786,57.1778 433,43.5C 436.213,38.1075 440.713,34.4408 446.5,32.5 Z M 450.5,48.5 C 449.828,49.2674 448.995,49.9341 448,50.5C 446.332,56.4931 448.498,58.9931 454.5,58C 458.637,52.7595 457.304,49.5928 450.5,48.5 Z"/></g>
<g><path style="opacity:0.935" fill="#000000" d="M 177.5,131.5 C 185.702,129.429 191.035,132.262 193.5,140C 193.248,143.355 191.581,145.688 188.5,147C 156.391,148.787 136.891,165.287 130,196.5C 129.333,225.833 129.333,255.167 130,284.5C 134,279.167 138,273.833 142,268.5C 149.038,261.208 154.538,262.208 158.5,271.5C 158.007,274.485 156.84,277.152 155,279.5C 145.167,292 135.333,304.5 125.5,317C 121.756,317.929 118.256,317.429 115,315.5C 104.614,302.114 94.6136,288.447 85,274.5C 83.5501,269.232 85.3835,265.732 90.5,264C 92.9712,263.294 95.3046,263.627 97.5,265C 102.667,271.5 107.833,278 113,284.5C 113.333,253.833 113.667,223.167 114,192.5C 121.349,157.649 142.515,137.316 177.5,131.5 Z"/></g>
<g><path style="opacity:0.93" fill="#000000" d="M 242.5,167.5 C 251.173,167.334 259.84,167.5 268.5,168C 273.909,167.945 277.409,170.445 279,175.5C 279.303,179.894 279.97,184.227 281,188.5C 282.085,189.293 283.252,189.96 284.5,190.5C 288.309,187.858 291.976,185.025 295.5,182C 300.795,179.872 305.462,180.872 309.5,185C 318.167,191.327 325,199.16 330,208.5C 330.484,210.913 330.15,213.246 329,215.5C 326.097,218.732 323.597,222.232 321.5,226C 321.862,227.225 322.362,228.391 323,229.5C 328.164,230.141 333.331,230.975 338.5,232C 339.667,233.167 340.833,234.333 342,235.5C 345.615,248.637 345.282,261.637 341,274.5C 339.681,276.487 337.848,277.654 335.5,278C 319.87,277.743 317.37,282.91 328,293.5C 328.601,295.137 329.101,296.803 329.5,298.5C 323.839,311.996 314.506,322.162 301.5,329C 300.167,329.667 298.833,329.667 297.5,329C 293.068,326.035 288.568,323.202 284,320.5C 282.775,320.862 281.609,321.362 280.5,322C 279.044,327.066 277.878,332.232 277,337.5C 273.557,340.874 269.39,342.707 264.5,343C 254.781,343.859 245.115,343.526 235.5,342C 233.19,340.363 231.69,338.196 231,335.5C 230.579,331.128 229.912,326.795 229,322.5C 227.915,321.707 226.748,321.04 225.5,320.5C 221.006,323.914 216.34,327.081 211.5,330C 207.772,330.425 204.438,329.425 201.5,327C 192.171,320.011 184.671,311.511 179,301.5C 178.516,299.087 178.85,296.754 180,294.5C 183.071,291.352 185.904,288.019 188.5,284.5C 188,283.5 187.5,282.5 187,281.5C 181.934,280.044 176.768,278.878 171.5,278C 170.333,276.833 169.167,275.667 168,274.5C 166.12,261.821 166.12,249.154 168,236.5C 169.637,234.19 171.804,232.69 174.5,232C 191.104,232.313 193.27,227.146 181,216.5C 179,213.167 179,209.833 181,206.5C 188.557,195.101 198.391,186.434 210.5,180.5C 212.197,180.899 213.863,181.399 215.5,182C 218.319,184.575 221.319,186.908 224.5,189C 226.289,189.52 227.956,189.187 229.5,188C 230.956,182.934 232.122,177.768 233,172.5C 235.64,169.599 238.807,167.932 242.5,167.5 Z M 247.5,183.5 C 252.833,183.5 258.167,183.5 263.5,183.5C 263.764,188.617 264.597,193.617 266,198.5C 272.581,204.046 280.081,207.213 288.5,208C 292.447,205.72 296.113,203.053 299.5,200C 304.133,202.446 308.133,205.946 311.5,210.5C 307.45,214.709 304.45,219.543 302.5,225C 305.394,230.627 307.894,236.46 310,242.5C 311.214,244.049 312.714,245.215 314.5,246C 318.821,246.499 323.154,246.666 327.5,246.5C 328.833,251.833 328.833,257.167 327.5,262.5C 323.165,262.917 318.832,263.417 314.5,264C 312.714,264.785 311.214,265.951 310,267.5C 307.078,273.509 304.578,279.675 302.5,286C 302.909,288.321 303.743,290.487 305,292.5C 307.316,294.47 309.149,296.804 310.5,299.5C 307.133,304.054 303.133,307.554 298.5,310C 295.167,307.333 291.833,304.667 288.5,302C 286.5,301.333 284.5,301.333 282.5,302C 277.882,305.142 272.882,307.476 267.5,309C 266.667,309.833 265.833,310.667 265,311.5C 263.915,316.503 262.748,321.503 261.5,326.5C 256.565,327.448 251.565,327.781 246.5,327.5C 246.083,323.165 245.583,318.832 245,314.5C 244.215,312.714 243.049,311.214 241.5,310C 235.945,306.804 230.111,304.304 224,302.5C 218.563,304.418 213.73,307.418 209.5,311.5C 204.689,308.523 200.689,304.689 197.5,300C 201.742,296.099 204.742,291.433 206.5,286C 204.814,280.792 202.981,275.625 201,270.5C 199.833,268 198,266.167 195.5,265C 191.49,264.499 187.49,263.999 183.5,263.5C 182.725,258.203 182.392,252.87 182.5,247.5C 186.835,247.083 191.168,246.583 195.5,246C 197.286,245.215 198.786,244.049 200,242.5C 203.088,236.899 205.588,231.066 207.5,225C 205.742,219.567 202.742,214.901 198.5,211C 202.167,207.333 205.833,203.667 209.5,200C 210.167,199.333 210.833,199.333 211.5,200C 215.583,205.375 220.917,208.042 227.5,208C 232.118,204.858 237.118,202.524 242.5,201C 243.333,200.167 244.167,199.333 245,198.5C 246.403,193.617 247.236,188.617 247.5,183.5 Z M 254.5,233.5 C 273.729,236.908 280.229,247.908 274,266.5C 266.271,276.758 256.438,279.258 244.5,274C 235.853,268.072 232.686,259.905 235,249.5C 238.359,240.249 244.859,234.916 254.5,233.5 Z"/></g>
<g><path style="opacity:0.935" fill="#000000" d="M 385.5,191.5 C 389.257,191.071 392.757,191.737 396,193.5C 406.386,206.886 416.386,220.553 426,234.5C 427.45,239.768 425.617,243.268 420.5,245C 418.087,245.484 415.754,245.15 413.5,244C 408.333,237.5 403.167,231 398,224.5C 397.667,255.167 397.333,285.833 397,316.5C 391.115,346.443 373.615,365.943 344.5,375C 337.602,376.891 330.602,377.557 323.5,377C 316.978,372.623 316.311,367.623 321.5,362C 353.915,360.404 373.748,343.904 381,312.5C 381.667,283.167 381.667,253.833 381,224.5C 377,229.833 373,235.167 369,240.5C 361.962,247.792 356.462,246.792 352.5,237.5C 352.993,234.515 354.16,231.848 356,229.5C 366.048,216.958 375.882,204.291 385.5,191.5 Z"/></g>
<g><path style="opacity:0.927" fill="#000000" d="M 250.5,217.5 C 276.121,217.457 290.454,230.123 293.5,255.5C 289.732,283.769 273.732,295.935 245.5,292C 223.603,284.047 214.77,268.547 219,245.5C 224.076,229.916 234.576,220.583 250.5,217.5 Z M 254.5,233.5 C 244.859,234.916 238.359,240.249 235,249.5C 232.686,259.905 235.853,268.072 244.5,274C 256.438,279.258 266.271,276.758 274,266.5C 280.229,247.908 273.729,236.908 254.5,233.5 Z"/></g>
<g><path style="opacity:0.925" fill="#000000" d="M 33.5,348.5 C 51.8804,348.067 70.2137,348.567 88.5,350C 99.028,354.023 105.361,361.523 107.5,372.5C 141.801,366.525 175.468,369.025 208.5,380C 224.287,387.06 239.954,394.393 255.5,402C 264.805,408.778 269.138,417.945 268.5,429.5C 293.01,427.623 316.676,422.123 339.5,413C 363.021,411.188 373.854,422.021 372,445.5C 370.419,451.086 367.252,455.586 362.5,459C 326.005,481.832 286.338,495.498 243.5,500C 199.795,503.259 158.795,494.259 120.5,473C 116.509,472.358 112.509,471.858 108.5,471.5C 108.842,488.316 100.842,498.483 84.5,502C 65.7893,502.934 47.1226,502.6 28.5,501C 17.6095,496.779 11.1095,488.946 9,477.5C 8.33333,442.833 8.33333,408.167 9,373.5C 12.0143,359.987 20.181,351.653 33.5,348.5 Z M 32.5,365.5 C 49.5033,365.333 66.5033,365.5 83.5,366C 87.2189,367.263 89.7189,369.763 91,373.5C 91.6667,408.5 91.6667,443.5 91,478.5C 89.5,481.333 87.3333,483.5 84.5,485C 67.5,485.667 50.5,485.667 33.5,485C 29.6667,483.833 27.1667,481.333 26,477.5C 25.3333,442.833 25.3333,408.167 26,373.5C 27.3046,370.039 29.4713,367.372 32.5,365.5 Z M 129.5,385.5 C 151.911,384.453 173.911,386.953 195.5,393C 212.856,399.844 229.856,407.511 246.5,416C 253.599,423.12 254.265,430.786 248.5,439C 243.258,442.805 237.591,443.472 231.5,441C 222.833,437 214.167,433 205.5,429C 194.875,428.638 191.875,433.305 196.5,443C 207.381,448.274 218.381,453.274 229.5,458C 243.114,461.351 254.447,457.684 263.5,447C 278.523,444.854 293.523,442.52 308.5,440C 321.334,436.666 334,432.833 346.5,428.5C 356.197,431.049 358.531,436.549 353.5,445C 318.305,467.176 279.972,480.176 238.5,484C 198.929,486.154 161.929,477.487 127.5,458C 121.303,456.114 114.97,455.28 108.5,455.5C 108.167,433.49 108.5,411.49 109.5,389.5C 116.219,387.756 122.886,386.423 129.5,385.5 Z M 56.5,452.5 C 62.9889,452.156 64.9889,454.99 62.5,461C 58.2579,463.217 55.2579,462.05 53.5,457.5C 54.2599,455.64 55.2599,453.973 56.5,452.5 Z"/></g>
<g><path style="opacity:0.926" fill="#000000" d="M 56.5,435.5 C 73.282,436.114 81.1153,444.781 80,461.5C 73.7726,477.915 62.6059,482.415 46.5,475C 34.8637,463.643 34.5303,451.976 45.5,440C 49.0531,437.879 52.7197,436.379 56.5,435.5 Z M 56.5,452.5 C 55.2599,453.973 54.2599,455.64 53.5,457.5C 55.2579,462.05 58.2579,463.217 62.5,461C 64.9889,454.99 62.9889,452.156 56.5,452.5 Z"/></g>
</svg>
