<svg xmlns="http://www.w3.org/2000/svg" version="1.1" width="512px" height="512px" style="shape-rendering:geometricPrecision; text-rendering:geometricPrecision; image-rendering:optimizeQuality; fill-rule:evenodd; clip-rule:evenodd" xmlns:xlink="http://www.w3.org/1999/xlink">
<g><path style="opacity:0.946" fill="#000000" d="M 511.5,267.5 C 511.5,326.167 511.5,384.833 511.5,443.5C 510.317,444.504 508.984,445.338 507.5,446C 487.158,446.167 466.825,446.667 446.5,447.5C 439.912,481.255 419.579,500.422 385.5,505C 280.5,505.667 175.5,505.667 70.5,505C 65.0945,503.02 63.2611,499.186 65,493.5C 66.1667,492.333 67.3333,491.167 68.5,490C 173.833,489.667 279.167,489.333 384.5,489C 409.452,485.218 424.452,471.051 429.5,446.5C 409.497,446.667 389.497,446.5 369.5,446C 368.584,445.626 367.75,445.126 367,444.5C 365.518,417.589 365.018,390.589 365.5,363.5C 353.167,363.5 340.833,363.5 328.5,363.5C 328.982,390.589 328.482,417.589 327,444.5C 326.25,445.126 325.416,445.626 324.5,446C 305.833,446.667 287.167,446.667 268.5,446C 262.423,439.45 263.423,434.45 271.5,431C 285.163,430.5 298.829,430.333 312.5,430.5C 312.5,380.167 312.5,329.833 312.5,279.5C 274.5,279.5 236.5,279.5 198.5,279.5C 198.5,329.833 198.5,380.167 198.5,430.5C 212.171,430.333 225.837,430.5 239.5,431C 245.467,432.643 247.634,436.476 246,442.5C 244.833,443.667 243.667,444.833 242.5,446C 223.833,446.667 205.167,446.667 186.5,446C 185.584,445.626 184.75,445.126 184,444.5C 182.518,417.589 182.018,390.589 182.5,363.5C 170.167,363.5 157.833,363.5 145.5,363.5C 145.667,389.835 145.5,416.169 145,442.5C 144.626,443.416 144.126,444.25 143.5,445C 96.9167,446.656 50.2501,446.99 3.5,446C 2.01608,445.338 0.682751,444.504 -0.5,443.5C -0.5,384.833 -0.5,326.167 -0.5,267.5C 0.626561,266.878 1.62656,266.045 2.5,265C 23.1747,264.833 43.8414,264.333 64.5,263.5C 69.9652,233.202 87.6318,214.369 117.5,207C 223.811,205.684 330.144,205.017 436.5,205C 455.387,201.113 468.554,190.279 476,172.5C 483.109,147.827 476.276,127.993 455.5,113C 443.688,106.338 431.022,103.838 417.5,105.5C 417.982,132.256 417.482,158.922 416,185.5C 415.097,186.701 413.931,187.535 412.5,188C 394.167,188.667 375.833,188.667 357.5,188C 355.667,187.5 354.5,186.333 354,184.5C 352.276,179.269 353.776,175.435 358.5,173C 372.829,172.5 387.163,172.333 401.5,172.5C 401.5,122.167 401.5,71.8333 401.5,21.5C 363.167,21.5 324.833,21.5 286.5,21.5C 286.5,71.8333 286.5,122.167 286.5,172.5C 300.837,172.333 315.171,172.5 329.5,173C 335.152,176.441 336.318,180.941 333,186.5C 332.25,187.126 331.416,187.626 330.5,188C 312.167,188.667 293.833,188.667 275.5,188C 274.069,187.535 272.903,186.701 272,185.5C 270.518,158.922 270.018,132.256 270.5,105.5C 258.5,105.5 246.5,105.5 234.5,105.5C 234.973,132.231 234.473,158.898 233,185.5C 232.097,186.701 230.931,187.535 229.5,188C 211.167,188.667 192.833,188.667 174.5,188C 167.582,182.63 167.916,177.63 175.5,173C 189.829,172.5 204.163,172.333 218.5,172.5C 218.5,122.167 218.5,71.8333 218.5,21.5C 180.167,21.5 141.833,21.5 103.5,21.5C 103.5,71.8333 103.5,122.167 103.5,172.5C 117.837,172.333 132.171,172.5 146.5,173C 151.224,175.435 152.724,179.269 151,184.5C 150.5,186.333 149.333,187.5 147.5,188C 128.833,188.667 110.167,188.667 91.5,188C 90.6667,187.167 89.8333,186.333 89,185.5C 87.5178,158.922 87.0178,132.256 87.5,105.5C 49.9792,107.842 24.8125,91.5089 12,56.5C 11.0033,51.1934 10.17,45.86 9.5,40.5C 10.5922,31.5903 15.2589,29.0903 23.5,33C 27.5094,71.5117 48.8427,90.345 87.5,89.5C 87.0176,62.4112 87.5176,35.4112 89,8.5C 90.4194,7.53986 91.9194,6.70653 93.5,6C 138.5,5.33333 183.5,5.33333 228.5,6C 230.286,6.78451 231.786,7.95118 233,9.5C 234.482,36.0777 234.982,62.7444 234.5,89.5C 246.5,89.5 258.5,89.5 270.5,89.5C 270.333,63.4979 270.5,37.4979 271,11.5C 271.833,8.66667 273.667,6.83333 276.5,6C 321.5,5.33333 366.5,5.33333 411.5,6C 414.333,6.83333 416.167,8.66667 417,11.5C 417.5,37.4979 417.667,63.4979 417.5,89.5C 452.248,86.7766 476.748,101.11 491,132.5C 500.957,167.303 490.791,194.47 460.5,214C 453.484,217.339 446.15,219.672 438.5,221C 334.167,221.333 229.833,221.667 125.5,222C 100.965,226.077 86.298,240.244 81.5,264.5C 101.503,264.333 121.503,264.5 141.5,265C 142.416,265.374 143.25,265.874 144,266.5C 145.482,293.411 145.982,320.411 145.5,347.5C 157.833,347.5 170.167,347.5 182.5,347.5C 182.018,320.411 182.518,293.411 184,266.5C 184.75,265.874 185.584,265.374 186.5,265C 232.5,264.333 278.5,264.333 324.5,265C 325.416,265.374 326.25,265.874 327,266.5C 328.482,293.411 328.982,320.411 328.5,347.5C 340.833,347.5 353.167,347.5 365.5,347.5C 365.333,321.165 365.5,294.831 366,268.5C 366.374,267.584 366.874,266.75 367.5,266C 414.417,264.344 461.417,264.01 508.5,265C 509.373,266.045 510.373,266.878 511.5,267.5 Z M 315.5,107.5 C 334.5,107.5 353.5,107.5 372.5,107.5C 372.5,119.5 372.5,131.5 372.5,143.5C 353.5,143.5 334.5,143.5 315.5,143.5C 315.5,131.5 315.5,119.5 315.5,107.5 Z M 14.5,279.5 C 52.8333,279.5 91.1667,279.5 129.5,279.5C 129.5,329.833 129.5,380.167 129.5,430.5C 91.1667,430.5 52.8333,430.5 14.5,430.5C 14.5,380.167 14.5,329.833 14.5,279.5 Z M 381.5,279.5 C 419.833,279.5 458.167,279.5 496.5,279.5C 496.5,329.833 496.5,380.167 496.5,430.5C 458.167,430.5 419.833,430.5 381.5,430.5C 381.5,380.167 381.5,329.833 381.5,279.5 Z M 51.5,310.5 C 65.0058,309.174 78.6724,309.174 92.5,310.5C 85.9138,320.673 79.0805,330.673 72,340.5C 65.391,330.261 58.5577,320.261 51.5,310.5 Z M 227.5,310.5 C 246.167,310.5 264.833,310.5 283.5,310.5C 283.5,317.833 283.5,325.167 283.5,332.5C 264.833,332.5 246.167,332.5 227.5,332.5C 227.5,325.167 227.5,317.833 227.5,310.5 Z M 99.5,328.5 C 100.662,346.329 100.829,364.329 100,382.5C 94.1667,373.5 88.3333,364.5 82.5,355.5C 88.4384,346.612 94.105,337.612 99.5,328.5 Z M 44.5,329.5 C 50.832,337.85 56.832,346.517 62.5,355.5C 56.8625,364.303 51.0292,372.97 45,381.5C 44.5001,364.17 44.3334,346.837 44.5,329.5 Z M 71.5,370.5 C 78.9702,380.084 85.9702,390.084 92.5,400.5C 78.8455,401.666 65.1788,401.833 51.5,401C 58.5605,391.033 65.2271,380.866 71.5,370.5 Z M 227.5,377.5 C 246.167,377.5 264.833,377.5 283.5,377.5C 283.5,384.833 283.5,392.167 283.5,399.5C 264.833,399.5 246.167,399.5 227.5,399.5C 227.5,392.167 227.5,384.833 227.5,377.5 Z"/></g>
<g><path style="opacity:0.925" fill="#000000" d="M 306.5,34.5 C 331.502,34.3334 356.502,34.5 381.5,35C 389.421,38.6048 390.421,43.6048 384.5,50C 357.5,50.6667 330.5,50.6667 303.5,50C 297.602,43.4312 298.602,38.2645 306.5,34.5 Z"/></g>
<g><path style="opacity:0.925" fill="#000000" d="M 303.5,64.5 C 330.502,64.3334 357.502,64.5 384.5,65C 390.631,72.017 389.297,77.017 380.5,80C 356.167,80.6667 331.833,80.6667 307.5,80C 298.633,76.8401 297.3,71.6735 303.5,64.5 Z"/></g>
<g><path style="opacity:0.911" fill="#000000" d="M 188.5,68.5 C 199.389,68.0329 202.556,72.6995 198,82.5C 184.167,96.3333 170.333,110.167 156.5,124C 153.033,126.786 149.366,127.12 145.5,125C 138,117.5 130.5,110 123,102.5C 119.988,92.8462 123.488,88.6795 133.5,90C 138.833,95.3333 144.167,100.667 149.5,106C 150.167,106.667 150.833,106.667 151.5,106C 164.035,93.6318 176.369,81.1318 188.5,68.5 Z"/></g>
<g><path style="opacity:0.951" fill="#000000" d="M 303.5,92.5 C 330.502,92.3334 357.502,92.5 384.5,93C 386.049,94.214 387.215,95.714 388,97.5C 388.963,117.232 388.63,136.898 387,156.5C 386.097,157.701 384.931,158.535 383.5,159C 356.413,159.982 329.413,159.649 302.5,158C 301.107,156.829 300.273,155.329 300,153.5C 299.333,134.833 299.333,116.167 300,97.5C 300.997,95.6769 302.164,94.0103 303.5,92.5 Z M 315.5,107.5 C 315.5,119.5 315.5,131.5 315.5,143.5C 334.5,143.5 353.5,143.5 372.5,143.5C 372.5,131.5 372.5,119.5 372.5,107.5C 353.5,107.5 334.5,107.5 315.5,107.5 Z"/></g>
<g><path style="opacity:0.945" fill="#000000" d="M 32.5,293.5 C 59.1687,293.333 85.8354,293.5 112.5,294C 113.667,295.167 114.833,296.333 116,297.5C 116.667,336.167 116.667,374.833 116,413.5C 114.833,414.667 113.667,415.833 112.5,417C 85.8333,417.667 59.1667,417.667 32.5,417C 31.5838,416.626 30.7504,416.126 30,415.5C 28.3456,376.251 28.0122,336.918 29,297.5C 29.6897,295.65 30.8564,294.316 32.5,293.5 Z M 51.5,310.5 C 58.5577,320.261 65.391,330.261 72,340.5C 79.0805,330.673 85.9138,320.673 92.5,310.5C 78.6724,309.174 65.0058,309.174 51.5,310.5 Z M 99.5,328.5 C 94.105,337.612 88.4384,346.612 82.5,355.5C 88.3333,364.5 94.1667,373.5 100,382.5C 100.829,364.329 100.662,346.329 99.5,328.5 Z M 44.5,329.5 C 44.3334,346.837 44.5001,364.17 45,381.5C 51.0292,372.97 56.8625,364.303 62.5,355.5C 56.832,346.517 50.832,337.85 44.5,329.5 Z M 71.5,370.5 C 65.2271,380.866 58.5605,391.033 51.5,401C 65.1788,401.833 78.8455,401.666 92.5,400.5C 85.9702,390.084 78.9702,380.084 71.5,370.5 Z"/></g>
<g><path style="opacity:0.959" fill="#000000" d="M 215.5,295.5 C 242.922,295.017 270.255,295.517 297.5,297C 298.126,297.75 298.626,298.584 299,299.5C 299.167,307 299.333,314.5 299.5,322C 299.637,330.265 299.137,338.432 298,346.5C 297.25,347.126 296.416,347.626 295.5,348C 282.167,348.167 268.833,348.333 255.5,348.5C 241.41,348.65 227.41,348.15 213.5,347C 212.874,346.25 212.374,345.416 212,344.5C 211.333,329.5 211.333,314.5 212,299.5C 212.69,297.65 213.856,296.316 215.5,295.5 Z M 227.5,310.5 C 227.5,317.833 227.5,325.167 227.5,332.5C 246.167,332.5 264.833,332.5 283.5,332.5C 283.5,325.167 283.5,317.833 283.5,310.5C 264.833,310.5 246.167,310.5 227.5,310.5 Z"/></g>
<g><path style="opacity:0.926" fill="#000000" d="M 397.5,303.5 C 425.169,303.333 452.835,303.5 480.5,304C 487.864,308.692 488.197,313.692 481.5,319C 452.833,319.667 424.167,319.667 395.5,319C 392.634,317.607 391.301,315.274 391.5,312C 391.451,307.572 393.451,304.738 397.5,303.5 Z"/></g>
<g><path style="opacity:0.927" fill="#000000" d="M 398.5,332.5 C 425.169,332.333 451.835,332.5 478.5,333C 483.144,333.644 485.81,336.31 486.5,341C 486.097,343.887 484.764,346.221 482.5,348C 453.5,348.667 424.5,348.667 395.5,348C 391.788,345.487 390.622,341.987 392,337.5C 393.272,334.508 395.438,332.841 398.5,332.5 Z"/></g>
<g><path style="opacity:0.958" fill="#000000" d="M 215.5,362.5 C 242.922,362.017 270.255,362.517 297.5,364C 298.126,364.75 298.626,365.584 299,366.5C 299.167,374 299.333,381.5 299.5,389C 299.637,397.265 299.137,405.432 298,413.5C 297.25,414.126 296.416,414.626 295.5,415C 282.167,415.167 268.833,415.333 255.5,415.5C 241.41,415.65 227.41,415.15 213.5,414C 212.874,413.25 212.374,412.416 212,411.5C 211.333,396.5 211.333,381.5 212,366.5C 212.69,364.65 213.856,363.316 215.5,362.5 Z M 227.5,377.5 C 227.5,384.833 227.5,392.167 227.5,399.5C 246.167,399.5 264.833,399.5 283.5,399.5C 283.5,392.167 283.5,384.833 283.5,377.5C 264.833,377.5 246.167,377.5 227.5,377.5 Z"/></g>
<g><path style="opacity:0.978" fill="#000000" d="M 395.5,362.5 C 424.502,362.333 453.502,362.5 482.5,363C 487.833,367.667 487.833,372.333 482.5,377C 453.5,377.667 424.5,377.667 395.5,377C 392.634,375.607 391.301,373.274 391.5,370C 391.43,366.634 392.763,364.134 395.5,362.5 Z"/></g>
<g><path style="opacity:0.92" fill="#000000" d="M 395.5,391.5 C 413.836,391.333 432.17,391.5 450.5,392C 454.212,394.602 455.378,398.102 454,402.5C 452.891,404.815 451.057,406.315 448.5,407C 431.5,407.667 414.5,407.667 397.5,407C 393.334,406.015 391.334,403.348 391.5,399C 391.43,395.634 392.763,393.134 395.5,391.5 Z"/></g>
</svg>
