<svg xmlns="http://www.w3.org/2000/svg" version="1.1" width="512px" height="512px" style="shape-rendering:geometricPrecision; text-rendering:geometricPrecision; image-rendering:optimizeQuality; fill-rule:evenodd; clip-rule:evenodd" xmlns:xlink="http://www.w3.org/1999/xlink">
<g><path style="opacity:0.965" fill="#000000" d="M 511.5,49.5 C 511.5,55.8333 511.5,62.1667 511.5,68.5C 502.539,96.2513 483.539,107.751 454.5,103C 439.78,98.481 429.447,89.1477 423.5,75C 406.837,74.5001 390.17,74.3334 373.5,74.5C 373.178,86.747 373.512,98.9136 374.5,111C 394.875,119.125 415.541,126.458 436.5,133C 439.433,135.264 441.6,138.098 443,141.5C 445.206,168.253 444.372,194.92 440.5,221.5C 459.836,221.333 479.17,221.5 498.5,222C 504.714,222.758 509.047,225.924 511.5,231.5C 511.5,235.167 511.5,238.833 511.5,242.5C 509.378,246.785 506.045,249.952 501.5,252C 478.836,252.5 456.169,252.667 433.5,252.5C 430.643,266.068 426.977,279.401 422.5,292.5C 437.891,292.065 453.225,292.565 468.5,294C 477.773,299.69 479.94,307.523 475,317.5C 473.062,320.106 470.562,321.939 467.5,323C 448.158,323.167 428.825,323.667 409.5,324.5C 396.751,351.705 381.418,377.205 363.5,401C 383.831,401.5 404.164,401.667 424.5,401.5C 429.314,387.854 438.647,378.687 452.5,374C 481.994,368.076 501.661,379.242 511.5,407.5C 511.5,414.167 511.5,420.833 511.5,427.5C 501.932,455.183 482.599,466.349 453.5,461C 438.992,456.492 428.992,447.159 423.5,433C 394.5,432.333 365.5,432.333 336.5,433C 314.269,455.911 290.269,476.577 264.5,495C 258.5,498.333 252.5,498.333 246.5,495C 220.731,476.577 196.731,455.911 174.5,433C 145.5,432.333 116.5,432.333 87.5,433C 75.0622,459.047 54.8955,467.88 27,459.5C 12.5703,453.245 3.40361,442.578 -0.5,427.5C -0.5,420.833 -0.5,414.167 -0.5,407.5C 9.33932,379.242 29.006,368.076 58.5,374C 72.0165,378.849 81.6831,387.849 87.5,401C 107.5,401.667 127.5,401.667 147.5,401C 129.349,377.145 114.016,351.478 101.5,324C 82.1667,323.667 62.8333,323.333 43.5,323C 35.1294,319.091 31.9627,312.591 34,303.5C 35.1045,298.794 37.9378,295.627 42.5,294C 57.7754,292.565 73.1087,292.065 88.5,292.5C 84.0233,279.401 80.3566,266.068 77.5,252.5C 54.8309,252.667 32.1642,252.5 9.5,252C 4.9552,249.952 1.62186,246.785 -0.5,242.5C -0.5,238.833 -0.5,235.167 -0.5,231.5C 1.95285,225.924 6.28619,222.758 12.5,222C 31.8305,221.5 51.1638,221.333 70.5,221.5C 66.6277,194.921 65.7944,168.254 68,141.5C 69.3999,138.098 71.5665,135.264 74.5,133C 95.4696,126.455 116.136,119.122 136.5,111C 137.488,98.9136 137.822,86.747 137.5,74.5C 120.83,74.3334 104.163,74.5001 87.5,75C 76.3709,98.3981 58.0376,107.731 32.5,103C 15.281,97.3572 4.28096,85.8572 -0.5,68.5C -0.5,62.1667 -0.5,55.8333 -0.5,49.5C 8.46061,21.7487 27.4606,10.2487 56.5,15C 70.9262,19.7575 81.2595,29.0909 87.5,43C 110.833,43.3333 134.167,43.6667 157.5,44C 162.573,45.4056 166.073,48.5723 168,53.5C 168.333,68.1667 168.667,82.8333 169,97.5C 185.735,89.2192 201.902,80.0525 217.5,70C 229.081,61.7564 240.081,52.7564 250.5,43C 255.44,41.9595 260.106,42.6261 264.5,45C 273.234,54.5158 282.901,62.8492 293.5,70C 309.098,80.0525 325.265,89.2192 342,97.5C 342.333,82.8333 342.667,68.1667 343,53.5C 344.927,48.5723 348.427,45.4056 353.5,44C 376.833,43.6667 400.167,43.3333 423.5,43C 433.208,21.4754 449.875,11.8087 473.5,14C 493.273,18.3617 505.94,30.195 511.5,49.5 Z M 41.5,44.5 C 56.4764,45.7876 61.3097,53.4542 56,67.5C 48.3333,75.5 40.6667,75.5 33,67.5C 28.0103,56.8294 30.8436,49.1627 41.5,44.5 Z M 463.5,44.5 C 478.476,45.7876 483.31,53.4542 478,67.5C 470.333,75.5 462.667,75.5 455,67.5C 450.01,56.8294 452.844,49.1627 463.5,44.5 Z M 254.5,80.5 C 290.336,107.594 329.67,128.761 372.5,144C 385.683,149.061 399.016,153.728 412.5,158C 412.982,251.574 382.482,333.407 321,403.5C 301.158,425.515 279.325,445.182 255.5,462.5C 156.564,390.325 103.898,292.658 97.5,169.5C 97.5166,165.584 97.85,161.75 98.5,158C 145.016,143.738 189.016,124.071 230.5,99C 239.11,93.5394 247.11,87.3727 254.5,80.5 Z M 247.5,174.5 C 275.925,173.258 289.925,186.924 289.5,215.5C 266.833,215.5 244.167,215.5 221.5,215.5C 220.39,195.342 229.057,181.675 247.5,174.5 Z M 203.5,246.5 C 238.167,246.5 272.833,246.5 307.5,246.5C 307.5,273.167 307.5,299.833 307.5,326.5C 272.833,326.5 238.167,326.5 203.5,326.5C 203.5,299.833 203.5,273.167 203.5,246.5 Z M 43.5,402.5 C 58.171,405.842 62.0043,414.175 55,427.5C 45.1633,434.124 37.1633,432.457 31,422.5C 28.8789,411.719 33.0455,405.052 43.5,402.5 Z M 465.5,402.5 C 480.171,405.842 484.004,414.175 477,427.5C 467.163,434.124 459.163,432.457 453,422.5C 450.879,411.719 455.046,405.052 465.5,402.5 Z"/></g>
<g><path style="opacity:0.972" fill="#000000" d="M 243.5,143.5 C 276.119,140.011 299.952,152.678 315,181.5C 318.958,193.158 321.125,205.158 321.5,217.5C 328.528,221.028 333.695,226.361 337,233.5C 338.639,267.119 338.972,300.786 338,334.5C 336.205,344.297 330.705,351.13 321.5,355C 278.559,356.65 235.559,356.984 192.5,356C 181.789,352.624 175.289,345.457 173,334.5C 172.833,318.333 172.667,302.167 172.5,286C 172.361,268.45 172.861,250.95 174,233.5C 177.305,226.361 182.472,221.028 189.5,217.5C 189.059,178.949 207.059,154.282 243.5,143.5 Z M 247.5,174.5 C 229.057,181.675 220.39,195.342 221.5,215.5C 244.167,215.5 266.833,215.5 289.5,215.5C 289.925,186.924 275.925,173.258 247.5,174.5 Z M 203.5,246.5 C 203.5,273.167 203.5,299.833 203.5,326.5C 238.167,326.5 272.833,326.5 307.5,326.5C 307.5,299.833 307.5,273.167 307.5,246.5C 272.833,246.5 238.167,246.5 203.5,246.5 Z"/></g>
<g><path style="opacity:0.952" fill="#000000" d="M 251.5,265.5 C 260.222,264.275 266.388,267.609 270,275.5C 270.667,282.833 270.667,290.167 270,297.5C 265.652,305.915 258.819,308.748 249.5,306C 245.333,304.5 242.5,301.667 241,297.5C 240.333,290.167 240.333,282.833 241,275.5C 243.106,270.557 246.606,267.224 251.5,265.5 Z"/></g>
</svg>
