<svg xmlns="http://www.w3.org/2000/svg" version="1.1" width="512px" height="512px" style="shape-rendering:geometricPrecision; text-rendering:geometricPrecision; image-rendering:optimizeQuality; fill-rule:evenodd; clip-rule:evenodd" xmlns:xlink="http://www.w3.org/1999/xlink">
<g><path style="opacity:0.933" fill="#000000" d="M 302.5,7.5 C 310.832,6.68401 318.832,7.85067 326.5,11C 333.559,16.3909 340.893,21.3909 348.5,26C 357.833,27 367.167,28 376.5,29C 386.109,31.6109 392.942,37.4442 397,46.5C 399.164,55.9892 401.83,65.3225 405,74.5C 413.099,81.9263 420.432,89.9263 427,98.5C 429.388,105.314 430.055,112.314 429,119.5C 425.887,127.729 422.22,135.729 418,143.5C 417.357,153.052 417.857,162.552 419.5,172C 418.668,186.335 411.668,196.335 398.5,202C 407.517,221.219 415.85,240.719 423.5,260.5C 423.234,265.932 420.401,268.932 415,269.5C 403.908,267.415 392.908,265.082 382,262.5C 375.501,271.494 369.501,280.827 364,290.5C 359,295.833 354,295.833 349,290.5C 342,274.167 335,257.833 328,241.5C 320.678,237.042 312.845,235.542 304.5,237C 303.234,237.309 302.067,237.809 301,238.5C 291.286,260.926 280.786,282.926 269.5,304.5C 264.083,307.65 259.583,306.65 256,301.5C 250.667,292.167 245.333,282.833 240,273.5C 227.683,276.581 215.183,278.414 202.5,279C 198.073,275.721 196.906,271.554 199,266.5C 208.637,246.06 218.137,225.56 227.5,205C 220.619,201.97 214.453,197.803 209,192.5C 204.523,186.402 202.023,179.569 201.5,172C 202.609,164.524 203.609,157.024 204.5,149.5C 201.23,140.289 197.396,131.289 193,122.5C 190.122,112.236 191.455,102.569 197,93.5C 203.333,87.1667 209.667,80.8333 216,74.5C 219.439,65.7458 222.106,56.7458 224,47.5C 228.179,38.4779 235.013,32.3112 244.5,29C 254.92,28.204 265.254,26.8707 275.5,25C 283.95,18.1214 292.95,12.2881 302.5,7.5 Z M 305.5,24.5 C 308.85,24.335 312.183,24.5017 315.5,25C 322.167,29.6667 328.833,34.3333 335.5,39C 338.674,40.7248 342.007,42.0581 345.5,43C 353.471,43.9982 361.471,44.6649 369.5,45C 374.737,45.9002 378.571,48.7336 381,53.5C 382.957,64.2989 386.291,74.6322 391,84.5C 397.248,90.8162 403.581,97.1496 410,103.5C 412.34,107.555 413.007,111.889 412,116.5C 407.52,124.461 403.854,132.794 401,141.5C 400.24,151.727 400.74,161.894 402.5,172C 401.847,177.651 399.18,181.984 394.5,185C 383.011,188.657 372.844,194.491 364,202.5C 360.333,208.167 356.667,213.833 353,219.5C 348.705,224.895 343.205,226.729 336.5,225C 328.061,221.909 319.394,219.742 310.5,218.5C 301.686,220.037 293.019,222.204 284.5,225C 278.394,226.587 273.228,225.087 269,220.5C 263.927,211.527 257.76,203.36 250.5,196C 242.319,191.743 233.986,187.743 225.5,184C 221.348,181.024 219.014,177.024 218.5,172C 220.21,163.271 221.044,154.438 221,145.5C 220.408,141.724 219.408,138.057 218,134.5C 214.727,128.288 211.727,121.954 209,115.5C 207.973,110.684 208.973,106.35 212,102.5C 219,96.8333 225.333,90.5 231,83.5C 235.13,73.8566 238.13,63.8566 240,53.5C 242.455,48.8508 246.288,46.0174 251.5,45C 260.932,44.8276 270.265,43.8276 279.5,42C 288.75,36.8867 297.417,31.0533 305.5,24.5 Z M 300.5,68.5 C 333.947,66.1252 355.781,80.7918 366,112.5C 370.181,139.635 360.681,160.468 337.5,175C 308.563,187.473 284.063,181.64 264,157.5C 250,135.833 250,114.167 264,92.5C 273.353,80.0827 285.52,72.0827 300.5,68.5 Z M 382.5,208.5 C 388.897,221.957 394.73,235.624 400,249.5C 391.641,247.095 383.141,245.595 374.5,245C 372.919,245.707 371.419,246.54 370,247.5C 366,254.167 362,260.833 358,267.5C 354.403,259.541 350.903,251.541 347.5,243.5C 352.725,241.216 357.725,238.383 362.5,235C 368.677,225.675 375.344,216.842 382.5,208.5 Z M 242.5,212.5 C 247.967,221.23 254.3,229.397 261.5,237C 267.235,240.8 273.569,242.8 280.5,243C 274.538,255.09 268.705,267.257 263,279.5C 259.212,272.088 255.045,264.921 250.5,258C 248.541,257.069 246.541,256.236 244.5,255.5C 236.852,257.501 229.185,258.501 221.5,258.5C 229.06,243.383 236.06,228.05 242.5,212.5 Z"/></g>
<g><path style="opacity:0.931" fill="#000000" d="M 298.5,51.5 C 335.865,48.0978 362.698,63.0978 379,96.5C 391.379,134.358 381.546,164.858 349.5,188C 312.548,206.609 280.048,200.775 252,170.5C 232.636,142.155 231.636,113.155 249,83.5C 261.447,66.5514 277.947,55.8847 298.5,51.5 Z M 300.5,68.5 C 285.52,72.0827 273.353,80.0827 264,92.5C 250,114.167 250,135.833 264,157.5C 284.063,181.64 308.563,187.473 337.5,175C 360.681,160.468 370.181,139.635 366,112.5C 355.781,80.7918 333.947,66.1252 300.5,68.5 Z"/></g>
<g><path style="opacity:0.921" fill="#000000" d="M 343.5,93.5 C 352.86,94.0204 356.027,98.6871 353,107.5C 335.595,123.45 318.095,139.284 300.5,155C 297.5,157 294.5,157 291.5,155C 282.969,146.803 274.802,138.303 267,129.5C 266.656,121.513 270.489,118.013 278.5,119C 284.635,124.134 290.469,129.634 296,135.5C 311.812,121.365 327.645,107.365 343.5,93.5 Z"/></g>
<g><path style="opacity:0.93" fill="#000000" d="M 191.5,305.5 C 197.545,305.428 203.545,305.928 209.5,307C 238.156,318.219 267.49,327.219 297.5,334C 315.625,343.416 321.792,357.916 316,377.5C 347.713,359.726 379.213,341.559 410.5,323C 422.695,316.367 435.695,313.367 449.5,314C 464.438,316.272 473.605,324.772 477,339.5C 479.328,352.851 475.495,364.018 465.5,373C 413.166,405.502 360.5,437.502 307.5,469C 296.727,472.276 285.727,473.276 274.5,472C 238.505,462.501 202.505,453.001 166.5,443.5C 162.21,445.313 158.21,447.646 154.5,450.5C 157.527,455.221 160.027,460.221 162,465.5C 164.098,475.552 160.932,483.385 152.5,489C 143.833,493.667 135.167,498.333 126.5,503C 116.982,505.493 109.148,502.993 103,495.5C 80.6667,456.167 58.3333,416.833 36,377.5C 31.3316,366.963 33.1649,357.796 41.5,350C 50.5,345 59.5,340 68.5,335C 75.9847,332.478 82.9847,333.478 89.5,338C 93.2884,342.406 96.4551,347.239 99,352.5C 124.474,336.844 150.641,322.344 177.5,309C 182.295,307.801 186.962,306.634 191.5,305.5 Z M 192.5,322.5 C 197.232,322.378 201.898,322.878 206.5,324C 235.346,334.949 264.68,344.282 294.5,352C 303.425,359.343 303.759,367.01 295.5,375C 290.011,377.973 284.344,378.306 278.5,376C 262.369,371.622 246.203,367.455 230,363.5C 221.64,364.204 218.974,368.537 222,376.5C 222.833,377.333 223.667,378.167 224.5,379C 247.099,386.311 270.099,391.978 293.5,396C 304.51,397.392 315.177,396.058 325.5,392C 355.161,375.505 384.494,358.505 413.5,341C 422.945,335.359 433.112,331.859 444,330.5C 454.594,330.594 460.094,335.928 460.5,346.5C 460.26,350.72 458.927,354.554 456.5,358C 406.666,388.416 356.999,419.083 307.5,450C 297.741,455.086 287.408,456.753 276.5,455C 240.167,445.333 203.833,435.667 167.5,426C 165.5,425.333 163.5,425.333 161.5,426C 156.5,428.833 151.5,431.667 146.5,434.5C 145.522,434.023 144.689,433.357 144,432.5C 131.96,410.919 119.793,389.419 107.5,368C 127.669,355.748 148.002,343.748 168.5,332C 176.277,327.933 184.277,324.766 192.5,322.5 Z M 75.5,350.5 C 77.0174,350.511 78.1841,351.177 79,352.5C 101.253,391.338 123.253,430.338 145,469.5C 145.711,471.367 145.211,472.867 143.5,474C 136.337,477.747 129.337,481.747 122.5,486C 120.559,486.743 118.726,486.576 117,485.5C 95.2532,446.338 73.2532,407.338 51,368.5C 50.3698,366.097 51.2031,364.263 53.5,363C 61.0584,359.059 68.3917,354.892 75.5,350.5 Z"/></g>
<g><path style="opacity:0.866" fill="#000000" d="M 68.5,365.5 C 78.33,363.829 82.1634,367.829 80,377.5C 75.4796,383.704 70.4796,384.037 65,378.5C 63.017,373.287 64.1836,368.953 68.5,365.5 Z"/></g>
</svg>
