<svg xmlns="http://www.w3.org/2000/svg" version="1.1" width="512px" height="512px" style="shape-rendering:geometricPrecision; text-rendering:geometricPrecision; image-rendering:optimizeQuality; fill-rule:evenodd; clip-rule:evenodd" xmlns:xlink="http://www.w3.org/1999/xlink">
<g><path style="opacity:0.975" fill="#000000" d="M 128.5,151.5 C 158.027,148.705 185.693,154.538 211.5,169C 223.491,176.291 227.657,186.791 224,200.5C 217.584,212.956 207.417,217.79 193.5,215C 182,208.166 169.666,203.499 156.5,201C 125.248,196.701 103.414,208.868 91,237.5C 83.3866,268.028 93.2199,290.861 120.5,306C 149.253,314.918 175.587,309.918 199.5,291C 217.834,274.512 231.334,254.679 240,231.5C 258.241,198.924 284.408,175.09 318.5,160C 347.308,149.527 376.308,148.86 405.5,158C 442.241,173.642 464.074,201.142 471,240.5C 475.483,291.048 455.316,327.881 410.5,351C 369.35,365.978 330.35,361.645 293.5,338C 283.898,327.147 283.065,315.647 291,303.5C 298.32,295.932 307.154,293.432 317.5,296C 327.238,301.701 337.571,306.034 348.5,309C 379.422,315.825 402.589,305.658 418,278.5C 428.694,248.403 420.86,224.569 394.5,207C 375.2,198.116 355.533,197.782 335.5,206C 316.741,214.088 301.574,226.588 290,243.5C 282.731,254.945 276.398,266.945 271,279.5C 255.93,305.903 235.43,327.07 209.5,343C 174.313,361.865 137.98,364.531 100.5,351C 55.6839,327.881 35.5173,291.048 40,240.5C 46.9255,201.142 68.7588,173.642 105.5,158C 113.163,155.338 120.829,153.172 128.5,151.5 Z"/></g>
</svg>
