<svg xmlns="http://www.w3.org/2000/svg" version="1.1" width="2701px" height="671px" style="shape-rendering:geometricPrecision; text-rendering:geometricPrecision; image-rendering:optimizeQuality; fill-rule:evenodd; clip-rule:evenodd" xmlns:xlink="http://www.w3.org/1999/xlink">
<g><path style="opacity:0.995" fill="#000000" d="M 98.5,-0.5 C 174.833,-0.5 251.167,-0.5 327.5,-0.5C 440.286,10.1278 527.452,62.7945 589,157.5C 634.114,232.928 648.114,313.928 631,400.5C 626.749,423.25 620.083,445.25 611,466.5C 608.394,469.983 604.894,471.65 600.5,471.5C 590.195,471.01 580.861,467.843 572.5,462C 571.213,460.59 570.046,459.09 569,457.5C 554.042,415.876 526.542,385.71 486.5,367C 481.478,363.456 478.644,358.623 478,352.5C 480.355,303.577 466.688,259.911 437,221.5C 397.052,178.394 347.552,157.894 288.5,160C 218.635,169.532 169.801,206.698 142,271.5C 117.42,345.679 133.253,409.845 189.5,464C 205.567,478.453 224.067,488.62 245,494.5C 247.253,494.369 249.419,493.869 251.5,493C 257.375,486.793 262.875,480.293 268,473.5C 282.661,459.611 300.161,453.445 320.5,455C 326.478,453.093 331.312,449.593 335,444.5C 361.783,400.03 400.949,381.863 452.5,390C 483.867,395.587 508.033,411.754 525,438.5C 531.898,452.293 538.232,466.293 544,480.5C 547.534,484.369 551.367,487.869 555.5,491C 563.594,494.921 571.928,498.254 580.5,501C 610.456,518.217 626.456,544.217 628.5,579C 626.792,611.344 612.459,636.344 585.5,654C 570.987,662.504 555.32,667.171 538.5,668C 527.681,668.866 517.014,669.699 506.5,670.5C 499.167,670.5 491.833,670.5 484.5,670.5C 458.668,668.904 432.668,668.571 406.5,669.5C 331.171,668.711 255.837,668.211 180.5,668C 111.344,661.113 59.1773,627.946 24,568.5C 10.8606,543.922 2.69394,517.922 -0.5,490.5C -0.5,359.167 -0.5,227.833 -0.5,96.5C 10.4028,41.5971 43.4028,9.26372 98.5,-0.5 Z"/></g>
<g><path style="opacity:0.987" fill="#000000" d="M 686.5,279.5 C 737.168,279.333 787.834,279.5 838.5,280C 870.293,281.029 899.959,289.363 927.5,305C 964.971,331.11 982.971,367.277 981.5,413.5C 981.768,478.017 951.434,520.183 890.5,540C 878.032,543.411 865.365,545.745 852.5,547C 797.168,547.5 741.834,547.667 686.5,547.5C 686.5,458.167 686.5,368.833 686.5,279.5 Z M 754.5,337.5 C 783.852,337.137 813.186,337.637 842.5,339C 888.486,342.317 911.819,366.984 912.5,413C 913.679,437.168 905.346,457.168 887.5,473C 872.728,482.924 856.394,488.257 838.5,489C 810.502,489.5 782.502,489.667 754.5,489.5C 754.5,438.833 754.5,388.167 754.5,337.5 Z"/></g>
<g><path style="opacity:0.989" fill="#000000" d="M 1488.5,289.5 C 1489.5,289.5 1490.5,289.5 1491.5,289.5C 1491.5,308.833 1491.5,328.167 1491.5,347.5C 1509.83,347.5 1528.17,347.5 1546.5,347.5C 1546.5,360.167 1546.5,372.833 1546.5,385.5C 1528.17,385.5 1509.83,385.5 1491.5,385.5C 1491.33,416.168 1491.5,446.835 1492,477.5C 1491.97,486.029 1493.97,494.029 1498,501.5C 1504.37,508.627 1512.37,511.627 1522,510.5C 1526.9,510.537 1531.73,510.037 1536.5,509C 1542.27,506.912 1547.94,504.745 1553.5,502.5C 1553.83,516.849 1553.5,531.182 1552.5,545.5C 1545.35,547.83 1538.02,549.33 1530.5,550C 1517.83,550.667 1505.17,550.667 1492.5,550C 1464.67,544.505 1448.84,527.672 1445,499.5C 1444.5,461.501 1444.33,423.501 1444.5,385.5C 1436.83,385.5 1429.17,385.5 1421.5,385.5C 1421.5,372.833 1421.5,360.167 1421.5,347.5C 1429.17,347.5 1436.83,347.5 1444.5,347.5C 1444.5,333.5 1444.5,319.5 1444.5,305.5C 1459.46,300.738 1474.13,295.405 1488.5,289.5 Z"/></g>
<g><path style="opacity:0.989" fill="#000000" d="M 2405.5,289.5 C 2406.5,289.5 2407.5,289.5 2408.5,289.5C 2408.5,308.833 2408.5,328.167 2408.5,347.5C 2426.83,347.5 2445.17,347.5 2463.5,347.5C 2463.5,360.167 2463.5,372.833 2463.5,385.5C 2445.17,385.5 2426.83,385.5 2408.5,385.5C 2408.33,416.168 2408.5,446.835 2409,477.5C 2408.97,486.029 2410.97,494.029 2415,501.5C 2421.37,508.627 2429.37,511.627 2439,510.5C 2443.9,510.537 2448.73,510.037 2453.5,509C 2459.27,506.912 2464.94,504.745 2470.5,502.5C 2470.83,516.849 2470.5,531.182 2469.5,545.5C 2462.35,547.83 2455.02,549.33 2447.5,550C 2434.83,550.667 2422.17,550.667 2409.5,550C 2381.67,544.505 2365.84,527.672 2362,499.5C 2361.5,461.501 2361.33,423.501 2361.5,385.5C 2353.83,385.5 2346.17,385.5 2338.5,385.5C 2338.5,372.833 2338.5,360.167 2338.5,347.5C 2346.17,347.5 2353.83,347.5 2361.5,347.5C 2361.5,333.5 2361.5,319.5 2361.5,305.5C 2376.46,300.738 2391.13,295.405 2405.5,289.5 Z"/></g>
<g><path style="opacity:0.978" fill="#000000" d="M 1936.5,332.5 C 1948.53,341.355 1959.87,351.188 1970.5,362C 1963,367.339 1955.67,372.839 1948.5,378.5C 1956.4,391.165 1960.07,404.998 1959.5,420C 1959.75,451.865 1945.75,474.865 1917.5,489C 1911.68,491.288 1905.68,492.954 1899.5,494C 1886.82,494.428 1874.15,494.428 1861.5,494C 1857.01,496.079 1852.67,498.412 1848.5,501C 1845.3,505.529 1846.3,508.862 1851.5,511C 1854.17,511.167 1856.83,511.333 1859.5,511.5C 1869.29,510.804 1878.95,509.304 1888.5,507C 1908.65,504.267 1927.98,506.933 1946.5,515C 1963.01,525.522 1971.01,540.688 1970.5,560.5C 1970.37,579.587 1962.71,594.754 1947.5,606C 1920.24,623.054 1890.57,629.387 1858.5,625C 1834.27,622.098 1812.6,613.265 1793.5,598.5C 1803.1,586.284 1812.94,574.284 1823,562.5C 1831.37,569.177 1840.54,574.677 1850.5,579C 1869.83,584.976 1889.16,584.976 1908.5,579C 1920.2,575.076 1924.7,567.243 1922,555.5C 1918.39,549.937 1913.22,546.77 1906.5,546C 1881.85,547.108 1857.19,547.775 1832.5,548C 1808.05,544.565 1797.55,530.732 1801,506.5C 1805.49,494.839 1813.33,486.172 1824.5,480.5C 1794.63,457.08 1785.47,427.08 1797,390.5C 1812.79,358.259 1838.79,342.593 1875,343.5C 1890.31,342.728 1904.81,345.728 1918.5,352.5C 1924.86,346.137 1930.86,339.471 1936.5,332.5 Z M 1867.5,382.5 C 1894.27,380.112 1908.61,392.279 1910.5,419C 1908.09,450.071 1891.76,461.737 1861.5,454C 1847.59,446.208 1840.59,434.208 1840.5,418C 1841.46,399.894 1850.46,388.061 1867.5,382.5 Z"/></g>
<g><path style="opacity:0.983" fill="#000000" d="M 1088.5,344.5 C 1118.94,340.479 1146.27,347.645 1170.5,366C 1197.46,392.339 1206.13,423.839 1196.5,460.5C 1148.83,461.167 1101.17,461.833 1053.5,462.5C 1058.04,495.87 1077.21,512.203 1111,511.5C 1128.9,512.533 1144.4,507.033 1157.5,495C 1158.17,494.333 1158.83,494.333 1159.5,495C 1165.63,506.755 1171.63,518.589 1177.5,530.5C 1169.71,537.396 1160.71,542.229 1150.5,545C 1129.14,550.216 1107.47,551.883 1085.5,550C 1037.96,542.129 1011.13,514.296 1005,466.5C 999.118,424.448 1012.28,389.948 1044.5,363C 1057.89,353.598 1072.56,347.431 1088.5,344.5 Z M 1093.5,383.5 C 1103.97,382.904 1114.31,383.737 1124.5,386C 1142.06,393.568 1151.39,407.068 1152.5,426.5C 1120.16,426.833 1087.83,426.5 1055.5,425.5C 1058.66,409.988 1066.66,397.822 1079.5,389C 1084.16,386.842 1088.83,385.009 1093.5,383.5 Z"/></g>
<g><path style="opacity:0.983" fill="#000000" d="M 1660.5,344.5 C 1690.94,340.479 1718.27,347.645 1742.5,366C 1769.46,392.339 1778.13,423.839 1768.5,460.5C 1720.83,461.167 1673.17,461.833 1625.5,462.5C 1630.04,495.87 1649.21,512.203 1683,511.5C 1700.9,512.533 1716.4,507.033 1729.5,495C 1730.17,494.333 1730.83,494.333 1731.5,495C 1737.63,506.755 1743.63,518.589 1749.5,530.5C 1741.71,537.396 1732.71,542.229 1722.5,545C 1701.14,550.216 1679.47,551.883 1657.5,550C 1609.96,542.129 1583.13,514.296 1577,466.5C 1571.12,424.448 1584.28,389.948 1616.5,363C 1629.89,353.598 1644.56,347.431 1660.5,344.5 Z M 1665.5,383.5 C 1675.97,382.904 1686.31,383.737 1696.5,386C 1714.06,393.568 1723.39,407.068 1724.5,426.5C 1692.16,426.833 1659.83,426.5 1627.5,425.5C 1630.66,409.988 1638.66,397.822 1651.5,389C 1656.16,386.842 1660.83,385.009 1665.5,383.5 Z"/></g>
<g><path style="opacity:0.991" fill="#000000" d="M 2085.5,344.5 C 2095.84,344.334 2106.17,344.5 2116.5,345C 2122.68,346.046 2128.68,347.712 2134.5,350C 2135.36,350.689 2136.02,351.522 2136.5,352.5C 2130.16,365.844 2123.33,378.844 2116,391.5C 2087.54,375.776 2066.21,382.443 2052,411.5C 2049.88,416.982 2048.55,422.649 2048,428.5C 2047.5,468.165 2047.33,507.832 2047.5,547.5C 2031.83,547.5 2016.17,547.5 2000.5,547.5C 2000.5,480.833 2000.5,414.167 2000.5,347.5C 2016.17,347.5 2031.83,347.5 2047.5,347.5C 2047.33,353.176 2047.5,358.843 2048,364.5C 2058.52,353.993 2071.02,347.326 2085.5,344.5 Z"/></g>
<g><path style="opacity:0.978" fill="#000000" d="M 2197.5,344.5 C 2210.5,344.333 2223.5,344.5 2236.5,345C 2256.15,346.41 2272.98,353.91 2287,367.5C 2297.02,382.232 2302.69,398.565 2304,416.5C 2304.94,446.845 2305.94,477.179 2307,507.5C 2308.16,518.852 2312.99,528.185 2321.5,535.5C 2318,543.5 2312,548.333 2303.5,550C 2284.44,553.801 2270.77,546.968 2262.5,529.5C 2251.33,541.083 2237.67,547.916 2221.5,550C 2200.14,553.219 2180.14,549.553 2161.5,539C 2145.08,526.285 2137.42,509.452 2138.5,488.5C 2137.97,464.064 2147.63,444.897 2167.5,431C 2193.02,416.856 2220.35,411.523 2249.5,415C 2252.17,415.567 2254.83,416.067 2257.5,416.5C 2255.91,397.406 2245.57,386.573 2226.5,384C 2206.34,381.528 2187,384.362 2168.5,392.5C 2165.48,380.425 2162.15,368.425 2158.5,356.5C 2170.96,350.457 2183.96,346.457 2197.5,344.5 Z M 2224.5,451.5 C 2235.52,451.316 2246.52,451.649 2257.5,452.5C 2257.67,462.172 2257.5,471.839 2257,481.5C 2252.76,503.397 2239.42,513.73 2217,512.5C 2197.83,514.148 2187.33,505.481 2185.5,486.5C 2186.11,471.442 2193.44,461.275 2207.5,456C 2213.21,454.166 2218.88,452.666 2224.5,451.5 Z"/></g>
<g><path style="opacity:0.983" fill="#000000" d="M 2577.5,344.5 C 2607.94,340.479 2635.27,347.645 2659.5,366C 2686.46,392.339 2695.13,423.839 2685.5,460.5C 2637.83,461.167 2590.17,461.833 2542.5,462.5C 2547.04,495.87 2566.21,512.203 2600,511.5C 2617.9,512.533 2633.4,507.033 2646.5,495C 2647.17,494.333 2647.83,494.333 2648.5,495C 2654.63,506.755 2660.63,518.589 2666.5,530.5C 2658.71,537.396 2649.71,542.229 2639.5,545C 2618.14,550.216 2596.47,551.883 2574.5,550C 2526.96,542.129 2500.13,514.296 2494,466.5C 2488.12,424.448 2501.28,389.948 2533.5,363C 2546.89,353.598 2561.56,347.431 2577.5,344.5 Z M 2582.5,383.5 C 2592.97,382.904 2603.31,383.737 2613.5,386C 2631.06,393.568 2640.39,407.068 2641.5,426.5C 2609.16,426.833 2576.83,426.5 2544.5,425.5C 2547.66,409.988 2555.66,397.822 2568.5,389C 2573.16,386.842 2577.83,385.009 2582.5,383.5 Z"/></g>
<g><path style="opacity:0.979" fill="#000000" d="M 1211.5,348.5 C 1229,347.173 1246.67,347.173 1264.5,348.5C 1280.1,388.127 1295.6,427.794 1311,467.5C 1328.12,427.99 1344.95,388.323 1361.5,348.5C 1378.5,347.167 1395.5,347.167 1412.5,348.5C 1381.83,415.5 1351.17,482.5 1320.5,549.5C 1314.17,550.833 1307.83,550.833 1301.5,549.5C 1271.72,482.292 1241.72,415.292 1211.5,348.5 Z"/></g>
</svg>
