<svg xmlns="http://www.w3.org/2000/svg" version="1.1" width="512px" height="512px" style="shape-rendering:geometricPrecision; text-rendering:geometricPrecision; image-rendering:optimizeQuality; fill-rule:evenodd; clip-rule:evenodd" xmlns:xlink="http://www.w3.org/1999/xlink">
<g><path style="opacity:0.934" fill="#000000" d="M 235.5,0.5 C 289.621,-3.84483 337.455,11.1552 379,45.5C 379.5,40.9877 379.333,36.4877 378.5,32C 378.955,23.5576 383.288,20.5576 391.5,23C 393.049,24.214 394.215,25.714 395,27.5C 396.869,42.1265 397.869,56.7932 398,71.5C 396.091,74.4139 393.425,76.0806 390,76.5C 376.851,75.1959 363.684,74.0292 350.5,73C 344.632,69.9598 343.132,65.4598 346,59.5C 346.903,58.2986 348.069,57.4652 349.5,57C 354.884,56.495 360.218,56.495 365.5,57C 322.177,22.253 273.177,10.253 218.5,21C 195.407,26.4694 174.074,35.8027 154.5,49C 144.613,49.4165 141.446,44.9165 145,35.5C 172.188,16.0499 202.354,4.38326 235.5,0.5 Z"/></g>
<g><path style="opacity:0.932" fill="#000000" d="M 124.5,47.5 C 128.514,47.3345 132.514,47.5012 136.5,48C 138.726,49.2273 140.226,51.0607 141,53.5C 140.445,67.4998 139.445,81.4998 138,95.5C 134.96,101.368 130.46,102.868 124.5,100C 123.299,99.0975 122.465,97.9308 122,96.5C 121.495,91.1156 121.495,85.7822 122,80.5C 85.285,126.391 73.9517,178.057 88,235.5C 93.9866,255.483 102.653,274.149 114,291.5C 115.474,298.227 112.808,301.893 106,302.5C 103.186,302.592 100.853,301.592 99,299.5C 60.9726,240.704 54.9726,178.704 81,113.5C 88.7101,96.5626 98.5434,81.0626 110.5,67C 105.98,66.4015 101.48,66.5682 97,67.5C 88.8494,66.8899 85.8494,62.5565 88,54.5C 89.214,52.9512 90.714,51.7845 92.5,51C 103.323,49.903 113.989,48.7363 124.5,47.5 Z"/></g>
<g><path style="opacity:0.937" fill="#000000" d="M 231.5,47.5 C 248.57,47.0428 265.57,47.5428 282.5,49C 284.049,50.214 285.215,51.714 286,53.5C 286.5,59.8246 286.666,66.1579 286.5,72.5C 297.342,75.0835 307.675,79.0835 317.5,84.5C 321.985,80.5154 326.318,76.3487 330.5,72C 333.167,71.3333 335.833,71.3333 338.5,72C 350.696,83.8624 362.53,96.029 374,108.5C 374.755,111.303 374.422,113.97 373,116.5C 368.786,120.378 364.952,124.545 361.5,129C 367.031,138.563 371.031,148.73 373.5,159.5C 379.842,159.334 386.175,159.5 392.5,160C 394.286,160.785 395.786,161.951 397,163.5C 398.108,172.442 398.608,181.442 398.5,190.5C 398.608,199.558 398.108,208.558 397,217.5C 395.681,219.487 393.848,220.654 391.5,221C 385.509,221.499 379.509,221.666 373.5,221.5C 371.031,232.27 367.031,242.437 361.5,252C 365.286,256.789 369.453,261.289 374,265.5C 374.79,268.634 374.457,271.634 373,274.5C 361.471,286.363 349.638,297.863 337.5,309C 334.697,309.755 332.03,309.422 329.5,308C 325.622,303.786 321.455,299.952 317,296.5C 307.447,302.025 297.28,306.025 286.5,308.5C 286.666,314.842 286.5,321.175 286,327.5C 285.215,329.286 284.049,330.786 282.5,332C 264.5,332.667 246.5,332.667 228.5,332C 226.951,330.786 225.785,329.286 225,327.5C 224.5,321.175 224.334,314.842 224.5,308.5C 213.72,306.025 203.553,302.025 194,296.5C 189.545,299.952 185.378,303.786 181.5,308C 178.167,310 174.833,310 171.5,308C 159.637,296.471 148.137,284.638 137,272.5C 136.333,270.167 136.333,267.833 137,265.5C 141.547,261.289 145.714,256.789 149.5,252C 143.969,242.437 139.969,232.27 137.5,221.5C 131.491,221.666 125.491,221.499 119.5,221C 117.152,220.654 115.319,219.487 114,217.5C 112.892,208.558 112.392,199.558 112.5,190.5C 112.392,181.442 112.892,172.442 114,163.5C 115.214,161.951 116.714,160.785 118.5,160C 124.825,159.5 131.158,159.334 137.5,159.5C 139.969,148.73 143.969,138.563 149.5,129C 146.048,124.545 142.214,120.378 138,116.5C 136,113.167 136,109.833 138,106.5C 149.5,95 161,83.5 172.5,72C 175.167,71.3333 177.833,71.3333 180.5,72C 184.682,76.3487 189.015,80.5154 193.5,84.5C 203.325,79.0835 213.658,75.0835 224.5,72.5C 224.334,66.1579 224.5,59.8246 225,53.5C 226.436,50.5581 228.603,48.5581 231.5,47.5 Z M 241.5,64.5 C 250.833,64.5 260.167,64.5 269.5,64.5C 269.334,70.5092 269.501,76.5092 270,82.5C 271.109,84.8147 272.943,86.3147 275.5,87C 282.286,88.5954 288.953,90.5954 295.5,93C 303.234,96.867 310.901,100.7 318.5,104.5C 320.197,104.101 321.863,103.601 323.5,103C 326.833,99.6667 330.167,96.3333 333.5,93C 340.809,98.1295 347.476,104.296 353.5,111.5C 350.182,115.318 346.682,118.985 343,122.5C 341.121,125.8 341.121,129.134 343,132.5C 346.841,138.178 350.174,144.178 353,150.5C 355.671,158.523 358.337,166.523 361,174.5C 361.75,175.126 362.584,175.626 363.5,176C 369.491,176.499 375.491,176.666 381.5,176.5C 381.5,185.833 381.5,195.167 381.5,204.5C 375.491,204.334 369.491,204.501 363.5,205C 362.069,205.465 360.903,206.299 360,207.5C 356.07,223.803 349.903,239.136 341.5,253.5C 341.899,255.197 342.399,256.863 343,258.5C 346.333,261.833 349.667,265.167 353,268.5C 347.871,275.809 341.704,282.476 334.5,288.5C 330.682,285.182 327.015,281.682 323.5,278C 321.966,277.077 320.299,276.577 318.5,276.5C 311.43,279.705 304.43,283.205 297.5,287C 289.347,290.273 281.013,292.94 272.5,295C 271.299,295.903 270.465,297.069 270,298.5C 269.501,304.491 269.334,310.491 269.5,316.5C 260.167,316.5 250.833,316.5 241.5,316.5C 241.666,310.491 241.499,304.491 241,298.5C 240.167,296.333 238.667,294.833 236.5,294C 230.332,292.944 224.332,291.277 218.5,289C 209.629,285.063 200.962,280.896 192.5,276.5C 190.701,276.577 189.034,277.077 187.5,278C 184.167,281.333 180.833,284.667 177.5,288C 170.191,282.871 163.524,276.704 157.5,269.5C 160.818,265.682 164.318,262.015 168,258.5C 168.601,256.863 169.101,255.197 169.5,253.5C 165.7,245.901 161.867,238.234 158,230.5C 155.262,222.954 152.929,215.287 151,207.5C 150.097,206.299 148.931,205.465 147.5,205C 141.509,204.501 135.509,204.334 129.5,204.5C 129.5,195.167 129.5,185.833 129.5,176.5C 135.509,176.666 141.509,176.499 147.5,176C 149.815,174.891 151.315,173.057 152,170.5C 154.615,156.647 159.948,143.981 168,132.5C 169.879,129.134 169.879,125.8 168,122.5C 164.667,119.167 161.333,115.833 158,112.5C 163.129,105.191 169.296,98.5242 176.5,92.5C 180.318,95.8176 183.985,99.3176 187.5,103C 189.137,103.601 190.803,104.101 192.5,104.5C 200.13,100.685 207.797,96.8515 215.5,93C 223.523,90.3294 231.523,87.6627 239.5,85C 240.126,84.2496 240.626,83.4162 241,82.5C 241.499,76.5092 241.666,70.5092 241.5,64.5 Z M 311.5,141.5 C 309.188,140.68 306.854,139.847 304.5,139C 271.833,138.333 239.167,138.333 206.5,139C 204.146,139.847 201.812,140.68 199.5,141.5C 223.752,116.213 252.418,109.713 285.5,122C 295.765,126.44 304.432,132.94 311.5,141.5 Z M 194.5,148.5 C 193.167,176.5 193.167,204.5 194.5,232.5C 179.354,209.977 176.854,185.977 187,160.5C 188.968,156.061 191.468,152.061 194.5,148.5 Z M 316.5,148.5 C 332.161,171.828 334.328,196.495 323,222.5C 321.058,226.069 318.892,229.402 316.5,232.5C 317.833,204.5 317.833,176.5 316.5,148.5 Z M 210.5,155.5 C 217.5,155.5 224.5,155.5 231.5,155.5C 231.161,162.574 231.661,169.574 233,176.5C 235.04,178.353 237.373,179.686 240,180.5C 245.091,178.374 250.258,176.374 255.5,174.5C 259.282,175.705 262.948,177.205 266.5,179C 273.128,181.106 277.295,178.939 279,172.5C 279.499,166.843 279.666,161.176 279.5,155.5C 286.5,155.5 293.5,155.5 300.5,155.5C 300.5,178.833 300.5,202.167 300.5,225.5C 270.5,225.5 240.5,225.5 210.5,225.5C 210.5,202.167 210.5,178.833 210.5,155.5 Z M 248.5,155.5 C 250.527,155.338 252.527,155.505 254.5,156C 252.782,156.346 251.115,156.846 249.5,157.5C 248.702,157.043 248.369,156.376 248.5,155.5 Z M 256.5,156.5 C 258.364,155.207 260.364,155.207 262.5,156.5C 260.674,156.92 258.674,156.92 256.5,156.5 Z M 199.5,238.5 C 201.768,240.465 204.435,241.632 207.5,242C 239.5,242.667 271.5,242.667 303.5,242C 306.458,241.771 308.958,240.604 311,238.5C 311.167,238.833 311.333,239.167 311.5,239.5C 286.402,265.271 257.069,271.438 223.5,258C 217.156,254.496 211.156,250.496 205.5,246C 202.882,243.894 200.882,241.394 199.5,238.5 Z"/></g>
<g><path style="opacity:0.958" fill="#000000" d="M 28.5,72.5 C 47.8362,72.3334 67.1695,72.5 86.5,73C 91.7375,76.2738 92.9042,80.7738 90,86.5C 89.0975,87.7014 87.9308,88.5348 86.5,89C 67.8333,89.3333 49.1667,89.6667 30.5,90C 24.3333,92.1667 20.1667,96.3333 18,102.5C 17.5,198.499 17.3333,294.499 17.5,390.5C 176.167,390.5 334.833,390.5 493.5,390.5C 493.667,294.499 493.5,198.499 493,102.5C 490.833,96.3333 486.667,92.1667 480.5,90C 461.833,89.6667 443.167,89.3333 424.5,89C 420.762,87.6011 419.096,84.9345 419.5,81C 419.096,77.0655 420.762,74.3989 424.5,73C 445.218,72.0469 465.885,72.3802 486.5,74C 499.181,78.0151 507.014,86.5151 510,99.5C 510.667,207.5 510.667,315.5 510,423.5C 506.6,437.233 498.1,446.067 484.5,450C 444.167,450.333 403.833,450.667 363.5,451C 371.793,465.085 379.96,479.252 388,493.5C 390.237,500.845 388.07,506.345 381.5,510C 297.5,510.667 213.5,510.667 129.5,510C 122.93,506.345 120.763,500.845 123,493.5C 130.914,479.336 139.081,465.336 147.5,451.5C 107.171,450.667 66.8375,450.167 26.5,450C 12.8999,446.067 4.39994,437.233 1,423.5C 0.333333,315.5 0.333333,207.5 1,99.5C 4.75619,84.9098 13.9229,75.9098 28.5,72.5 Z M 311.5,141.5 C 309.188,140.68 306.854,139.847 304.5,139C 271.833,138.333 239.167,138.333 206.5,139C 204.146,139.847 201.812,140.68 199.5,141.5C 223.752,116.213 252.418,109.713 285.5,122C 295.765,126.44 304.432,132.94 311.5,141.5 Z M 194.5,148.5 C 193.167,176.5 193.167,204.5 194.5,232.5C 179.354,209.977 176.854,185.977 187,160.5C 188.968,156.061 191.468,152.061 194.5,148.5 Z M 316.5,148.5 C 332.161,171.828 334.328,196.495 323,222.5C 321.058,226.069 318.892,229.402 316.5,232.5C 317.833,204.5 317.833,176.5 316.5,148.5 Z M 210.5,155.5 C 210.5,178.833 210.5,202.167 210.5,225.5C 240.5,225.5 270.5,225.5 300.5,225.5C 300.5,202.167 300.5,178.833 300.5,155.5C 293.5,155.5 286.5,155.5 279.5,155.5C 279.666,161.176 279.499,166.843 279,172.5C 277.295,178.939 273.128,181.106 266.5,179C 262.948,177.205 259.282,175.705 255.5,174.5C 250.258,176.374 245.091,178.374 240,180.5C 237.373,179.686 235.04,178.353 233,176.5C 231.661,169.574 231.161,162.574 231.5,155.5C 224.5,155.5 217.5,155.5 210.5,155.5 Z M 248.5,155.5 C 248.369,156.376 248.702,157.043 249.5,157.5C 251.115,156.846 252.782,156.346 254.5,156C 252.527,155.505 250.527,155.338 248.5,155.5 Z M 256.5,156.5 C 258.674,156.92 260.674,156.92 262.5,156.5C 260.364,155.207 258.364,155.207 256.5,156.5 Z M 199.5,238.5 C 200.882,241.394 202.882,243.894 205.5,246C 211.156,250.496 217.156,254.496 223.5,258C 257.069,271.438 286.402,265.271 311.5,239.5C 311.333,239.167 311.167,238.833 311,238.5C 308.958,240.604 306.458,241.771 303.5,242C 271.5,242.667 239.5,242.667 207.5,242C 204.435,241.632 201.768,240.465 199.5,238.5 Z M 17.5,407.5 C 176.167,407.5 334.833,407.5 493.5,407.5C 495.882,417.803 492.882,425.97 484.5,432C 481.899,432.92 479.232,433.587 476.5,434C 329.167,434.667 181.833,434.667 34.5,434C 26.3344,433.336 20.8344,429.169 18,421.5C 17.5008,416.845 17.3342,412.179 17.5,407.5 Z M 167.5,450.5 C 226.168,450.333 284.834,450.5 343.5,451C 351.833,465.333 360.167,479.667 368.5,494C 293.167,494.667 217.833,494.667 142.5,494C 150.983,479.527 159.317,465.027 167.5,450.5 Z"/></g>
<g><path style="opacity:0.932" fill="#000000" d="M 401.5,78.5 C 404.649,78.2114 407.649,78.7114 410.5,80C 445.231,130.759 454.397,185.926 438,245.5C 430.284,271.109 417.784,293.943 400.5,314C 405.012,314.5 409.512,314.333 414,313.5C 422.83,314.483 425.496,319.149 422,327.5C 421.097,328.701 419.931,329.535 418.5,330C 405.679,331.305 392.846,332.471 380,333.5C 373.875,333.541 370.375,330.541 369.5,324.5C 370.722,311.508 371.888,298.508 373,285.5C 375.837,279.458 380.337,277.958 386.5,281C 387.701,281.903 388.535,283.069 389,284.5C 389.505,289.884 389.505,295.218 389,300.5C 423.724,257.246 435.724,208.246 425,153.5C 419.464,130.436 410.131,109.102 397,89.5C 395.776,84.626 397.276,80.9593 401.5,78.5 Z"/></g>
<g><path style="opacity:0.935" fill="#000000" d="M 248.5,98.5 C 291.113,97.709 321.613,116.376 340,154.5C 355.303,198.461 345.137,235.294 309.5,265C 270.895,289.238 233.229,287.905 196.5,261C 166.357,232.935 157.191,199.102 169,159.5C 183.826,123.829 210.326,103.496 248.5,98.5 Z M 311.5,141.5 C 309.188,140.68 306.854,139.847 304.5,139C 271.833,138.333 239.167,138.333 206.5,139C 204.146,139.847 201.812,140.68 199.5,141.5C 223.752,116.213 252.418,109.713 285.5,122C 295.765,126.44 304.432,132.94 311.5,141.5 Z M 194.5,148.5 C 193.167,176.5 193.167,204.5 194.5,232.5C 179.354,209.977 176.854,185.977 187,160.5C 188.968,156.061 191.468,152.061 194.5,148.5 Z M 316.5,148.5 C 332.161,171.828 334.328,196.495 323,222.5C 321.058,226.069 318.892,229.402 316.5,232.5C 317.833,204.5 317.833,176.5 316.5,148.5 Z M 210.5,155.5 C 210.5,178.833 210.5,202.167 210.5,225.5C 240.5,225.5 270.5,225.5 300.5,225.5C 300.5,202.167 300.5,178.833 300.5,155.5C 293.5,155.5 286.5,155.5 279.5,155.5C 279.666,161.176 279.499,166.843 279,172.5C 277.295,178.939 273.128,181.106 266.5,179C 262.948,177.205 259.282,175.705 255.5,174.5C 250.258,176.374 245.091,178.374 240,180.5C 237.373,179.686 235.04,178.353 233,176.5C 231.661,169.574 231.161,162.574 231.5,155.5C 224.5,155.5 217.5,155.5 210.5,155.5 Z M 248.5,155.5 C 248.369,156.376 248.702,157.043 249.5,157.5C 251.115,156.846 252.782,156.346 254.5,156C 252.527,155.505 250.527,155.338 248.5,155.5 Z M 256.5,156.5 C 258.674,156.92 260.674,156.92 262.5,156.5C 260.364,155.207 258.364,155.207 256.5,156.5 Z M 199.5,238.5 C 200.882,241.394 202.882,243.894 205.5,246C 211.156,250.496 217.156,254.496 223.5,258C 257.069,271.438 286.402,265.271 311.5,239.5C 311.333,239.167 311.167,238.833 311,238.5C 308.958,240.604 306.458,241.771 303.5,242C 271.5,242.667 239.5,242.667 207.5,242C 204.435,241.632 201.768,240.465 199.5,238.5 Z"/></g>
<g><path style="opacity:0.932" fill="#000000" d="M 118.5,304.5 C 132.505,305.539 146.505,306.706 160.5,308C 166.543,310.884 168.043,315.384 165,321.5C 164.097,322.701 162.931,323.535 161.5,324C 156.13,324.438 150.797,324.438 145.5,324C 190.145,359.409 240.479,371.075 296.5,359C 317.821,353.505 337.487,344.505 355.5,332C 364.667,330.5 368.5,334.333 367,343.5C 366.535,344.931 365.701,346.097 364.5,347C 305.7,384.939 243.7,390.939 178.5,365C 161.563,357.29 146.063,347.457 132,335.5C 131.5,340.012 131.667,344.512 132.5,349C 131.517,357.83 126.851,360.496 118.5,357C 117.299,356.097 116.465,354.931 116,353.5C 114.131,338.873 113.131,324.207 113,309.5C 114.406,307.256 116.239,305.59 118.5,304.5 Z"/></g>
</svg>
