<svg xmlns="http://www.w3.org/2000/svg" version="1.1" width="500px" height="500px" style="shape-rendering:geometricPrecision; text-rendering:geometricPrecision; image-rendering:optimizeQuality; fill-rule:evenodd; clip-rule:evenodd" xmlns:xlink="http://www.w3.org/1999/xlink">
<g><path style="opacity:0.171" fill="#534752" d="M 249.5,-0.5 C 251.167,-0.5 252.833,-0.5 254.5,-0.5C 254.5,1.16667 254.5,2.83333 254.5,4.5C 252.833,4.5 251.167,4.5 249.5,4.5C 250.562,2.90078 250.562,1.23411 249.5,-0.5 Z"/></g>
<g><path style="opacity:0.996" fill="#040404" d="M 254.5,-0.5 C 258.167,-0.5 261.833,-0.5 265.5,-0.5C 265.5,1.16667 265.5,2.83333 265.5,4.5C 268.833,4.5 272.167,4.5 275.5,4.5C 278.833,4.5 282.167,4.5 285.5,4.5C 285.5,6.5 285.5,8.5 285.5,10.5C 289.167,10.5 292.833,10.5 296.5,10.5C 296.5,12.1667 296.5,13.8333 296.5,15.5C 300.167,15.5 303.833,15.5 307.5,15.5C 307.5,17.1667 307.5,18.8333 307.5,20.5C 314.167,20.5 320.833,20.5 327.5,20.5C 327.5,22.1667 327.5,23.8333 327.5,25.5C 328.919,26.4511 330.585,26.7845 332.5,26.5C 332.5,36.1667 332.5,45.8333 332.5,55.5C 332.5,55.8333 332.5,56.1667 332.5,56.5C 330.833,56.5 329.167,56.5 327.5,56.5C 327.5,58.1667 327.5,59.8333 327.5,61.5C 320.825,61.6663 314.158,61.4996 307.5,61C 310.482,60.502 313.482,60.3354 316.5,60.5C 316.5,59.5 316.5,58.5 316.5,57.5C 309.978,57.1765 303.645,57.5098 297.5,58.5C 296.833,58.5 296.5,58.1667 296.5,57.5C 296.5,55.5 296.5,53.5 296.5,51.5C 293.167,51.5 289.833,51.5 286.5,51.5C 286.167,51.5 285.833,51.5 285.5,51.5C 285.5,49.8333 285.5,48.1667 285.5,46.5C 283.833,46.5 282.167,46.5 280.5,46.5C 279.167,46.5 277.833,46.5 276.5,46.5C 276.5,44.8333 276.5,43.1667 276.5,41.5C 272.5,41.5 268.5,41.5 264.5,41.5C 261.167,41.5 257.833,41.5 254.5,41.5C 254.5,39.5 254.5,37.5 254.5,35.5C 252.833,35.5 251.167,35.5 249.5,35.5C 248.24,25.2161 248.24,14.8827 249.5,4.5C 251.167,4.5 252.833,4.5 254.5,4.5C 254.5,2.83333 254.5,1.16667 254.5,-0.5 Z"/></g>
<g><path style="opacity:1" fill="#292929" d="M 265.5,-0.5 C 268.833,-0.5 272.167,-0.5 275.5,-0.5C 275.5,1.16667 275.5,2.83333 275.5,4.5C 272.167,4.5 268.833,4.5 265.5,4.5C 265.5,2.83333 265.5,1.16667 265.5,-0.5 Z"/></g>
<g><path style="opacity:0.927" fill="#625e60" d="M 275.5,-0.5 C 277.5,-0.5 279.5,-0.5 281.5,-0.5C 281.5,0.833333 281.5,2.16667 281.5,3.5C 284.874,3.67436 288.207,4.17436 291.5,5C 292.337,6.01127 292.67,7.17793 292.5,8.5C 295.216,8.6785 297.883,9.1785 300.5,10C 301.38,11.3561 301.714,12.8561 301.5,14.5C 304.85,14.335 308.183,14.5017 311.5,15C 312.583,17.0559 314.25,18.3892 316.5,19C 321.854,19.3905 327.188,19.8905 332.5,20.5C 332.5,22.1667 332.5,23.8333 332.5,25.5C 330.833,25.5 329.167,25.5 327.5,25.5C 327.5,23.8333 327.5,22.1667 327.5,20.5C 320.833,20.5 314.167,20.5 307.5,20.5C 307.5,18.8333 307.5,17.1667 307.5,15.5C 303.833,15.5 300.167,15.5 296.5,15.5C 296.5,13.8333 296.5,12.1667 296.5,10.5C 292.833,10.5 289.167,10.5 285.5,10.5C 285.5,8.5 285.5,6.5 285.5,4.5C 282.167,4.5 278.833,4.5 275.5,4.5C 275.5,2.83333 275.5,1.16667 275.5,-0.5 Z"/></g>
<g><path style="opacity:0.016" fill="#464545" d="M 327.5,25.5 C 329.167,25.5 330.833,25.5 332.5,25.5C 333.833,35.5 333.833,45.5 332.5,55.5C 332.5,45.8333 332.5,36.1667 332.5,26.5C 330.585,26.7845 328.919,26.4511 327.5,25.5 Z"/></g>
<g><path style="opacity:0.204" fill="#5f585f" d="M 249.5,35.5 C 251.167,35.5 252.833,35.5 254.5,35.5C 254.5,37.5 254.5,39.5 254.5,41.5C 251.295,40.8701 249.629,38.8701 249.5,35.5 Z"/></g>
<g><path style="opacity:0.784" fill="#80797d" d="M 264.5,41.5 C 268.5,41.5 272.5,41.5 276.5,41.5C 276.5,43.1667 276.5,44.8333 276.5,46.5C 274.076,46.8076 271.743,46.4742 269.5,45.5C 267.985,43.9178 266.319,42.5845 264.5,41.5 Z"/></g>
<g><path style="opacity:0.224" fill="#666565" d="M 280.5,46.5 C 282.167,46.5 283.833,46.5 285.5,46.5C 285.5,48.1667 285.5,49.8333 285.5,51.5C 283.833,51.5 282.167,51.5 280.5,51.5C 280.5,49.8333 280.5,48.1667 280.5,46.5 Z"/></g>
<g><path style="opacity:0.518" fill="#575659" d="M 286.5,51.5 C 289.833,51.5 293.167,51.5 296.5,51.5C 296.5,53.5 296.5,55.5 296.5,57.5C 294.801,57.6602 293.134,57.4935 291.5,57C 288.921,55.9243 287.254,54.091 286.5,51.5 Z"/></g>
<g><path style="opacity:0.659" fill="#545356" d="M 332.5,56.5 C 332.739,58.4672 332.406,60.3005 331.5,62C 321.5,62.6667 311.5,62.6667 301.5,62C 300.269,60.5952 298.936,59.4286 297.5,58.5C 303.645,57.5098 309.978,57.1765 316.5,57.5C 316.5,58.5 316.5,59.5 316.5,60.5C 313.482,60.3354 310.482,60.502 307.5,61C 314.158,61.4996 320.825,61.6663 327.5,61.5C 327.5,59.8333 327.5,58.1667 327.5,56.5C 329.167,56.5 330.833,56.5 332.5,56.5 Z"/></g>
<g><path style="opacity:0.999" fill="#000000" d="M 238.5,72.5 C 247.5,72.5 256.5,72.5 265.5,72.5C 265.245,73.9361 264.912,75.4361 264.5,77C 266.473,77.4955 268.473,77.6621 270.5,77.5C 275.5,77.5 280.5,77.5 285.5,77.5C 287.5,77.5 289.5,77.5 291.5,77.5C 291.5,79.1667 291.5,80.8333 291.5,82.5C 294.5,82.5 297.5,82.5 300.5,82.5C 300.833,82.5 301.167,82.5 301.5,82.5C 301.5,84.5 301.5,86.5 301.5,88.5C 304.833,88.5 308.167,88.5 311.5,88.5C 311.5,90.1667 311.5,91.8333 311.5,93.5C 315.167,93.5 318.833,93.5 322.5,93.5C 322.5,95.1667 322.5,96.8333 322.5,98.5C 324.167,98.5 325.833,98.5 327.5,98.5C 327.5,100.5 327.5,102.5 327.5,104.5C 329.167,104.5 330.833,104.5 332.5,104.5C 332.5,106.167 332.5,107.833 332.5,109.5C 334.5,109.5 336.5,109.5 338.5,109.5C 338.5,110.833 338.5,112.167 338.5,113.5C 340.167,113.5 341.833,113.5 343.5,113.5C 343.5,115.5 343.5,117.5 343.5,119.5C 344.833,119.5 346.167,119.5 347.5,119.5C 347.833,122.833 348.167,126.167 348.5,129.5C 350.167,129.5 351.833,129.5 353.5,129.5C 353.5,131.5 353.5,133.5 353.5,135.5C 355.167,135.5 356.833,135.5 358.5,135.5C 358.5,138.833 358.5,142.167 358.5,145.5C 360.144,145.714 361.644,145.38 363,144.5C 363.499,148.152 363.665,151.818 363.5,155.5C 363.5,157.167 363.5,158.833 363.5,160.5C 365.167,160.5 366.833,160.5 368.5,160.5C 368.5,158.833 368.5,157.167 368.5,155.5C 368.833,155.5 369.167,155.5 369.5,155.5C 369.5,162.5 369.5,169.5 369.5,176.5C 369.5,179.833 369.5,183.167 369.5,186.5C 370.833,186.5 372.167,186.5 373.5,186.5C 373.5,183.167 373.5,179.833 373.5,176.5C 373.833,176.5 374.167,176.5 374.5,176.5C 375.747,179.867 375.747,183.201 374.5,186.5C 377.962,187.482 381.629,187.815 385.5,187.5C 385.5,188.833 385.5,190.167 385.5,191.5C 387.167,191.5 388.833,191.5 390.5,191.5C 390.5,193.5 390.5,195.5 390.5,197.5C 391.833,197.5 393.167,197.5 394.5,197.5C 394.5,200.833 394.5,204.167 394.5,207.5C 393.167,207.5 391.833,207.5 390.5,207.5C 390.5,209.167 390.5,210.833 390.5,212.5C 391.5,212.5 392.5,212.5 393.5,212.5C 394.045,208.828 394.378,209.162 394.5,213.5C 391.654,214.095 388.654,214.095 385.5,213.5C 385.5,215.167 385.5,216.833 385.5,218.5C 382.518,218.963 379.518,219.296 376.5,219.5C 376.44,218.957 376.107,218.624 375.5,218.5C 374.501,235.487 374.167,252.487 374.5,269.5C 384.713,269.954 391.713,270.62 395.5,271.5C 395.5,272.833 395.5,274.167 395.5,275.5C 398.833,275.5 402.167,275.5 405.5,275.5C 406.833,275.5 408.167,275.5 409.5,275.5C 410.167,275.5 410.833,275.5 411.5,275.5C 413.167,275.5 414.833,275.5 416.5,275.5C 416.5,277.167 416.5,278.833 416.5,280.5C 418.167,280.5 419.833,280.5 421.5,280.5C 421.5,282.167 421.5,283.833 421.5,285.5C 423.167,285.5 424.833,285.5 426.5,285.5C 426.833,285.5 427.167,285.5 427.5,285.5C 428.5,285.5 429.5,285.5 430.5,285.5C 430.833,285.5 431.167,285.5 431.5,285.5C 431.5,287.5 431.5,289.5 431.5,291.5C 437.167,291.664 437.5,291.997 432.5,292.5C 432.5,293.833 432.5,295.167 432.5,296.5C 433.833,296.5 435.167,296.5 436.5,296.5C 436.5,298.167 436.5,299.833 436.5,301.5C 438.167,301.5 439.833,301.5 441.5,301.5C 441.5,308.5 441.5,315.5 441.5,322.5C 443.167,322.5 444.833,322.5 446.5,322.5C 447.506,364.488 447.84,413.155 447.5,468.5C 445.5,468.5 443.5,468.5 441.5,468.5C 441.5,470.167 441.5,471.833 441.5,473.5C 440.167,473.5 438.833,473.5 437.5,473.5C 435.833,473.5 434.167,473.5 432.5,473.5C 432.5,474.833 432.5,476.167 432.5,477.5C 311.855,478.5 188.522,478.833 62.5,478.5C 62.7845,476.585 62.4511,474.919 61.5,473.5C 60.1667,473.5 58.8333,473.5 57.5,473.5C 57.5,471.833 57.5,470.167 57.5,468.5C 55.8333,468.5 54.1667,468.5 52.5,468.5C 51.2015,413.324 51.2015,364.657 52.5,322.5C 53.8333,322.5 55.1667,322.5 56.5,322.5C 57.2897,315.529 57.6231,308.529 57.5,301.5C 59.1667,301.5 60.8333,301.5 62.5,301.5C 62.1872,297.958 62.5206,294.625 63.5,291.5C 64.8333,291.5 66.1667,291.5 67.5,291.5C 67.5,289.5 67.5,287.5 67.5,285.5C 70.7312,284.632 74.0645,284.632 77.5,285.5C 77.5,284.167 77.5,282.833 77.5,281.5C 79.4147,281.784 81.0813,281.451 82.5,280.5C 82.5,278.833 82.5,277.167 82.5,275.5C 84.1667,275.5 85.8333,275.5 87.5,275.5C 88.1667,275.5 88.8333,275.5 89.5,275.5C 90.8333,275.5 92.1667,275.5 93.5,275.5C 96.8333,275.5 100.167,275.5 103.5,275.5C 103.5,274.167 103.5,272.833 103.5,271.5C 107.112,270.513 114.112,270.013 124.5,270C 122.527,269.505 120.527,269.338 118.5,269.5C 119.919,268.549 121.585,268.216 123.5,268.5C 124.662,252.339 124.828,236.005 124,219.5C 123.023,218.226 122.189,218.226 121.5,219.5C 118.287,219.81 115.287,219.477 112.5,218.5C 113.451,217.081 113.784,215.415 113.5,213.5C 111.833,213.5 110.167,213.5 108.5,213.5C 108.5,211.5 108.5,209.5 108.5,207.5C 107.167,207.5 105.833,207.5 104.5,207.5C 104.5,204.167 104.5,200.833 104.5,197.5C 105.833,197.5 107.167,197.5 108.5,197.5C 107.425,193.062 109.092,191.062 113.5,191.5C 113.5,190.167 113.5,188.833 113.5,187.5C 117.371,187.815 121.038,187.482 124.5,186.5C 124.016,183.284 124.016,179.951 124.5,176.5C 125.479,179.625 125.813,182.958 125.5,186.5C 126.833,186.5 128.167,186.5 129.5,186.5C 129.114,174.455 129.447,165.789 130.5,160.5C 132.167,160.5 133.833,160.5 135.5,160.5C 135.5,155.5 135.5,150.5 135.5,145.5C 137.167,145.5 138.833,145.5 140.5,145.5C 140.5,142.167 140.5,138.833 140.5,135.5C 141.833,135.5 143.167,135.5 144.5,135.5C 145.461,133.735 145.795,131.735 145.5,129.5C 147.167,129.5 148.833,129.5 150.5,129.5C 150.5,128.167 150.5,126.833 150.5,125.5C 148.856,125.286 147.356,125.62 146,126.5C 145.536,125.906 145.369,125.239 145.5,124.5C 147.5,124.5 149.5,124.5 151.5,124.5C 151.635,122.446 150.968,120.779 149.5,119.5C 149.833,119.5 150.167,119.5 150.5,119.5C 152.167,119.5 153.833,119.5 155.5,119.5C 155.5,117.5 155.5,115.5 155.5,113.5C 157.167,113.5 158.833,113.5 160.5,113.5C 160.5,112.167 160.5,110.833 160.5,109.5C 162.5,109.5 164.5,109.5 166.5,109.5C 166.5,107.833 166.5,106.167 166.5,104.5C 168.167,104.5 169.833,104.5 171.5,104.5C 171.5,102.5 171.5,100.5 171.5,98.5C 173.167,98.5 174.833,98.5 176.5,98.5C 176.5,96.8333 176.5,95.1667 176.5,93.5C 180.167,93.5 183.833,93.5 187.5,93.5C 187.714,91.8561 187.38,90.3561 186.5,89C 190.152,88.5014 193.818,88.3347 197.5,88.5C 197.5,86.5 197.5,84.5 197.5,82.5C 200.833,82.5 204.167,82.5 207.5,82.5C 207.5,80.8333 207.5,79.1667 207.5,77.5C 209.5,77.5 211.5,77.5 213.5,77.5C 218.5,77.5 223.5,77.5 228.5,77.5C 231.833,77.5 235.167,77.5 238.5,77.5C 238.5,75.8333 238.5,74.1667 238.5,72.5 Z M 156.5,218.5 C 170.262,219.311 183.928,219.645 197.5,219.5C 196.609,236.148 196.276,252.815 196.5,269.5C 183.167,269.5 169.833,269.5 156.5,269.5C 156.5,252.5 156.5,235.5 156.5,218.5 Z M 342.5,218.5 C 342.5,235.5 342.5,252.5 342.5,269.5C 329.167,269.5 315.833,269.5 302.5,269.5C 302.5,252.833 302.5,236.167 302.5,219.5C 315.718,219.707 329.052,219.373 342.5,218.5 Z M 269.5,218.5 C 269.5,235.5 269.5,252.5 269.5,269.5C 256.167,269.5 242.833,269.5 229.5,269.5C 229.5,252.833 229.5,236.167 229.5,219.5C 242.773,219.49 256.106,219.157 269.5,218.5 Z M 202.5,332.5 C 202.5,335.833 202.5,339.167 202.5,342.5C 201.488,344.964 199.655,346.631 197,347.5C 196.506,349.134 196.34,350.801 196.5,352.5C 191.851,353.295 187.184,353.461 182.5,353C 179.495,352.681 177.495,351.181 176.5,348.5C 175.685,347.163 174.518,346.163 173,345.5C 171.63,341.26 171.464,336.926 172.5,332.5C 175.297,330.205 177.964,327.705 180.5,325C 185.546,322.985 190.546,323.151 195.5,325.5C 197.673,328.068 200.006,330.401 202.5,332.5 Z M 327.5,332.5 C 327.5,335.833 327.5,339.167 327.5,342.5C 326.566,343.568 326.232,344.901 326.5,346.5C 323.1,346.731 321.1,348.564 320.5,352C 314.543,353.829 308.543,353.996 302.5,352.5C 302.768,350.901 302.434,349.568 301.5,348.5C 299.39,347.05 298.057,345.05 297.5,342.5C 297.5,339.167 297.5,335.833 297.5,332.5C 307.331,320.544 317.331,320.544 327.5,332.5 Z M 369.5,323.5 C 376.015,322.167 381.348,324.001 385.5,329C 386.448,329.483 387.448,329.649 388.5,329.5C 389.833,335.167 389.833,340.833 388.5,346.5C 384.686,346.651 383.019,348.651 383.5,352.5C 378.86,353.397 374.194,353.564 369.5,353C 367.167,352 365.5,350.333 364.5,348C 362.833,347.667 361.167,347.333 359.5,347C 359.288,341.232 359.621,335.398 360.5,329.5C 361.552,329.649 362.552,329.483 363.5,329C 365.416,326.909 367.416,325.076 369.5,323.5 Z M 119.5,323.5 C 122.85,323.335 126.183,323.502 129.5,324C 130.325,325.688 131.325,325.855 132.5,324.5C 134.111,325.32 134.778,326.654 134.5,328.5C 137.388,328.22 138.888,329.553 139,332.5C 139.564,337.194 139.397,341.86 138.5,346.5C 134.686,346.651 133.019,348.651 133.5,352.5C 127.172,353.768 120.839,353.768 114.5,352.5C 115.167,348.5 113.5,346.833 109.5,347.5C 109.303,341.455 109.637,335.455 110.5,329.5C 111.552,329.649 112.552,329.483 113.5,329C 115.254,326.788 117.254,324.955 119.5,323.5 Z M 254.5,353.5 C 251.167,353.5 247.833,353.5 244.5,353.5C 243.432,352.566 242.099,352.232 240.5,352.5C 240.466,348.691 238.466,346.857 234.5,347C 234.501,342.308 234.668,337.475 235,332.5C 240.452,323.556 248.286,321.056 258.5,325C 259.333,327.167 260.833,328.667 263,329.5C 264.476,334.076 264.81,338.743 264,343.5C 263.599,345.521 262.432,346.855 260.5,347.5C 259.548,349.045 259.215,350.712 259.5,352.5C 257.585,352.216 255.919,352.549 254.5,353.5 Z M 119.5,385.5 C 122.833,385.5 126.167,385.5 129.5,385.5C 130.183,387.176 131.517,387.843 133.5,387.5C 135.376,390.057 137.209,392.724 139,395.5C 139.564,400.194 139.397,404.86 138.5,409.5C 134.686,409.651 133.019,411.651 133.5,415.5C 131.833,415.5 130.167,415.5 128.5,415.5C 127.833,415.5 127.167,415.5 126.5,415.5C 122.5,415.5 118.5,415.5 114.5,415.5C 114.784,413.585 114.451,411.919 113.5,410.5C 113.167,410.5 112.833,410.5 112.5,410.5C 112.158,409.662 111.492,409.328 110.5,409.5C 109.226,403.492 109.226,397.492 110.5,391.5C 111.791,391.737 112.791,391.404 113.5,390.5C 115.557,388.832 117.557,387.165 119.5,385.5 Z M 182.5,385.5 C 185.5,385.5 188.5,385.5 191.5,385.5C 191.511,387.017 192.177,388.184 193.5,389C 196.807,390.838 199.807,393.005 202.5,395.5C 202.5,398.833 202.5,402.167 202.5,405.5C 200.896,406.287 200.229,407.62 200.5,409.5C 196.932,409.759 195.599,411.759 196.5,415.5C 194.833,415.5 193.167,415.5 191.5,415.5C 188.391,415.264 185.391,415.597 182.5,416.5C 181.432,415.566 180.099,415.232 178.5,415.5C 178.806,411.303 176.806,409.303 172.5,409.5C 171.771,404.87 171.437,400.203 171.5,395.5C 175.518,392.479 179.184,389.146 182.5,385.5 Z M 244.5,385.5 C 247.786,386.207 251.119,386.54 254.5,386.5C 256.059,387.829 257.725,389.162 259.5,390.5C 260.736,391.246 262.07,391.579 263.5,391.5C 264.833,397.5 264.833,403.5 263.5,409.5C 259.686,409.651 258.019,411.651 258.5,415.5C 252.5,415.5 246.5,415.5 240.5,415.5C 240.88,413.302 240.213,411.635 238.5,410.5C 237.791,409.596 236.791,409.263 235.5,409.5C 234.167,403.5 234.167,397.5 235.5,391.5C 236.791,391.737 237.791,391.404 238.5,390.5C 240.571,388.815 242.571,387.148 244.5,385.5 Z M 307.5,385.5 C 310.609,385.264 313.609,385.597 316.5,386.5C 320.35,389.261 324.017,392.261 327.5,395.5C 327.5,398.833 327.5,402.167 327.5,405.5C 326.732,406.263 326.232,407.263 326,408.5C 322.674,410.994 319.507,413.661 316.5,416.5C 313.447,415.576 310.447,415.576 307.5,416.5C 306.081,415.549 304.415,415.216 302.5,415.5C 302.956,411.881 301.456,409.548 298,408.5C 297.517,407.552 297.351,406.552 297.5,405.5C 297.5,402.167 297.5,398.833 297.5,395.5C 297.539,394.417 297.873,393.417 298.5,392.5C 301.319,389.758 304.319,387.425 307.5,385.5 Z M 369.5,385.5 C 372.833,385.5 376.167,385.5 379.5,385.5C 379.511,387.017 380.177,388.184 381.5,389C 389.101,392.412 391.601,398.245 389,406.5C 386.403,408.886 383.57,411.719 380.5,415C 378.866,415.494 377.199,415.66 375.5,415.5C 373.833,415.5 372.167,415.5 370.5,415.5C 368.122,414.308 366.122,412.641 364.5,410.5C 363.264,409.754 361.93,409.421 360.5,409.5C 359.167,403.5 359.167,397.5 360.5,391.5C 361.791,391.737 362.791,391.404 363.5,390.5C 366.362,389.753 368.362,388.086 369.5,385.5 Z"/></g>
<g><path style="opacity:1" fill="#777678" d="M 223.5,72.5 C 224.919,73.4511 226.585,73.7845 228.5,73.5C 228.5,74.8333 228.5,76.1667 228.5,77.5C 223.5,77.5 218.5,77.5 213.5,77.5C 215.062,76.0244 216.729,74.5244 218.5,73C 220.134,72.5065 221.801,72.3398 223.5,72.5 Z"/></g>
<g><path style="opacity:1" fill="#2d2c2e" d="M 223.5,72.5 C 228.5,72.5 233.5,72.5 238.5,72.5C 238.5,74.1667 238.5,75.8333 238.5,77.5C 235.167,77.5 231.833,77.5 228.5,77.5C 228.5,76.1667 228.5,74.8333 228.5,73.5C 226.585,73.7845 224.919,73.4511 223.5,72.5 Z"/></g>
<g><path style="opacity:1" fill="#414041" d="M 265.5,72.5 C 268.833,72.5 272.167,72.5 275.5,72.5C 274.081,73.4511 272.415,73.7845 270.5,73.5C 270.5,74.8333 270.5,76.1667 270.5,77.5C 268.473,77.6621 266.473,77.4955 264.5,77C 264.912,75.4361 265.245,73.9361 265.5,72.5 Z"/></g>
<g><path style="opacity:0.255" fill="#767476" d="M 275.5,72.5 C 277.288,72.2148 278.955,72.5481 280.5,73.5C 282.363,74.6888 284.03,76.0221 285.5,77.5C 280.5,77.5 275.5,77.5 270.5,77.5C 270.5,76.1667 270.5,74.8333 270.5,73.5C 272.415,73.7845 274.081,73.4511 275.5,72.5 Z"/></g>
<g><path style="opacity:1" fill="#7a777b" d="M 207.5,77.5 C 207.5,79.1667 207.5,80.8333 207.5,82.5C 204.167,82.5 200.833,82.5 197.5,82.5C 198.568,81.5655 199.901,81.2322 201.5,81.5C 201.759,77.9319 203.759,76.5985 207.5,77.5 Z"/></g>
<g><path style="opacity:0.851" fill="#757575" d="M 291.5,77.5 C 293.167,77.5 294.833,77.5 296.5,77.5C 296.5,78.8333 296.5,80.1667 296.5,81.5C 298.099,81.2322 299.432,81.5655 300.5,82.5C 297.5,82.5 294.5,82.5 291.5,82.5C 291.5,80.8333 291.5,79.1667 291.5,77.5 Z"/></g>
<g><path style="opacity:1" fill="#5d5d5d" d="M 301.5,82.5 C 303.5,82.5 305.5,82.5 307.5,82.5C 307.5,84.1667 307.5,85.8333 307.5,87.5C 310.833,87.8333 314.167,88.1667 317.5,88.5C 317.5,89.8333 317.5,91.1667 317.5,92.5C 319.415,92.2155 321.081,92.5489 322.5,93.5C 318.833,93.5 315.167,93.5 311.5,93.5C 311.5,91.8333 311.5,90.1667 311.5,88.5C 308.167,88.5 304.833,88.5 301.5,88.5C 301.5,86.5 301.5,84.5 301.5,82.5 Z"/></g>
<g><path style="opacity:0.213" fill="#595859" d="M 197.5,82.5 C 197.5,84.5 197.5,86.5 197.5,88.5C 193.818,88.3347 190.152,88.5014 186.5,89C 187.38,90.3561 187.714,91.8561 187.5,93.5C 183.833,93.5 180.167,93.5 176.5,93.5C 176.5,95.1667 176.5,96.8333 176.5,98.5C 174.833,98.5 173.167,98.5 171.5,98.5C 171.5,100.5 171.5,102.5 171.5,104.5C 169.833,104.5 168.167,104.5 166.5,104.5C 166.5,106.167 166.5,107.833 166.5,109.5C 164.5,109.5 162.5,109.5 160.5,109.5C 160.5,110.833 160.5,112.167 160.5,113.5C 158.833,113.5 157.167,113.5 155.5,113.5C 155.5,111.833 155.5,110.167 155.5,108.5C 157.167,108.5 158.833,108.5 160.5,108.5C 160.5,106.833 160.5,105.167 160.5,103.5C 162.5,103.5 164.5,103.5 166.5,103.5C 166.5,101.5 166.5,99.5 166.5,97.5C 168.167,97.5 169.833,97.5 171.5,97.5C 171.33,96.1779 171.663,95.0113 172.5,94C 175.393,92.8512 178.393,92.3512 181.5,92.5C 181.286,90.8561 181.62,89.3561 182.5,88C 185.478,87.304 188.478,86.804 191.5,86.5C 191.5,85.1667 191.5,83.8333 191.5,82.5C 193.5,82.5 195.5,82.5 197.5,82.5 Z"/></g>
<g><path style="opacity:0.259" fill="#575657" d="M 322.5,93.5 C 325.295,96.2309 328.628,97.8975 332.5,98.5C 332.5,100.167 332.5,101.833 332.5,103.5C 334.5,103.5 336.5,103.5 338.5,103.5C 338.5,105.167 338.5,106.833 338.5,108.5C 340.167,108.5 341.833,108.5 343.5,108.5C 343.5,110.167 343.5,111.833 343.5,113.5C 341.833,113.5 340.167,113.5 338.5,113.5C 338.5,112.167 338.5,110.833 338.5,109.5C 336.5,109.5 334.5,109.5 332.5,109.5C 332.5,107.833 332.5,106.167 332.5,104.5C 330.833,104.5 329.167,104.5 327.5,104.5C 327.5,102.5 327.5,100.5 327.5,98.5C 325.833,98.5 324.167,98.5 322.5,98.5C 322.5,96.8333 322.5,95.1667 322.5,93.5 Z"/></g>
<g><path style="opacity:0.418" fill="#5b5a5c" d="M 155.5,113.5 C 155.5,115.5 155.5,117.5 155.5,119.5C 153.833,119.5 152.167,119.5 150.5,119.5C 150.5,117.5 150.5,115.5 150.5,113.5C 152.167,113.5 153.833,113.5 155.5,113.5 Z"/></g>
<g><path style="opacity:0.067" fill="#49474d" d="M 149.5,119.5 C 150.968,120.779 151.635,122.446 151.5,124.5C 149.5,124.5 147.5,124.5 145.5,124.5C 145.5,122.833 145.5,121.167 145.5,119.5C 146.833,119.5 148.167,119.5 149.5,119.5 Z"/></g>
<g><path style="opacity:0.69" fill="#3d3d40" d="M 145.5,124.5 C 145.369,125.239 145.536,125.906 146,126.5C 147.356,125.62 148.856,125.286 150.5,125.5C 150.5,126.833 150.5,128.167 150.5,129.5C 148.833,129.5 147.167,129.5 145.5,129.5C 145.795,131.735 145.461,133.735 144.5,135.5C 144.5,133.833 144.5,132.167 144.5,130.5C 142.876,130.36 141.71,131.027 141,132.5C 140.722,131.584 140.222,130.918 139.5,130.5C 140.641,129.661 141.974,128.994 143.5,128.5C 144.172,127.051 144.839,125.718 145.5,124.5 Z"/></g>
<g><path style="opacity:0.576" fill="#4f4e4f" d="M 343.5,113.5 C 344.873,113.343 346.207,113.51 347.5,114C 348.264,116.069 348.764,118.236 349,120.5C 350.716,119.448 351.716,120.114 352,122.5C 352.333,122.167 352.667,121.833 353,121.5C 353.822,123.788 354.489,126.122 355,128.5C 356.356,129.38 357.856,129.714 359.5,129.5C 359.5,132.833 359.5,136.167 359.5,139.5C 361.144,139.286 362.644,139.62 364,140.5C 364.498,143.817 364.665,147.15 364.5,150.5C 366.167,150.5 367.833,150.5 369.5,150.5C 369.5,152.167 369.5,153.833 369.5,155.5C 369.167,155.5 368.833,155.5 368.5,155.5C 366.833,155.5 365.167,155.5 363.5,155.5C 363.665,151.818 363.499,148.152 363,144.5C 361.644,145.38 360.144,145.714 358.5,145.5C 358.5,142.167 358.5,138.833 358.5,135.5C 356.833,135.5 355.167,135.5 353.5,135.5C 353.5,133.5 353.5,131.5 353.5,129.5C 351.833,129.5 350.167,129.5 348.5,129.5C 348.167,126.167 347.833,122.833 347.5,119.5C 346.167,119.5 344.833,119.5 343.5,119.5C 343.5,117.5 343.5,115.5 343.5,113.5 Z"/></g>
<g><path style="opacity:0.259" fill="#535053" d="M 139.5,130.5 C 140.222,130.918 140.722,131.584 141,132.5C 141.71,131.027 142.876,130.36 144.5,130.5C 144.5,132.167 144.5,133.833 144.5,135.5C 143.167,135.5 141.833,135.5 140.5,135.5C 140.5,138.833 140.5,142.167 140.5,145.5C 138.833,145.5 137.167,145.5 135.5,145.5C 135.5,150.5 135.5,155.5 135.5,160.5C 133.833,160.5 132.167,160.5 130.5,160.5C 129.447,165.789 129.114,174.455 129.5,186.5C 128.167,186.5 126.833,186.5 125.5,186.5C 125.813,182.958 125.479,179.625 124.5,176.5C 124.46,173.119 124.793,169.786 125.5,166.5C 126.5,166.5 127.5,166.5 128.5,166.5C 128.392,161.13 128.725,155.797 129.5,150.5C 131.167,150.5 132.833,150.5 134.5,150.5C 134.335,147.15 134.502,143.817 135,140.5C 136.356,139.62 137.856,139.286 139.5,139.5C 139.5,136.5 139.5,133.5 139.5,130.5 Z"/></g>
<g><path style="opacity:1" fill="#323031" d="M 363.5,155.5 C 365.167,155.5 366.833,155.5 368.5,155.5C 368.5,157.167 368.5,158.833 368.5,160.5C 366.833,160.5 365.167,160.5 363.5,160.5C 363.5,158.833 363.5,157.167 363.5,155.5 Z"/></g>
<g><path style="opacity:0.898" fill="#625f60" d="M 369.5,155.5 C 370.321,158.641 370.821,161.975 371,165.5C 372.011,166.337 373.178,166.67 374.5,166.5C 374.5,169.833 374.5,173.167 374.5,176.5C 374.167,176.5 373.833,176.5 373.5,176.5C 372.167,176.5 370.833,176.5 369.5,176.5C 369.5,169.5 369.5,162.5 369.5,155.5 Z"/></g>
<g><path style="opacity:1" fill="#343234" d="M 369.5,176.5 C 370.833,176.5 372.167,176.5 373.5,176.5C 373.5,179.833 373.5,183.167 373.5,186.5C 372.167,186.5 370.833,186.5 369.5,186.5C 369.5,183.167 369.5,179.833 369.5,176.5 Z"/></g>
<g><path style="opacity:1" fill="#434343" d="M 374.5,186.5 C 379.833,186.5 385.167,186.5 390.5,186.5C 390.5,188.167 390.5,189.833 390.5,191.5C 388.833,191.5 387.167,191.5 385.5,191.5C 385.5,190.167 385.5,188.833 385.5,187.5C 381.629,187.815 377.962,187.482 374.5,186.5 Z"/></g>
<g><path style="opacity:1" fill="#423e41" d="M 390.5,191.5 C 392.167,191.5 393.833,191.5 395.5,191.5C 395.666,199.174 395.5,206.841 395,214.5C 392.761,217.962 389.594,219.295 385.5,218.5C 385.5,216.833 385.5,215.167 385.5,213.5C 388.654,214.095 391.654,214.095 394.5,213.5C 394.378,209.162 394.045,208.828 393.5,212.5C 392.5,212.5 391.5,212.5 390.5,212.5C 390.5,210.833 390.5,209.167 390.5,207.5C 391.833,207.5 393.167,207.5 394.5,207.5C 394.5,204.167 394.5,200.833 394.5,197.5C 393.167,197.5 391.833,197.5 390.5,197.5C 390.5,195.5 390.5,193.5 390.5,191.5 Z"/></g>
<g><path style="opacity:0.51" fill="#4a464a" d="M 124.5,186.5 C 121.038,187.482 117.371,187.815 113.5,187.5C 113.5,188.833 113.5,190.167 113.5,191.5C 109.092,191.062 107.425,193.062 108.5,197.5C 107.167,197.5 105.833,197.5 104.5,197.5C 104.5,200.833 104.5,204.167 104.5,207.5C 105.833,207.5 107.167,207.5 108.5,207.5C 108.5,209.5 108.5,211.5 108.5,213.5C 110.167,213.5 111.833,213.5 113.5,213.5C 113.784,215.415 113.451,217.081 112.5,218.5C 109.138,218.93 106.305,217.93 104,215.5C 103.333,207.167 103.333,198.833 104,190.5C 105.487,189.845 106.653,188.845 107.5,187.5C 113.128,186.505 118.794,186.171 124.5,186.5 Z"/></g>
<g><path style="opacity:0.012" fill="#5c5c5c" d="M 376.5,219.5 C 375.516,235.756 375.182,252.089 375.5,268.5C 375.5,269.167 375.167,269.5 374.5,269.5C 374.167,252.487 374.501,235.487 375.5,218.5C 376.107,218.624 376.44,218.957 376.5,219.5 Z"/></g>
<g><path style="opacity:0.012" fill="#626162" d="M 121.5,219.5 C 122.189,218.226 123.023,218.226 124,219.5C 124.828,236.005 124.662,252.339 123.5,268.5C 123.667,252.497 123.5,236.497 123,220.5C 122.617,219.944 122.117,219.611 121.5,219.5 Z"/></g>
<g><path style="opacity:0.453" fill="#241d23" d="M 229.5,219.5 C 229.5,236.167 229.5,252.833 229.5,269.5C 242.833,269.5 256.167,269.5 269.5,269.5C 269.5,252.5 269.5,235.5 269.5,218.5C 270.497,235.659 270.83,252.992 270.5,270.5C 256.5,270.5 242.5,270.5 228.5,270.5C 228.168,252.756 228.501,235.756 229.5,219.5 Z M 269.5,218.5 C 269.5,235.5 269.5,252.5 269.5,269.5C 256.167,269.5 242.833,269.5 229.5,269.5C 229.5,252.833 229.5,236.167 229.5,219.5C 242.773,219.49 256.106,219.157 269.5,218.5 Z"/></g>
<g><path style="opacity:0.468" fill="#312b30" d="M 342.5,218.5 C 343.497,235.659 343.83,252.992 343.5,270.5C 329.087,270.832 315.42,270.499 302.5,269.5C 315.833,269.5 329.167,269.5 342.5,269.5C 342.5,252.5 342.5,235.5 342.5,218.5 Z"/></g>
<g><path style="opacity:1" fill="#3c3a3c" d="M 118.5,269.5 C 120.527,269.338 122.527,269.505 124.5,270C 114.112,270.013 107.112,270.513 103.5,271.5C 103.5,272.833 103.5,274.167 103.5,275.5C 100.167,275.5 96.8333,275.5 93.5,275.5C 93.5,274.167 93.5,272.833 93.5,271.5C 92.1667,271.5 90.8333,271.5 89.5,271.5C 89.5,272.833 89.5,274.167 89.5,275.5C 88.8333,275.5 88.1667,275.5 87.5,275.5C 87.3291,273.007 88.3291,271.174 90.5,270C 99.8274,269.5 109.161,269.334 118.5,269.5 Z"/></g>
<g><path style="opacity:1" fill="#413f41" d="M 375.5,268.5 C 386.847,269.24 398.513,269.74 410.5,270C 411.406,271.699 411.739,273.533 411.5,275.5C 410.833,275.5 410.167,275.5 409.5,275.5C 409.5,274.167 409.5,272.833 409.5,271.5C 408.167,271.5 406.833,271.5 405.5,271.5C 405.5,272.833 405.5,274.167 405.5,275.5C 402.167,275.5 398.833,275.5 395.5,275.5C 395.5,274.167 395.5,272.833 395.5,271.5C 391.713,270.62 384.713,269.954 374.5,269.5C 375.167,269.5 375.5,269.167 375.5,268.5 Z"/></g>
<g><path style="opacity:0.731" fill="#8c8a8b" d="M 409.5,275.5 C 408.167,275.5 406.833,275.5 405.5,275.5C 405.5,274.167 405.5,272.833 405.5,271.5C 406.833,271.5 408.167,271.5 409.5,271.5C 409.5,272.833 409.5,274.167 409.5,275.5 Z"/></g>
<g><path style="opacity:0.89" fill="#949394" d="M 93.5,275.5 C 92.1667,275.5 90.8333,275.5 89.5,275.5C 89.5,274.167 89.5,272.833 89.5,271.5C 90.8333,271.5 92.1667,271.5 93.5,271.5C 93.5,272.833 93.5,274.167 93.5,275.5 Z"/></g>
<g><path style="opacity:1" fill="#727072" d="M 82.5,275.5 C 82.5,277.167 82.5,278.833 82.5,280.5C 79.1667,280.5 75.8333,280.5 72.5,280.5C 73.5676,279.566 74.901,279.232 76.5,279.5C 76.7593,275.932 78.7593,274.599 82.5,275.5 Z"/></g>
<g><path style="opacity:1" fill="#757576" d="M 416.5,275.5 C 418.167,275.5 419.833,275.5 421.5,275.5C 421.5,277.167 421.5,278.833 421.5,280.5C 421.5,278.833 421.5,277.167 421.5,275.5C 419.833,275.5 418.167,275.5 416.5,275.5 Z"/></g>
<g><path style="opacity:1" fill="#343034" d="M 72.5,280.5 C 75.8333,280.5 79.1667,280.5 82.5,280.5C 81.0813,281.451 79.4147,281.784 77.5,281.5C 77.5,282.833 77.5,284.167 77.5,285.5C 74.0645,284.632 70.7312,284.632 67.5,285.5C 67.5,287.5 67.5,289.5 67.5,291.5C 66.1667,291.5 64.8333,291.5 63.5,291.5C 63.8333,290.833 64.1667,290.167 64.5,289.5C 64.3505,288.448 64.5172,287.448 65,286.5C 65.3333,287.833 65.6667,289.167 66,290.5C 66.2362,288.236 66.7362,286.069 67.5,284C 68.7932,283.51 70.1266,283.343 71.5,283.5C 71.2627,282.209 71.596,281.209 72.5,280.5 Z"/></g>
<g><path style="opacity:1" fill="#3b393a" d="M 421.5,280.5 C 423.167,280.5 424.833,280.5 426.5,280.5C 426.413,283.598 426.913,283.932 428,281.5C 428.772,282.849 429.939,283.682 431.5,284C 430.944,284.383 430.611,284.883 430.5,285.5C 429.5,285.5 428.5,285.5 427.5,285.5C 427.167,284.167 426.833,284.167 426.5,285.5C 424.833,285.5 423.167,285.5 421.5,285.5C 421.5,283.833 421.5,282.167 421.5,280.5 Z"/></g>
<g><path style="opacity:0.086" fill="#504951" d="M 327.5,332.5 C 317.331,320.544 307.331,320.544 297.5,332.5C 296.521,329.375 296.187,326.042 296.5,322.5C 306.833,322.5 317.167,322.5 327.5,322.5C 327.5,325.833 327.5,329.167 327.5,332.5 Z"/></g>
<g><path style="opacity:0.062" fill="#3f3d40" d="M 363.5,322.5 C 372.167,322.5 380.833,322.5 389.5,322.5C 389.5,323.833 389.5,325.167 389.5,326.5C 388.5,326.5 387.5,326.5 386.5,326.5C 385.955,322.828 385.622,323.162 385.5,327.5C 387.167,327.5 388.833,327.5 390.5,327.5C 390.5,336.5 390.5,345.5 390.5,354.5C 379.994,354.365 369.327,354.365 358.5,354.5C 358.5,345.5 358.5,336.5 358.5,327.5C 360.167,327.5 361.833,327.5 363.5,327.5C 363.5,325.833 363.5,324.167 363.5,322.5 Z M 369.5,323.5 C 367.416,325.076 365.416,326.909 363.5,329C 362.552,329.483 361.552,329.649 360.5,329.5C 359.621,335.398 359.288,341.232 359.5,347C 361.167,347.333 362.833,347.667 364.5,348C 365.5,350.333 367.167,352 369.5,353C 374.194,353.564 378.86,353.397 383.5,352.5C 383.019,348.651 384.686,346.651 388.5,346.5C 389.833,340.833 389.833,335.167 388.5,329.5C 387.448,329.649 386.448,329.483 385.5,329C 381.348,324.001 376.015,322.167 369.5,323.5 Z"/></g>
<g><path style="opacity:0.063" fill="#484549" d="M 202.5,332.5 C 200.006,330.401 197.673,328.068 195.5,325.5C 190.546,323.151 185.546,322.985 180.5,325C 177.964,327.705 175.297,330.205 172.5,332.5C 171.521,329.375 171.187,326.042 171.5,322.5C 181.833,322.5 192.167,322.5 202.5,322.5C 202.5,325.833 202.5,329.167 202.5,332.5 Z"/></g>
<g><path style="opacity:0.173" fill="#3b383c" d="M 108.5,322.5 C 119.167,322.5 129.833,322.5 140.5,322.5C 140.5,333.167 140.5,343.833 140.5,354.5C 129.994,354.365 119.327,354.365 108.5,354.5C 108.5,343.833 108.5,333.167 108.5,322.5 Z M 119.5,323.5 C 117.254,324.955 115.254,326.788 113.5,329C 112.552,329.483 111.552,329.649 110.5,329.5C 109.637,335.455 109.303,341.455 109.5,347.5C 113.5,346.833 115.167,348.5 114.5,352.5C 120.839,353.768 127.172,353.768 133.5,352.5C 133.019,348.651 134.686,346.651 138.5,346.5C 139.397,341.86 139.564,337.194 139,332.5C 138.888,329.553 137.388,328.22 134.5,328.5C 134.778,326.654 134.111,325.32 132.5,324.5C 131.325,325.855 130.325,325.688 129.5,324C 126.183,323.502 122.85,323.335 119.5,323.5 Z"/></g>
<g><path style="opacity:0.329" fill="#514b4d" d="M 297.5,342.5 C 298.057,345.05 299.39,347.05 301.5,348.5C 299.801,348.66 298.134,348.494 296.5,348C 296.439,346.157 296.773,344.323 297.5,342.5 Z"/></g>
<g><path style="opacity:0.204" fill="#423e41" d="M 265.5,348.5 C 263.833,348.5 262.167,348.5 260.5,348.5C 260.5,350.167 260.5,351.833 260.5,353.5C 258.5,353.5 256.5,353.5 254.5,353.5C 255.919,352.549 257.585,352.216 259.5,352.5C 259.215,350.712 259.548,349.045 260.5,347.5C 262.432,346.855 263.599,345.521 264,343.5C 264.81,338.743 264.476,334.076 263,329.5C 260.833,328.667 259.333,327.167 258.5,325C 248.286,321.056 240.452,323.556 235,332.5C 234.668,337.475 234.501,342.308 234.5,347C 238.466,346.857 240.466,348.691 240.5,352.5C 242.099,352.232 243.432,352.566 244.5,353.5C 242.5,353.5 240.5,353.5 238.5,353.5C 238.5,351.833 238.5,350.167 238.5,348.5C 236.833,348.5 235.167,348.5 233.5,348.5C 233.5,341.5 233.5,334.5 233.5,327.5C 235.167,327.5 236.833,327.5 238.5,327.5C 238.5,325.833 238.5,324.167 238.5,322.5C 247.5,322.5 256.5,322.5 265.5,322.5C 265.5,331.167 265.5,339.833 265.5,348.5 Z M 254.5,353.5 C 251.167,353.5 247.833,353.5 244.5,353.5C 243.432,352.566 242.099,352.232 240.5,352.5C 240.466,348.691 238.466,346.857 234.5,347C 234.501,342.308 234.668,337.475 235,332.5C 240.452,323.556 248.286,321.056 258.5,325C 259.333,327.167 260.833,328.667 263,329.5C 264.476,334.076 264.81,338.743 264,343.5C 263.599,345.521 262.432,346.855 260.5,347.5C 259.548,349.045 259.215,350.712 259.5,352.5C 257.585,352.216 255.919,352.549 254.5,353.5 Z"/></g>
<g><path style="opacity:0.49" fill="#383337" d="M 202.5,342.5 C 202.5,344.5 202.5,346.5 202.5,348.5C 195.833,348.833 195.833,349.167 202.5,349.5C 202.5,350.833 202.5,352.167 202.5,353.5C 192.167,354.833 181.833,354.833 171.5,353.5C 171.5,352.167 171.5,350.833 171.5,349.5C 173.415,349.784 175.081,349.451 176.5,348.5C 177.495,351.181 179.495,352.681 182.5,353C 187.184,353.461 191.851,353.295 196.5,352.5C 196.34,350.801 196.506,349.134 197,347.5C 199.655,346.631 201.488,344.964 202.5,342.5 Z"/></g>
<g><path style="opacity:0.522" fill="#292628" d="M 233.5,348.5 C 235.167,348.5 236.833,348.5 238.5,348.5C 238.5,350.167 238.5,351.833 238.5,353.5C 240.5,353.5 242.5,353.5 244.5,353.5C 247.833,353.5 251.167,353.5 254.5,353.5C 256.5,353.5 258.5,353.5 260.5,353.5C 260.5,351.833 260.5,350.167 260.5,348.5C 262.167,348.5 263.833,348.5 265.5,348.5C 265.5,350.5 265.5,352.5 265.5,354.5C 254.833,354.5 244.167,354.5 233.5,354.5C 233.5,352.5 233.5,350.5 233.5,348.5 Z"/></g>
<g><path style="opacity:0.543" fill="#373537" d="M 327.5,342.5 C 327.5,346.5 327.5,350.5 327.5,354.5C 317.14,354.704 306.806,354.371 296.5,353.5C 296.5,352.167 296.5,350.833 296.5,349.5C 298.415,349.784 300.081,349.451 301.5,348.5C 302.434,349.568 302.768,350.901 302.5,352.5C 308.543,353.996 314.543,353.829 320.5,352C 321.1,348.564 323.1,346.731 326.5,346.5C 326.232,344.901 326.566,343.568 327.5,342.5 Z"/></g>
<g><path style="opacity:0.192" fill="#4b4849" d="M 431.5,285.5 C 432.302,286.952 432.802,288.618 433,290.5C 433.333,289.167 433.667,287.833 434,286.5C 434.615,288.116 435.615,289.449 437,290.5C 437.494,292.134 437.66,293.801 437.5,295.5C 439.144,295.286 440.644,295.62 442,296.5C 442.498,299.817 442.665,303.15 442.5,306.5C 444.167,306.5 445.833,306.5 447.5,306.5C 448.479,362.148 448.813,417.814 448.5,473.5C 446.5,473.5 444.5,473.5 442.5,473.5C 442.5,475.5 442.5,477.5 442.5,479.5C 440.833,479.5 439.167,479.5 437.5,479.5C 437.5,477.5 437.5,475.5 437.5,473.5C 438.833,473.5 440.167,473.5 441.5,473.5C 441.5,471.833 441.5,470.167 441.5,468.5C 443.5,468.5 445.5,468.5 447.5,468.5C 447.84,413.155 447.506,364.488 446.5,322.5C 444.833,322.5 443.167,322.5 441.5,322.5C 441.5,315.5 441.5,308.5 441.5,301.5C 439.833,301.5 438.167,301.5 436.5,301.5C 436.5,299.833 436.5,298.167 436.5,296.5C 435.167,296.5 433.833,296.5 432.5,296.5C 432.5,295.167 432.5,293.833 432.5,292.5C 437.5,291.997 437.167,291.664 431.5,291.5C 431.5,289.5 431.5,287.5 431.5,285.5 Z"/></g>
<g><path style="opacity:0.247" fill="#4a454b" d="M 119.5,385.5 C 117.557,387.165 115.557,388.832 113.5,390.5C 113.5,388.833 113.5,387.167 113.5,385.5C 115.5,385.5 117.5,385.5 119.5,385.5 Z"/></g>
<g><path style="opacity:1" fill="#4b474b" d="M 307.5,385.5 C 304.319,387.425 301.319,389.758 298.5,392.5C 297.873,393.417 297.539,394.417 297.5,395.5C 296.521,392.375 296.187,389.042 296.5,385.5C 300.167,385.5 303.833,385.5 307.5,385.5 Z"/></g>
<g><path style="opacity:0.243" fill="#524c52" d="M 244.5,385.5 C 242.571,387.148 240.571,388.815 238.5,390.5C 238.5,388.833 238.5,387.167 238.5,385.5C 240.5,385.5 242.5,385.5 244.5,385.5 Z"/></g>
<g><path style="opacity:0.027" fill="#4d4a4e" d="M 369.5,385.5 C 368.362,388.086 366.362,389.753 363.5,390.5C 363.5,388.833 363.5,387.167 363.5,385.5C 365.5,385.5 367.5,385.5 369.5,385.5 Z"/></g>
<g><path style="opacity:1" fill="#4a464c" d="M 327.5,395.5 C 324.017,392.261 320.35,389.261 316.5,386.5C 319.962,385.518 323.629,385.185 327.5,385.5C 327.5,388.833 327.5,392.167 327.5,395.5 Z"/></g>
<g><path style="opacity:0.11" fill="#4d494e" d="M 191.5,385.5 C 195.167,385.5 198.833,385.5 202.5,385.5C 202.5,388.833 202.5,392.167 202.5,395.5C 199.807,393.005 196.807,390.838 193.5,389C 192.177,388.184 191.511,387.017 191.5,385.5 Z"/></g>
<g><path style="opacity:0.092" fill="#4a4549" d="M 182.5,385.5 C 179.184,389.146 175.518,392.479 171.5,395.5C 171.5,392.167 171.5,388.833 171.5,385.5C 175.167,385.5 178.833,385.5 182.5,385.5 Z"/></g>
<g><path style="opacity:0.055" fill="#434046" d="M 379.5,385.5 C 381.5,385.5 383.5,385.5 385.5,385.5C 385.833,390.833 386.167,390.833 386.5,385.5C 387.833,385.5 389.167,385.5 390.5,385.5C 390.5,395.833 390.5,406.167 390.5,416.5C 385.305,416.821 380.305,416.487 375.5,415.5C 377.199,415.66 378.866,415.494 380.5,415C 383.57,411.719 386.403,408.886 389,406.5C 391.601,398.245 389.101,392.412 381.5,389C 380.177,388.184 379.511,387.017 379.5,385.5 Z"/></g>
<g><path style="opacity:0.373" fill="#383639" d="M 113.5,390.5 C 112.791,391.404 111.791,391.737 110.5,391.5C 109.226,397.492 109.226,403.492 110.5,409.5C 111.492,409.328 112.158,409.662 112.5,410.5C 112.5,412.5 112.5,414.5 112.5,416.5C 111.167,416.5 109.833,416.5 108.5,416.5C 108.5,406.167 108.5,395.833 108.5,385.5C 109.833,385.5 111.167,385.5 112.5,385.5C 112.216,387.415 112.549,389.081 113.5,390.5 Z"/></g>
<g><path style="opacity:0.365" fill="#3e3a3f" d="M 363.5,390.5 C 362.791,391.404 361.791,391.737 360.5,391.5C 359.167,397.5 359.167,403.5 360.5,409.5C 361.93,409.421 363.264,409.754 364.5,410.5C 366.122,412.641 368.122,414.308 370.5,415.5C 366.702,416.483 362.702,416.817 358.5,416.5C 358.5,406.167 358.5,395.833 358.5,385.5C 359.833,385.5 361.167,385.5 362.5,385.5C 362.216,387.415 362.549,389.081 363.5,390.5 Z"/></g>
<g><path style="opacity:0.349" fill="#474446" d="M 238.5,410.5 C 240.213,411.635 240.88,413.302 240.5,415.5C 246.5,415.5 252.5,415.5 258.5,415.5C 258.019,411.651 259.686,409.651 263.5,409.5C 264.833,403.5 264.833,397.5 263.5,391.5C 262.07,391.579 260.736,391.246 259.5,390.5C 257.725,389.162 256.059,387.829 254.5,386.5C 257.962,385.518 261.629,385.185 265.5,385.5C 265.5,395.833 265.5,406.167 265.5,416.5C 256.5,416.5 247.5,416.5 238.5,416.5C 238.5,414.5 238.5,412.5 238.5,410.5 Z"/></g>
<g><path style="opacity:0.371" fill="#434044" d="M 129.5,385.5 C 133.167,385.5 136.833,385.5 140.5,385.5C 140.5,395.833 140.5,406.167 140.5,416.5C 136.298,416.817 132.298,416.483 128.5,415.5C 130.167,415.5 131.833,415.5 133.5,415.5C 133.019,411.651 134.686,409.651 138.5,409.5C 139.397,404.86 139.564,400.194 139,395.5C 137.209,392.724 135.376,390.057 133.5,387.5C 131.517,387.843 130.183,387.176 129.5,385.5 Z"/></g>
<g><path style="opacity:0.999" fill="#3f3d40" d="M 238.5,390.5 C 237.791,391.404 236.791,391.737 235.5,391.5C 234.167,397.5 234.167,403.5 235.5,409.5C 236.791,409.263 237.791,409.596 238.5,410.5C 237.539,412.265 237.205,414.265 237.5,416.5C 236.167,416.5 234.833,416.5 233.5,416.5C 233.5,406.167 233.5,395.833 233.5,385.5C 234.833,385.5 236.167,385.5 237.5,385.5C 237.216,387.415 237.549,389.081 238.5,390.5 Z"/></g>
<g><path style="opacity:0.882" fill="#403f42" d="M 172.5,409.5 C 176.806,409.303 178.806,411.303 178.5,415.5C 180.099,415.232 181.432,415.566 182.5,416.5C 178.833,416.5 175.167,416.5 171.5,416.5C 171.298,414.05 171.631,411.717 172.5,409.5 Z"/></g>
<g><path style="opacity:0.942" fill="#444144" d="M 202.5,405.5 C 202.5,409.167 202.5,412.833 202.5,416.5C 198.629,416.815 194.962,416.482 191.5,415.5C 193.167,415.5 194.833,415.5 196.5,415.5C 195.599,411.759 196.932,409.759 200.5,409.5C 200.229,407.62 200.896,406.287 202.5,405.5 Z"/></g>
<g><path style="opacity:1" fill="#434145" d="M 297.5,405.5 C 297.351,406.552 297.517,407.552 298,408.5C 301.456,409.548 302.956,411.881 302.5,415.5C 304.415,415.216 306.081,415.549 307.5,416.5C 303.833,416.5 300.167,416.5 296.5,416.5C 296.803,412.499 297.136,408.832 297.5,405.5 Z"/></g>
<g><path style="opacity:1" fill="#423f43" d="M 327.5,405.5 C 327.5,409.167 327.5,412.833 327.5,416.5C 323.833,416.5 320.167,416.5 316.5,416.5C 319.507,413.661 322.674,410.994 326,408.5C 326.232,407.263 326.732,406.263 327.5,405.5 Z"/></g>
<g><path style="opacity:0.271" fill="#4c484d" d="M 113.5,410.5 C 114.451,411.919 114.784,413.585 114.5,415.5C 118.5,415.5 122.5,415.5 126.5,415.5C 122.366,416.485 118.032,416.818 113.5,416.5C 113.5,414.5 113.5,412.5 113.5,410.5 Z"/></g>
<g><path style="opacity:0.184" fill="#454245" d="M 64.5,289.5 C 64.1667,290.167 63.8333,290.833 63.5,291.5C 62.5206,294.625 62.1872,297.958 62.5,301.5C 60.8333,301.5 59.1667,301.5 57.5,301.5C 57.6231,308.529 57.2897,315.529 56.5,322.5C 55.1667,322.5 53.8333,322.5 52.5,322.5C 51.2015,364.657 51.2015,413.324 52.5,468.5C 52.5,469.833 52.5,471.167 52.5,472.5C 53.791,472.263 54.791,472.596 55.5,473.5C 53.8561,473.714 52.3561,473.38 51,472.5C 50.3333,418.833 50.3333,365.167 51,311.5C 50.8333,307.667 52.6667,305.833 56.5,306C 55.9781,305.439 55.6448,304.772 55.5,304C 56.1608,301.536 56.6608,299.036 57,296.5C 58.0113,295.663 59.1779,295.33 60.5,295.5C 59.8911,292.122 61.2244,290.122 64.5,289.5 Z"/></g>
<g><path style="opacity:1" fill="#686669" d="M 52.5,468.5 C 54.1667,468.5 55.8333,468.5 57.5,468.5C 57.5,470.167 57.5,471.833 57.5,473.5C 58.8333,473.5 60.1667,473.5 61.5,473.5C 61.5,474.833 61.5,476.167 61.5,477.5C 60.5,477.5 59.5,477.5 58.5,477.5C 58.8693,475.007 58.2027,474.34 56.5,475.5C 56.6716,474.508 56.3382,473.842 55.5,473.5C 54.791,472.596 53.791,472.263 52.5,472.5C 52.5,471.167 52.5,469.833 52.5,468.5 Z"/></g>
<g><path style="opacity:0.545" fill="#363134" d="M 61.5,473.5 C 62.4511,474.919 62.7845,476.585 62.5,478.5C 188.522,478.833 311.855,478.5 432.5,477.5C 432.5,476.167 432.5,474.833 432.5,473.5C 434.167,473.5 435.833,473.5 437.5,473.5C 437.5,475.5 437.5,477.5 437.5,479.5C 310.5,479.5 183.5,479.5 56.5,479.5C 56.5,478.167 56.5,476.833 56.5,475.5C 58.2027,474.34 58.8693,475.007 58.5,477.5C 59.5,477.5 60.5,477.5 61.5,477.5C 61.5,476.167 61.5,474.833 61.5,473.5 Z"/></g>
</svg>