<svg xmlns="http://www.w3.org/2000/svg" version="1.1" width="500px" height="500px" style="shape-rendering:geometricPrecision; text-rendering:geometricPrecision; image-rendering:optimizeQuality; fill-rule:evenodd; clip-rule:evenodd" xmlns:xlink="http://www.w3.org/1999/xlink">
<g><path style="opacity:1" fill="#020102" d="M 244.5,-0.5 C 247.833,-0.5 251.167,-0.5 254.5,-0.5C 254.5,1.16667 254.5,2.83333 254.5,4.5C 258.167,4.5 261.833,4.5 265.5,4.5C 265.5,6.5 265.5,8.5 265.5,10.5C 267.199,10.3398 268.866,10.5065 270.5,11C 269.549,14.0567 269.216,17.2234 269.5,20.5C 271.467,20.7394 273.301,20.4061 275,19.5C 275.499,24.8229 275.666,30.1563 275.5,35.5C 273.5,35.5 271.5,35.5 269.5,35.5C 269.5,37.5 269.5,39.5 269.5,41.5C 268.167,41.5 266.833,41.5 265.5,41.5C 265.5,43.1667 265.5,44.8333 265.5,46.5C 263.833,46.5 262.167,46.5 260.5,46.5C 260.5,48.1667 260.5,49.8333 260.5,51.5C 260.5,54.8333 260.5,58.1667 260.5,61.5C 260.5,63.1667 260.5,64.8333 260.5,66.5C 262.167,66.5 263.833,66.5 265.5,66.5C 265.5,65.1667 265.5,63.8333 265.5,62.5C 267.144,62.7135 268.644,62.3802 270,61.5C 270.498,58.1832 270.665,54.8499 270.5,51.5C 273.833,51.5 277.167,51.5 280.5,51.5C 280.5,50.1667 280.5,48.8333 280.5,47.5C 279.127,47.6567 277.793,47.49 276.5,47C 279.482,46.502 282.482,46.3354 285.5,46.5C 285.5,44.8333 285.5,43.1667 285.5,41.5C 287.5,41.5 289.5,41.5 291.5,41.5C 291.5,39.5 291.5,37.5 291.5,35.5C 294.833,35.5 298.167,35.5 301.5,35.5C 301.5,33.8333 301.5,32.1667 301.5,30.5C 305.167,30.5 308.833,30.5 312.5,30.5C 312.5,29.1667 312.5,27.8333 312.5,26.5C 313.833,26.5 315.167,26.5 316.5,26.5C 332.167,26.5 347.833,26.5 363.5,26.5C 363.5,27.8333 363.5,29.1667 363.5,30.5C 365.5,30.5 367.5,30.5 369.5,30.5C 372.833,30.5 376.167,30.5 379.5,30.5C 381.5,30.5 383.5,30.5 385.5,30.5C 385.5,32.1667 385.5,33.8333 385.5,35.5C 388.833,35.5 392.167,35.5 395.5,35.5C 397.167,35.5 398.833,35.5 400.5,35.5C 400.5,37.5 400.5,39.5 400.5,41.5C 405.833,41.5 411.167,41.5 416.5,41.5C 418.167,41.5 419.833,41.5 421.5,41.5C 421.5,43.1667 421.5,44.8333 421.5,46.5C 426.844,46.334 432.177,46.5006 437.5,47C 436.62,48.3561 436.286,49.8561 436.5,51.5C 445.272,50.9987 450.606,51.332 452.5,52.5C 452.5,54.1667 452.5,55.8333 452.5,57.5C 459.5,57.5 466.5,57.5 473.5,57.5C 473.5,59.1667 473.5,60.8333 473.5,62.5C 478.5,62.5 483.5,62.5 488.5,62.5C 488.5,63.8333 488.5,65.1667 488.5,66.5C 490.5,66.5 492.5,66.5 494.5,66.5C 494.5,68.5 494.5,70.5 494.5,72.5C 496.167,72.5 497.833,72.5 499.5,72.5C 499.5,75.8333 499.5,79.1667 499.5,82.5C 497.833,82.5 496.167,82.5 494.5,82.5C 494.5,84.5 494.5,86.5 494.5,88.5C 492.5,88.5 490.5,88.5 488.5,88.5C 488.5,90.1667 488.5,91.8333 488.5,93.5C 487.167,93.5 485.833,93.5 484.5,93.5C 480.833,93.5 477.167,93.5 473.5,93.5C 473.5,94.8333 473.5,96.1667 473.5,97.5C 470.167,97.5 466.833,97.5 463.5,97.5C 463.5,99.5 463.5,101.5 463.5,103.5C 458.167,103.5 452.833,103.5 447.5,103.5C 447.5,105.167 447.5,106.833 447.5,108.5C 440.5,108.5 433.5,108.5 426.5,108.5C 426.5,110.167 426.5,111.833 426.5,113.5C 417.833,113.5 409.167,113.5 400.5,113.5C 400.5,115.167 400.5,116.833 400.5,118.5C 374.522,119.504 345.189,119.837 312.5,119.5C 307.5,119.5 302.5,119.5 297.5,119.5C 286.778,119.911 279.444,119.577 275.5,118.5C 275.5,116.833 275.5,115.167 275.5,113.5C 270.5,113.5 265.5,113.5 260.5,113.5C 260.5,115.833 260.5,118.167 260.5,120.5C 260.819,145.811 260.986,171.145 261,196.5C 269.081,197.482 277.248,197.816 285.5,197.5C 285.5,199.167 285.5,200.833 285.5,202.5C 289.167,202.5 292.833,202.5 296.5,202.5C 303.5,202.5 310.5,202.5 317.5,202.5C 320.833,202.5 324.167,202.5 327.5,202.5C 327.5,204.167 327.5,205.833 327.5,207.5C 329.167,207.5 330.833,207.5 332.5,207.5C 337.833,207.5 343.167,207.5 348.5,207.5C 350.5,207.5 352.5,207.5 354.5,207.5C 354.5,205.833 354.5,204.167 354.5,202.5C 355.833,202.5 357.167,202.5 358.5,202.5C 358.5,200.833 358.5,199.167 358.5,197.5C 360.167,197.5 361.833,197.5 363.5,197.5C 363.5,195.5 363.5,193.5 363.5,191.5C 363.5,188.5 363.5,185.5 363.5,182.5C 363.5,180.5 363.5,178.5 363.5,176.5C 361.833,176.5 360.167,176.5 358.5,176.5C 358.5,174.833 358.5,173.167 358.5,171.5C 355.167,171.5 351.833,171.5 348.5,171.5C 345.167,171.5 341.833,171.5 338.5,171.5C 338.5,173.167 338.5,174.833 338.5,176.5C 331.167,176.5 323.833,176.5 316.5,176.5C 316.5,174.833 316.5,173.167 316.5,171.5C 313.167,171.5 309.833,171.5 306.5,171.5C 305.833,171.5 305.5,171.833 305.5,172.5C 305.167,172.5 304.833,172.5 304.5,172.5C 304.167,171.167 303.833,171.167 303.5,172.5C 303.167,172.5 302.833,172.5 302.5,172.5C 302.5,171.833 302.167,171.5 301.5,171.5C 301.5,169.833 301.5,168.167 301.5,166.5C 299.833,166.5 298.167,166.5 296.5,166.5C 296.5,164.5 296.5,162.5 296.5,160.5C 294.833,160.5 293.167,160.5 291.5,160.5C 290.389,155.584 290.222,150.584 291,145.5C 292.699,144.594 294.533,144.261 296.5,144.5C 298.042,145.301 299.708,145.634 301.5,145.5C 301.5,143.833 301.5,142.167 301.5,140.5C 306.527,140.497 311.527,140.164 316.5,139.5C 316.5,138.167 316.5,136.833 316.5,135.5C 331.203,135.116 341.87,135.449 348.5,136.5C 348.5,137.833 348.5,139.167 348.5,140.5C 355.5,140.5 362.5,140.5 369.5,140.5C 369.5,141.833 369.5,143.167 369.5,144.5C 371.167,144.5 372.833,144.5 374.5,144.5C 374.5,146.5 374.5,148.5 374.5,150.5C 376.167,150.5 377.833,150.5 379.5,150.5C 379.5,152.167 379.5,153.833 379.5,155.5C 381.5,155.5 383.5,155.5 385.5,155.5C 385.5,159.167 385.5,162.833 385.5,166.5C 386.5,166.5 387.5,166.5 388.5,166.5C 389.79,167.665 390.124,172.998 389.5,182.5C 391.167,182.5 392.833,182.5 394.5,182.5C 394.666,187.511 394.499,192.511 394,197.5C 393.505,195.527 393.338,193.527 393.5,191.5C 392.5,191.5 391.5,191.5 390.5,191.5C 390.5,196.833 390.5,202.167 390.5,207.5C 388.833,207.5 387.167,207.5 385.5,207.5C 385.5,211.167 385.5,214.833 385.5,218.5C 383.5,218.5 381.5,218.5 379.5,218.5C 379.5,220.167 379.5,221.833 379.5,223.5C 377.833,223.5 376.167,223.5 374.5,223.5C 374.5,225.167 374.5,226.833 374.5,228.5C 370.833,228.5 367.167,228.5 363.5,228.5C 363.5,230.167 363.5,231.833 363.5,233.5C 358.5,233.5 353.5,233.5 348.5,233.5C 343.167,233.5 337.833,233.5 332.5,233.5C 329.167,233.5 325.833,233.5 322.5,233.5C 320.5,233.5 318.5,233.5 316.5,233.5C 316.5,237.167 316.5,240.833 316.5,244.5C 318.5,244.5 320.5,244.5 322.5,244.5C 322.666,249.844 322.499,255.177 322,260.5C 321.505,258.527 321.338,256.527 321.5,254.5C 319.833,254.5 318.167,254.5 316.5,254.5C 316.5,259.833 316.5,265.167 316.5,270.5C 314.833,270.5 313.167,270.5 311.5,270.5C 311.5,272.167 311.5,273.833 311.5,275.5C 310.167,275.5 308.833,275.5 307.5,275.5C 307.5,277.167 307.5,278.833 307.5,280.5C 305.5,280.5 303.5,280.5 301.5,280.5C 301.5,282.167 301.5,283.833 301.5,285.5C 299.833,285.5 298.167,285.5 296.5,285.5C 296.5,289.167 296.5,292.833 296.5,296.5C 298.167,296.5 299.833,296.5 301.5,296.5C 301.5,298.167 301.5,299.833 301.5,301.5C 303.167,301.5 304.833,301.5 306.5,301.5C 306.413,306.537 306.746,311.537 307.5,316.5C 308.5,316.5 309.5,316.5 310.5,316.5C 310.833,311.167 311.167,311.167 311.5,316.5C 311.5,320.167 311.5,323.833 311.5,327.5C 309.833,327.5 308.167,327.5 306.5,327.5C 306.5,332.833 306.5,338.167 306.5,343.5C 304.833,343.5 303.167,343.5 301.5,343.5C 301.5,345.167 301.5,346.833 301.5,348.5C 301.5,350.167 301.5,351.833 301.5,353.5C 299.833,353.5 298.167,353.5 296.5,353.5C 296.5,356.833 296.5,360.167 296.5,363.5C 298.167,363.5 299.833,363.5 301.5,363.5C 301.5,365.5 301.5,367.5 301.5,369.5C 301.5,371.167 301.5,372.833 301.5,374.5C 303.5,374.5 305.5,374.5 307.5,374.5C 307.5,379.833 307.5,385.167 307.5,390.5C 308.5,390.5 309.5,390.5 310.5,390.5C 312,389.487 312.334,392.821 311.5,400.5C 310.167,400.5 308.833,400.5 307.5,400.5C 307.5,405.833 307.5,411.167 307.5,416.5C 305.5,416.5 303.5,416.5 301.5,416.5C 301.5,419.833 301.5,423.167 301.5,426.5C 299.833,426.5 298.167,426.5 296.5,426.5C 296.5,430.167 296.5,433.833 296.5,437.5C 298.167,437.5 299.833,437.5 301.5,437.5C 301.5,438.833 301.5,440.167 301.5,441.5C 303.5,441.5 305.5,441.5 307.5,441.5C 307.5,443.5 307.5,445.5 307.5,447.5C 307.5,450.833 307.5,454.167 307.5,457.5C 308.833,457.5 310.167,457.5 311.5,457.5C 311.5,461.167 311.5,464.833 311.5,468.5C 310.167,468.5 308.833,468.5 307.5,468.5C 307.5,470.167 307.5,471.833 307.5,473.5C 305.5,473.5 303.5,473.5 301.5,473.5C 301.5,475.167 301.5,476.833 301.5,478.5C 298.167,478.5 294.833,478.5 291.5,478.5C 291.5,476.833 291.5,475.167 291.5,473.5C 289.5,473.5 287.5,473.5 285.5,473.5C 285.5,471.833 285.5,470.167 285.5,468.5C 283.833,468.5 282.167,468.5 280.5,468.5C 280.5,466.833 280.5,465.167 280.5,463.5C 280.5,461.5 280.5,459.5 280.5,457.5C 275.167,457.167 275.167,456.833 280.5,456.5C 280.5,455.167 280.5,453.833 280.5,452.5C 276.818,452.665 273.152,452.499 269.5,452C 270.38,450.644 270.714,449.144 270.5,447.5C 267.167,447.5 263.833,447.5 260.5,447.5C 260.5,449.5 260.5,451.5 260.5,453.5C 260.5,467.167 260.5,480.833 260.5,494.5C 258.5,494.5 256.5,494.5 254.5,494.5C 254.5,496.167 254.5,497.833 254.5,499.5C 251.167,499.5 247.833,499.5 244.5,499.5C 244.5,497.833 244.5,496.167 244.5,494.5C 242.5,494.5 240.5,494.5 238.5,494.5C 238.5,480.833 238.5,467.167 238.5,453.5C 238.5,451.5 238.5,449.5 238.5,447.5C 235.167,447.5 231.833,447.5 228.5,447.5C 228.5,449.167 228.5,450.833 228.5,452.5C 225.167,452.5 221.833,452.5 218.5,452.5C 218.5,456.167 218.5,459.833 218.5,463.5C 218.5,465.167 218.5,466.833 218.5,468.5C 216.833,468.5 215.167,468.5 213.5,468.5C 213.5,470.167 213.5,471.833 213.5,473.5C 211.5,473.5 209.5,473.5 207.5,473.5C 207.5,475.167 207.5,476.833 207.5,478.5C 204.167,478.5 200.833,478.5 197.5,478.5C 197.5,476.833 197.5,475.167 197.5,473.5C 195.5,473.5 193.5,473.5 191.5,473.5C 191.5,471.833 191.5,470.167 191.5,468.5C 190.167,468.5 188.833,468.5 187.5,468.5C 187.5,464.833 187.5,461.167 187.5,457.5C 188.833,457.5 190.167,457.5 191.5,457.5C 191.5,454.167 191.5,450.833 191.5,447.5C 191.5,445.5 191.5,443.5 191.5,441.5C 193.5,441.5 195.5,441.5 197.5,441.5C 197.5,440.167 197.5,438.833 197.5,437.5C 199.167,437.5 200.833,437.5 202.5,437.5C 202.5,433.833 202.5,430.167 202.5,426.5C 200.833,426.5 199.167,426.5 197.5,426.5C 197.5,423.167 197.5,419.833 197.5,416.5C 195.833,416.5 194.167,416.5 192.5,416.5C 192.5,412.833 192.5,409.167 192.5,405.5C 190.5,405.5 188.5,405.5 186.5,405.5C 186.5,400.5 186.5,395.5 186.5,390.5C 187.302,389.048 187.802,387.382 188,385.5C 188.49,386.793 188.657,388.127 188.5,389.5C 189.5,389.5 190.5,389.5 191.5,389.5C 192.254,384.537 192.587,379.537 192.5,374.5C 194.167,374.5 195.833,374.5 197.5,374.5C 197.5,370.833 197.5,367.167 197.5,363.5C 199.167,363.5 200.833,363.5 202.5,363.5C 202.5,360.167 202.5,356.833 202.5,353.5C 200.833,353.5 199.167,353.5 197.5,353.5C 197.5,350.167 197.5,346.833 197.5,343.5C 195.833,343.5 194.167,343.5 192.5,343.5C 192.528,338.138 192.194,332.805 191.5,327.5C 190.167,327.5 188.833,327.5 187.5,327.5C 187.5,323.833 187.5,320.167 187.5,316.5C 188.833,316.5 190.167,316.5 191.5,316.5C 191.5,311.5 191.5,306.5 191.5,301.5C 193.5,301.5 195.5,301.5 197.5,301.5C 197.5,299.833 197.5,298.167 197.5,296.5C 199.167,296.5 200.833,296.5 202.5,296.5C 202.5,292.833 202.5,289.167 202.5,285.5C 200.833,285.5 199.167,285.5 197.5,285.5C 197.5,283.833 197.5,282.167 197.5,280.5C 195.5,280.5 193.5,280.5 191.5,280.5C 191.5,278.833 191.5,277.167 191.5,275.5C 190.167,275.5 188.833,275.5 187.5,275.5C 187.5,273.5 187.5,271.5 187.5,269.5C 185.833,269.5 184.167,269.5 182.5,269.5C 182.5,264.5 182.5,259.5 182.5,254.5C 180.833,254.5 179.167,254.5 177.5,254.5C 176.143,253.731 175.81,248.731 176.5,239.5C 177.451,240.919 177.784,242.585 177.5,244.5C 179.167,244.5 180.833,244.5 182.5,244.5C 182.789,240.894 182.456,237.394 181.5,234C 172.84,233.5 164.173,233.334 155.5,233.5C 151.818,233.665 148.152,233.499 144.5,233C 145.833,231.667 145.833,230.333 144.5,229C 141.518,228.502 138.518,228.335 135.5,228.5C 135.5,226.833 135.5,225.167 135.5,223.5C 133.5,223.5 131.5,223.5 129.5,223.5C 129.5,221.833 129.5,220.167 129.5,218.5C 127.833,218.5 126.167,218.5 124.5,218.5C 124.5,216.833 124.5,215.167 124.5,213.5C 122.833,213.5 121.167,213.5 119.5,213.5C 119.5,211.5 119.5,209.5 119.5,207.5C 119.5,204.167 119.5,200.833 119.5,197.5C 119.5,195.5 119.5,193.5 119.5,191.5C 117.5,191.5 115.5,191.5 113.5,191.5C 113.5,188.5 113.5,185.5 113.5,182.5C 115.5,182.5 117.5,182.5 119.5,182.5C 119.5,180.5 119.5,178.5 119.5,176.5C 119.5,173.167 119.5,169.833 119.5,166.5C 119.5,164.5 119.5,162.5 119.5,160.5C 121.167,160.5 122.833,160.5 124.5,160.5C 124.5,158.833 124.5,157.167 124.5,155.5C 126.167,155.5 127.833,155.5 129.5,155.5C 129.5,154.167 129.5,152.833 129.5,151.5C 131.5,151.5 133.5,151.5 135.5,151.5C 135.5,149.5 135.5,147.5 135.5,145.5C 137.167,145.5 138.833,145.5 140.5,145.5C 140.5,143.833 140.5,142.167 140.5,140.5C 145.537,140.587 150.537,140.254 155.5,139.5C 155.5,138.167 155.5,136.833 155.5,135.5C 167.5,135.5 179.5,135.5 191.5,135.5C 191.5,137.167 191.5,138.833 191.5,140.5C 196.833,140.5 202.167,140.5 207.5,140.5C 207.5,142.167 207.5,143.833 207.5,145.5C 209.5,145.5 211.5,145.5 213.5,145.5C 213.5,147.167 213.5,148.833 213.5,150.5C 215.167,150.5 216.833,150.5 218.5,150.5C 218.5,153.833 218.5,157.167 218.5,160.5C 216.833,160.5 215.167,160.5 213.5,160.5C 213.5,162.5 213.5,164.5 213.5,166.5C 211.5,166.5 209.5,166.5 207.5,166.5C 207.5,168.167 207.5,169.833 207.5,171.5C 207.167,171.5 206.833,171.5 206.5,171.5C 201.651,171.692 196.651,171.692 191.5,171.5C 191.5,173.167 191.5,174.833 191.5,176.5C 184.833,176.5 178.167,176.5 171.5,176.5C 171.5,174.833 171.5,173.167 171.5,171.5C 167.833,171.5 164.167,171.5 160.5,171.5C 157.5,171.5 154.5,171.5 151.5,171.5C 150.71,172.609 150.21,173.942 150,175.5C 149.51,174.207 149.343,172.873 149.5,171.5C 148.167,171.5 146.833,171.5 145.5,171.5C 144.66,180.138 144.327,188.805 144.5,197.5C 146.5,197.5 148.5,197.5 150.5,197.5C 150.5,199.167 150.5,200.833 150.5,202.5C 152.167,202.5 153.833,202.5 155.5,202.5C 155.5,204.167 155.5,205.833 155.5,207.5C 157.167,207.5 158.833,207.5 160.5,207.5C 165.833,207.5 171.167,207.5 176.5,207.5C 178.5,207.5 180.5,207.5 182.5,207.5C 182.5,205.833 182.5,204.167 182.5,202.5C 185.5,202.5 188.5,202.5 191.5,202.5C 196.833,202.5 202.167,202.5 207.5,202.5C 212.833,202.5 218.167,202.5 223.5,202.5C 223.5,200.833 223.5,199.167 223.5,197.5C 228.233,197.777 232.9,197.443 237.5,196.5C 238.5,171.175 238.833,145.842 238.5,120.5C 238.5,119.833 238.5,119.167 238.5,118.5C 238.5,117.167 238.5,115.833 238.5,114.5C 233.695,113.513 228.695,113.179 223.5,113.5C 223.5,115.167 223.5,116.833 223.5,118.5C 214.532,119.525 202.199,119.858 186.5,119.5C 169.5,119.5 152.5,119.5 135.5,119.5C 119.801,119.858 107.468,119.525 98.5,118.5C 98.5,116.833 98.5,115.167 98.5,113.5C 89.8333,113.5 81.1667,113.5 72.5,113.5C 72.5,111.833 72.5,110.167 72.5,108.5C 65.5,108.5 58.5,108.5 51.5,108.5C 51.5,106.833 51.5,105.167 51.5,103.5C 46.1667,103.5 40.8333,103.5 35.5,103.5C 35.5,101.833 35.5,100.167 35.5,98.5C 32.1667,98.5 28.8333,98.5 25.5,98.5C 23.8333,98.5 22.1667,98.5 20.5,98.5C 20.5,96.8333 20.5,95.1667 20.5,93.5C 18.5,93.5 16.5,93.5 14.5,93.5C 13.1667,93.5 11.8333,93.5 10.5,93.5C 10.5,91.8333 10.5,90.1667 10.5,88.5C 8.5,88.5 6.5,88.5 4.5,88.5C 4.5,86.5 4.5,84.5 4.5,82.5C 2.83333,82.5 1.16667,82.5 -0.5,82.5C -0.5,79.1667 -0.5,75.8333 -0.5,72.5C 1.16667,72.5 2.83333,72.5 4.5,72.5C 4.5,70.8333 4.5,69.1667 4.5,67.5C 6.5,67.5 8.5,67.5 10.5,67.5C 10.5,65.8333 10.5,64.1667 10.5,62.5C 15.5111,62.6659 20.5111,62.4993 25.5,62C 26.1258,61.2496 26.6258,60.4162 27,59.5C 27.7096,60.9733 28.8762,61.6399 30.5,61.5C 30.5,60.5 30.5,59.5 30.5,58.5C 33.0861,57.4057 38.4195,57.0724 46.5,57.5C 46.5,55.8333 46.5,54.1667 46.5,52.5C 44.8333,52.5 43.1667,52.5 41.5,52.5C 48.3134,51.5088 55.3134,51.1755 62.5,51.5C 62.7135,49.8561 62.3802,48.3561 61.5,47C 66.8229,46.5006 72.1563,46.334 77.5,46.5C 77.5,44.8333 77.5,43.1667 77.5,41.5C 79.1667,41.5 80.8333,41.5 82.5,41.5C 86.1667,41.5 89.8333,41.5 93.5,41.5C 93.5,39.5 93.5,37.5 93.5,35.5C 96.8333,35.5 100.167,35.5 103.5,35.5C 106.833,35.5 110.167,35.5 113.5,35.5C 113.5,33.8333 113.5,32.1667 113.5,30.5C 115.5,30.5 117.5,30.5 119.5,30.5C 122.833,30.5 126.167,30.5 129.5,30.5C 129.5,28.8333 129.5,27.1667 129.5,25.5C 131.5,25.5 133.5,25.5 135.5,25.5C 136.117,25.3893 136.617,25.056 137,24.5C 153.42,25.7284 169.92,26.5617 186.5,27C 184.714,27.1962 183.381,28.0295 182.5,29.5C 187.456,30.4941 192.456,30.8275 197.5,30.5C 197.5,32.1667 197.5,33.8333 197.5,35.5C 200.833,35.5 204.167,35.5 207.5,35.5C 207.5,37.5 207.5,39.5 207.5,41.5C 209.5,41.5 211.5,41.5 213.5,41.5C 213.5,43.1667 213.5,44.8333 213.5,46.5C 215.167,46.5 216.833,46.5 218.5,46.5C 218.5,48.1667 218.5,49.8333 218.5,51.5C 221.833,51.5 225.167,51.5 228.5,51.5C 228.335,54.8499 228.502,58.1832 229,61.5C 230.356,62.3802 231.856,62.7135 233.5,62.5C 233.5,63.8333 233.5,65.1667 233.5,66.5C 235.167,66.5 236.833,66.5 238.5,66.5C 238.5,64.8333 238.5,63.1667 238.5,61.5C 238.5,58.1667 238.5,54.8333 238.5,51.5C 238.5,49.8333 238.5,48.1667 238.5,46.5C 236.833,46.5 235.167,46.5 233.5,46.5C 233.5,44.8333 233.5,43.1667 233.5,41.5C 232.167,41.5 230.833,41.5 229.5,41.5C 229.5,39.5 229.5,37.5 229.5,35.5C 227.265,35.7947 225.265,35.4614 223.5,34.5C 223.334,29.4889 223.501,24.4889 224,19.5C 225.667,20.8333 227.333,20.8333 229,19.5C 229.498,16.5184 229.665,13.5184 229.5,10.5C 230.833,10.5 232.167,10.5 233.5,10.5C 233.5,8.5 233.5,6.5 233.5,4.5C 237.167,4.5 240.833,4.5 244.5,4.5C 244.5,2.83333 244.5,1.16667 244.5,-0.5 Z M 265.5,46.5 C 267.167,46.5 268.833,46.5 270.5,46.5C 269.949,49.8067 269.616,53.1401 269.5,56.5C 267.833,56.5 266.167,56.5 264.5,56.5C 264.5,58.1667 264.5,59.8333 264.5,61.5C 263.167,61.5 261.833,61.5 260.5,61.5C 260.5,58.1667 260.5,54.8333 260.5,51.5C 262.167,51.5 263.833,51.5 265.5,51.5C 265.5,49.8333 265.5,48.1667 265.5,46.5 Z M 176.5,57.5 C 178.167,57.5 179.833,57.5 181.5,57.5C 181.5,59.1667 181.5,60.8333 181.5,62.5C 183.527,62.3379 185.527,62.5045 187.5,63C 186.612,64.7173 187.279,65.884 189.5,66.5C 192.115,67.2692 194.781,67.6025 197.5,67.5C 197.5,69.5 197.5,71.5 197.5,73.5C 199.167,73.5 200.833,73.5 202.5,73.5C 202.5,75.1667 202.5,76.8333 202.5,78.5C 203.552,78.3505 204.552,78.5172 205.5,79C 204.663,80.0113 204.33,81.1779 204.5,82.5C 205.5,82.5 206.5,82.5 207.5,82.5C 207.5,84.1667 207.5,85.8333 207.5,87.5C 180.496,88.7135 153.496,88.7135 126.5,87.5C 125.833,87.5 125.167,87.5 124.5,87.5C 119.489,87.6659 114.489,87.4993 109.5,87C 108.874,86.2496 108.374,85.4162 108,84.5C 106.989,85.3366 105.822,85.67 104.5,85.5C 104.5,84.5 104.5,83.5 104.5,82.5C 99.1667,82.5 93.8333,82.5 88.5,82.5C 86.5,82.5 84.5,82.5 82.5,82.5C 82.5,80.8333 82.5,79.1667 82.5,77.5C 84.5,77.5 86.5,77.5 88.5,77.5C 88.5,76.1667 88.5,74.8333 88.5,73.5C 93.5658,73.6601 98.5658,73.1601 103.5,72C 104.833,70.6667 104.833,69.3333 103.5,68C 108.823,67.5006 114.156,67.334 119.5,67.5C 119.5,65.8333 119.5,64.1667 119.5,62.5C 126.241,62.8288 132.908,62.3288 139.5,61C 140.833,60 140.833,59 139.5,58C 151.829,57.5001 164.162,57.3335 176.5,57.5 Z M 322.5,57.5 C 332.833,57.5 343.167,57.5 353.5,57.5C 355.5,57.5 357.5,57.5 359.5,57.5C 358.316,58.6879 358.316,59.8545 359.5,61C 364.42,62.2503 369.42,62.7503 374.5,62.5C 376.167,62.5 377.833,62.5 379.5,62.5C 379.5,64.1667 379.5,65.8333 379.5,67.5C 384.844,67.334 390.177,67.5006 395.5,68C 394.167,69.3333 394.167,70.6667 395.5,72C 400.434,73.1601 405.434,73.6601 410.5,73.5C 410.5,74.8333 410.5,76.1667 410.5,77.5C 412.5,77.5 414.5,77.5 416.5,77.5C 416.5,79.1667 416.5,80.8333 416.5,82.5C 414.5,82.5 412.5,82.5 410.5,82.5C 405.167,82.5 399.833,82.5 394.5,82.5C 394.649,83.552 394.483,84.552 394,85.5C 393.29,84.0267 392.124,83.3601 390.5,83.5C 390.5,84.8333 390.5,86.1667 390.5,87.5C 357.499,88.7976 324.499,88.7976 291.5,87.5C 291.5,85.8333 291.5,84.1667 291.5,82.5C 292.978,82.762 294.311,82.4287 295.5,81.5C 296.393,78.9159 296.726,76.2492 296.5,73.5C 298.167,73.5 299.833,73.5 301.5,73.5C 301.5,71.5 301.5,69.5 301.5,67.5C 303.5,67.5 305.5,67.5 307.5,67.5C 307.5,65.8333 307.5,64.1667 307.5,62.5C 310.833,62.5 314.167,62.5 317.5,62.5C 317.5,60.8333 317.5,59.1667 317.5,57.5C 319.167,57.5 320.833,57.5 322.5,57.5 Z M 238.5,234.5 C 238.5,244.5 238.5,254.5 238.5,264.5C 235.167,264.5 231.833,264.5 228.5,264.5C 226.833,264.5 225.167,264.5 223.5,264.5C 223.5,262.833 223.5,261.167 223.5,259.5C 220.167,259.5 216.833,259.5 213.5,259.5C 213.5,252.833 213.5,246.167 213.5,239.5C 216.833,239.5 220.167,239.5 223.5,239.5C 223.5,237.833 223.5,236.167 223.5,234.5C 228.5,234.5 233.5,234.5 238.5,234.5 Z M 260.5,234.5 C 265.5,234.5 270.5,234.5 275.5,234.5C 275.286,236.144 275.62,237.644 276.5,239C 279.482,239.498 282.482,239.665 285.5,239.5C 285.5,246.167 285.5,252.833 285.5,259.5C 282.167,259.5 278.833,259.5 275.5,259.5C 275.5,261.167 275.5,262.833 275.5,264.5C 270.5,264.5 265.5,264.5 260.5,264.5C 260.5,254.5 260.5,244.5 260.5,234.5 Z M 229.5,307.5 C 232.5,307.5 235.5,307.5 238.5,307.5C 238.5,317.5 238.5,327.5 238.5,337.5C 235.5,337.5 232.5,337.5 229.5,337.5C 229.5,335.833 229.5,334.167 229.5,332.5C 227.5,332.5 225.5,332.5 223.5,332.5C 222.352,325.536 222.352,318.87 223.5,312.5C 227.938,313.575 229.938,311.908 229.5,307.5 Z M 260.5,307.5 C 263.5,307.5 266.5,307.5 269.5,307.5C 269.062,311.908 271.062,313.575 275.5,312.5C 275.141,314.766 275.808,316.599 277.5,318C 276.508,322.749 275.842,327.582 275.5,332.5C 273.5,332.5 271.5,332.5 269.5,332.5C 269.5,334.167 269.5,335.833 269.5,337.5C 266.5,337.5 263.5,337.5 260.5,337.5C 260.5,327.5 260.5,317.5 260.5,307.5 Z M 238.5,379.5 C 238.5,389.833 238.5,400.167 238.5,410.5C 235.5,410.5 232.5,410.5 229.5,410.5C 229.5,408.833 229.5,407.167 229.5,405.5C 227.5,405.5 225.5,405.5 223.5,405.5C 223.5,403.833 223.5,402.167 223.5,400.5C 221.833,400.5 220.167,400.5 218.5,400.5C 218.5,397.167 218.5,393.833 218.5,390.5C 219.477,393.287 219.81,396.287 219.5,399.5C 220.5,399.5 221.5,399.5 222.5,399.5C 222.54,394.807 222.873,390.141 223.5,385.5C 228.5,386.5 230.5,384.5 229.5,379.5C 232.5,379.5 235.5,379.5 238.5,379.5 Z M 260.5,379.5 C 263.5,379.5 266.5,379.5 269.5,379.5C 268.5,384.5 270.5,386.5 275.5,385.5C 275.141,387.766 275.808,389.599 277.5,391C 275.909,394.275 276.242,397.275 278.5,400C 277.552,400.483 276.552,400.649 275.5,400.5C 275.5,402.167 275.5,403.833 275.5,405.5C 273.5,405.5 271.5,405.5 269.5,405.5C 269.5,407.167 269.5,408.833 269.5,410.5C 266.5,410.5 263.5,410.5 260.5,410.5C 260.5,400.167 260.5,389.833 260.5,379.5 Z"/></g>
<g><path style="opacity:0.547" fill="#333232" d="M 233.5,-0.5 C 237.167,-0.5 240.833,-0.5 244.5,-0.5C 244.5,1.16667 244.5,2.83333 244.5,4.5C 240.833,4.5 237.167,4.5 233.5,4.5C 233.5,6.5 233.5,8.5 233.5,10.5C 232.167,10.5 230.833,10.5 229.5,10.5C 229.665,13.5184 229.498,16.5184 229,19.5C 227.333,20.8333 225.667,20.8333 224,19.5C 223.501,24.4889 223.334,29.4889 223.5,34.5C 223.167,34.5 222.833,34.5 222.5,34.5C 222.334,26.4931 222.5,18.4931 223,10.5C 224.699,9.59391 226.533,9.26057 228.5,9.5C 227.425,5.06203 229.092,3.06203 233.5,3.5C 233.5,2.16667 233.5,0.833333 233.5,-0.5 Z"/></g>
<g><path style="opacity:0.371" fill="#43413f" d="M 197.5,30.5 C 192.456,30.8275 187.456,30.4941 182.5,29.5C 183.381,28.0295 184.714,27.1962 186.5,27C 169.92,26.5617 153.42,25.7284 137,24.5C 136.617,25.056 136.117,25.3893 135.5,25.5C 135.5,23.8333 135.5,22.1667 135.5,20.5C 150.808,19.3976 166.141,19.231 181.5,20C 182.406,21.6995 182.739,23.5328 182.5,25.5C 187.5,25.5 192.5,25.5 197.5,25.5C 197.5,27.1667 197.5,28.8333 197.5,30.5 Z"/></g>
<g><path style="opacity:0.364" fill="#333232" d="M 254.5,-0.5 C 258.167,-0.5 261.833,-0.5 265.5,-0.5C 265.5,0.833333 265.5,2.16667 265.5,3.5C 267.167,3.5 268.833,3.5 270.5,3.5C 270.5,5.5 270.5,7.5 270.5,9.5C 272.467,9.26057 274.301,9.59391 276,10.5C 276.5,18.8267 276.666,27.16 276.5,35.5C 276.167,35.5 275.833,35.5 275.5,35.5C 275.666,30.1563 275.499,24.8229 275,19.5C 273.301,20.4061 271.467,20.7394 269.5,20.5C 269.216,17.2234 269.549,14.0567 270.5,11C 268.866,10.5065 267.199,10.3398 265.5,10.5C 265.5,8.5 265.5,6.5 265.5,4.5C 261.833,4.5 258.167,4.5 254.5,4.5C 254.5,2.83333 254.5,1.16667 254.5,-0.5 Z"/></g>
<g><path style="opacity:0.342" fill="#464442" d="M 363.5,24.5 C 362.5,24.5 361.5,24.5 360.5,24.5C 359.833,24.5 359.5,24.8333 359.5,25.5C 345.167,25.5 330.833,25.5 316.5,25.5C 316.261,23.5328 316.594,21.6995 317.5,20C 332.859,19.231 348.192,19.3976 363.5,20.5C 363.5,21.8333 363.5,23.1667 363.5,24.5 Z"/></g>
<g><path style="opacity:0.159" fill="#4b494a" d="M 316.5,25.5 C 316.5,25.8333 316.5,26.1667 316.5,26.5C 315.167,26.5 313.833,26.5 312.5,26.5C 312.5,27.8333 312.5,29.1667 312.5,30.5C 308.833,30.5 305.167,30.5 301.5,30.5C 301.5,28.8333 301.5,27.1667 301.5,25.5C 306.5,25.5 311.5,25.5 316.5,25.5 Z"/></g>
<g><path style="opacity:0.969" fill="#201f1e" d="M 360.5,24.5 C 361.5,24.5 362.5,24.5 363.5,24.5C 365.265,25.4614 367.265,25.7947 369.5,25.5C 369.5,27.1667 369.5,28.8333 369.5,30.5C 367.5,30.5 365.5,30.5 363.5,30.5C 363.5,29.1667 363.5,27.8333 363.5,26.5C 347.833,26.5 332.167,26.5 316.5,26.5C 316.5,26.1667 316.5,25.8333 316.5,25.5C 330.833,25.5 345.167,25.5 359.5,25.5C 360.167,25.5 360.5,25.1667 360.5,24.5 Z"/></g>
<g><path style="opacity:0.89" fill="#5a5859" d="M 129.5,25.5 C 129.5,27.1667 129.5,28.8333 129.5,30.5C 126.167,30.5 122.833,30.5 119.5,30.5C 119.5,28.8333 119.5,27.1667 119.5,25.5C 122.833,25.5 126.167,25.5 129.5,25.5 Z"/></g>
<g><path style="opacity:0.345" fill="#484444" d="M 369.5,25.5 C 372.833,25.5 376.167,25.5 379.5,25.5C 379.5,27.1667 379.5,28.8333 379.5,30.5C 376.167,30.5 372.833,30.5 369.5,30.5C 369.5,28.8333 369.5,27.1667 369.5,25.5 Z"/></g>
<g><path style="opacity:0.549" fill="#524f50" d="M 113.5,30.5 C 113.5,32.1667 113.5,33.8333 113.5,35.5C 110.167,35.5 106.833,35.5 103.5,35.5C 102.081,34.5489 100.415,34.2155 98.5,34.5C 98.3505,33.448 98.5172,32.448 99,31.5C 100,32.8333 101,32.8333 102,31.5C 103.087,33.9316 103.587,33.5983 103.5,30.5C 106.833,30.5 110.167,30.5 113.5,30.5 Z"/></g>
<g><path style="opacity:0.51" fill="#484445" d="M 385.5,30.5 C 388.833,30.5 392.167,30.5 395.5,30.5C 395.351,31.552 395.517,32.552 396,33.5C 397.049,31.8934 398.549,31.2267 400.5,31.5C 400.5,32.5 400.5,33.5 400.5,34.5C 398.585,34.2155 396.919,34.5489 395.5,35.5C 392.167,35.5 388.833,35.5 385.5,35.5C 385.5,33.8333 385.5,32.1667 385.5,30.5 Z"/></g>
<g><path style="opacity:0.071" fill="#4b4749" d="M 197.5,30.5 C 200.833,30.5 204.167,30.5 207.5,30.5C 207.5,32.1667 207.5,33.8333 207.5,35.5C 204.167,35.5 200.833,35.5 197.5,35.5C 197.5,33.8333 197.5,32.1667 197.5,30.5 Z"/></g>
<g><path style="opacity:0.067" fill="#464444" d="M 301.5,30.5 C 301.5,32.1667 301.5,33.8333 301.5,35.5C 298.167,35.5 294.833,35.5 291.5,35.5C 291.5,33.8333 291.5,32.1667 291.5,30.5C 294.833,30.5 298.167,30.5 301.5,30.5 Z"/></g>
<g><path style="opacity:0.25" fill="#585556" d="M 93.5,35.5 C 93.5,37.5 93.5,39.5 93.5,41.5C 89.8333,41.5 86.1667,41.5 82.5,41.5C 82.5,39.5 82.5,37.5 82.5,35.5C 86.1667,35.5 89.8333,35.5 93.5,35.5 Z"/></g>
<g><path style="opacity:0.201" fill="#434142" d="M 400.5,35.5 C 405.833,35.5 411.167,35.5 416.5,35.5C 416.5,37.5 416.5,39.5 416.5,41.5C 411.167,41.5 405.833,41.5 400.5,41.5C 400.5,39.5 400.5,37.5 400.5,35.5 Z"/></g>
<g><path style="opacity:0.768" fill="#565354" d="M 207.5,35.5 C 209.5,35.5 211.5,35.5 213.5,35.5C 213.5,37.5 213.5,39.5 213.5,41.5C 213.5,39.5 213.5,37.5 213.5,35.5C 211.5,35.5 209.5,35.5 207.5,35.5 Z"/></g>
<g><path style="opacity:0.712" fill="#515051" d="M 291.5,35.5 C 291.5,37.5 291.5,39.5 291.5,41.5C 289.5,41.5 287.5,41.5 285.5,41.5C 285.5,39.5 285.5,37.5 285.5,35.5C 287.5,35.5 289.5,35.5 291.5,35.5 Z"/></g>
<g><path style="opacity:0.655" fill="#4e4e4e" d="M 222.5,34.5 C 222.833,34.5 223.167,34.5 223.5,34.5C 225.265,35.4614 227.265,35.7947 229.5,35.5C 229.5,37.5 229.5,39.5 229.5,41.5C 230.833,41.5 232.167,41.5 233.5,41.5C 233.5,43.1667 233.5,44.8333 233.5,46.5C 231.833,46.5 230.167,46.5 228.5,46.5C 228.5,44.8333 228.5,43.1667 228.5,41.5C 226.5,41.5 224.5,41.5 222.5,41.5C 222.5,39.1667 222.5,36.8333 222.5,34.5 Z"/></g>
<g><path style="opacity:0.639" fill="#4b4b4b" d="M 275.5,35.5 C 275.833,35.5 276.167,35.5 276.5,35.5C 276.5,37.5 276.5,39.5 276.5,41.5C 274.5,41.5 272.5,41.5 270.5,41.5C 270.5,43.1667 270.5,44.8333 270.5,46.5C 268.833,46.5 267.167,46.5 265.5,46.5C 265.5,44.8333 265.5,43.1667 265.5,41.5C 266.833,41.5 268.167,41.5 269.5,41.5C 269.5,39.5 269.5,37.5 269.5,35.5C 271.5,35.5 273.5,35.5 275.5,35.5 Z"/></g>
<g><path style="opacity:0.016" fill="#535353" d="M 228.5,46.5 C 228.103,47.525 227.437,47.6917 226.5,47C 227.094,46.5357 227.761,46.369 228.5,46.5 Z"/></g>
<g><path style="opacity:0.008" fill="#545454" d="M 224.5,46.5 C 225.267,47.172 225.934,48.0053 226.5,49C 224.939,49.1881 224.272,48.3547 224.5,46.5 Z"/></g>
<g><path style="opacity:0.016" fill="#3f403f" d="M 227.5,48.5 C 228.833,49.1667 228.833,49.1667 227.5,48.5 Z"/></g>
<g><path style="opacity:0.277" fill="#545455" d="M 233.5,46.5 C 235.167,46.5 236.833,46.5 238.5,46.5C 238.5,48.1667 238.5,49.8333 238.5,51.5C 236.833,51.5 235.167,51.5 233.5,51.5C 233.5,49.8333 233.5,48.1667 233.5,46.5 Z"/></g>
<g><path style="opacity:0.344" fill="#5b5b5b" d="M 265.5,46.5 C 265.5,48.1667 265.5,49.8333 265.5,51.5C 263.833,51.5 262.167,51.5 260.5,51.5C 260.5,49.8333 260.5,48.1667 260.5,46.5C 262.167,46.5 263.833,46.5 265.5,46.5 Z"/></g>
<g><path style="opacity:0.271" fill="#454546" d="M 285.5,41.5 C 285.5,43.1667 285.5,44.8333 285.5,46.5C 282.482,46.3354 279.482,46.502 276.5,47C 277.793,47.49 279.127,47.6567 280.5,47.5C 280.5,48.8333 280.5,50.1667 280.5,51.5C 277.167,51.5 273.833,51.5 270.5,51.5C 270.665,54.8499 270.498,58.1832 270,61.5C 268.644,62.3802 267.144,62.7135 265.5,62.5C 265.5,63.8333 265.5,65.1667 265.5,66.5C 263.833,66.5 262.167,66.5 260.5,66.5C 260.5,64.8333 260.5,63.1667 260.5,61.5C 261.833,61.5 263.167,61.5 264.5,61.5C 264.5,59.8333 264.5,58.1667 264.5,56.5C 266.167,56.5 267.833,56.5 269.5,56.5C 269.616,53.1401 269.949,49.8067 270.5,46.5C 271.833,46.5 273.167,46.5 274.5,46.5C 275.003,51.5 275.336,51.1667 275.5,45.5C 277.167,45.5 278.833,45.5 280.5,45.5C 280.5,44.1667 280.5,42.8333 280.5,41.5C 282.167,41.5 283.833,41.5 285.5,41.5 Z"/></g>
<g><path style="opacity:0.253" fill="#444142" d="M 421.5,41.5 C 425.167,41.5 428.833,41.5 432.5,41.5C 432.5,42.8333 432.5,44.1667 432.5,45.5C 438.625,45.0265 444.458,46.0265 450,48.5C 452.078,47.057 452.911,47.7237 452.5,50.5C 457.862,50.4724 463.195,50.8058 468.5,51.5C 468.5,53.1667 468.5,54.8333 468.5,56.5C 473.511,56.3341 478.511,56.5007 483.5,57C 484.38,58.3561 484.714,59.8561 484.5,61.5C 487.85,61.335 491.183,61.5017 494.5,62C 495.728,63.4902 495.728,64.9902 494.5,66.5C 492.5,66.5 490.5,66.5 488.5,66.5C 488.5,65.1667 488.5,63.8333 488.5,62.5C 483.5,62.5 478.5,62.5 473.5,62.5C 473.5,60.8333 473.5,59.1667 473.5,57.5C 466.5,57.5 459.5,57.5 452.5,57.5C 452.5,55.8333 452.5,54.1667 452.5,52.5C 450.606,51.332 445.272,50.9987 436.5,51.5C 436.286,49.8561 436.62,48.3561 437.5,47C 432.177,46.5006 426.844,46.334 421.5,46.5C 421.5,44.8333 421.5,43.1667 421.5,41.5 Z"/></g>
<g><path style="opacity:0.231" fill="#595657" d="M 77.5,41.5 C 77.5,43.1667 77.5,44.8333 77.5,46.5C 72.1563,46.334 66.8229,46.5006 61.5,47C 62.3802,48.3561 62.7135,49.8561 62.5,51.5C 55.3134,51.1755 48.3134,51.5088 41.5,52.5C 41.5,53.8333 41.5,55.1667 41.5,56.5C 37.7852,56.577 34.1185,56.2436 30.5,55.5C 30.5,54.1667 30.5,52.8333 30.5,51.5C 35.8049,50.8058 41.1383,50.4724 46.5,50.5C 46.0889,47.7237 46.9223,47.057 49,48.5C 54.5421,46.0265 60.3754,45.0265 66.5,45.5C 66.5,44.1667 66.5,42.8333 66.5,41.5C 70.1667,41.5 73.8333,41.5 77.5,41.5 Z"/></g>
<g><path style="opacity:0.301" fill="#494949" d="M 354.5,51.5 C 354.483,53.5648 354.15,55.5648 353.5,57.5C 343.167,57.5 332.833,57.5 322.5,57.5C 322.5,57.1667 322.5,56.8333 322.5,56.5C 322.5,54.8333 322.5,53.1667 322.5,51.5C 333.167,51.5 343.833,51.5 354.5,51.5 Z"/></g>
<g><path style="opacity:0.806" fill="#252526" d="M 354.5,51.5 C 355.833,51.5 357.167,51.5 358.5,51.5C 358.5,53.1667 358.5,54.8333 358.5,56.5C 364.026,56.1786 369.36,56.5119 374.5,57.5C 370.833,57.5 367.167,57.5 363.5,57.5C 363.167,57.5 362.833,57.5 362.5,57.5C 361.5,57.5 360.5,57.5 359.5,57.5C 357.5,57.5 355.5,57.5 353.5,57.5C 354.15,55.5648 354.483,53.5648 354.5,51.5 Z"/></g>
<g><path style="opacity:0.538" fill="#505153" d="M 359.5,57.5 C 360.5,57.5 361.5,57.5 362.5,57.5C 362.833,58.8333 363.167,58.8333 363.5,57.5C 367.167,57.5 370.833,57.5 374.5,57.5C 374.5,59.1667 374.5,60.8333 374.5,62.5C 369.42,62.7503 364.42,62.2503 359.5,61C 358.316,59.8545 358.316,58.6879 359.5,57.5 Z"/></g>
<g><path style="opacity:0.692" fill="#474546" d="M 41.5,52.5 C 43.1667,52.5 44.8333,52.5 46.5,52.5C 46.5,54.1667 46.5,55.8333 46.5,57.5C 38.4195,57.0724 33.0861,57.4057 30.5,58.5C 30.5,59.5 30.5,60.5 30.5,61.5C 28.8762,61.6399 27.7096,60.9733 27,59.5C 26.6258,60.4162 26.1258,61.2496 25.5,62C 20.5111,62.4993 15.5111,62.6659 10.5,62.5C 10.5,64.1667 10.5,65.8333 10.5,67.5C 8.5,67.5 6.5,67.5 4.5,67.5C 4.5,69.1667 4.5,70.8333 4.5,72.5C 2.83333,72.5 1.16667,72.5 -0.5,72.5C -0.5,70.5 -0.5,68.5 -0.5,66.5C 1.19919,66.6602 2.86586,66.4935 4.5,66C 3.16667,64.6667 3.16667,63.3333 4.5,62C 7.81677,61.5017 11.1501,61.335 14.5,61.5C 14.2865,59.8561 14.6198,58.3561 15.5,57C 20.6835,56.8261 25.6835,56.3261 30.5,55.5C 34.1185,56.2436 37.7852,56.577 41.5,56.5C 41.5,55.1667 41.5,53.8333 41.5,52.5 Z"/></g>
<g><path style="opacity:0.613" fill="#4b494a" d="M 213.5,41.5 C 215.167,41.5 216.833,41.5 218.5,41.5C 218.5,42.8333 218.5,44.1667 218.5,45.5C 220.167,45.5 221.833,45.5 223.5,45.5C 223.5,47.1667 223.5,48.8333 223.5,50.5C 225.5,50.5 227.5,50.5 229.5,50.5C 229.5,52.5 229.5,54.5 229.5,56.5C 231.167,56.5 232.833,56.5 234.5,56.5C 234.5,58.1667 234.5,59.8333 234.5,61.5C 235.833,61.5 237.167,61.5 238.5,61.5C 238.5,63.1667 238.5,64.8333 238.5,66.5C 236.833,66.5 235.167,66.5 233.5,66.5C 233.5,65.1667 233.5,63.8333 233.5,62.5C 231.856,62.7135 230.356,62.3802 229,61.5C 228.502,58.1832 228.335,54.8499 228.5,51.5C 225.167,51.5 221.833,51.5 218.5,51.5C 218.5,49.8333 218.5,48.1667 218.5,46.5C 216.833,46.5 215.167,46.5 213.5,46.5C 213.5,44.8333 213.5,43.1667 213.5,41.5 Z"/></g>
<g><path style="opacity:0.02" fill="#3f3d4e" d="M 308.5,63.5 C 312.133,63.443 312.3,64.443 309,66.5C 308.517,65.552 308.351,64.552 308.5,63.5 Z"/></g>
<g><path style="opacity:0.863" fill="#484848" d="M 176.5,57.5 C 164.162,57.3335 151.829,57.5001 139.5,58C 140.833,59 140.833,60 139.5,61C 132.908,62.3288 126.241,62.8288 119.5,62.5C 119.5,64.1667 119.5,65.8333 119.5,67.5C 114.156,67.334 108.823,67.5006 103.5,68C 104.833,69.3333 104.833,70.6667 103.5,72C 98.5658,73.1601 93.5658,73.6601 88.5,73.5C 88.5,74.8333 88.5,76.1667 88.5,77.5C 86.5,77.5 84.5,77.5 82.5,77.5C 82.5,79.1667 82.5,80.8333 82.5,82.5C 77.1667,82.5 71.8333,82.5 66.5,82.5C 66.5,80.8333 66.5,79.1667 66.5,77.5C 68.5,77.5 70.5,77.5 72.5,77.5C 72.5,75.8333 72.5,74.1667 72.5,72.5C 81.2722,73.0013 86.6056,72.668 88.5,71.5C 88.5,69.8333 88.5,68.1667 88.5,66.5C 95.1667,66.5 101.833,66.5 108.5,66.5C 108.5,64.8333 108.5,63.1667 108.5,61.5C 113.833,61.5 119.167,61.5 124.5,61.5C 124.5,59.8333 124.5,58.1667 124.5,56.5C 129.833,56.5 135.167,56.5 140.5,56.5C 140.5,54.8333 140.5,53.1667 140.5,51.5C 152.5,51.5 164.5,51.5 176.5,51.5C 176.5,53.5 176.5,55.5 176.5,57.5 Z"/></g>
<g><path style="opacity:0.847" fill="#595959" d="M 494.5,66.5 C 496.167,66.5 497.833,66.5 499.5,66.5C 499.5,68.5 499.5,70.5 499.5,72.5C 497.833,72.5 496.167,72.5 494.5,72.5C 494.5,70.5 494.5,68.5 494.5,66.5 Z"/></g>
<g><path style="opacity:0.692" fill="#39393a" d="M 322.5,56.5 C 322.5,56.8333 322.5,57.1667 322.5,57.5C 320.833,57.5 319.167,57.5 317.5,57.5C 317.5,59.1667 317.5,60.8333 317.5,62.5C 314.167,62.5 310.833,62.5 307.5,62.5C 307.5,64.1667 307.5,65.8333 307.5,67.5C 305.5,67.5 303.5,67.5 301.5,67.5C 301.5,69.5 301.5,71.5 301.5,73.5C 299.833,73.5 298.167,73.5 296.5,73.5C 296.726,76.2492 296.393,78.9159 295.5,81.5C 294.311,82.4287 292.978,82.762 291.5,82.5C 291.5,79.1667 291.5,75.8333 291.5,72.5C 293.167,72.5 294.833,72.5 296.5,72.5C 296.5,70.5 296.5,68.5 296.5,66.5C 299.85,66.665 303.183,66.4983 306.5,66C 304.866,65.5065 303.199,65.3398 301.5,65.5C 301.5,64.1667 301.5,62.8333 301.5,61.5C 304.833,61.5 308.167,61.5 311.5,61.5C 311.5,59.8333 311.5,58.1667 311.5,56.5C 315.167,56.5 318.833,56.5 322.5,56.5 Z"/></g>
<g><path style="opacity:0.456" fill="#424041" d="M 379.5,62.5 C 383.167,62.5 386.833,62.5 390.5,62.5C 390.5,63.8333 390.5,65.1667 390.5,66.5C 397.167,66.5 403.833,66.5 410.5,66.5C 410.5,68.1667 410.5,69.8333 410.5,71.5C 412.394,72.668 417.728,73.0013 426.5,72.5C 426.5,74.1667 426.5,75.8333 426.5,77.5C 428.5,77.5 430.5,77.5 432.5,77.5C 432.5,79.1667 432.5,80.8333 432.5,82.5C 427.167,82.5 421.833,82.5 416.5,82.5C 416.5,80.8333 416.5,79.1667 416.5,77.5C 414.5,77.5 412.5,77.5 410.5,77.5C 410.5,76.1667 410.5,74.8333 410.5,73.5C 405.434,73.6601 400.434,73.1601 395.5,72C 394.167,70.6667 394.167,69.3333 395.5,68C 390.177,67.5006 384.844,67.334 379.5,67.5C 379.5,65.8333 379.5,64.1667 379.5,62.5 Z"/></g>
<g><path style="opacity:0.741" fill="#464648" d="M 181.5,57.5 C 183.167,57.5 184.833,57.5 186.5,57.5C 186.5,58.8333 186.5,60.1667 186.5,61.5C 190.167,61.5 193.833,61.5 197.5,61.5C 197.5,63.1667 197.5,64.8333 197.5,66.5C 199.167,66.5 200.833,66.5 202.5,66.5C 202.5,68.5 202.5,70.5 202.5,72.5C 204.167,72.5 205.833,72.5 207.5,72.5C 207.5,75.8333 207.5,79.1667 207.5,82.5C 206.5,82.5 205.5,82.5 204.5,82.5C 204.33,81.1779 204.663,80.0113 205.5,79C 204.552,78.5172 203.552,78.3505 202.5,78.5C 202.5,76.8333 202.5,75.1667 202.5,73.5C 200.833,73.5 199.167,73.5 197.5,73.5C 197.5,71.5 197.5,69.5 197.5,67.5C 194.781,67.6025 192.115,67.2692 189.5,66.5C 187.279,65.884 186.612,64.7173 187.5,63C 185.527,62.5045 183.527,62.3379 181.5,62.5C 181.5,60.8333 181.5,59.1667 181.5,57.5 Z"/></g>
<g><path style="opacity:0.814" fill="#424242" d="M -0.5,82.5 C 1.16667,82.5 2.83333,82.5 4.5,82.5C 4.5,84.5 4.5,86.5 4.5,88.5C 2.83333,88.5 1.16667,88.5 -0.5,88.5C -0.5,86.5 -0.5,84.5 -0.5,82.5 Z"/></g>
<g><path style="opacity:0.812" fill="#4b4b4b" d="M 499.5,82.5 C 499.5,84.5 499.5,86.5 499.5,88.5C 497.833,88.5 496.167,88.5 494.5,88.5C 494.5,86.5 494.5,84.5 494.5,82.5C 496.167,82.5 497.833,82.5 499.5,82.5 Z"/></g>
<g><path style="opacity:0.999" fill="#2d2d2d" d="M 82.5,82.5 C 84.5,82.5 86.5,82.5 88.5,82.5C 88.5,84.5 88.5,86.5 88.5,88.5C 86.5,88.5 84.5,88.5 82.5,88.5C 82.5,86.5 82.5,84.5 82.5,82.5 Z"/></g>
<g><path style="opacity:0.786" fill="#595758" d="M 88.5,82.5 C 93.8333,82.5 99.1667,82.5 104.5,82.5C 104.5,83.5 104.5,84.5 104.5,85.5C 105.822,85.67 106.989,85.3366 108,84.5C 108.374,85.4162 108.874,86.2496 109.5,87C 114.489,87.4993 119.489,87.6659 124.5,87.5C 112.678,88.4951 100.678,88.8284 88.5,88.5C 88.5,86.5 88.5,84.5 88.5,82.5 Z"/></g>
<g><path style="opacity:0.263" fill="#4b4a4b" d="M 291.5,82.5 C 291.5,84.1667 291.5,85.8333 291.5,87.5C 324.499,88.7976 357.499,88.7976 390.5,87.5C 390.5,86.1667 390.5,84.8333 390.5,83.5C 392.124,83.3601 393.29,84.0267 394,85.5C 394.483,84.552 394.649,83.552 394.5,82.5C 399.833,82.5 405.167,82.5 410.5,82.5C 410.5,84.5 410.5,86.5 410.5,88.5C 398.322,88.1716 386.322,88.5049 374.5,89.5C 350.159,89.4184 325.826,89.7517 301.5,90.5C 301.5,91.5 301.5,92.5 301.5,93.5C 298.167,93.5 294.833,93.5 291.5,93.5C 291.5,92.1667 291.5,90.8333 291.5,89.5C 294.85,89.665 298.183,89.4983 301.5,89C 296.177,88.5006 290.844,88.334 285.5,88.5C 285.5,86.5 285.5,84.5 285.5,82.5C 287.5,82.5 289.5,82.5 291.5,82.5 Z"/></g>
<g><path style="opacity:0.314" fill="#4a494a" d="M 207.5,82.5 C 209.5,82.5 211.5,82.5 213.5,82.5C 213.5,84.5 213.5,86.5 213.5,88.5C 207.974,88.1786 202.64,88.5119 197.5,89.5C 178.581,89.6717 159.581,89.8383 140.5,90C 140,90.5 139.5,91 139,91.5C 134.263,90.5308 129.43,90.1975 124.5,90.5C 124.5,91.5 124.5,92.5 124.5,93.5C 120.833,93.5 117.167,93.5 113.5,93.5C 113.5,92.1667 113.5,90.8333 113.5,89.5C 118.294,90.0969 122.627,89.4302 126.5,87.5C 153.496,88.7135 180.496,88.7135 207.5,87.5C 207.5,85.8333 207.5,84.1667 207.5,82.5 Z"/></g>
<g><path style="opacity:1" fill="#3e3e3e" d="M 197.5,89.5 C 200.833,89.5 204.167,89.5 207.5,89.5C 207.5,90.8333 207.5,92.1667 207.5,93.5C 204.167,93.5 200.833,93.5 197.5,93.5C 197.5,92.1667 197.5,90.8333 197.5,89.5 Z"/></g>
<g><path style="opacity:0.77" fill="#424242" d="M 494.5,88.5 C 495.301,90.0418 495.634,91.7085 495.5,93.5C 493.167,93.5 490.833,93.5 488.5,93.5C 488.5,91.8333 488.5,90.1667 488.5,88.5C 490.5,88.5 492.5,88.5 494.5,88.5 Z"/></g>
<g><path style="opacity:0.697" fill="#454545" d="M 4.5,88.5 C 6.5,88.5 8.5,88.5 10.5,88.5C 10.5,90.1667 10.5,91.8333 10.5,93.5C 8.4727,93.6621 6.4727,93.4955 4.5,93C 3.27207,91.5098 3.27207,90.0098 4.5,88.5 Z"/></g>
<g><path style="opacity:0.388" fill="#747374" d="M 197.5,89.5 C 197.5,90.8333 197.5,92.1667 197.5,93.5C 173.167,93.5 148.833,93.5 124.5,93.5C 124.5,92.5 124.5,91.5 124.5,90.5C 129.43,90.1975 134.263,90.5308 139,91.5C 139.5,91 140,90.5 140.5,90C 159.581,89.8383 178.581,89.6717 197.5,89.5 Z"/></g>
<g><path style="opacity:0.995" fill="#383838" d="M 374.5,89.5 C 378.167,89.5 381.833,89.5 385.5,89.5C 385.5,90.8333 385.5,92.1667 385.5,93.5C 381.833,93.5 378.167,93.5 374.5,93.5C 374.5,92.1667 374.5,90.8333 374.5,89.5 Z"/></g>
<g><path style="opacity:0.67" fill="#716f70" d="M 374.5,89.5 C 374.5,90.8333 374.5,92.1667 374.5,93.5C 350.167,93.5 325.833,93.5 301.5,93.5C 301.5,92.5 301.5,91.5 301.5,90.5C 325.826,89.7517 350.159,89.4184 374.5,89.5 Z"/></g>
<g><path style="opacity:0.02" fill="#5a5a5a" d="M 10.5,94.5 C 11.5,94.5 12.5,94.5 13.5,94.5C 13.6495,95.552 13.4828,96.552 13,97.5C 12.3333,96.1667 11.6667,96.1667 11,97.5C 10.5172,96.552 10.3505,95.552 10.5,94.5 Z"/></g>
<g><path style="opacity:0.028" fill="#535353" d="M 485.5,94.5 C 486.5,94.5 487.5,94.5 488.5,94.5C 488.5,95.5 488.5,96.5 488.5,97.5C 487.5,97.5 486.5,97.5 485.5,97.5C 485.5,96.5 485.5,95.5 485.5,94.5 Z"/></g>
<g><path style="opacity:0.507" fill="#535353" d="M 14.5,93.5 C 16.5,93.5 18.5,93.5 20.5,93.5C 20.5,95.1667 20.5,96.8333 20.5,98.5C 18.5,98.5 16.5,98.5 14.5,98.5C 14.5,96.8333 14.5,95.1667 14.5,93.5 Z"/></g>
<g><path style="opacity:0.379" fill="#4d4d4e" d="M 25.5,98.5 C 28.8333,98.5 32.1667,98.5 35.5,98.5C 35.5,100.167 35.5,101.833 35.5,103.5C 40.8333,103.5 46.1667,103.5 51.5,103.5C 51.5,105.167 51.5,106.833 51.5,108.5C 58.5,108.5 65.5,108.5 72.5,108.5C 72.5,110.167 72.5,111.833 72.5,113.5C 81.1667,113.5 89.8333,113.5 98.5,113.5C 98.5,115.167 98.5,116.833 98.5,118.5C 107.468,119.525 119.801,119.858 135.5,119.5C 135.5,120.833 135.5,122.167 135.5,123.5C 129.974,123.179 124.64,123.512 119.5,124.5C 115.833,124.5 112.167,124.5 108.5,124.5C 108.5,123.167 108.5,121.833 108.5,120.5C 98.1547,120.466 87.8214,120.133 77.5,119.5C 77.5,117.833 77.5,116.167 77.5,114.5C 70.4707,114.623 63.4707,114.29 56.5,113.5C 56.33,112.178 56.6634,111.011 57.5,110C 52.1771,109.501 46.8437,109.334 41.5,109.5C 41.5,107.833 41.5,106.167 41.5,104.5C 36.1667,104.5 30.8333,104.5 25.5,104.5C 25.5,102.5 25.5,100.5 25.5,98.5 Z"/></g>
<g><path style="opacity:0.383" fill="#474648" d="M 484.5,93.5 C 484.5,95.1667 484.5,96.8333 484.5,98.5C 480.833,98.5 477.167,98.5 473.5,98.5C 473.5,100.5 473.5,102.5 473.5,104.5C 468.167,104.5 462.833,104.5 457.5,104.5C 457.5,106.167 457.5,107.833 457.5,109.5C 452.156,109.334 446.823,109.501 441.5,110C 442.337,111.011 442.67,112.178 442.5,113.5C 435.529,114.29 428.529,114.623 421.5,114.5C 421.5,116.167 421.5,117.833 421.5,119.5C 411.181,120.182 400.847,120.515 390.5,120.5C 390.5,121.833 390.5,123.167 390.5,124.5C 381.833,124.5 373.167,124.5 364.5,124.5C 347.341,123.503 330.008,123.17 312.5,123.5C 312.5,122.167 312.5,120.833 312.5,119.5C 345.189,119.837 374.522,119.504 400.5,118.5C 400.5,116.833 400.5,115.167 400.5,113.5C 409.167,113.5 417.833,113.5 426.5,113.5C 426.5,111.833 426.5,110.167 426.5,108.5C 433.5,108.5 440.5,108.5 447.5,108.5C 447.5,106.833 447.5,105.167 447.5,103.5C 452.833,103.5 458.167,103.5 463.5,103.5C 463.5,101.5 463.5,99.5 463.5,97.5C 466.833,97.5 470.167,97.5 473.5,97.5C 473.5,96.1667 473.5,94.8333 473.5,93.5C 477.167,93.5 480.833,93.5 484.5,93.5 Z"/></g>
<g><path style="opacity:0.984" fill="#827f84" d="M 238.5,114.5 C 238.5,115.833 238.5,117.167 238.5,118.5C 235.5,118.5 232.5,118.5 229.5,118.5C 229.5,117.167 229.5,115.833 229.5,114.5C 232.5,114.5 235.5,114.5 238.5,114.5 Z"/></g>
<g><path style="opacity:1" fill="#323233" d="M 135.5,119.5 C 152.5,119.5 169.5,119.5 186.5,119.5C 186.5,120.833 186.5,122.167 186.5,123.5C 192.026,123.179 197.36,123.512 202.5,124.5C 174.841,125.43 147.174,125.43 119.5,124.5C 124.64,123.512 129.974,123.179 135.5,123.5C 135.5,122.167 135.5,120.833 135.5,119.5 Z"/></g>
<g><path style="opacity:0.937" fill="#6d6c6f" d="M 297.5,119.5 C 302.5,119.5 307.5,119.5 312.5,119.5C 312.5,120.833 312.5,122.167 312.5,123.5C 312.167,123.5 311.833,123.5 311.5,123.5C 307.154,123.666 302.821,123.499 298.5,123C 297.663,121.989 297.33,120.822 297.5,119.5 Z"/></g>
<g><path style="opacity:0.349" fill="#626164" d="M 238.5,114.5 C 235.5,114.5 232.5,114.5 229.5,114.5C 229.5,115.833 229.5,117.167 229.5,118.5C 232.5,118.5 235.5,118.5 238.5,118.5C 238.5,119.167 238.5,119.833 238.5,120.5C 230.377,120.576 222.043,120.576 213.5,120.5C 213.5,121.833 213.5,123.167 213.5,124.5C 209.833,124.5 206.167,124.5 202.5,124.5C 197.36,123.512 192.026,123.179 186.5,123.5C 186.5,122.167 186.5,120.833 186.5,119.5C 202.199,119.858 214.532,119.525 223.5,118.5C 223.5,116.833 223.5,115.167 223.5,113.5C 228.695,113.179 233.695,113.513 238.5,114.5 Z"/></g>
<g><path style="opacity:0.682" fill="#4f4e52" d="M 297.5,119.5 C 297.33,120.822 297.663,121.989 298.5,123C 302.821,123.499 307.154,123.666 311.5,123.5C 311.5,124.167 311.167,124.5 310.5,124.5C 302.167,124.5 293.833,124.5 285.5,124.5C 285.5,123.167 285.5,121.833 285.5,120.5C 277.167,120.5 268.833,120.5 260.5,120.5C 260.5,118.167 260.5,115.833 260.5,113.5C 265.5,113.5 270.5,113.5 275.5,113.5C 275.5,115.167 275.5,116.833 275.5,118.5C 279.444,119.577 286.778,119.911 297.5,119.5 Z"/></g>
<g><path style="opacity:0.004" fill="#0d0d0e" d="M 311.5,123.5 C 311.833,123.5 312.167,123.5 312.5,123.5C 330.008,123.17 347.341,123.503 364.5,124.5C 346.343,125.724 328.343,125.724 310.5,124.5C 311.167,124.5 311.5,124.167 311.5,123.5 Z"/></g>
<g><path style="opacity:0.107" fill="#454446" d="M 374.5,144.5 C 372.833,144.5 371.167,144.5 369.5,144.5C 369.5,143.167 369.5,141.833 369.5,140.5C 362.5,140.5 355.5,140.5 348.5,140.5C 348.5,139.167 348.5,137.833 348.5,136.5C 341.87,135.449 331.203,135.116 316.5,135.5C 316.5,136.833 316.5,138.167 316.5,139.5C 311.527,140.164 306.527,140.497 301.5,140.5C 301.5,142.167 301.5,143.833 301.5,145.5C 299.708,145.634 298.042,145.301 296.5,144.5C 295.699,142.958 295.366,141.292 295.5,139.5C 297.5,139.5 299.5,139.5 301.5,139.5C 301.5,138.167 301.5,136.833 301.5,135.5C 322.147,134.392 342.813,134.226 363.5,135C 364.833,136.333 364.833,137.667 363.5,139C 367.152,139.499 370.818,139.665 374.5,139.5C 374.5,141.167 374.5,142.833 374.5,144.5 Z"/></g>
<g><path style="opacity:0.412" fill="#4d4d4f" d="M 218.5,150.5 C 216.833,150.5 215.167,150.5 213.5,150.5C 213.5,148.833 213.5,147.167 213.5,145.5C 211.5,145.5 209.5,145.5 207.5,145.5C 207.5,143.833 207.5,142.167 207.5,140.5C 202.167,140.5 196.833,140.5 191.5,140.5C 191.5,138.833 191.5,137.167 191.5,135.5C 179.5,135.5 167.5,135.5 155.5,135.5C 155.5,136.833 155.5,138.167 155.5,139.5C 150.537,140.254 145.537,140.587 140.5,140.5C 140.5,142.167 140.5,143.833 140.5,145.5C 138.833,145.5 137.167,145.5 135.5,145.5C 135.5,147.5 135.5,149.5 135.5,151.5C 133.5,151.5 131.5,151.5 129.5,151.5C 129.5,152.833 129.5,154.167 129.5,155.5C 127.833,155.5 126.167,155.5 124.5,155.5C 124.5,153.833 124.5,152.167 124.5,150.5C 126.199,150.66 127.866,150.494 129.5,150C 128.039,145.693 129.705,143.859 134.5,144.5C 134.286,142.856 134.62,141.356 135.5,140C 138.482,139.502 141.482,139.335 144.5,139.5C 144.286,137.856 144.62,136.356 145.5,135C 166.187,134.226 186.853,134.392 207.5,135.5C 207.5,136.5 207.5,137.5 207.5,138.5C 206.127,138.343 204.793,138.51 203.5,139C 206.817,139.498 210.15,139.665 213.5,139.5C 213.5,141.167 213.5,142.833 213.5,144.5C 215.167,144.5 216.833,144.5 218.5,144.5C 218.5,146.5 218.5,148.5 218.5,150.5 Z"/></g>
<g><path style="opacity:0.695" fill="#474747" d="M 374.5,144.5 C 376.167,144.5 377.833,144.5 379.5,144.5C 379.5,146.5 379.5,148.5 379.5,150.5C 377.833,150.5 376.167,150.5 374.5,150.5C 374.5,148.5 374.5,146.5 374.5,144.5 Z"/></g>
<g><path style="opacity:0.871" fill="#646365" d="M 292.5,146.5 C 293.833,146.5 295.167,146.5 296.5,146.5C 296.5,147.833 296.5,149.167 296.5,150.5C 295.167,150.5 293.833,150.5 292.5,150.5C 292.5,149.167 292.5,147.833 292.5,146.5 Z"/></g>
<g><path style="opacity:0.635" fill="#3c3a3a" d="M 379.5,150.5 C 381.5,150.5 383.5,150.5 385.5,150.5C 385.5,152.167 385.5,153.833 385.5,155.5C 383.5,155.5 381.5,155.5 379.5,155.5C 379.5,153.833 379.5,152.167 379.5,150.5 Z"/></g>
<g><path style="opacity:0.361" fill="#535352" d="M 124.5,155.5 C 124.5,157.167 124.5,158.833 124.5,160.5C 122.833,160.5 121.167,160.5 119.5,160.5C 119.5,158.833 119.5,157.167 119.5,155.5C 121.167,155.5 122.833,155.5 124.5,155.5 Z"/></g>
<g><path style="opacity:0.792" fill="#525252" d="M 218.5,160.5 C 218.5,162.5 218.5,164.5 218.5,166.5C 216.833,166.5 215.167,166.5 213.5,166.5C 213.5,164.5 213.5,162.5 213.5,160.5C 215.167,160.5 216.833,160.5 218.5,160.5 Z"/></g>
<g><path style="opacity:0.999" fill="#232323" d="M 385.5,155.5 C 387.167,155.5 388.833,155.5 390.5,155.5C 390.5,159.167 390.5,162.833 390.5,166.5C 390.5,171.5 390.5,176.5 390.5,181.5C 391.5,181.5 392.5,181.5 393.5,181.5C 393.34,179.801 393.506,178.134 394,176.5C 394.495,178.473 394.662,180.473 394.5,182.5C 392.833,182.5 391.167,182.5 389.5,182.5C 390.124,172.998 389.79,167.665 388.5,166.5C 387.5,166.5 386.5,166.5 385.5,166.5C 385.5,162.833 385.5,159.167 385.5,155.5 Z"/></g>
<g><path style="opacity:0.38" fill="#504f51" d="M 119.5,166.5 C 119.5,169.833 119.5,173.167 119.5,176.5C 117.5,176.5 115.5,176.5 113.5,176.5C 113.5,173.167 113.5,169.833 113.5,166.5C 115.5,166.5 117.5,166.5 119.5,166.5 Z"/></g>
<g><path style="opacity:0.553" fill="#504f52" d="M 291.5,160.5 C 293.167,160.5 294.833,160.5 296.5,160.5C 296.5,162.5 296.5,164.5 296.5,166.5C 298.167,166.5 299.833,166.5 301.5,166.5C 301.5,168.167 301.5,169.833 301.5,171.5C 299.5,171.5 297.5,171.5 295.5,171.5C 297.314,167.63 295.981,165.963 291.5,166.5C 291.5,164.5 291.5,162.5 291.5,160.5 Z"/></g>
<g><path style="opacity:0.327" fill="#3f3f3f" d="M 390.5,166.5 C 392.167,166.5 393.833,166.5 395.5,166.5C 395.5,180.167 395.5,193.833 395.5,207.5C 393.833,207.5 392.167,207.5 390.5,207.5C 390.5,202.167 390.5,196.833 390.5,191.5C 391.5,191.5 392.5,191.5 393.5,191.5C 393.338,193.527 393.505,195.527 394,197.5C 394.499,192.511 394.666,187.511 394.5,182.5C 394.662,180.473 394.495,178.473 394,176.5C 393.506,178.134 393.34,179.801 393.5,181.5C 392.5,181.5 391.5,181.5 390.5,181.5C 390.5,176.5 390.5,171.5 390.5,166.5 Z"/></g>
<g><path style="opacity:0.533" fill="#535353" d="M 213.5,166.5 C 213.5,168.167 213.5,169.833 213.5,171.5C 211.5,171.5 209.5,171.5 207.5,171.5C 207.5,169.833 207.5,168.167 207.5,166.5C 209.5,166.5 211.5,166.5 213.5,166.5 Z"/></g>
<g><path style="opacity:0.706" fill="#545454" d="M 348.5,171.5 C 348.5,173.167 348.5,174.833 348.5,176.5C 345.167,176.5 341.833,176.5 338.5,176.5C 338.5,174.833 338.5,173.167 338.5,171.5C 341.833,171.5 345.167,171.5 348.5,171.5 Z"/></g>
<g><path style="opacity:0.008" fill="#5e5e5e" d="M 356.5,172.5 C 357.573,173.251 357.74,174.251 357,175.5C 356.517,174.552 356.351,173.552 356.5,172.5 Z"/></g>
<g><path style="opacity:0.004" fill="#2b2b2b" d="M 152.5,172.5 C 153.525,172.897 153.692,173.563 153,174.5C 152.536,173.906 152.369,173.239 152.5,172.5 Z"/></g>
<g><path style="opacity:0.004" fill="#2b2b2b" d="M 158.5,172.5 C 159.525,172.897 159.692,173.563 159,174.5C 158.536,173.906 158.369,173.239 158.5,172.5 Z"/></g>
<g><path style="opacity:0.008" fill="#4e4e4e" d="M 349.5,172.5 C 352.001,172.511 352.168,173.178 350,174.5C 349.536,173.906 349.369,173.239 349.5,172.5 Z"/></g>
<g><path style="opacity:0.836" fill="#424242" d="M 160.5,171.5 C 164.167,171.5 167.833,171.5 171.5,171.5C 171.5,173.167 171.5,174.833 171.5,176.5C 167.833,176.5 164.167,176.5 160.5,176.5C 160.5,174.833 160.5,173.167 160.5,171.5 Z"/></g>
<g><path style="opacity:0.6" fill="#545356" d="M 306.5,171.5 C 309.833,171.5 313.167,171.5 316.5,171.5C 316.5,173.167 316.5,174.833 316.5,176.5C 312.154,176.666 307.821,176.499 303.5,176C 301.505,175.076 301.172,173.91 302.5,172.5C 302.833,172.5 303.167,172.5 303.5,172.5C 303.833,172.5 304.167,172.5 304.5,172.5C 304.833,172.5 305.167,172.5 305.5,172.5C 306.045,176.172 306.378,175.838 306.5,171.5 Z"/></g>
<g><path style="opacity:0.495" fill="#58575b" d="M 206.5,171.5 C 208.116,173.416 207.782,174.916 205.5,176C 200.845,176.499 196.179,176.666 191.5,176.5C 191.5,174.833 191.5,173.167 191.5,171.5C 196.651,171.692 201.651,171.692 206.5,171.5 Z"/></g>
<g><path style="opacity:0.351" fill="#4b494a" d="M 151.5,171.5 C 151.5,175.167 151.5,178.833 151.5,182.5C 149.5,182.5 147.5,182.5 145.5,182.5C 145.5,185.5 145.5,188.5 145.5,191.5C 147.5,191.5 149.5,191.5 151.5,191.5C 151.5,193.5 151.5,195.5 151.5,197.5C 152.833,197.5 154.167,197.5 155.5,197.5C 155.5,199.167 155.5,200.833 155.5,202.5C 153.833,202.5 152.167,202.5 150.5,202.5C 150.5,200.833 150.5,199.167 150.5,197.5C 148.5,197.5 146.5,197.5 144.5,197.5C 144.327,188.805 144.66,180.138 145.5,171.5C 146.833,171.5 148.167,171.5 149.5,171.5C 149.343,172.873 149.51,174.207 150,175.5C 150.21,173.942 150.71,172.609 151.5,171.5 Z"/></g>
<g><path style="opacity:1" fill="#2d2b2e" d="M 113.5,176.5 C 115.5,176.5 117.5,176.5 119.5,176.5C 119.5,178.5 119.5,180.5 119.5,182.5C 117.5,182.5 115.5,182.5 113.5,182.5C 113.5,180.5 113.5,178.5 113.5,176.5 Z"/></g>
<g><path style="opacity:0.443" fill="#5b5b5d" d="M 358.5,176.5 C 360.167,176.5 361.833,176.5 363.5,176.5C 363.5,178.5 363.5,180.5 363.5,182.5C 361.833,182.5 360.167,182.5 358.5,182.5C 358.5,180.5 358.5,178.5 358.5,176.5 Z"/></g>
<g><path style="opacity:0.012" fill="#595959" d="M 361.5,187.5 C 362.573,188.251 362.74,189.251 362,190.5C 361.517,189.552 361.351,188.552 361.5,187.5 Z"/></g>
<g><path style="opacity:0.016" fill="#5f504f" d="M 146.5,187.5 C 148.646,187.696 148.812,188.696 147,190.5C 146.517,189.552 146.351,188.552 146.5,187.5 Z"/></g>
<g><path style="opacity:0.004" fill="#000000" d="M 149.5,189.5 C 150.833,190.167 150.833,190.167 149.5,189.5 Z"/></g>
<g><path style="opacity:0.314" fill="#504e4f" d="M 363.5,191.5 C 363.5,193.5 363.5,195.5 363.5,197.5C 361.833,197.5 360.167,197.5 358.5,197.5C 358.5,195.5 358.5,193.5 358.5,191.5C 360.167,191.5 361.833,191.5 363.5,191.5 Z"/></g>
<g><path style="opacity:0.98" fill="#29282a" d="M 113.5,191.5 C 115.5,191.5 117.5,191.5 119.5,191.5C 119.5,193.5 119.5,195.5 119.5,197.5C 117.5,197.5 115.5,197.5 113.5,197.5C 113.5,195.5 113.5,193.5 113.5,191.5 Z"/></g>
<g><path style="opacity:0.965" fill="#424242" d="M 207.5,197.5 C 212.833,197.5 218.167,197.5 223.5,197.5C 223.5,199.167 223.5,200.833 223.5,202.5C 218.167,202.5 212.833,202.5 207.5,202.5C 207.5,200.833 207.5,199.167 207.5,197.5 Z"/></g>
<g><path style="opacity:1" fill="#504f52" d="M 113.5,197.5 C 115.5,197.5 117.5,197.5 119.5,197.5C 119.5,200.833 119.5,204.167 119.5,207.5C 117.5,207.5 115.5,207.5 113.5,207.5C 113.5,204.167 113.5,200.833 113.5,197.5 Z"/></g>
<g><path style="opacity:1" fill="#383838" d="M 285.5,197.5 C 289.167,197.5 292.833,197.5 296.5,197.5C 296.5,199.167 296.5,200.833 296.5,202.5C 292.833,202.5 289.167,202.5 285.5,202.5C 285.5,200.833 285.5,199.167 285.5,197.5 Z"/></g>
<g><path style="opacity:0.392" fill="#706e70" d="M 296.5,197.5 C 303.5,197.5 310.5,197.5 317.5,197.5C 317.5,199.167 317.5,200.833 317.5,202.5C 310.5,202.5 303.5,202.5 296.5,202.5C 296.5,200.833 296.5,199.167 296.5,197.5 Z"/></g>
<g><path style="opacity:1" fill="#848385" d="M 207.5,197.5 C 207.5,199.167 207.5,200.833 207.5,202.5C 202.167,202.5 196.833,202.5 191.5,202.5C 191.5,200.833 191.5,199.167 191.5,197.5C 196.833,197.5 202.167,197.5 207.5,197.5 Z"/></g>
<g><path style="opacity:0.3" fill="#5a5a5a" d="M 155.5,202.5 C 164.5,202.5 173.5,202.5 182.5,202.5C 182.5,204.167 182.5,205.833 182.5,207.5C 180.5,207.5 178.5,207.5 176.5,207.5C 176.5,206.167 176.5,204.833 176.5,203.5C 171.146,203.569 165.813,203.902 160.5,204.5C 160.5,205.5 160.5,206.5 160.5,207.5C 158.833,207.5 157.167,207.5 155.5,207.5C 155.5,205.833 155.5,204.167 155.5,202.5 Z"/></g>
<g><path style="opacity:0.386" fill="#575656" d="M 358.5,197.5 C 358.5,199.167 358.5,200.833 358.5,202.5C 357.167,202.5 355.833,202.5 354.5,202.5C 354.5,204.167 354.5,205.833 354.5,207.5C 352.5,207.5 350.5,207.5 348.5,207.5C 348.5,206.167 348.5,204.833 348.5,203.5C 343.167,203.5 337.833,203.5 332.5,203.5C 332.5,204.833 332.5,206.167 332.5,207.5C 330.833,207.5 329.167,207.5 327.5,207.5C 327.5,205.833 327.5,204.167 327.5,202.5C 336.167,202.5 344.833,202.5 353.5,202.5C 353.5,200.833 353.5,199.167 353.5,197.5C 355.167,197.5 356.833,197.5 358.5,197.5 Z"/></g>
<g><path style="opacity:0.51" fill="#848183" d="M 176.5,207.5 C 171.167,207.5 165.833,207.5 160.5,207.5C 160.5,206.5 160.5,205.5 160.5,204.5C 165.813,203.902 171.146,203.569 176.5,203.5C 176.5,204.833 176.5,206.167 176.5,207.5 Z"/></g>
<g><path style="opacity:0.494" fill="#868484" d="M 348.5,207.5 C 343.167,207.5 337.833,207.5 332.5,207.5C 332.5,206.167 332.5,204.833 332.5,203.5C 337.833,203.5 343.167,203.5 348.5,203.5C 348.5,204.833 348.5,206.167 348.5,207.5 Z"/></g>
<g><path style="opacity:0.246" fill="#373737" d="M 390.5,207.5 C 390.5,211.167 390.5,214.833 390.5,218.5C 388.833,218.5 387.167,218.5 385.5,218.5C 385.5,214.833 385.5,211.167 385.5,207.5C 387.167,207.5 388.833,207.5 390.5,207.5 Z"/></g>
<g><path style="opacity:0.31" fill="#585858" d="M 119.5,213.5 C 121.167,213.5 122.833,213.5 124.5,213.5C 124.5,215.167 124.5,216.833 124.5,218.5C 122.833,218.5 121.167,218.5 119.5,218.5C 119.5,216.833 119.5,215.167 119.5,213.5 Z"/></g>
<g><path style="opacity:0.549" fill="#555555" d="M 124.5,218.5 C 126.167,218.5 127.833,218.5 129.5,218.5C 129.5,220.167 129.5,221.833 129.5,223.5C 127.833,223.5 126.167,223.5 124.5,223.5C 124.5,221.833 124.5,220.167 124.5,218.5 Z"/></g>
<g><path style="opacity:0.379" fill="#4d4b4b" d="M 385.5,218.5 C 385.5,220.167 385.5,221.833 385.5,223.5C 383.5,223.5 381.5,223.5 379.5,223.5C 379.5,221.833 379.5,220.167 379.5,218.5C 381.5,218.5 383.5,218.5 385.5,218.5 Z"/></g>
<g><path style="opacity:0.518" fill="#4b494c" d="M 285.5,260.5 C 285.5,260.167 285.5,259.833 285.5,259.5C 285.5,252.833 285.5,246.167 285.5,239.5C 282.482,239.665 279.482,239.498 276.5,239C 275.62,237.644 275.286,236.144 275.5,234.5C 270.5,234.5 265.5,234.5 260.5,234.5C 260.5,232.5 260.5,230.5 260.5,228.5C 265.527,228.503 270.527,228.836 275.5,229.5C 275.5,230.5 275.5,231.5 275.5,232.5C 273.473,232.338 271.473,232.505 269.5,233C 274.823,233.499 280.156,233.666 285.5,233.5C 285.5,234.833 285.5,236.167 285.5,237.5C 284.127,237.343 282.793,237.51 281.5,238C 284.817,238.498 288.15,238.665 291.5,238.5C 291.5,245.833 291.5,253.167 291.5,260.5C 289.5,260.5 287.5,260.5 285.5,260.5 Z"/></g>
<g><path style="opacity:1" fill="#2f2f2f" d="M 155.5,233.5 C 164.173,233.334 172.84,233.5 181.5,234C 182.456,237.394 182.789,240.894 182.5,244.5C 180.833,244.5 179.167,244.5 177.5,244.5C 177.784,242.585 177.451,240.919 176.5,239.5C 169.679,238.671 162.679,238.171 155.5,238C 157.134,237.506 158.801,237.34 160.5,237.5C 160.5,236.5 160.5,235.5 160.5,234.5C 158.585,234.784 156.919,234.451 155.5,233.5 Z"/></g>
<g><path style="opacity:0.499" fill="#4b4b4c" d="M 379.5,223.5 C 379.5,225.5 379.5,227.5 379.5,229.5C 377.833,229.5 376.167,229.5 374.5,229.5C 374.5,230.833 374.5,232.167 374.5,233.5C 370.865,234.114 367.198,234.448 363.5,234.5C 363.5,235.833 363.5,237.167 363.5,238.5C 350.192,239.404 336.859,239.737 323.5,239.5C 323.5,248.167 323.5,256.833 323.5,265.5C 321.5,265.5 319.5,265.5 317.5,265.5C 317.5,269.167 317.5,272.833 317.5,276.5C 315.833,276.5 314.167,276.5 312.5,276.5C 312.5,278.167 312.5,279.833 312.5,281.5C 310.833,281.5 309.167,281.5 307.5,281.5C 307.5,283.167 307.5,284.833 307.5,286.5C 305.5,286.5 303.5,286.5 301.5,286.5C 301.335,289.518 301.502,292.518 302,295.5C 302.219,294.062 302.719,292.729 303.5,291.5C 303.833,291.667 304.167,291.833 304.5,292C 303.663,293.011 303.33,294.178 303.5,295.5C 304.833,295.5 306.167,295.5 307.5,295.5C 307.5,297.5 307.5,299.5 307.5,301.5C 309.167,301.5 310.833,301.5 312.5,301.5C 312.5,306.5 312.5,311.5 312.5,316.5C 312.167,316.5 311.833,316.5 311.5,316.5C 311.167,311.167 310.833,311.167 310.5,316.5C 309.5,316.5 308.5,316.5 307.5,316.5C 306.746,311.537 306.413,306.537 306.5,301.5C 304.833,301.5 303.167,301.5 301.5,301.5C 301.5,299.833 301.5,298.167 301.5,296.5C 299.833,296.5 298.167,296.5 296.5,296.5C 296.5,292.833 296.5,289.167 296.5,285.5C 298.167,285.5 299.833,285.5 301.5,285.5C 301.5,283.833 301.5,282.167 301.5,280.5C 303.5,280.5 305.5,280.5 307.5,280.5C 307.5,278.833 307.5,277.167 307.5,275.5C 308.833,275.5 310.167,275.5 311.5,275.5C 311.5,273.833 311.5,272.167 311.5,270.5C 313.167,270.5 314.833,270.5 316.5,270.5C 316.5,265.167 316.5,259.833 316.5,254.5C 318.167,254.5 319.833,254.5 321.5,254.5C 321.338,256.527 321.505,258.527 322,260.5C 322.499,255.177 322.666,249.844 322.5,244.5C 320.5,244.5 318.5,244.5 316.5,244.5C 316.5,240.833 316.5,237.167 316.5,233.5C 318.5,233.5 320.5,233.5 322.5,233.5C 322.5,234.833 322.5,236.167 322.5,237.5C 325.833,237.5 329.167,237.5 332.5,237.5C 337.64,238.488 342.974,238.821 348.5,238.5C 348.5,236.833 348.5,235.167 348.5,233.5C 353.5,233.5 358.5,233.5 363.5,233.5C 363.5,231.833 363.5,230.167 363.5,228.5C 367.167,228.5 370.833,228.5 374.5,228.5C 374.5,226.833 374.5,225.167 374.5,223.5C 376.167,223.5 377.833,223.5 379.5,223.5 Z"/></g>
<g><path style="opacity:0.59" fill="#7a7a7b" d="M 322.5,233.5 C 325.833,233.5 329.167,233.5 332.5,233.5C 332.5,234.833 332.5,236.167 332.5,237.5C 329.167,237.5 325.833,237.5 322.5,237.5C 322.5,236.167 322.5,234.833 322.5,233.5 Z"/></g>
<g><path style="opacity:1" fill="#363537" d="M 332.5,233.5 C 337.833,233.5 343.167,233.5 348.5,233.5C 348.5,235.167 348.5,236.833 348.5,238.5C 342.974,238.821 337.64,238.488 332.5,237.5C 332.5,236.167 332.5,234.833 332.5,233.5 Z"/></g>
<g><path style="opacity:0.2" fill="#4d4d4e" d="M 129.5,223.5 C 131.5,223.5 133.5,223.5 135.5,223.5C 135.5,225.167 135.5,226.833 135.5,228.5C 138.518,228.335 141.518,228.502 144.5,229C 145.833,230.333 145.833,231.667 144.5,233C 148.152,233.499 151.818,233.665 155.5,233.5C 156.919,234.451 158.585,234.784 160.5,234.5C 160.5,235.5 160.5,236.5 160.5,237.5C 158.801,237.34 157.134,237.506 155.5,238C 162.679,238.171 169.679,238.671 176.5,239.5C 175.81,248.731 176.143,253.731 177.5,254.5C 179.167,254.5 180.833,254.5 182.5,254.5C 182.5,259.5 182.5,264.5 182.5,269.5C 184.167,269.5 185.833,269.5 187.5,269.5C 187.5,271.5 187.5,273.5 187.5,275.5C 188.833,275.5 190.167,275.5 191.5,275.5C 191.5,277.167 191.5,278.833 191.5,280.5C 193.5,280.5 195.5,280.5 197.5,280.5C 197.5,282.167 197.5,283.833 197.5,285.5C 199.167,285.5 200.833,285.5 202.5,285.5C 202.5,289.167 202.5,292.833 202.5,296.5C 200.833,296.5 199.167,296.5 197.5,296.5C 197.5,298.167 197.5,299.833 197.5,301.5C 195.5,301.5 193.5,301.5 191.5,301.5C 191.5,299.5 191.5,297.5 191.5,295.5C 192.833,295.5 194.167,295.5 195.5,295.5C 195.682,290.206 196.182,290.206 197,295.5C 197.498,292.518 197.665,289.518 197.5,286.5C 193.062,287.575 191.062,285.908 191.5,281.5C 189.833,281.5 188.167,281.5 186.5,281.5C 186.5,279.833 186.5,278.167 186.5,276.5C 184.833,276.5 183.167,276.5 181.5,276.5C 181.5,272.833 181.5,269.167 181.5,265.5C 179.5,265.5 177.5,265.5 175.5,265.5C 175.5,256.833 175.5,248.167 175.5,239.5C 167.493,239.666 159.493,239.5 151.5,239C 149.423,238.808 147.423,238.308 145.5,237.5C 144.359,236.575 144.359,235.741 145.5,235C 142.173,234.39 138.839,233.89 135.5,233.5C 135.5,232.167 135.5,230.833 135.5,229.5C 133.5,229.5 131.5,229.5 129.5,229.5C 129.5,227.5 129.5,225.5 129.5,223.5 Z"/></g>
<g><path style="opacity:0.964" fill="#4c4a4c" d="M 238.5,234.5 C 233.5,234.5 228.5,234.5 223.5,234.5C 223.5,236.167 223.5,237.833 223.5,239.5C 220.167,239.5 216.833,239.5 213.5,239.5C 213.5,246.167 213.5,252.833 213.5,259.5C 216.833,259.5 220.167,259.5 223.5,259.5C 223.5,261.167 223.5,262.833 223.5,264.5C 225.167,264.5 226.833,264.5 228.5,264.5C 228.5,264.833 228.5,265.167 228.5,265.5C 225.167,265.5 221.833,265.5 218.5,265.5C 218.5,263.833 218.5,262.167 218.5,260.5C 214.833,260.5 211.167,260.5 207.5,260.5C 207.5,253.167 207.5,245.833 207.5,238.5C 210.85,238.665 214.183,238.498 217.5,238C 216.207,237.51 214.873,237.343 213.5,237.5C 213.5,236.167 213.5,234.833 213.5,233.5C 218.844,233.666 224.177,233.499 229.5,233C 227.527,232.505 225.527,232.338 223.5,232.5C 223.5,231.5 223.5,230.5 223.5,229.5C 228.473,228.836 233.473,228.503 238.5,228.5C 238.5,230.5 238.5,232.5 238.5,234.5 Z"/></g>
<g><path style="opacity:0.392" fill="#6c696b" d="M 285.5,259.5 C 285.5,259.833 285.5,260.167 285.5,260.5C 283.833,260.5 282.167,260.5 280.5,260.5C 280.5,262.167 280.5,263.833 280.5,265.5C 277.167,265.5 273.833,265.5 270.5,265.5C 264.833,265.664 264.5,265.997 269.5,266.5C 269.5,267.5 269.5,268.5 269.5,269.5C 266.5,269.5 263.5,269.5 260.5,269.5C 260.5,267.833 260.5,266.167 260.5,264.5C 265.5,264.5 270.5,264.5 275.5,264.5C 275.5,262.833 275.5,261.167 275.5,259.5C 278.833,259.5 282.167,259.5 285.5,259.5 Z"/></g>
<g><path style="opacity:0.018" fill="#505050" d="M 318.5,266.5 C 323.421,266.135 323.755,267.135 319.5,269.5C 318.614,268.675 318.281,267.675 318.5,266.5 Z"/></g>
<g><path style="opacity:0.012" fill="#4a4a4a" d="M 179.5,266.5 C 180.573,267.251 180.74,268.251 180,269.5C 179.517,268.552 179.351,267.552 179.5,266.5 Z"/></g>
<g><path style="opacity:0.939" fill="#424141" d="M 270.5,265.5 C 271.919,266.451 273.585,266.784 275.5,266.5C 275.5,267.5 275.5,268.5 275.5,269.5C 270.341,270.532 265.341,270.532 260.5,269.5C 263.5,269.5 266.5,269.5 269.5,269.5C 269.5,268.5 269.5,267.5 269.5,266.5C 264.5,265.997 264.833,265.664 270.5,265.5 Z"/></g>
<g><path style="opacity:0.945" fill="#474445" d="M 228.5,265.5 C 234.167,265.664 234.5,265.997 229.5,266.5C 229.5,267.5 229.5,268.5 229.5,269.5C 232.5,269.5 235.5,269.5 238.5,269.5C 233.659,270.532 228.659,270.532 223.5,269.5C 223.5,268.5 223.5,267.5 223.5,266.5C 225.415,266.784 227.081,266.451 228.5,265.5 Z"/></g>
<g><path style="opacity:0.89" fill="#7b787a" d="M 228.5,265.5 C 228.5,265.167 228.5,264.833 228.5,264.5C 231.833,264.5 235.167,264.5 238.5,264.5C 238.5,266.167 238.5,267.833 238.5,269.5C 235.5,269.5 232.5,269.5 229.5,269.5C 229.5,268.5 229.5,267.5 229.5,266.5C 234.5,265.997 234.167,265.664 228.5,265.5 Z"/></g>
<g><path style="opacity:0.758" fill="#535052" d="M 238.5,307.5 C 235.5,307.5 232.5,307.5 229.5,307.5C 229.5,305.5 229.5,303.5 229.5,301.5C 232.5,301.5 235.5,301.5 238.5,301.5C 238.5,303.5 238.5,305.5 238.5,307.5 Z"/></g>
<g><path style="opacity:0.224" fill="#545253" d="M 229.5,307.5 C 229.938,311.908 227.938,313.575 223.5,312.5C 222.352,318.87 222.352,325.536 223.5,332.5C 221.833,332.5 220.167,332.5 218.5,332.5C 218.5,330.833 218.5,329.167 218.5,327.5C 219.833,324.167 219.833,320.833 218.5,317.5C 218.5,315.5 218.5,313.5 218.5,311.5C 219.833,311.5 221.167,311.5 222.5,311.5C 222.5,310.167 222.5,308.833 222.5,307.5C 224.833,307.5 227.167,307.5 229.5,307.5 Z"/></g>
<g><path style="opacity:0.224" fill="#5c5c5e" d="M 280.5,317.5 C 279.167,320.833 279.167,324.167 280.5,327.5C 280.5,329.167 280.5,330.833 280.5,332.5C 278.833,332.5 277.167,332.5 275.5,332.5C 275.842,327.582 276.508,322.749 277.5,318C 275.808,316.599 275.141,314.766 275.5,312.5C 271.062,313.575 269.062,311.908 269.5,307.5C 266.5,307.5 263.5,307.5 260.5,307.5C 260.5,305.5 260.5,303.5 260.5,301.5C 263.833,301.5 267.167,301.5 270.5,301.5C 270.5,303.167 270.5,304.833 270.5,306.5C 274.938,305.425 276.938,307.092 276.5,311.5C 277.833,311.5 279.167,311.5 280.5,311.5C 280.5,313.5 280.5,315.5 280.5,317.5 Z"/></g>
<g><path style="opacity:0.445" fill="#39383a" d="M 311.5,316.5 C 311.833,316.5 312.167,316.5 312.5,316.5C 312.5,325.5 312.5,334.5 312.5,343.5C 310.833,343.5 309.167,343.5 307.5,343.5C 307.5,345.167 307.5,346.833 307.5,348.5C 305.5,348.5 303.5,348.5 301.5,348.5C 301.5,346.833 301.5,345.167 301.5,343.5C 303.167,343.5 304.833,343.5 306.5,343.5C 306.5,338.167 306.5,332.833 306.5,327.5C 308.167,327.5 309.833,327.5 311.5,327.5C 311.5,323.833 311.5,320.167 311.5,316.5 Z"/></g>
<g><path style="opacity:0.418" fill="#4a4a4b" d="M 191.5,301.5 C 191.5,306.5 191.5,311.5 191.5,316.5C 190.167,316.5 188.833,316.5 187.5,316.5C 187.5,320.167 187.5,323.833 187.5,327.5C 188.833,327.5 190.167,327.5 191.5,327.5C 192.194,332.805 192.528,338.138 192.5,343.5C 194.167,343.5 195.833,343.5 197.5,343.5C 197.5,346.833 197.5,350.167 197.5,353.5C 195.703,353.935 193.703,353.935 191.5,353.5C 191.5,350.167 191.5,346.833 191.5,343.5C 189.833,343.5 188.167,343.5 186.5,343.5C 186.266,329.188 186.599,315.188 187.5,301.5C 188.833,301.5 190.167,301.5 191.5,301.5 Z"/></g>
<g><path style="opacity:0.275" fill="#686668" d="M 275.5,332.5 C 275.5,334.5 275.5,336.5 275.5,338.5C 273.473,338.338 271.473,338.505 269.5,339C 270.38,340.356 270.714,341.856 270.5,343.5C 267.167,343.5 263.833,343.5 260.5,343.5C 260.5,341.5 260.5,339.5 260.5,337.5C 263.5,337.5 266.5,337.5 269.5,337.5C 269.5,335.833 269.5,334.167 269.5,332.5C 271.5,332.5 273.5,332.5 275.5,332.5 Z"/></g>
<g><path style="opacity:0.988" fill="#5d5c5e" d="M 223.5,332.5 C 225.5,332.5 227.5,332.5 229.5,332.5C 229.5,334.167 229.5,335.833 229.5,337.5C 232.5,337.5 235.5,337.5 238.5,337.5C 238.5,339.5 238.5,341.5 238.5,343.5C 235.167,343.5 231.833,343.5 228.5,343.5C 228.286,341.856 228.62,340.356 229.5,339C 227.527,338.505 225.527,338.338 223.5,338.5C 223.5,336.5 223.5,334.5 223.5,332.5 Z"/></g>
<g><path style="opacity:0.024" fill="#545454" d="M 302.5,349.5 C 307.502,349.522 307.835,350.855 303.5,353.5C 302.571,352.311 302.238,350.978 302.5,349.5 Z"/></g>
<g><path style="opacity:0.184" fill="#656064" d="M 301.5,353.5 C 301.5,356.833 301.5,360.167 301.5,363.5C 299.833,363.5 298.167,363.5 296.5,363.5C 296.5,360.167 296.5,356.833 296.5,353.5C 298.167,353.5 299.833,353.5 301.5,353.5 Z"/></g>
<g><path style="opacity:0.216" fill="#555459" d="M 197.5,353.5 C 199.167,353.5 200.833,353.5 202.5,353.5C 202.5,356.833 202.5,360.167 202.5,363.5C 200.833,363.5 199.167,363.5 197.5,363.5C 197.5,360.167 197.5,356.833 197.5,353.5 Z"/></g>
<g><path style="opacity:0.733" fill="#3b3b3b" d="M 307.5,374.5 C 305.5,374.5 303.5,374.5 301.5,374.5C 301.5,372.833 301.5,371.167 301.5,369.5C 302.302,368.048 302.802,366.382 303,364.5C 303.333,365.833 303.667,367.167 304,368.5C 305,368.833 306,369.167 307,369.5C 307.494,371.134 307.66,372.801 307.5,374.5 Z"/></g>
<g><path style="opacity:0.939" fill="#555255" d="M 238.5,379.5 C 235.5,379.5 232.5,379.5 229.5,379.5C 230.5,384.5 228.5,386.5 223.5,385.5C 223.5,383.5 223.5,381.5 223.5,379.5C 225.167,379.5 226.833,379.5 228.5,379.5C 228.5,377.833 228.5,376.167 228.5,374.5C 231.833,374.5 235.167,374.5 238.5,374.5C 238.5,376.167 238.5,377.833 238.5,379.5 Z"/></g>
<g><path style="opacity:0.176" fill="#585657" d="M 275.5,385.5 C 270.5,386.5 268.5,384.5 269.5,379.5C 266.5,379.5 263.5,379.5 260.5,379.5C 260.5,377.833 260.5,376.167 260.5,374.5C 263.833,374.5 267.167,374.5 270.5,374.5C 270.5,376.167 270.5,377.833 270.5,379.5C 272.167,379.5 273.833,379.5 275.5,379.5C 275.5,381.5 275.5,383.5 275.5,385.5 Z"/></g>
<g><path style="opacity:0.577" fill="#47484b" d="M 197.5,363.5 C 197.5,367.167 197.5,370.833 197.5,374.5C 195.833,374.5 194.167,374.5 192.5,374.5C 192.587,379.537 192.254,384.537 191.5,389.5C 190.5,389.5 189.5,389.5 188.5,389.5C 188.657,388.127 188.49,386.793 188,385.5C 187.802,387.382 187.302,389.048 186.5,390.5C 186.5,385.167 186.5,379.833 186.5,374.5C 188.167,374.5 189.833,374.5 191.5,374.5C 191.335,371.15 191.502,367.817 192,364.5C 193.699,363.594 195.533,363.261 197.5,363.5 Z"/></g>
<g><path style="opacity:0.024" fill="#585858" d="M 275.5,385.5 C 277.167,385.5 278.833,385.5 280.5,385.5C 280.5,387.167 280.5,388.833 280.5,390.5C 279.167,393.833 279.167,397.167 280.5,400.5C 280.5,402.167 280.5,403.833 280.5,405.5C 278.833,405.5 277.167,405.5 275.5,405.5C 275.5,403.833 275.5,402.167 275.5,400.5C 276.552,400.649 277.552,400.483 278.5,400C 276.242,397.275 275.909,394.275 277.5,391C 275.808,389.599 275.141,387.766 275.5,385.5 Z"/></g>
<g><path style="opacity:0.012" fill="#5c585a" d="M 223.5,385.5 C 222.873,390.141 222.54,394.807 222.5,399.5C 221.5,399.5 220.5,399.5 219.5,399.5C 219.81,396.287 219.477,393.287 218.5,390.5C 218.5,388.833 218.5,387.167 218.5,385.5C 220.167,385.5 221.833,385.5 223.5,385.5 Z"/></g>
<g><path style="opacity:0.613" fill="#696566" d="M 218.5,400.5 C 220.167,400.5 221.833,400.5 223.5,400.5C 223.5,402.167 223.5,403.833 223.5,405.5C 221.833,405.5 220.167,405.5 218.5,405.5C 218.5,403.833 218.5,402.167 218.5,400.5 Z"/></g>
<g><path style="opacity:0.489" fill="#393839" d="M 307.5,374.5 C 309.167,374.5 310.833,374.5 312.5,374.5C 312.5,388.5 312.5,402.5 312.5,416.5C 310.833,416.5 309.167,416.5 307.5,416.5C 307.5,411.167 307.5,405.833 307.5,400.5C 308.833,400.5 310.167,400.5 311.5,400.5C 312.334,392.821 312,389.487 310.5,390.5C 309.5,390.5 308.5,390.5 307.5,390.5C 307.5,385.167 307.5,379.833 307.5,374.5 Z"/></g>
<g><path style="opacity:0.254" fill="#646464" d="M 275.5,405.5 C 275.5,407.167 275.5,408.833 275.5,410.5C 273.5,410.5 271.5,410.5 269.5,410.5C 269.5,408.833 269.5,407.167 269.5,405.5C 271.5,405.5 273.5,405.5 275.5,405.5 Z"/></g>
<g><path style="opacity:0.98" fill="#5d5b5c" d="M 223.5,405.5 C 225.5,405.5 227.5,405.5 229.5,405.5C 229.5,407.167 229.5,408.833 229.5,410.5C 232.5,410.5 235.5,410.5 238.5,410.5C 238.5,412.5 238.5,414.5 238.5,416.5C 235.167,416.5 231.833,416.5 228.5,416.5C 228.5,414.5 228.5,412.5 228.5,410.5C 226.833,410.5 225.167,410.5 223.5,410.5C 223.5,408.833 223.5,407.167 223.5,405.5 Z"/></g>
<g><path style="opacity:0.455" fill="#646263" d="M 260.5,410.5 C 263.5,410.5 266.5,410.5 269.5,410.5C 269.5,412.5 269.5,414.5 269.5,416.5C 266.5,416.5 263.5,416.5 260.5,416.5C 260.5,414.5 260.5,412.5 260.5,410.5 Z"/></g>
<g><path style="opacity:0.103" fill="#424142" d="M 307.5,416.5 C 307.665,419.518 307.498,422.518 307,425.5C 305.301,426.406 303.467,426.739 301.5,426.5C 301.5,423.167 301.5,419.833 301.5,416.5C 303.5,416.5 305.5,416.5 307.5,416.5 Z"/></g>
<g><path style="opacity:0.094" fill="#49494b" d="M 186.5,405.5 C 188.5,405.5 190.5,405.5 192.5,405.5C 192.5,409.167 192.5,412.833 192.5,416.5C 194.167,416.5 195.833,416.5 197.5,416.5C 197.5,419.833 197.5,423.167 197.5,426.5C 195.712,426.785 194.045,426.452 192.5,425.5C 191.593,422.579 191.26,419.579 191.5,416.5C 189.833,416.5 188.167,416.5 186.5,416.5C 186.5,412.833 186.5,409.167 186.5,405.5 Z"/></g>
<g><path style="opacity:0.425" fill="#4b4b4c" d="M 197.5,426.5 C 199.167,426.5 200.833,426.5 202.5,426.5C 202.5,430.167 202.5,433.833 202.5,437.5C 200.833,437.5 199.167,437.5 197.5,437.5C 197.5,438.833 197.5,440.167 197.5,441.5C 195.5,441.5 193.5,441.5 191.5,441.5C 191.5,439.833 191.5,438.167 191.5,436.5C 193.5,436.5 195.5,436.5 197.5,436.5C 197.5,433.167 197.5,429.833 197.5,426.5 Z"/></g>
<g><path style="opacity:0.394" fill="#4b494a" d="M 301.5,426.5 C 301.5,429.833 301.5,433.167 301.5,436.5C 303.5,436.5 305.5,436.5 307.5,436.5C 307.5,438.167 307.5,439.833 307.5,441.5C 305.5,441.5 303.5,441.5 301.5,441.5C 301.5,440.167 301.5,438.833 301.5,437.5C 299.833,437.5 298.167,437.5 296.5,437.5C 296.5,433.833 296.5,430.167 296.5,426.5C 298.167,426.5 299.833,426.5 301.5,426.5 Z"/></g>
<g><path style="opacity:0.012" fill="#353535" d="M 308.5,442.5 C 309.552,442.351 310.552,442.517 311.5,443C 310.151,443.772 309.318,444.939 309,446.5C 308.51,445.207 308.343,443.873 308.5,442.5 Z"/></g>
<g><path style="opacity:0.004" fill="#000000" d="M 187.5,444.5 C 188.525,444.897 188.692,445.563 188,446.5C 187.536,445.906 187.369,445.239 187.5,444.5 Z"/></g>
<g><path style="opacity:0.604" fill="#4b4749" d="M 238.5,453.5 C 235.167,453.5 231.833,453.5 228.5,453.5C 228.5,454.833 228.5,456.167 228.5,457.5C 227.167,457.5 225.833,457.5 224.5,457.5C 224.657,456.127 224.49,454.793 224,453.5C 223.502,456.817 223.335,460.15 223.5,463.5C 221.833,463.5 220.167,463.5 218.5,463.5C 218.5,459.833 218.5,456.167 218.5,452.5C 221.833,452.5 225.167,452.5 228.5,452.5C 228.5,450.833 228.5,449.167 228.5,447.5C 231.833,447.5 235.167,447.5 238.5,447.5C 238.5,449.5 238.5,451.5 238.5,453.5 Z"/></g>
<g><path style="opacity:0.18" fill="#484547" d="M 280.5,463.5 C 278.833,463.5 277.167,463.5 275.5,463.5C 275.5,461.5 275.5,459.5 275.5,457.5C 273.5,457.5 271.5,457.5 269.5,457.5C 269.5,456.167 269.5,454.833 269.5,453.5C 266.5,453.5 263.5,453.5 260.5,453.5C 260.5,451.5 260.5,449.5 260.5,447.5C 263.833,447.5 267.167,447.5 270.5,447.5C 270.714,449.144 270.38,450.644 269.5,452C 273.152,452.499 276.818,452.665 280.5,452.5C 280.5,453.833 280.5,455.167 280.5,456.5C 275.167,456.833 275.167,457.167 280.5,457.5C 280.5,459.5 280.5,461.5 280.5,463.5 Z"/></g>
<g><path style="opacity:0.545" fill="#363538" d="M 191.5,447.5 C 191.5,450.833 191.5,454.167 191.5,457.5C 190.167,457.5 188.833,457.5 187.5,457.5C 187.5,461.167 187.5,464.833 187.5,468.5C 188.833,468.5 190.167,468.5 191.5,468.5C 191.5,470.167 191.5,471.833 191.5,473.5C 190.549,474.919 190.216,476.585 190.5,478.5C 189.5,478.5 188.5,478.5 187.5,478.5C 186.629,468.194 186.296,457.86 186.5,447.5C 187.5,447.5 188.5,447.5 189.5,447.5C 189.773,445.549 189.107,444.049 187.5,443C 188.448,442.517 189.448,442.351 190.5,442.5C 190.216,444.415 190.549,446.081 191.5,447.5 Z"/></g>
<g><path style="opacity:0.929" fill="#3f3f3f" d="M 280.5,468.5 C 282.167,468.5 283.833,468.5 285.5,468.5C 285.5,470.167 285.5,471.833 285.5,473.5C 283.833,473.5 282.167,473.5 280.5,473.5C 280.5,471.833 280.5,470.167 280.5,468.5 Z"/></g>
<g><path style="opacity:0.608" fill="#404041" d="M 218.5,468.5 C 218.5,470.167 218.5,471.833 218.5,473.5C 216.833,473.5 215.167,473.5 213.5,473.5C 213.5,471.833 213.5,470.167 213.5,468.5C 215.167,468.5 216.833,468.5 218.5,468.5 Z"/></g>
<g><path style="opacity:0.278" fill="#3a3a3b" d="M 307.5,447.5 C 309.167,447.5 310.833,447.5 312.5,447.5C 312.5,456.167 312.5,464.833 312.5,473.5C 310.833,473.5 309.167,473.5 307.5,473.5C 307.5,471.833 307.5,470.167 307.5,468.5C 308.833,468.5 310.167,468.5 311.5,468.5C 311.5,464.833 311.5,461.167 311.5,457.5C 310.167,457.5 308.833,457.5 307.5,457.5C 307.5,454.167 307.5,450.833 307.5,447.5 Z"/></g>
<g><path style="opacity:0.027" fill="#3d3d3d" d="M 308.5,474.5 C 309.675,474.281 310.675,474.614 311.5,475.5C 309.65,476.242 308.984,477.242 309.5,478.5C 308.571,477.311 308.238,475.978 308.5,474.5 Z"/></g>
<g><path style="opacity:0.016" fill="#3b3b3e" d="M 191.5,473.5 C 193.5,473.5 195.5,473.5 197.5,473.5C 197.5,475.167 197.5,476.833 197.5,478.5C 200.833,478.5 204.167,478.5 207.5,478.5C 207.5,476.833 207.5,475.167 207.5,473.5C 209.5,473.5 211.5,473.5 213.5,473.5C 219.949,474.649 219.949,476.482 213.5,479C 206.174,479.5 198.841,479.666 191.5,479.5C 191.5,477.5 191.5,475.5 191.5,473.5 Z"/></g>
<g><path style="opacity:0.986" fill="#39383a" d="M 285.5,473.5 C 287.5,473.5 289.5,473.5 291.5,473.5C 291.5,475.167 291.5,476.833 291.5,478.5C 294.833,478.5 298.167,478.5 301.5,478.5C 301.5,476.833 301.5,475.167 301.5,473.5C 303.5,473.5 305.5,473.5 307.5,473.5C 307.5,475.5 307.5,477.5 307.5,479.5C 299.083,479.906 290.749,479.406 282.5,478C 283.458,476.853 283.125,475.853 281.5,475C 283.058,474.79 284.391,474.29 285.5,473.5 Z"/></g>
<g><path style="opacity:0.69" fill="#5b5b59" d="M 238.5,494.5 C 240.5,494.5 242.5,494.5 244.5,494.5C 244.5,496.167 244.5,497.833 244.5,499.5C 242.5,499.5 240.5,499.5 238.5,499.5C 238.5,497.833 238.5,496.167 238.5,494.5 Z"/></g>
<g><path style="opacity:0.612" fill="#666465" d="M 260.5,494.5 C 260.5,496.167 260.5,497.833 260.5,499.5C 258.5,499.5 256.5,499.5 254.5,499.5C 254.5,497.833 254.5,496.167 254.5,494.5C 256.5,494.5 258.5,494.5 260.5,494.5 Z"/></g>
</svg>
