<svg xmlns="http://www.w3.org/2000/svg" version="1.1" width="512px" height="512px" style="shape-rendering:geometricPrecision; text-rendering:geometricPrecision; image-rendering:optimizeQuality; fill-rule:evenodd; clip-rule:evenodd" xmlns:xlink="http://www.w3.org/1999/xlink">
<g><path style="opacity:0.93" fill="#000000" d="M 423.5,-0.5 C 429.167,-0.5 434.833,-0.5 440.5,-0.5C 463.343,8.52158 471.176,24.8549 464,48.5C 453.596,66.444 438.429,72.2773 418.5,66C 407.959,60.9624 401.292,52.7957 398.5,41.5C 387.828,41.3335 377.161,41.5002 366.5,42C 366,42.5 365.5,43 365,43.5C 364.5,75.4983 364.333,107.498 364.5,139.5C 375.833,139.5 387.167,139.5 398.5,139.5C 404.474,119.16 418.141,110.326 439.5,113C 462.217,120.595 470.717,136.095 465,159.5C 454.088,180.252 437.588,186.419 415.5,178C 407.339,172.865 401.672,165.698 398.5,156.5C 387.186,155.501 375.853,155.168 364.5,155.5C 364.333,187.502 364.5,219.502 365,251.5C 376.085,252.487 387.252,252.821 398.5,252.5C 404.275,233.264 417.275,224.431 437.5,226C 455.967,229.804 465.967,241.137 467.5,260C 465.711,281.622 454.045,293.455 432.5,295.5C 414.613,294.577 403.28,285.577 398.5,268.5C 386.495,268.667 374.495,268.5 362.5,268C 356.499,266.664 352.332,263.164 350,257.5C 348.521,223.562 348.021,189.562 348.5,155.5C 333.833,155.5 319.167,155.5 304.5,155.5C 304.246,163.924 299.912,168.757 291.5,170C 287.181,170.76 282.848,171.427 278.5,172C 275.44,177.488 272.94,183.322 271,189.5C 268.961,193.745 266.794,197.912 264.5,202C 268.362,206.229 271.862,210.729 275,215.5C 277.169,221.314 276.835,226.981 274,232.5C 269.5,237 265,241.5 260.5,246C 253.884,250.651 247.217,250.651 240.5,246C 236.676,242.921 232.676,240.088 228.5,237.5C 219.661,242.584 210.328,246.584 200.5,249.5C 198.863,256.117 197.363,262.783 196,269.5C 194.5,272.333 192.333,274.5 189.5,276C 180.576,277.58 171.576,277.913 162.5,277C 158.291,275.813 155.124,273.313 153,269.5C 151.637,262.783 150.137,256.117 148.5,249.5C 138.672,246.584 129.339,242.584 120.5,237.5C 115.302,241.197 109.969,244.697 104.5,248C 98.8066,250.162 93.4733,249.495 88.5,246C 82.5901,240.761 77.4234,234.928 73,228.5C 72.3333,225.167 72.3333,221.833 73,218.5C 75.9108,213.249 79.2441,208.249 83,203.5C 83.6667,202.167 83.6667,200.833 83,199.5C 78.2874,190.859 74.4541,181.859 71.5,172.5C 65.4932,171.443 59.4932,170.276 53.5,169C 48.2989,167.132 45.2989,163.466 44.5,158C 43.0998,149.802 43.2665,141.636 45,133.5C 46.5,129.333 49.3333,126.5 53.5,125C 59.7719,123.652 66.1052,122.818 72.5,122.5C 74.6436,111.9 78.6436,102.067 84.5,93C 79.85,87.6872 76.0166,81.8538 73,75.5C 71.8274,70.0232 72.8274,65.0232 76,60.5C 79.8333,56.6667 83.6667,52.8333 87.5,49C 93.4422,44.2339 99.7755,43.5673 106.5,47C 111.011,50.1814 115.511,53.3481 120,56.5C 129.031,51.4899 138.531,47.6566 148.5,45C 150.126,39.3002 151.293,33.4668 152,27.5C 153.605,21.5622 157.438,18.0622 163.5,17C 170.833,16.3333 178.167,16.3333 185.5,17C 192,18.1667 195.833,22 197,28.5C 197.8,34.1178 198.967,39.6178 200.5,45C 210.469,47.6566 219.969,51.4899 229,56.5C 233.489,53.3481 237.989,50.1814 242.5,47C 249.224,43.5673 255.558,44.2339 261.5,49C 267.492,53.9815 272.326,59.8149 276,66.5C 276.667,69.5 276.667,72.5 276,75.5C 272.983,81.8538 269.15,87.6872 264.5,93C 270.356,102.067 274.356,111.9 276.5,122.5C 283.68,122.692 290.68,123.859 297.5,126C 302.193,129.047 304.86,133.38 305.5,139C 319.829,139.5 334.163,139.667 348.5,139.5C 348.333,106.165 348.5,72.8317 349,39.5C 350.947,31.8858 355.78,27.3858 363.5,26C 375.181,25.8325 386.848,25.3325 398.5,24.5C 402.577,11.756 410.91,3.42269 423.5,-0.5 Z M 426.5,15.5 C 440.679,13.8531 449.012,20.0198 451.5,34C 448.157,48.679 439.157,54.3457 424.5,51C 411.59,41.7206 410.257,31.054 420.5,19C 422.727,18.059 424.727,16.8923 426.5,15.5 Z M 167.5,32.5 C 172.167,32.5 176.833,32.5 181.5,32.5C 182.525,39.8436 183.692,47.1769 185,54.5C 185.833,56.6667 187.333,58.1667 189.5,59C 202.458,61.8157 214.458,66.8157 225.5,74C 228.167,74.6667 230.833,74.6667 233.5,74C 239.026,69.6403 244.693,65.4736 250.5,61.5C 253.985,64.484 257.318,67.6507 260.5,71C 256.333,76.5 252.167,82 248,87.5C 246.85,89.7538 246.516,92.0871 247,94.5C 254.823,106.479 260.156,119.479 263,133.5C 264.319,135.487 266.152,136.654 268.5,137C 275.167,138 281.833,139 288.5,140C 289.469,144.737 289.803,149.57 289.5,154.5C 283.131,155.005 276.798,155.838 270.5,157C 267.542,157.229 265.042,158.396 263,160.5C 261.646,166.584 259.979,172.584 258,178.5C 254.135,186.351 250.302,194.184 246.5,202C 250.151,209.624 254.818,216.624 260.5,223C 257.5,226 254.5,229 251.5,232C 250.092,232.315 248.759,231.982 247.5,231C 242.058,225.869 235.891,222.036 229,219.5C 221.864,222.817 214.698,226.317 207.5,230C 201.668,232.277 195.668,233.944 189.5,235C 187.333,235.833 185.833,237.333 185,239.5C 183.723,246.829 182.556,254.163 181.5,261.5C 176.833,261.5 172.167,261.5 167.5,261.5C 166.444,254.163 165.277,246.829 164,239.5C 163.167,237.333 161.667,235.833 159.5,235C 146.327,232.745 134.327,227.745 123.5,220C 120.366,219.21 117.366,219.543 114.5,221C 109.986,224.091 105.653,227.425 101.5,231C 100.241,231.982 98.9078,232.315 97.5,232C 94.5,229 91.5,226 88.5,223C 94.3135,216.529 98.9802,209.362 102.5,201.5C 99.6055,195.379 96.4388,189.379 93,183.5C 90.0652,176.362 87.7318,169.029 86,161.5C 85.5,159.667 84.3333,158.5 82.5,158C 74.9203,156.227 67.2536,155.06 59.5,154.5C 59.1975,149.57 59.5308,144.737 60.5,140C 67.1667,139 73.8333,138 80.5,137C 82.8477,136.654 84.6811,135.487 86,133.5C 88.8619,119.449 94.1952,106.449 102,94.5C 102.484,92.0871 102.15,89.7538 101,87.5C 96.8333,82 92.6667,76.5 88.5,71C 91.682,67.6507 95.0154,64.484 98.5,61.5C 104.307,65.4736 109.974,69.6403 115.5,74C 118.167,74.6667 120.833,74.6667 123.5,74C 134.4,66.4744 146.4,61.4744 159.5,59C 161.667,58.1667 163.167,56.6667 164,54.5C 165.308,47.1769 166.475,39.8436 167.5,32.5 Z M 427.5,128.5 C 441.214,127.391 449.214,133.558 451.5,147C 448.993,161.087 440.659,167.087 426.5,165C 414.344,159.206 410.844,150.04 416,137.5C 419.183,133.462 423.016,130.462 427.5,128.5 Z M 428.5,241.5 C 444.983,241.792 452.15,250.126 450,266.5C 444.236,277.971 435.402,281.471 423.5,277C 411.016,267.118 410.35,256.451 421.5,245C 423.925,243.787 426.259,242.621 428.5,241.5 Z"/></g>
<g><path style="opacity:0.923" fill="#000000" d="M 164.5,90.5 C 197.672,87.8764 219.505,102.21 230,133.5C 233.369,148.29 231.369,162.29 224,175.5C 219.667,179.5 215.333,179.5 211,175.5C 210.077,173.966 209.577,172.299 209.5,170.5C 219.28,150.981 216.947,133.147 202.5,117C 186.428,104.599 169.428,103.266 151.5,113C 133.323,127.878 129.156,146.045 139,167.5C 147.19,180.498 159.023,187.498 174.5,188.5C 181.706,187.615 188.706,185.948 195.5,183.5C 202.963,185.091 205.129,189.425 202,196.5C 174.927,209.695 150.927,205.362 130,183.5C 114.111,160.605 113.444,137.272 128,113.5C 137.433,101.374 149.6,93.7069 164.5,90.5 Z"/></g>
<g><path style="opacity:0.933" fill="#000000" d="M 511.5,365.5 C 511.5,370.833 511.5,376.167 511.5,381.5C 509.328,388.195 505.328,393.695 499.5,398C 474.34,411.413 449.34,425.079 424.5,439C 417.511,441.166 413.511,438.666 412.5,431.5C 412.556,428.889 413.556,426.722 415.5,425C 440.167,411.667 464.833,398.333 489.5,385C 495.471,379.965 496.971,373.798 494,366.5C 489.299,360.59 483.466,359.09 476.5,362C 447.487,378.508 418.153,394.508 388.5,410C 350.149,426.392 310.149,433.059 268.5,430C 246.459,427.662 224.459,424.995 202.5,422C 196.741,418.108 196.074,413.441 200.5,408C 244.731,401.539 289.064,395.539 333.5,390C 342.059,385.657 344.225,379.157 340,370.5C 338.786,368.951 337.286,367.785 335.5,367C 299.227,365.686 262.893,365.019 226.5,365C 192.792,352.068 158.792,351.234 124.5,362.5C 117.008,360.849 114.841,356.515 118,349.5C 123.889,345.644 130.389,343.144 137.5,342C 168.598,335.748 199.098,337.914 229,348.5C 261.387,332.057 293.554,315.223 325.5,298C 342.061,291.751 354.561,296.251 363,311.5C 363.988,314.424 364.654,317.424 365,320.5C 370.807,316.68 376.973,313.513 383.5,311C 401.366,308.708 412.699,316.208 417.5,333.5C 424.743,329.711 432.076,326.211 439.5,323C 457.053,320.604 468.053,327.938 472.5,345C 491.215,341.354 504.215,348.188 511.5,365.5 Z M 334.5,311.5 C 345.458,310.768 349.958,315.768 348,326.5C 346.878,328.624 345.378,330.457 343.5,332C 332.833,337.667 322.167,343.333 311.5,349C 295.5,349.667 279.5,349.667 263.5,349C 287.228,336.471 310.895,323.971 334.5,311.5 Z M 386.5,326.5 C 397.16,326.314 401.327,331.314 399,341.5C 397.127,343.709 394.96,345.542 392.5,347C 380.376,352.965 368.376,359.131 356.5,365.5C 352.946,359.449 347.946,354.949 341.5,352C 356.563,343.473 371.563,334.973 386.5,326.5 Z M 442.5,338.5 C 450.215,337.547 454.882,340.88 456.5,348.5C 455.986,351.211 454.986,353.711 453.5,356C 430.754,369.068 407.754,381.735 384.5,394C 349.171,409.833 312.171,416.5 273.5,414C 296.644,411.503 319.644,408.17 342.5,404C 351.219,399.554 356.553,392.554 358.5,383C 386.72,368.392 414.72,353.559 442.5,338.5 Z"/></g>
<g><path style="opacity:0.933" fill="#000000" d="M 259.5,511.5 C 248.167,511.5 236.833,511.5 225.5,511.5C 173.681,506.35 121.681,501.516 69.5,497C 47.8333,496.667 26.1667,496.333 4.5,496C 2.67694,495.003 1.01027,493.836 -0.5,492.5C -0.5,456.5 -0.5,420.5 -0.5,384.5C 1.11327,382.73 3.11327,381.564 5.5,381C 23.5,380.667 41.5,380.333 59.5,380C 70.8666,370.98 83.2,363.48 96.5,357.5C 104.282,359.401 106.448,364.068 103,371.5C 89.7313,378.547 77.2313,386.714 65.5,396C 48.8367,396.5 32.17,396.667 15.5,396.5C 15.5,424.5 15.5,452.5 15.5,480.5C 33.8364,480.333 52.1697,480.5 70.5,481C 122.5,485.667 174.5,490.333 226.5,495C 253.142,497.339 278.808,493.339 303.5,483C 333.496,470.169 362.496,455.502 390.5,439C 397.239,436.751 401.239,439.085 402.5,446C 402.097,448.887 400.764,451.221 398.5,453C 368.282,470.776 336.949,486.442 304.5,500C 289.728,505.276 274.728,509.109 259.5,511.5 Z"/></g>
</svg>
