<svg xmlns="http://www.w3.org/2000/svg" version="1.1" width="512px" height="512px" style="shape-rendering:geometricPrecision; text-rendering:geometricPrecision; image-rendering:optimizeQuality; fill-rule:evenodd; clip-rule:evenodd" xmlns:xlink="http://www.w3.org/1999/xlink">
<g><path style="opacity:0.957" fill="#000000" d="M 16.5,-0.5 C 45.1667,-0.5 73.8333,-0.5 102.5,-0.5C 109.753,2.25137 114.919,7.25137 118,14.5C 119.415,26.4379 119.915,38.4379 119.5,50.5C 125.842,50.3338 132.175,50.5005 138.5,51C 144.542,53.8368 146.042,58.3368 143,64.5C 142.097,65.7014 140.931,66.5348 139.5,67C 132.842,67.4996 126.175,67.6663 119.5,67.5C 119.938,79.5758 119.438,91.5758 118,103.5C 114.674,111.493 108.841,116.659 100.5,119C 73.1667,119.667 45.8333,119.667 18.5,119C 9.18821,116.85 2.85487,111.35 -0.5,102.5C -0.5,73.8333 -0.5,45.1667 -0.5,16.5C 2.83333,8.5 8.5,2.83333 16.5,-0.5 Z M 23.5,15.5 C 47.169,15.3334 70.8357,15.5 94.5,16C 97.2756,16.0657 99.4423,17.2324 101,19.5C 102.648,45.4129 102.981,71.4129 102,97.5C 101.535,98.9308 100.701,100.097 99.5,101C 73.5871,102.648 47.5871,102.981 21.5,102C 19.714,101.215 18.214,100.049 17,98.5C 15.3716,73.5496 15.0383,48.5496 16,23.5C 16.6804,18.9895 19.1804,16.3228 23.5,15.5 Z"/></g>
<g><path style="opacity:0.916" fill="#000000" d="M 75.5,33.5 C 84.6571,32.4892 88.4904,36.4892 87,45.5C 79.4173,58.3342 71.584,71.0009 63.5,83.5C 59.9494,85.9753 56.2828,86.142 52.5,84C 45.5789,79.2896 38.7456,74.4562 32,69.5C 29.2714,60.2229 32.7714,56.0563 42.5,57C 46.5358,60.1801 50.8691,62.5134 55.5,64C 61.3773,55.0819 66.8773,45.9153 72,36.5C 73.1451,35.3636 74.3117,34.3636 75.5,33.5 Z"/></g>
<g><path style="opacity:0.946" fill="#000000" d="M 511.5,116.5 C 511.5,145.167 511.5,173.833 511.5,202.5C 508.281,210.881 502.281,216.381 493.5,219C 465.833,219.667 438.167,219.667 410.5,219C 401,216.167 394.833,210 392,200.5C 391.5,191.173 391.334,181.839 391.5,172.5C 366.831,172.667 342.164,172.5 317.5,172C 312.688,168.87 311.521,164.704 314,159.5C 315.319,157.513 317.152,156.346 319.5,156C 343.498,155.5 367.498,155.333 391.5,155.5C 391.333,143.162 391.5,130.829 392,118.5C 394.064,108.769 399.897,102.603 409.5,100C 420.828,99.5001 432.162,99.3335 443.5,99.5C 445.335,82.8743 438.335,72.3743 422.5,68C 338.5,67.6667 254.5,67.3333 170.5,67C 165.465,63.9867 164.298,59.8201 167,54.5C 168.214,52.9512 169.714,51.7845 171.5,51C 213.667,50.8333 255.833,50.6667 298,50.5C 342.198,50.3491 386.365,50.8491 430.5,52C 452.217,60.2374 462.217,76.0707 460.5,99.5C 472.372,99.1972 484.205,99.5306 496,100.5C 503.428,103.759 508.594,109.092 511.5,116.5 Z M 412.5,116.5 C 438.502,116.333 464.502,116.5 490.5,117C 493.094,118.339 494.594,120.506 495,123.5C 495.667,147.5 495.667,171.5 495,195.5C 494.31,198.196 492.81,200.363 490.5,202C 464.833,202.667 439.167,202.667 413.5,202C 412.069,201.535 410.903,200.701 410,199.5C 408.352,173.587 408.019,147.587 409,121.5C 409.997,119.677 411.164,118.01 412.5,116.5 Z"/></g>
<g><path style="opacity:0.917" fill="#000000" d="M 467.5,133.5 C 478.901,132.968 482.401,137.968 478,148.5C 470.875,160.587 463.375,172.42 455.5,184C 452.97,185.422 450.303,185.755 447.5,185C 439.575,180.79 432.075,175.957 425,170.5C 421.446,161.084 424.613,156.584 434.5,157C 438.336,159.084 442.003,161.417 445.5,164C 446.635,164.749 447.635,164.583 448.5,163.5C 454.344,153.134 460.678,143.134 467.5,133.5 Z"/></g>
<g><path style="opacity:0.932" fill="#000000" d="M 236.5,147.5 C 249.171,147.333 261.838,147.5 274.5,148C 275.667,149.167 276.833,150.333 278,151.5C 279.718,159.807 281.218,168.141 282.5,176.5C 293.083,179.876 302.583,185.209 311,192.5C 317.405,189.809 323.905,187.309 330.5,185C 333.167,184.333 335.833,184.333 338.5,185C 340.709,186.873 342.542,189.04 344,191.5C 347.414,197.997 351.081,204.33 355,210.5C 357.298,214.218 357.965,218.218 357,222.5C 350.5,228.333 344,234.167 337.5,240C 340.167,250.333 340.167,260.667 337.5,271C 344,276.833 350.5,282.667 357,288.5C 357.667,291.167 357.667,293.833 357,296.5C 351.709,306.923 345.542,316.756 338.5,326C 337.167,326.167 335.833,326.333 334.5,326.5C 326.432,324.533 318.599,321.866 311,318.5C 302.583,325.791 293.083,331.124 282.5,334.5C 281.217,342.862 279.717,351.195 278,359.5C 276.833,360.667 275.667,361.833 274.5,363C 261.833,363.667 249.167,363.667 236.5,363C 235.333,361.833 234.167,360.667 233,359.5C 231.176,351.216 229.676,342.882 228.5,334.5C 217.917,331.124 208.417,325.791 200,318.5C 191.278,322.855 182.112,325.355 172.5,326C 170.291,324.127 168.458,321.96 167,319.5C 163.586,313.003 159.919,306.67 156,300.5C 153.702,296.782 153.035,292.782 154,288.5C 160.5,282.667 167,276.833 173.5,271C 170.833,260.667 170.833,250.333 173.5,240C 167,234.167 160.5,228.333 154,222.5C 153.035,218.218 153.702,214.218 156,210.5C 160.5,202.833 165,195.167 169.5,187.5C 172.624,184.644 176.291,183.811 180.5,185C 187.095,187.309 193.595,189.809 200,192.5C 208.417,185.209 217.917,179.876 228.5,176.5C 229.676,168.118 231.176,159.784 233,151.5C 234.376,150.295 235.542,148.962 236.5,147.5 Z M 247.5,164.5 C 252.833,164.5 258.167,164.5 263.5,164.5C 264.449,171.524 265.615,178.524 267,185.5C 267.785,187.286 268.951,188.786 270.5,190C 283.852,193.839 295.518,200.505 305.5,210C 313.954,209.299 322.121,207.133 330,203.5C 332.807,207.648 335.64,211.815 338.5,216C 332.667,221.167 326.833,226.333 321,231.5C 320.5,233 320,234.5 319.5,236C 323.5,249 323.5,262 319.5,275C 320,276.5 320.5,278 321,279.5C 326.333,284.167 331.667,288.833 337,293.5C 337.257,296.017 336.59,298.35 335,300.5C 333.569,303.04 331.902,305.373 330,307.5C 322.121,303.867 313.954,301.701 305.5,301C 295.518,310.495 283.852,317.161 270.5,321C 268.951,322.214 267.785,323.714 267,325.5C 265.615,332.476 264.449,339.476 263.5,346.5C 258.167,346.5 252.833,346.5 247.5,346.5C 246.551,339.476 245.385,332.476 244,325.5C 243.215,323.714 242.049,322.214 240.5,321C 227.148,317.161 215.482,310.495 205.5,301C 197.046,301.701 188.879,303.867 181,307.5C 179.098,305.373 177.431,303.04 176,300.5C 174.41,298.35 173.743,296.017 174,293.5C 179.333,288.833 184.667,284.167 190,279.5C 190.5,278 191,276.5 191.5,275C 187.5,262 187.5,249 191.5,236C 191,234.5 190.5,233 190,231.5C 184.167,226.333 178.333,221.167 172.5,216C 174.973,211.544 177.806,207.377 181,203.5C 188.879,207.133 197.046,209.299 205.5,210C 215.482,200.505 227.148,193.839 240.5,190C 242.049,188.786 243.215,187.286 244,185.5C 245.385,178.524 246.551,171.524 247.5,164.5 Z M 249.5,224.5 C 268.449,223.05 280.615,231.383 286,249.5C 287.935,268.467 279.768,280.634 261.5,286C 242.533,287.935 230.366,279.768 225,261.5C 223.184,242.448 231.35,230.114 249.5,224.5 Z"/></g>
<g><path style="opacity:0.945" fill="#000000" d="M -0.5,394.5 C -0.5,365.833 -0.5,337.167 -0.5,308.5C 2.22525,301.272 7.22525,296.106 14.5,293C 26.4242,291.562 38.4242,291.062 50.5,291.5C 50.3334,263.165 50.5,234.831 51,206.5C 54.9593,180.208 69.7926,163.708 95.5,157C 113.471,155.891 131.471,155.391 149.5,155.5C 164.833,155.667 180.167,155.833 195.5,156C 202.764,158.961 204.264,163.794 200,170.5C 199.25,171.126 198.416,171.626 197.5,172C 166.167,172.333 134.833,172.667 103.5,173C 83.006,176.161 71.1727,187.994 68,208.5C 67.5,236.165 67.3334,263.831 67.5,291.5C 109.328,283.662 126.662,300.662 119.5,342.5C 143.836,342.333 168.169,342.5 192.5,343C 196.788,346.771 197.621,351.271 195,356.5C 193.581,357.46 192.081,358.293 190.5,359C 166.836,359.5 143.169,359.667 119.5,359.5C 119.667,370.505 119.5,381.505 119,392.5C 116.9,402.201 111.067,408.368 101.5,411C 73.5,411.667 45.5,411.667 17.5,411C 8.74455,408.408 2.74455,402.908 -0.5,394.5 Z M 20.5,308.5 C 46.1688,308.333 71.8355,308.5 97.5,309C 98.9308,309.465 100.097,310.299 101,311.5C 102.648,337.413 102.981,363.413 102,389.5C 101.535,390.931 100.701,392.097 99.5,393C 86.0907,394.15 72.5907,394.65 59,394.5C 46.1667,394.333 33.3333,394.167 20.5,394C 17.9057,392.661 16.4057,390.494 16,387.5C 15.3333,363.5 15.3333,339.5 16,315.5C 16.9042,312.767 18.4042,310.433 20.5,308.5 Z"/></g>
<g><path style="opacity:0.929" fill="#000000" d="M 247.5,207.5 C 277.131,205.657 295.631,218.99 303,247.5C 305.327,277.155 292.16,295.655 263.5,303C 233.845,305.327 215.345,292.16 208,263.5C 205.875,233.824 219.042,215.158 247.5,207.5 Z M 249.5,224.5 C 231.35,230.114 223.184,242.448 225,261.5C 230.366,279.768 242.533,287.935 261.5,286C 279.768,280.634 287.935,268.467 286,249.5C 280.615,231.383 268.449,223.05 249.5,224.5 Z"/></g>
<g><path style="opacity:0.916" fill="#000000" d="M 75.5,325.5 C 84.6584,324.491 88.4918,328.491 87,337.5C 79.2922,350.417 71.4589,363.25 63.5,376C 60.634,377.457 57.634,377.79 54.5,377C 47.3333,372.5 40.1667,368 33,363.5C 28.9283,356.046 30.9283,351.046 39,348.5C 44.771,350.719 50.1044,353.719 55,357.5C 61.1092,346.26 67.9426,335.593 75.5,325.5 Z"/></g>
<g><path style="opacity:0.951" fill="#000000" d="M 511.5,408.5 C 511.5,437.167 511.5,465.833 511.5,494.5C 508.167,502.5 502.5,508.167 494.5,511.5C 465.833,511.5 437.167,511.5 408.5,511.5C 401.247,508.749 396.081,503.749 393,496.5C 391.597,485.898 391.097,475.231 391.5,464.5C 384.411,464.884 377.411,464.384 370.5,463C 364.92,457.514 365.253,452.514 371.5,448C 378.158,447.5 384.825,447.334 391.5,447.5C 391.333,435.162 391.5,422.829 392,410.5C 394.833,401 401,394.833 410.5,392C 421.495,391.5 432.495,391.333 443.5,391.5C 445.418,375.812 439.085,365.312 424.5,360C 387.44,359.981 350.44,359.315 313.5,358C 308.06,352.558 308.393,347.558 314.5,343C 352.167,342.333 389.833,342.333 427.5,343C 451.244,350.281 462.244,366.447 460.5,391.5C 472.562,391.085 484.562,391.585 496.5,393C 503.749,396.081 508.749,401.247 511.5,408.5 Z M 413.5,408.5 C 438.836,408.333 464.169,408.5 489.5,409C 491.286,409.785 492.786,410.951 494,412.5C 495.628,437.45 495.962,462.45 495,487.5C 494.5,492 492,494.5 487.5,495C 463.5,495.667 439.5,495.667 415.5,495C 413.152,494.654 411.319,493.487 410,491.5C 408.352,465.587 408.019,439.587 409,413.5C 410.025,411.313 411.525,409.646 413.5,408.5 Z"/></g>
<g><path style="opacity:0.932" fill="#000000" d="M 263.5,415.5 C 271.78,414.614 275.613,418.281 275,426.5C 267.416,434.411 258.916,441.245 249.5,447C 280.833,447.333 312.167,447.667 343.5,448C 347.788,451.771 348.621,456.271 346,461.5C 344.581,462.46 343.081,463.293 341.5,464C 311.167,464.333 280.833,464.667 250.5,465C 258.601,470.468 266.434,476.301 274,482.5C 276.863,492.641 273.03,496.808 262.5,495C 246.692,483.519 231.192,471.686 216,459.5C 214.348,454.154 215.848,449.987 220.5,447C 235.016,436.637 249.349,426.137 263.5,415.5 Z"/></g>
<g><path style="opacity:0.918" fill="#000000" d="M 468.5,425.5 C 476.498,425 480.331,428.667 480,436.5C 473.333,447.833 466.667,459.167 460,470.5C 456.691,477.48 451.525,479.314 444.5,476C 437.228,471.781 430.395,466.948 424,461.5C 422.5,452.333 426.333,448.5 435.5,450C 438.833,452 442.167,454 445.5,456C 446.635,456.749 447.635,456.583 448.5,455.5C 453.585,447.666 458.418,439.666 463,431.5C 464.36,428.977 466.193,426.977 468.5,425.5 Z"/></g>
</svg>
