<svg xmlns="http://www.w3.org/2000/svg" version="1.1" width="512px" height="512px" style="shape-rendering:geometricPrecision; text-rendering:geometricPrecision; image-rendering:optimizeQuality; fill-rule:evenodd; clip-rule:evenodd" xmlns:xlink="http://www.w3.org/1999/xlink">
<g><path style="opacity:0.962" fill="#000000" d="M 277.5,-0.5 C 284.167,-0.5 290.833,-0.5 297.5,-0.5C 310.889,3.29238 321.056,11.2924 328,23.5C 365.602,91.7049 402.935,160.038 440,228.5C 445.393,250.983 438.56,268.816 419.5,282C 416.326,283.725 412.993,285.058 409.5,286C 368.712,287.156 327.878,287.656 287,287.5C 246.122,287.656 205.288,287.156 164.5,286C 139.333,275.815 129.167,257.315 134,230.5C 171.955,158.589 210.955,87.256 251,16.5C 258.058,7.89772 266.892,2.23106 277.5,-0.5 Z M 282.5,30.5 C 290.045,28.8639 295.878,31.1973 300,37.5C 336.667,104.167 373.333,170.833 410,237.5C 412.137,245.041 409.97,250.874 403.5,255C 326.915,256.66 250.248,256.994 173.5,256C 167.296,253.629 163.962,249.129 163.5,242.5C 164.153,238.191 165.653,234.191 168,230.5C 203.333,166.5 238.667,102.5 274,38.5C 276.074,34.9231 278.907,32.2565 282.5,30.5 Z"/></g>
<g><path style="opacity:0.957" fill="#000000" d="M 285.5,81.5 C 293.531,81.3639 299.031,85.0306 302,92.5C 302.667,117.5 302.667,142.5 302,167.5C 297.81,176.177 290.976,179.343 281.5,177C 276.162,174.993 272.996,171.159 272,165.5C 271.333,141.833 271.333,118.167 272,94.5C 273.793,87.2046 278.293,82.8713 285.5,81.5 Z"/></g>
<g><path style="opacity:0.927" fill="#000000" d="M 285.5,196.5 C 300.663,198.825 305.496,207.158 300,221.5C 291.946,229.081 283.613,229.414 275,222.5C 268.866,209.784 272.366,201.117 285.5,196.5 Z"/></g>
<g><path style="opacity:0.978" fill="#000000" d="M 511.5,316.5 C 511.5,322.5 511.5,328.5 511.5,334.5C 509.354,341.789 505.854,348.456 501,354.5C 464.866,393.635 428.366,432.468 391.5,471C 377.625,481.768 361.958,488.435 344.5,491C 272.5,491.333 200.5,491.667 128.5,492C 122.972,501.709 114.972,508.209 104.5,511.5C 78.5,511.5 52.5,511.5 26.5,511.5C 12.9379,507.605 3.93791,498.938 -0.5,485.5C -0.5,436.167 -0.5,386.833 -0.5,337.5C 3.65084,324.517 12.3175,316.017 25.5,312C 51.8333,311.333 78.1667,311.333 104.5,312C 112.005,314.181 118.505,318.014 124,323.5C 162.858,306.753 200.358,309.253 236.5,331C 264.833,331.333 293.167,331.667 321.5,332C 341.663,337.666 353.663,350.832 357.5,371.5C 385.167,346.333 412.833,321.167 440.5,296C 455.65,283.449 472.317,281.115 490.5,289C 501.027,295.591 508.027,304.758 511.5,316.5 Z M 466.5,315.5 C 476.988,314.487 481.488,319.154 480,329.5C 478.667,331.5 477.333,333.5 476,335.5C 441.616,372.429 407.116,409.262 372.5,446C 360.608,455.743 346.942,460.743 331.5,461C 264.834,461.5 198.167,461.667 131.5,461.5C 131.167,425.827 131.5,390.16 132.5,354.5C 164.811,338.147 195.811,340.313 225.5,361C 255.873,361.039 286.206,361.706 316.5,363C 325.83,368.282 327.996,375.782 323,385.5C 321.269,387.617 319.102,389.117 316.5,390C 282.873,391.298 249.206,391.965 215.5,392C 207.085,396.348 204.252,403.181 207,412.5C 208.5,416.667 211.333,419.5 215.5,421C 254.167,421.667 292.833,421.667 331.5,421C 344.933,418.75 356.933,413.417 367.5,405C 400.195,374.682 433.195,344.849 466.5,315.5 Z M 34.5,341.5 C 54.8361,341.333 75.1694,341.5 95.5,342C 97.3289,342.273 98.8289,343.107 100,344.5C 100.667,389.167 100.667,433.833 100,478.5C 99.5,479 99,479.5 98.5,480C 87.4015,481.134 76.2349,481.634 65,481.5C 54.8333,481.333 44.6667,481.167 34.5,481C 33.2341,480.691 32.0674,480.191 31,479.5C 29.3492,435.226 29.0158,390.892 30,346.5C 30.3477,343.658 31.8477,341.991 34.5,341.5 Z"/></g>
</svg>
