<svg xmlns="http://www.w3.org/2000/svg" version="1.1" width="512px" height="512px" style="shape-rendering:geometricPrecision; text-rendering:geometricPrecision; image-rendering:optimizeQuality; fill-rule:evenodd; clip-rule:evenodd" xmlns:xlink="http://www.w3.org/1999/xlink">
<g><path style="opacity:0.933" fill="#000000" d="M 252.5,11.5 C 255.425,11.4598 258.091,12.2932 260.5,14C 300.712,46.2369 327.212,87.4035 340,137.5C 341.164,145.135 341.997,152.802 342.5,160.5C 374.168,160.333 405.835,160.5 437.5,161C 450.88,163.38 459.047,171.213 462,184.5C 462.5,268.166 462.667,351.833 462.5,435.5C 465.187,435.336 467.854,435.503 470.5,436C 472.492,436.574 473.992,437.741 475,439.5C 476.6,450.761 476.933,462.094 476,473.5C 474.789,485.428 468.622,493.595 457.5,498C 390.202,499.158 322.869,499.658 255.5,499.5C 188.131,499.658 120.798,499.158 53.5,498C 42.378,493.595 36.2114,485.428 35,473.5C 34.0669,462.094 34.4003,450.761 36,439.5C 39.3868,435.961 43.5534,434.628 48.5,435.5C 48.3333,351.833 48.5,268.166 49,184.5C 52.2829,171.55 60.4496,163.717 73.5,161C 104.498,160.5 135.498,160.333 166.5,160.5C 166.799,138.303 171.966,117.303 182,97.5C 198.072,62.6089 221.572,33.9423 252.5,11.5 Z M 215.5,72.5 C 226.358,56.6372 239.358,42.6372 254.5,30.5C 269.288,42.2845 281.954,55.9511 292.5,71.5C 291.333,71.8333 290.167,72.1667 289,72.5C 264.5,69.8902 240,69.8902 215.5,72.5 Z M 233.5,86.5 C 247.504,86.3334 261.504,86.5001 275.5,87C 285.297,87.7658 294.964,89.2658 304.5,91.5C 321.572,118.12 328.405,147.12 325,178.5C 316.24,237.486 307.573,296.486 299,355.5C 298.626,356.416 298.126,357.25 297.5,358C 268.833,358.667 240.167,358.667 211.5,358C 209.996,356.509 209.163,354.676 209,352.5C 200.667,295.5 192.333,238.5 184,181.5C 180.554,160.611 182.554,140.277 190,120.5C 193.905,110.19 198.739,100.356 204.5,91C 214.29,89.3413 223.956,87.8413 233.5,86.5 Z M 247.5,131.5 C 265.653,130.498 277.819,138.498 284,155.5C 286.498,174.675 278.665,187.508 260.5,194C 242.346,196.511 229.846,189.344 223,172.5C 219.411,151.663 227.577,137.997 247.5,131.5 Z M 74.5,176.5 C 105.5,176.5 136.5,176.5 167.5,176.5C 170.666,198.494 173.5,220.494 176,242.5C 136.52,272.204 119.52,311.871 125,361.5C 125.675,367.885 126.675,374.218 128,380.5C 132.2,387.343 138.033,389.176 145.5,386C 152.302,376.231 159.469,366.731 167,357.5C 174.068,349.762 181.734,342.762 190,336.5C 191.538,346.265 193.538,355.932 196,365.5C 202.093,372.922 209.926,375.922 219.5,374.5C 219.5,378.833 219.5,383.167 219.5,387.5C 199.743,384.628 185.243,391.961 176,409.5C 154.323,406.028 140.156,414.695 133.5,435.5C 110.5,435.5 87.5,435.5 64.5,435.5C 64.3333,352.499 64.5,269.499 65,186.5C 66.3499,181.319 69.5166,177.986 74.5,176.5 Z M 341.5,176.5 C 373.168,176.333 404.835,176.5 436.5,177C 440.186,178.089 443.019,180.255 445,183.5C 446.492,267.443 446.992,351.443 446.5,435.5C 422.833,435.5 399.167,435.5 375.5,435.5C 368.544,414.848 354.211,406.181 332.5,409.5C 326.801,399.303 318.467,392.136 307.5,388C 302.882,387.006 298.215,386.506 293.5,386.5C 293.5,382.5 293.5,378.5 293.5,374.5C 303.016,374.995 309.849,370.995 314,362.5C 315.211,353.663 316.877,344.997 319,336.5C 326.598,342.094 333.598,348.427 340,355.5C 348.196,365.396 356.03,375.563 363.5,386C 371.95,389.354 377.783,386.854 381,378.5C 386.164,352.609 385.164,326.942 378,301.5C 368.832,276.672 353.332,256.838 331.5,242C 335.155,220.251 338.488,198.418 341.5,176.5 Z M 178.5,260.5 C 182.393,279.581 185.226,298.914 187,318.5C 169.333,330.833 154.333,345.833 142,363.5C 135.047,322.181 147.214,287.848 178.5,260.5 Z M 328.5,261.5 C 335.696,265.855 341.862,271.521 347,278.5C 365.203,304.328 371.869,332.995 367,364.5C 354.689,345.689 339.189,330.022 320.5,317.5C 323.819,298.935 326.486,280.268 328.5,261.5 Z M 234.5,374.5 C 248.833,374.5 263.167,374.5 277.5,374.5C 277.334,382.84 277.5,391.173 278,399.5C 279.236,403.04 281.736,405.04 285.5,405.5C 296.559,400.308 306.059,402.308 314,411.5C 316.228,416.486 318.395,421.486 320.5,426.5C 322.059,427.447 323.726,428.113 325.5,428.5C 328.935,427.616 332.268,426.449 335.5,425C 345.47,423.154 353.136,426.487 358.5,435C 289.164,435.833 219.831,435.667 150.5,434.5C 153.569,429.597 157.902,426.43 163.5,425C 171.272,425.048 178.939,425.715 186.5,427C 187.333,426.167 188.167,425.333 189,424.5C 193.533,404.651 205.033,398.817 223.5,407C 227.987,408.378 231.487,407.212 234,403.5C 234.5,393.839 234.666,384.172 234.5,374.5 Z M 50.5,451.5 C 187.167,451.5 323.833,451.5 460.5,451.5C 460.666,458.841 460.5,466.174 460,473.5C 458.932,478.235 456.099,481.402 451.5,483C 320.833,483.667 190.167,483.667 59.5,483C 56.0629,481.895 53.5629,479.728 52,476.5C 50.6301,468.236 50.1301,459.903 50.5,451.5 Z"/></g>
<g><path style="opacity:0.95" fill="#000000" d="M 363.5,29.5 C 366.649,29.2114 369.649,29.7114 372.5,31C 378,36.5 383.5,42 389,47.5C 392.215,56.5799 389.048,60.7466 379.5,60C 377.714,59.2155 376.214,58.0488 375,56.5C 374.667,74.5 374.333,92.5 374,110.5C 372.607,113.366 370.274,114.699 367,114.5C 363.726,114.699 361.393,113.366 360,110.5C 359.667,92.5 359.333,74.5 359,56.5C 354.62,61.3433 349.954,61.6767 345,57.5C 343,54.1667 343,50.8333 345,47.5C 351.062,41.2698 357.229,35.2698 363.5,29.5 Z"/></g>
<g><path style="opacity:0.923" fill="#000000" d="M 140.5,53.5 C 144.219,53.0025 147.553,53.8358 150.5,56C 155.333,60.8333 160.167,65.6667 165,70.5C 169.576,80.5221 166.41,85.0221 155.5,84C 154.333,82.8333 153.167,81.6667 152,80.5C 151.667,98.5 151.333,116.5 151,134.5C 149.471,137.516 146.971,138.849 143.5,138.5C 139.391,138.562 136.891,136.562 136,132.5C 135.667,115.5 135.333,98.5 135,81.5C 129.967,85.7793 125.3,85.4459 121,80.5C 120.21,77.366 120.543,74.366 122,71.5C 128.062,65.2698 134.229,59.2698 140.5,53.5 Z"/></g>
<g><path style="opacity:0.925" fill="#000000" d="M 247.5,115.5 C 271.369,114.563 288.203,124.896 298,146.5C 304.837,170.325 298.337,189.492 278.5,204C 255.053,215.566 234.219,212.066 216,193.5C 202.41,174.076 202.077,154.41 215,134.5C 223.592,124.128 234.425,117.794 247.5,115.5 Z M 247.5,131.5 C 227.577,137.997 219.411,151.663 223,172.5C 229.846,189.344 242.346,196.511 260.5,194C 278.665,187.508 286.498,174.675 284,155.5C 277.819,138.498 265.653,130.498 247.5,131.5 Z"/></g>
<g><path style="opacity:0.92" fill="#000000" d="M 214.5,459.5 C 241.835,459.333 269.169,459.5 296.5,460C 303.401,465.42 303.067,470.42 295.5,475C 268.833,475.667 242.167,475.667 215.5,475C 209.877,472.475 208.377,468.308 211,462.5C 212.145,461.364 213.312,460.364 214.5,459.5 Z"/></g>
</svg>
