<svg xmlns="http://www.w3.org/2000/svg" version="1.1" width="512px" height="512px" style="shape-rendering:geometricPrecision; text-rendering:geometricPrecision; image-rendering:optimizeQuality; fill-rule:evenodd; clip-rule:evenodd" xmlns:xlink="http://www.w3.org/1999/xlink">
<g><path style="opacity:0.942" fill="#000000" d="M 511.5,295.5 C 511.5,307.833 511.5,320.167 511.5,332.5C 505.107,336.582 498.107,339.415 490.5,341C 487.147,348.849 483.48,356.683 479.5,364.5C 482.535,369.708 485.368,375.041 488,380.5C 488.667,382.833 488.667,385.167 488,387.5C 480.865,395.636 473.365,403.47 465.5,411C 462.634,412.457 459.634,412.79 456.5,412C 450.922,409.294 445.422,406.461 440,403.5C 432.887,407.704 425.387,411.038 417.5,413.5C 415.231,419.807 413.064,426.14 411,432.5C 409.442,434.768 407.276,435.934 404.5,436C 393.427,436.931 382.427,436.597 371.5,435C 370,434.167 368.833,433 368,431.5C 366.025,425.241 363.859,419.075 361.5,413C 353.657,410.609 346.157,407.442 339,403.5C 333.578,406.461 328.078,409.294 322.5,412C 320.167,412.667 317.833,412.667 315.5,412C 307.697,405.198 300.197,398.031 293,390.5C 291.381,388.044 290.881,385.544 291.5,383C 275.49,382.167 259.49,382.334 243.5,383.5C 247.765,395.129 251.932,406.795 256,418.5C 266.09,419.321 276.256,419.821 286.5,420C 290.788,423.771 291.621,428.271 289,433.5C 288.25,434.126 287.416,434.626 286.5,435C 229.225,436.654 171.891,436.988 114.5,436C 107.121,434.075 104.955,429.575 108,422.5C 108.833,421.667 109.667,420.833 110.5,420C 120.5,419.667 130.5,419.333 140.5,419C 145.529,407.08 149.862,394.914 153.5,382.5C 111.499,382.667 69.4987,382.5 27.5,382C 13.6344,378.965 4.30112,370.799 -0.5,357.5C -0.5,271.833 -0.5,186.167 -0.5,100.5C 4.33913,84.8397 15.0058,76.3397 31.5,75C 145.523,74.016 259.523,74.3494 373.5,76C 386.949,80.4492 395.115,89.6159 398,103.5C 398.5,132.831 398.667,162.165 398.5,191.5C 403.447,190.628 407.613,191.961 411,195.5C 413.309,202.095 415.809,208.595 418.5,215C 426.114,217.148 433.447,219.982 440.5,223.5C 445.949,221.276 451.282,218.776 456.5,216C 459.167,215.333 461.833,215.333 464.5,216C 473,223.167 480.833,231 488,239.5C 488.667,241.833 488.667,244.167 488,246.5C 485.167,252.167 482.333,257.833 479.5,263.5C 483.878,270.634 486.878,278.3 488.5,286.5C 494.859,288.174 501.193,290.007 507.5,292C 508.705,293.376 510.038,294.542 511.5,295.5 Z M 30.5,91.5 C 143.877,91.008 257.21,91.508 370.5,93C 376.164,95.3324 379.664,99.4991 381,105.5C 381.5,134.165 381.667,162.831 381.5,191.5C 376.882,190.924 372.715,191.924 369,194.5C 366.595,201.215 364.095,207.882 361.5,214.5C 354.629,216.846 347.962,219.679 341.5,223C 340.167,223.667 338.833,223.667 337.5,223C 332.833,220.667 328.167,218.333 323.5,216C 320.036,215.183 316.702,215.517 313.5,217C 306.667,223.833 299.833,230.667 293,237.5C 292.163,239.351 291.329,241.184 290.5,243C 293.351,249.872 296.351,256.705 299.5,263.5C 295.95,270.601 292.95,277.934 290.5,285.5C 283.882,288.095 277.215,290.595 270.5,293C 268.07,295.305 267.07,298.138 267.5,301.5C 183.5,301.5 99.5,301.5 15.5,301.5C 15.3333,237.166 15.5,172.832 16,108.5C 16.781,99.2287 21.6144,93.562 30.5,91.5 Z M 381.5,208.5 C 386.875,208.172 392.208,208.505 397.5,209.5C 399.544,215.8 401.877,221.967 404.5,228C 416.061,231.299 427.061,235.966 437.5,242C 439.167,242.667 440.833,242.667 442.5,242C 447.136,239.682 451.802,237.349 456.5,235C 457.5,234.333 458.5,234.333 459.5,235C 463.016,238.349 466.349,241.849 469.5,245.5C 466.059,251.406 463.392,257.573 461.5,264C 463.556,269.618 466.056,275.118 469,280.5C 470.869,285.772 472.535,291.106 474,296.5C 475.227,298.726 477.061,300.226 479.5,301C 484.429,302.81 489.429,304.31 494.5,305.5C 494.666,310.844 494.499,316.177 494,321.5C 487.388,323.59 481.055,326.257 475,329.5C 472.034,340.429 467.701,350.762 462,360.5C 461.333,362.833 461.333,365.167 462,367.5C 464.947,372.711 467.28,378.045 469,383.5C 465.651,387.016 462.151,390.349 458.5,393.5C 452.595,390.128 446.428,387.462 440,385.5C 434.332,387.469 428.832,389.969 423.5,393C 418.228,394.869 412.894,396.535 407.5,398C 405.333,398.833 403.833,400.333 403,402.5C 401.265,407.871 399.432,413.204 397.5,418.5C 392.281,419.804 387.114,419.804 382,418.5C 380.197,412.758 378.197,407.091 376,401.5C 374.786,399.951 373.286,398.785 371.5,398C 367.12,396.822 362.787,395.488 358.5,394C 352.382,390.606 346.049,387.773 339.5,385.5C 333.285,387.606 327.285,390.273 321.5,393.5C 317.849,390.349 314.349,387.016 311,383.5C 312.438,377.602 314.772,371.936 318,366.5C 318.667,364.833 318.667,363.167 318,361.5C 312.127,351.42 307.627,340.753 304.5,329.5C 298.352,326.003 291.852,323.336 285,321.5C 284.501,316.177 284.334,310.844 284.5,305.5C 292.035,304.491 298.869,301.824 305,297.5C 306.178,293.12 307.512,288.787 309,284.5C 312.186,277.464 315.353,270.464 318.5,263.5C 316.806,257.779 314.306,252.446 311,247.5C 310.333,246.5 310.333,245.5 311,244.5C 314.349,240.984 317.849,237.651 321.5,234.5C 327.285,237.727 333.285,240.394 339.5,242.5C 346.449,239.362 353.449,236.195 360.5,233C 364.891,231.819 369.224,230.486 373.5,229C 375.049,227.786 376.215,226.286 377,224.5C 378.609,219.177 380.109,213.844 381.5,208.5 Z M 388.5,280.5 C 409.298,282.131 420.631,293.298 422.5,314C 421.83,329.011 414.497,339.345 400.5,345C 381.33,349.664 367.497,343.164 359,325.5C 354.122,309.135 358.622,295.968 372.5,286C 377.586,283.028 382.919,281.195 388.5,280.5 Z M 15.5,318.5 C 99.5,318.5 183.5,318.5 267.5,318.5C 267.014,323.699 267.681,328.699 269.5,333.5C 276.528,336.788 283.694,339.788 291,342.5C 293.349,350.384 296.182,358.05 299.5,365.5C 209.499,365.667 119.499,365.5 29.5,365C 23.4991,363.664 19.3324,360.164 17,354.5C 15.6348,342.547 15.1348,330.547 15.5,318.5 Z M 172.5,382.5 C 190.167,382.5 207.833,382.5 225.5,382.5C 229.138,394.914 233.471,407.08 238.5,419C 212.169,419.5 185.835,419.667 159.5,419.5C 163.55,407.066 167.884,394.733 172.5,382.5 Z"/></g>
<g><path style="opacity:0.928" fill="#000000" d="M 210.5,128.5 C 219.338,129.153 222.505,133.819 220,142.5C 211,181.5 202,220.5 193,259.5C 192.215,261.286 191.049,262.786 189.5,264C 179.889,266.055 175.722,262.221 177,252.5C 186.079,212.437 195.413,172.437 205,132.5C 206.5,130.531 208.333,129.198 210.5,128.5 Z"/></g>
<g><path style="opacity:0.924" fill="#000000" d="M 155.5,151.5 C 164.017,151.855 167.183,156.188 165,164.5C 163.833,165.667 162.667,166.833 161.5,168C 144.167,177.667 126.833,187.333 109.5,197C 128.575,206.95 147.075,217.784 165,229.5C 167.108,236.534 164.608,240.534 157.5,241.5C 153.21,240.858 149.21,239.358 145.5,237C 125.995,225.747 106.328,214.747 86.5,204C 82.5,199.333 82.5,194.667 86.5,190C 109.594,177.125 132.594,164.291 155.5,151.5 Z"/></g>
<g><path style="opacity:0.923" fill="#000000" d="M 238.5,151.5 C 242.062,151.965 245.395,153.132 248.5,155C 268.672,166.587 289.005,177.92 309.5,189C 314.395,193.716 314.728,198.716 310.5,204C 289.167,216 267.833,228 246.5,240C 236.491,244.294 231.658,241.128 232,230.5C 232.785,228.714 233.951,227.214 235.5,226C 252.833,216.333 270.167,206.667 287.5,197C 269.996,186.747 252.329,176.747 234.5,167C 229.715,160.195 231.048,155.028 238.5,151.5 Z"/></g>
<g><path style="opacity:0.93" fill="#000000" d="M 388.5,263.5 C 419.641,266.142 436.641,282.975 439.5,314C 436.996,344.504 420.496,361.004 390,363.5C 368.713,363.194 353.38,353.527 344,334.5C 335.389,310.105 340.889,289.605 360.5,273C 369.162,267.502 378.495,264.335 388.5,263.5 Z M 388.5,280.5 C 382.919,281.195 377.586,283.028 372.5,286C 358.622,295.968 354.122,309.135 359,325.5C 367.497,343.164 381.33,349.664 400.5,345C 414.497,339.345 421.83,329.011 422.5,314C 420.631,293.298 409.298,282.131 388.5,280.5 Z"/></g>
</svg>
