<svg xmlns="http://www.w3.org/2000/svg" version="1.1" width="500px" height="500px" style="shape-rendering:geometricPrecision; text-rendering:geometricPrecision; image-rendering:optimizeQuality; fill-rule:evenodd; clip-rule:evenodd" xmlns:xlink="http://www.w3.org/1999/xlink">
<g><path style="opacity:0.984" fill="#010101" d="M 197.5,92.5 C 197.5,82.1667 197.5,71.8333 197.5,61.5C 199.167,61.5 200.833,61.5 202.5,61.5C 202.5,60.1667 202.5,58.8333 202.5,57.5C 204.167,57.5 205.833,57.5 207.5,57.5C 207.5,55.5 207.5,53.5 207.5,51.5C 211.167,51.5 214.833,51.5 218.5,51.5C 218.5,53.5 218.5,55.5 218.5,57.5C 220.167,57.5 221.833,57.5 223.5,57.5C 223.5,59.1667 223.5,60.8333 223.5,62.5C 225.167,62.5 226.833,62.5 228.5,62.5C 228.5,72.8333 228.5,83.1667 228.5,93.5C 242.5,93.5 256.5,93.5 270.5,93.5C 270.5,83.1667 270.5,72.8333 270.5,62.5C 272.167,62.5 273.833,62.5 275.5,62.5C 275.5,60.8333 275.5,59.1667 275.5,57.5C 277.167,57.5 278.833,57.5 280.5,57.5C 280.5,55.5 280.5,53.5 280.5,51.5C 284.167,51.5 287.833,51.5 291.5,51.5C 291.5,53.5 291.5,55.5 291.5,57.5C 293.167,57.5 294.833,57.5 296.5,57.5C 296.5,58.8333 296.5,60.1667 296.5,61.5C 298.167,61.5 299.833,61.5 301.5,61.5C 301.5,71.8333 301.5,82.1667 301.5,92.5C 315.323,93.4958 329.323,93.8291 343.5,93.5C 343.333,82.8281 343.5,72.1615 344,61.5C 345.356,62.3802 346.856,62.7135 348.5,62.5C 348.5,60.8333 348.5,59.1667 348.5,57.5C 350.5,57.5 352.5,57.5 354.5,57.5C 354.5,55.5 354.5,53.5 354.5,51.5C 357.5,51.5 360.5,51.5 363.5,51.5C 363.5,53.5 363.5,55.5 363.5,57.5C 365.5,57.5 367.5,57.5 369.5,57.5C 369.5,59.1667 369.5,60.8333 369.5,62.5C 371.698,62.8799 373.365,62.2132 374.5,60.5C 375.806,70.8092 375.806,81.4759 374.5,92.5C 374.5,94.5 374.5,96.5 374.5,98.5C 376.167,98.5 377.833,98.5 379.5,98.5C 379.5,100.5 379.5,102.5 379.5,104.5C 382.833,104.5 386.167,104.5 389.5,104.5C 388.833,108.5 390.5,110.167 394.5,109.5C 394.5,112.833 394.5,116.167 394.5,119.5C 396.5,119.5 398.5,119.5 400.5,119.5C 400.5,121.167 400.5,122.833 400.5,124.5C 402.735,124.795 404.735,124.461 406.5,123.5C 417.735,123.17 428.402,123.504 438.5,124.5C 437.549,125.919 437.216,127.585 437.5,129.5C 438.833,129.5 440.167,129.5 441.5,129.5C 441.5,131.5 441.5,133.5 441.5,135.5C 443.5,135.5 445.5,135.5 447.5,135.5C 447.5,138.5 447.5,141.5 447.5,144.5C 445.5,144.5 443.5,144.5 441.5,144.5C 441.5,146.5 441.5,148.5 441.5,150.5C 439.833,150.5 438.167,150.5 436.5,150.5C 436.5,152.167 436.5,153.833 436.5,155.5C 426.167,155.5 415.833,155.5 405.5,155.5C 405.171,169.677 405.504,183.677 406.5,197.5C 416.833,197.5 427.167,197.5 437.5,197.5C 437.5,199.167 437.5,200.833 437.5,202.5C 438.833,202.5 440.167,202.5 441.5,202.5C 441.5,204.167 441.5,205.833 441.5,207.5C 443.5,207.5 445.5,207.5 447.5,207.5C 447.5,211.167 447.5,214.833 447.5,218.5C 445.5,218.5 443.5,218.5 441.5,218.5C 441.5,219.833 441.5,221.167 441.5,222.5C 439.833,222.5 438.167,222.5 436.5,222.5C 436.261,224.467 436.594,226.301 437.5,228C 426.839,228.5 416.172,228.667 405.5,228.5C 405.5,242.5 405.5,256.5 405.5,270.5C 415.833,270.5 426.167,270.5 436.5,270.5C 436.5,272.167 436.5,273.833 436.5,275.5C 438.167,275.5 439.833,275.5 441.5,275.5C 441.5,277.167 441.5,278.833 441.5,280.5C 443.5,280.5 445.5,280.5 447.5,280.5C 447.5,284.167 447.5,287.833 447.5,291.5C 445.5,291.5 443.5,291.5 441.5,291.5C 441.5,293.167 441.5,294.833 441.5,296.5C 440.167,296.5 438.833,296.5 437.5,296.5C 437.5,298.167 437.5,299.833 437.5,301.5C 427.085,301.192 416.751,301.525 406.5,302.5C 405.501,315.42 405.168,329.087 405.5,343.5C 416.172,343.333 426.839,343.5 437.5,344C 436.62,345.356 436.286,346.856 436.5,348.5C 438.167,348.5 439.833,348.5 441.5,348.5C 441.5,350.167 441.5,351.833 441.5,353.5C 443.5,353.5 445.5,353.5 447.5,353.5C 447.5,356.833 447.5,360.167 447.5,363.5C 445.5,363.5 443.5,363.5 441.5,363.5C 441.5,365.5 441.5,367.5 441.5,369.5C 439.833,369.5 438.167,369.5 436.5,369.5C 436.077,371.781 436.744,373.448 438.5,374.5C 428.347,375.494 418.014,375.828 407.5,375.5C 405.393,374.532 403.059,374.198 400.5,374.5C 400.5,376.167 400.5,377.833 400.5,379.5C 398.5,379.5 396.5,379.5 394.5,379.5C 394.5,382.833 394.5,386.167 394.5,389.5C 392.833,389.5 391.167,389.5 389.5,389.5C 389.5,391.167 389.5,392.833 389.5,394.5C 386.167,394.5 382.833,394.5 379.5,394.5C 379.5,396.5 379.5,398.5 379.5,400.5C 377.833,400.5 376.167,400.5 374.5,400.5C 374.5,402.5 374.5,404.5 374.5,406.5C 375.778,417.974 375.778,429.307 374.5,440.5C 374.5,439.167 374.5,437.833 374.5,436.5C 372.833,436.5 371.167,436.5 369.5,436.5C 369.5,438.167 369.5,439.833 369.5,441.5C 367.5,441.5 365.5,441.5 363.5,441.5C 363.5,443.5 363.5,445.5 363.5,447.5C 360.167,447.5 356.833,447.5 353.5,447.5C 353.5,445.5 353.5,443.5 353.5,441.5C 351.833,441.5 350.167,441.5 348.5,441.5C 349.167,437.5 347.5,435.833 343.5,436.5C 343.5,426.167 343.5,415.833 343.5,405.5C 329.323,405.171 315.323,405.504 301.5,406.5C 301.5,416.833 301.5,427.167 301.5,437.5C 299.833,437.5 298.167,437.5 296.5,437.5C 296.5,438.833 296.5,440.167 296.5,441.5C 294.833,441.5 293.167,441.5 291.5,441.5C 291.5,443.5 291.5,445.5 291.5,447.5C 287.833,447.5 284.167,447.5 280.5,447.5C 280.5,445.5 280.5,443.5 280.5,441.5C 278.833,441.5 277.167,441.5 275.5,441.5C 275.5,439.833 275.5,438.167 275.5,436.5C 273.833,436.5 272.167,436.5 270.5,436.5C 270.5,426.167 270.5,415.833 270.5,405.5C 256.5,405.5 242.5,405.5 228.5,405.5C 228.5,415.833 228.5,426.167 228.5,436.5C 226.833,436.5 225.167,436.5 223.5,436.5C 223.5,438.167 223.5,439.833 223.5,441.5C 221.833,441.5 220.167,441.5 218.5,441.5C 218.5,443.5 218.5,445.5 218.5,447.5C 214.833,447.5 211.167,447.5 207.5,447.5C 207.5,445.5 207.5,443.5 207.5,441.5C 205.833,441.5 204.167,441.5 202.5,441.5C 202.5,440.167 202.5,438.833 202.5,437.5C 200.833,437.5 199.167,437.5 197.5,437.5C 197.5,427.167 197.5,416.833 197.5,406.5C 183.677,405.504 169.677,405.171 155.5,405.5C 155.5,415.833 155.5,426.167 155.5,436.5C 153.833,436.5 152.167,436.5 150.5,436.5C 150.5,438.167 150.5,439.833 150.5,441.5C 148.833,441.5 147.167,441.5 145.5,441.5C 145.5,443.5 145.5,445.5 145.5,447.5C 142.167,447.5 138.833,447.5 135.5,447.5C 135.5,445.5 135.5,443.5 135.5,441.5C 133.5,441.5 131.5,441.5 129.5,441.5C 129.5,439.833 129.5,438.167 129.5,436.5C 127.708,436.366 126.042,436.699 124.5,437.5C 123.188,427.137 123.188,416.803 124.5,406.5C 124.5,404.5 124.5,402.5 124.5,400.5C 122.833,400.5 121.167,400.5 119.5,400.5C 119.5,398.5 119.5,396.5 119.5,394.5C 116.167,394.5 112.833,394.5 109.5,394.5C 110.167,390.5 108.5,388.833 104.5,389.5C 104.5,386.167 104.5,382.833 104.5,379.5C 102.5,379.5 100.5,379.5 98.5,379.5C 98.5,377.833 98.5,376.167 98.5,374.5C 95.9407,374.198 93.6074,374.532 91.5,375.5C 80.9865,375.828 70.6532,375.494 60.5,374.5C 62.2132,373.365 62.8799,371.698 62.5,369.5C 60.8333,369.5 59.1667,369.5 57.5,369.5C 57.5,367.5 57.5,365.5 57.5,363.5C 55.5,363.5 53.5,363.5 51.5,363.5C 51.335,360.15 51.5017,356.817 52,353.5C 53.6995,354.406 55.5328,354.739 57.5,354.5C 57.5,352.5 57.5,350.5 57.5,348.5C 59.1667,348.5 60.8333,348.5 62.5,348.5C 62.7135,346.856 62.3802,345.356 61.5,344C 72.1615,343.5 82.8281,343.333 93.5,343.5C 93.8291,329.323 93.4958,315.323 92.5,301.5C 82.1667,301.5 71.8333,301.5 61.5,301.5C 61.5,299.833 61.5,298.167 61.5,296.5C 60.1667,296.5 58.8333,296.5 57.5,296.5C 57.5,294.833 57.5,293.167 57.5,291.5C 55.5,291.5 53.5,291.5 51.5,291.5C 51.5,287.833 51.5,284.167 51.5,280.5C 53.5,280.5 55.5,280.5 57.5,280.5C 57.5,278.833 57.5,277.167 57.5,275.5C 59.1667,275.5 60.8333,275.5 62.5,275.5C 62.5,273.833 62.5,272.167 62.5,270.5C 72.8333,270.5 83.1667,270.5 93.5,270.5C 93.5,256.5 93.5,242.5 93.5,228.5C 83.1667,228.5 72.8333,228.5 62.5,228.5C 62.5,226.833 62.5,225.167 62.5,223.5C 60.8333,223.5 59.1667,223.5 57.5,223.5C 57.5,221.833 57.5,220.167 57.5,218.5C 55.5,218.5 53.5,218.5 51.5,218.5C 51.5,214.833 51.5,211.167 51.5,207.5C 53.5,207.5 55.5,207.5 57.5,207.5C 57.5,205.833 57.5,204.167 57.5,202.5C 58.8333,202.5 60.1667,202.5 61.5,202.5C 61.5,200.833 61.5,199.167 61.5,197.5C 71.8333,197.5 82.1667,197.5 92.5,197.5C 93.4958,183.677 93.8291,169.677 93.5,155.5C 83.1667,155.5 72.8333,155.5 62.5,155.5C 62.5,153.833 62.5,152.167 62.5,150.5C 60.8333,150.5 59.1667,150.5 57.5,150.5C 57.5,148.5 57.5,146.5 57.5,144.5C 55.5,144.5 53.5,144.5 51.5,144.5C 51.5,141.5 51.5,138.5 51.5,135.5C 53.5,135.5 55.5,135.5 57.5,135.5C 57.5,133.5 57.5,131.5 57.5,129.5C 59.1667,129.5 60.8333,129.5 62.5,129.5C 62.5,127.5 62.5,125.5 62.5,123.5C 66.5,123.5 70.5,123.5 74.5,123.5C 82.3159,124.492 90.3159,124.826 98.5,124.5C 98.5,122.833 98.5,121.167 98.5,119.5C 100.5,119.5 102.5,119.5 104.5,119.5C 104.5,116.167 104.5,112.833 104.5,109.5C 108.5,110.167 110.167,108.5 109.5,104.5C 112.807,103.949 116.14,103.616 119.5,103.5C 119.5,101.833 119.5,100.167 119.5,98.5C 121.167,98.5 122.833,98.5 124.5,98.5C 124.5,96.5 124.5,94.5 124.5,92.5C 123.207,80.8758 123.207,69.2091 124.5,57.5C 125.434,58.5676 125.768,59.901 125.5,61.5C 126.833,61.5 128.167,61.5 129.5,61.5C 129.5,60.1667 129.5,58.8333 129.5,57.5C 131.5,57.5 133.5,57.5 135.5,57.5C 135.5,55.5 135.5,53.5 135.5,51.5C 138.5,51.5 141.5,51.5 144.5,51.5C 143.5,56.5 145.5,58.5 150.5,57.5C 150.5,59.1667 150.5,60.8333 150.5,62.5C 152.167,62.5 153.833,62.5 155.5,62.5C 155.5,72.8333 155.5,83.1667 155.5,93.5C 169.677,93.8291 183.677,93.4958 197.5,92.5 Z M 358.5,124.5 C 358.421,125.93 358.754,127.264 359.5,128.5C 362.768,129.487 366.102,129.82 369.5,129.5C 369.335,132.518 369.502,135.518 370,138.5C 371.33,139.582 372.83,140.249 374.5,140.5C 373.176,213.158 373.176,285.825 374.5,358.5C 370.056,360.808 368.389,364.475 369.5,369.5C 364.906,368.657 361.239,369.991 358.5,373.5C 286.167,373.5 213.833,373.5 141.5,373.5C 138.564,370.369 134.897,368.869 130.5,369C 129.73,366.393 129.063,363.727 128.5,361C 127.644,359.405 126.311,358.572 124.5,358.5C 125.818,285.889 125.818,213.222 124.5,140.5C 126.117,139.962 127.784,139.629 129.5,139.5C 129.5,136.167 129.5,132.833 129.5,129.5C 132.898,129.82 136.232,129.487 139.5,128.5C 140.127,127.583 140.461,126.583 140.5,125.5C 213.15,125.778 285.817,125.444 358.5,124.5 Z"/></g>
<g><path style="opacity:1" fill="#474547" d="M 374.5,60.5 C 373.365,62.2132 371.698,62.8799 369.5,62.5C 369.5,60.8333 369.5,59.1667 369.5,57.5C 367.5,57.5 365.5,57.5 363.5,57.5C 363.5,55.5 363.5,53.5 363.5,51.5C 360.5,51.5 357.5,51.5 354.5,51.5C 354.5,53.5 354.5,55.5 354.5,57.5C 352.5,57.5 350.5,57.5 348.5,57.5C 348.5,59.1667 348.5,60.8333 348.5,62.5C 346.856,62.7135 345.356,62.3802 344,61.5C 343.5,72.1615 343.333,82.8281 343.5,93.5C 329.323,93.8291 315.323,93.4958 301.5,92.5C 315.167,92.5 328.833,92.5 342.5,92.5C 342.26,78.8082 342.593,65.1415 343.5,51.5C 352.144,50.4933 360.811,50.3267 369.5,51C 370.227,52.3988 370.727,53.8988 371,55.5C 372.011,56.3366 373.178,56.67 374.5,56.5C 374.5,57.8333 374.5,59.1667 374.5,60.5 Z"/></g>
<g><path style="opacity:1" fill="#4b494c" d="M 301.5,61.5 C 299.833,61.5 298.167,61.5 296.5,61.5C 296.5,60.1667 296.5,58.8333 296.5,57.5C 294.833,57.5 293.167,57.5 291.5,57.5C 291.5,55.5 291.5,53.5 291.5,51.5C 287.833,51.5 284.167,51.5 280.5,51.5C 280.5,53.5 280.5,55.5 280.5,57.5C 278.833,57.5 277.167,57.5 275.5,57.5C 275.5,59.1667 275.5,60.8333 275.5,62.5C 273.833,62.5 272.167,62.5 270.5,62.5C 270.5,72.8333 270.5,83.1667 270.5,93.5C 256.5,93.5 242.5,93.5 228.5,93.5C 228.5,83.1667 228.5,72.8333 228.5,62.5C 226.833,62.5 225.167,62.5 223.5,62.5C 223.5,60.8333 223.5,59.1667 223.5,57.5C 221.833,57.5 220.167,57.5 218.5,57.5C 218.5,55.5 218.5,53.5 218.5,51.5C 214.833,51.5 211.167,51.5 207.5,51.5C 207.5,53.5 207.5,55.5 207.5,57.5C 205.833,57.5 204.167,57.5 202.5,57.5C 202.5,58.8333 202.5,60.1667 202.5,61.5C 200.833,61.5 199.167,61.5 197.5,61.5C 197.5,58.1667 197.5,54.8333 197.5,51.5C 206.138,50.6602 214.805,50.3268 223.5,50.5C 223.5,52.5 223.5,54.5 223.5,56.5C 225.5,56.5 227.5,56.5 229.5,56.5C 229.5,68.5 229.5,80.5 229.5,92.5C 242.833,92.5 256.167,92.5 269.5,92.5C 269.26,78.8082 269.593,65.1415 270.5,51.5C 279.138,50.6602 287.805,50.3268 296.5,50.5C 296.5,52.5 296.5,54.5 296.5,56.5C 298.167,56.5 299.833,56.5 301.5,56.5C 301.5,58.1667 301.5,59.8333 301.5,61.5 Z"/></g>
<g><path style="opacity:0.26" fill="#4c4a4c" d="M 197.5,92.5 C 183.677,93.4958 169.677,93.8291 155.5,93.5C 155.5,83.1667 155.5,72.8333 155.5,62.5C 153.833,62.5 152.167,62.5 150.5,62.5C 150.5,60.8333 150.5,59.1667 150.5,57.5C 145.5,58.5 143.5,56.5 144.5,51.5C 141.5,51.5 138.5,51.5 135.5,51.5C 135.5,53.5 135.5,55.5 135.5,57.5C 133.5,57.5 131.5,57.5 129.5,57.5C 129.5,58.8333 129.5,60.1667 129.5,61.5C 128.167,61.5 126.833,61.5 125.5,61.5C 125.768,59.901 125.434,58.5676 124.5,57.5C 127.218,56.2707 128.884,54.104 129.5,51C 138.194,50.2894 146.861,50.4561 155.5,51.5C 156.407,65.1415 156.74,78.8082 156.5,92.5C 170.167,92.5 183.833,92.5 197.5,92.5 Z"/></g>
<g><path style="opacity:0.29" fill="#69676a" d="M 124.5,92.5 C 124.5,94.5 124.5,96.5 124.5,98.5C 122.833,98.5 121.167,98.5 119.5,98.5C 119.5,100.167 119.5,101.833 119.5,103.5C 116.14,103.616 112.807,103.949 109.5,104.5C 110.167,108.5 108.5,110.167 104.5,109.5C 104.5,112.833 104.5,116.167 104.5,119.5C 102.5,119.5 100.5,119.5 98.5,119.5C 98.5,121.167 98.5,122.833 98.5,124.5C 90.3159,124.826 82.3159,124.492 74.5,123.5C 80.8333,123.5 87.1667,123.5 93.5,123.5C 93.5,122.167 93.5,120.833 93.5,119.5C 94.8333,119.5 96.1667,119.5 97.5,119.5C 97.5,117.5 97.5,115.5 97.5,113.5C 98.8333,113.5 100.167,113.5 101.5,113.5C 103.107,111.471 103.94,108.471 104,104.5C 106.381,103.565 108.881,103.232 111.5,103.5C 112.778,102.209 113.445,100.209 113.5,97.5C 116.365,97.9452 118.865,97.2785 121,95.5C 121.333,95.8333 121.667,96.1667 122,96.5C 122.2,94.6803 123.034,93.347 124.5,92.5 Z"/></g>
<g><path style="opacity:1" fill="#666365" d="M 374.5,92.5 C 376.436,93.4295 378.103,94.7628 379.5,96.5C 381.396,97.4656 383.396,97.7989 385.5,97.5C 385.5,99.5 385.5,101.5 385.5,103.5C 388.518,103.335 391.518,103.502 394.5,104C 395.282,106.74 395.782,109.574 396,112.5C 396.333,112.167 396.667,111.833 397,111.5C 400.491,112.918 402.158,115.584 402,119.5C 403.049,121.384 404.549,122.718 406.5,123.5C 404.735,124.461 402.735,124.795 400.5,124.5C 400.5,122.833 400.5,121.167 400.5,119.5C 398.5,119.5 396.5,119.5 394.5,119.5C 394.5,116.167 394.5,112.833 394.5,109.5C 390.5,110.167 388.833,108.5 389.5,104.5C 386.167,104.5 382.833,104.5 379.5,104.5C 379.5,102.5 379.5,100.5 379.5,98.5C 377.833,98.5 376.167,98.5 374.5,98.5C 374.5,96.5 374.5,94.5 374.5,92.5 Z"/></g>
<g><path style="opacity:1" fill="#797778" d="M 140.5,125.5 C 140.461,126.583 140.127,127.583 139.5,128.5C 136.232,129.487 132.898,129.82 129.5,129.5C 129.5,127.833 129.5,126.167 129.5,124.5C 133.371,124.185 137.038,124.518 140.5,125.5 Z"/></g>
<g><path style="opacity:0.139" fill="#767475" d="M 358.5,124.5 C 362.167,124.5 365.833,124.5 369.5,124.5C 369.5,126.167 369.5,127.833 369.5,129.5C 366.102,129.82 362.768,129.487 359.5,128.5C 358.754,127.264 358.421,125.93 358.5,124.5 Z"/></g>
<g><path style="opacity:1" fill="#7e797c" d="M 129.5,129.5 C 129.5,132.833 129.5,136.167 129.5,139.5C 127.784,139.629 126.117,139.962 124.5,140.5C 124.5,136.833 124.5,133.167 124.5,129.5C 126.167,129.5 127.833,129.5 129.5,129.5 Z"/></g>
<g><path style="opacity:1" fill="#3f3e3e" d="M 406.5,197.5 C 405.504,183.677 405.171,169.677 405.5,155.5C 415.833,155.5 426.167,155.5 436.5,155.5C 436.5,153.833 436.5,152.167 436.5,150.5C 438.167,150.5 439.833,150.5 441.5,150.5C 441.5,148.5 441.5,146.5 441.5,144.5C 443.5,144.5 445.5,144.5 447.5,144.5C 447.5,141.5 447.5,138.5 447.5,135.5C 445.5,135.5 443.5,135.5 441.5,135.5C 441.5,133.5 441.5,131.5 441.5,129.5C 440.167,129.5 438.833,129.5 437.5,129.5C 437.216,127.585 437.549,125.919 438.5,124.5C 441.465,123.602 442.799,124.935 442.5,128.5C 444.467,128.261 446.301,128.594 448,129.5C 448.5,136.826 448.666,144.159 448.5,151.5C 446.5,151.5 444.5,151.5 442.5,151.5C 442.5,153.167 442.5,154.833 442.5,156.5C 430.5,156.5 418.5,156.5 406.5,156.5C 406.5,170.167 406.5,183.833 406.5,197.5 Z"/></g>
<g><path style="opacity:0.925" fill="#817d80" d="M 369.5,129.5 C 371.167,129.5 372.833,129.5 374.5,129.5C 374.5,133.167 374.5,136.833 374.5,140.5C 372.83,140.249 371.33,139.582 370,138.5C 369.502,135.518 369.335,132.518 369.5,129.5 Z"/></g>
<g><path style="opacity:1" fill="#050505" d="M 171.5,150.5 C 171.5,152.167 171.5,153.833 171.5,155.5C 173.167,155.5 174.833,155.5 176.5,155.5C 176.5,159.167 176.5,162.833 176.5,166.5C 174.833,166.5 173.167,166.5 171.5,166.5C 171.5,168.167 171.5,169.833 171.5,171.5C 169.833,171.5 168.167,171.5 166.5,171.5C 166.5,173.167 166.5,174.833 166.5,176.5C 162.833,176.5 159.167,176.5 155.5,176.5C 155.5,174.833 155.5,173.167 155.5,171.5C 153.833,171.5 152.167,171.5 150.5,171.5C 150.5,169.833 150.5,168.167 150.5,166.5C 148.833,166.5 147.167,166.5 145.5,166.5C 145.5,162.833 145.5,159.167 145.5,155.5C 147.167,155.5 148.833,155.5 150.5,155.5C 149.833,151.5 151.5,149.833 155.5,150.5C 155.5,148.833 155.5,147.167 155.5,145.5C 159.167,145.5 162.833,145.5 166.5,145.5C 166.5,147.167 166.5,148.833 166.5,150.5C 168.167,150.5 169.833,150.5 171.5,150.5 Z"/></g>
<g><path style="opacity:1" fill="#5f5f5f" d="M 171.5,150.5 C 173.167,150.5 174.833,150.5 176.5,150.5C 176.5,152.167 176.5,153.833 176.5,155.5C 176.5,153.833 176.5,152.167 176.5,150.5C 174.833,150.5 173.167,150.5 171.5,150.5 Z"/></g>
<g><path style="opacity:0.255" fill="#4e4c4d" d="M 62.5,123.5 C 62.5,125.5 62.5,127.5 62.5,129.5C 60.8333,129.5 59.1667,129.5 57.5,129.5C 57.5,131.5 57.5,133.5 57.5,135.5C 55.5,135.5 53.5,135.5 51.5,135.5C 51.5,138.5 51.5,141.5 51.5,144.5C 53.5,144.5 55.5,144.5 57.5,144.5C 57.5,146.5 57.5,148.5 57.5,150.5C 59.1667,150.5 60.8333,150.5 62.5,150.5C 62.5,152.167 62.5,153.833 62.5,155.5C 72.8333,155.5 83.1667,155.5 93.5,155.5C 93.8291,169.677 93.4958,183.677 92.5,197.5C 92.5,183.833 92.5,170.167 92.5,156.5C 80.4954,156.667 68.4954,156.5 56.5,156C 54.8988,155.727 53.3988,155.227 52,154.5C 50.1997,145.548 50.033,136.548 51.5,127.5C 51.8178,126.353 52.4844,125.519 53.5,125C 56.4781,124.304 59.4781,123.804 62.5,123.5 Z"/></g>
<g><path style="opacity:1" fill="#4f4f50" d="M 171.5,150.5 C 169.833,150.5 168.167,150.5 166.5,150.5C 166.5,148.833 166.5,147.167 166.5,145.5C 162.833,145.5 159.167,145.5 155.5,145.5C 155.5,147.167 155.5,148.833 155.5,150.5C 151.5,149.833 149.833,151.5 150.5,155.5C 148.833,155.5 147.167,155.5 145.5,155.5C 145.5,159.167 145.5,162.833 145.5,166.5C 147.167,166.5 148.833,166.5 150.5,166.5C 150.5,168.167 150.5,169.833 150.5,171.5C 149.732,172.263 149.232,173.263 149,174.5C 148.3,172.968 147.134,171.968 145.5,171.5C 144.503,164.532 144.17,157.532 144.5,150.5C 146.5,150.5 148.5,150.5 150.5,150.5C 150.5,148.5 150.5,146.5 150.5,144.5C 157.5,144.5 164.5,144.5 171.5,144.5C 171.5,146.5 171.5,148.5 171.5,150.5 Z"/></g>
<g><path style="opacity:0.938" fill="#4e4e4e" d="M 150.5,171.5 C 152.167,171.5 153.833,171.5 155.5,171.5C 155.5,173.167 155.5,174.833 155.5,176.5C 153.833,176.5 152.167,176.5 150.5,176.5C 150.5,174.833 150.5,173.167 150.5,171.5 Z"/></g>
<g><path style="opacity:1" fill="#5a5a5a" d="M 176.5,166.5 C 176.5,168.167 176.5,169.833 176.5,171.5C 172.828,171.183 171.162,172.849 171.5,176.5C 169.833,176.5 168.167,176.5 166.5,176.5C 166.5,174.833 166.5,173.167 166.5,171.5C 168.167,171.5 169.833,171.5 171.5,171.5C 171.5,169.833 171.5,168.167 171.5,166.5C 173.167,166.5 174.833,166.5 176.5,166.5 Z"/></g>
<g><path style="opacity:0.251" fill="#3e3c3d" d="M 437.5,197.5 C 439.167,197.5 440.833,197.5 442.5,197.5C 442.238,198.978 442.571,200.311 443.5,201.5C 444.967,201.723 446.467,202.056 448,202.5C 448.5,209.492 448.666,216.492 448.5,223.5C 446.5,223.5 444.5,223.5 442.5,223.5C 442.5,225.5 442.5,227.5 442.5,229.5C 430.5,229.5 418.5,229.5 406.5,229.5C 406.5,242.833 406.5,256.167 406.5,269.5C 418.5,269.5 430.5,269.5 442.5,269.5C 442.5,271.5 442.5,273.5 442.5,275.5C 444.5,275.5 446.5,275.5 448.5,275.5C 448.5,282.5 448.5,289.5 448.5,296.5C 446.5,296.5 444.5,296.5 442.5,296.5C 442.5,298.167 442.5,299.833 442.5,301.5C 440.833,301.5 439.167,301.5 437.5,301.5C 437.5,299.833 437.5,298.167 437.5,296.5C 438.833,296.5 440.167,296.5 441.5,296.5C 441.5,294.833 441.5,293.167 441.5,291.5C 443.5,291.5 445.5,291.5 447.5,291.5C 447.5,287.833 447.5,284.167 447.5,280.5C 445.5,280.5 443.5,280.5 441.5,280.5C 441.5,278.833 441.5,277.167 441.5,275.5C 439.833,275.5 438.167,275.5 436.5,275.5C 436.5,273.833 436.5,272.167 436.5,270.5C 426.167,270.5 415.833,270.5 405.5,270.5C 405.5,256.5 405.5,242.5 405.5,228.5C 416.172,228.667 426.839,228.5 437.5,228C 436.594,226.301 436.261,224.467 436.5,222.5C 438.167,222.5 439.833,222.5 441.5,222.5C 441.5,221.167 441.5,219.833 441.5,218.5C 443.5,218.5 445.5,218.5 447.5,218.5C 447.5,214.833 447.5,211.167 447.5,207.5C 445.5,207.5 443.5,207.5 441.5,207.5C 441.5,205.833 441.5,204.167 441.5,202.5C 440.167,202.5 438.833,202.5 437.5,202.5C 437.5,200.833 437.5,199.167 437.5,197.5 Z"/></g>
<g><path style="opacity:0.246" fill="#494648" d="M 61.5,197.5 C 61.5,199.167 61.5,200.833 61.5,202.5C 60.1667,202.5 58.8333,202.5 57.5,202.5C 57.5,204.167 57.5,205.833 57.5,207.5C 55.5,207.5 53.5,207.5 51.5,207.5C 51.5,211.167 51.5,214.833 51.5,218.5C 53.5,218.5 55.5,218.5 57.5,218.5C 57.5,220.167 57.5,221.833 57.5,223.5C 59.1667,223.5 60.8333,223.5 62.5,223.5C 62.5,225.167 62.5,226.833 62.5,228.5C 72.8333,228.5 83.1667,228.5 93.5,228.5C 93.5,242.5 93.5,256.5 93.5,270.5C 83.1667,270.5 72.8333,270.5 62.5,270.5C 62.5,272.167 62.5,273.833 62.5,275.5C 60.8333,275.5 59.1667,275.5 57.5,275.5C 57.5,277.167 57.5,278.833 57.5,280.5C 55.5,280.5 53.5,280.5 51.5,280.5C 51.5,284.167 51.5,287.833 51.5,291.5C 53.5,291.5 55.5,291.5 57.5,291.5C 57.5,293.167 57.5,294.833 57.5,296.5C 58.8333,296.5 60.1667,296.5 61.5,296.5C 61.5,298.167 61.5,299.833 61.5,301.5C 58.1667,301.5 54.8333,301.5 51.5,301.5C 49.8384,291.07 50.1717,280.737 52.5,270.5C 65.7838,269.518 79.1172,269.185 92.5,269.5C 92.5,256.167 92.5,242.833 92.5,229.5C 78.8082,229.74 65.1415,229.407 51.5,228.5C 50.1667,218.167 50.1667,207.833 51.5,197.5C 54.8333,197.5 58.1667,197.5 61.5,197.5 Z"/></g>
<g><path style="opacity:1" fill="#050505" d="M 332.5,322.5 C 336.167,322.5 339.833,322.5 343.5,322.5C 343.5,324.167 343.5,325.833 343.5,327.5C 345.167,327.5 346.833,327.5 348.5,327.5C 348.5,329.167 348.5,330.833 348.5,332.5C 350.167,332.5 351.833,332.5 353.5,332.5C 353.5,336.167 353.5,339.833 353.5,343.5C 351.833,343.5 350.167,343.5 348.5,343.5C 348.5,345.167 348.5,346.833 348.5,348.5C 346.833,348.5 345.167,348.5 343.5,348.5C 343.5,350.167 343.5,351.833 343.5,353.5C 339.833,353.5 336.167,353.5 332.5,353.5C 332.5,351.833 332.5,350.167 332.5,348.5C 330.833,348.5 329.167,348.5 327.5,348.5C 327.5,346.833 327.5,345.167 327.5,343.5C 325.833,343.5 324.167,343.5 322.5,343.5C 322.5,339.833 322.5,336.167 322.5,332.5C 324.167,332.5 325.833,332.5 327.5,332.5C 327.5,330.833 327.5,329.167 327.5,327.5C 329.167,327.5 330.833,327.5 332.5,327.5C 332.5,325.833 332.5,324.167 332.5,322.5 Z"/></g>
<g><path style="opacity:1" fill="#595959" d="M 343.5,322.5 C 345.167,322.5 346.833,322.5 348.5,322.5C 348.5,324.167 348.5,325.833 348.5,327.5C 348.5,325.833 348.5,324.167 348.5,322.5C 346.833,322.5 345.167,322.5 343.5,322.5 Z"/></g>
<g><path style="opacity:1" fill="#4c4c4c" d="M 332.5,322.5 C 332.5,324.167 332.5,325.833 332.5,327.5C 330.833,327.5 329.167,327.5 327.5,327.5C 327.5,329.167 327.5,330.833 327.5,332.5C 325.833,332.5 324.167,332.5 322.5,332.5C 322.5,330.5 322.5,328.5 322.5,326.5C 324.167,326.5 325.833,326.5 327.5,326.5C 327.5,325.167 327.5,323.833 327.5,322.5C 329.167,322.5 330.833,322.5 332.5,322.5 Z"/></g>
<g><path style="opacity:1" fill="#545454" d="M 348.5,348.5 C 348.5,346.833 348.5,345.167 348.5,343.5C 350.167,343.5 351.833,343.5 353.5,343.5C 353.5,339.833 353.5,336.167 353.5,332.5C 351.833,332.5 350.167,332.5 348.5,332.5C 348.5,330.833 348.5,329.167 348.5,327.5C 350.297,327.065 352.297,327.065 354.5,327.5C 354.5,334.5 354.5,341.5 354.5,348.5C 352.5,348.5 350.5,348.5 348.5,348.5 Z"/></g>
<g><path style="opacity:0.067" fill="#535053" d="M 92.5,301.5 C 93.4958,315.323 93.8291,329.323 93.5,343.5C 82.8281,343.333 72.1615,343.5 61.5,344C 62.3802,345.356 62.7135,346.856 62.5,348.5C 60.8333,348.5 59.1667,348.5 57.5,348.5C 55.3792,348.675 53.3792,348.341 51.5,347.5C 51.5,346.167 51.5,344.833 51.5,343.5C 65.1415,342.593 78.8082,342.26 92.5,342.5C 92.5,328.833 92.5,315.167 92.5,301.5 Z"/></g>
<g><path style="opacity:1" fill="#404040" d="M 406.5,302.5 C 406.5,315.833 406.5,329.167 406.5,342.5C 418.5,342.5 430.5,342.5 442.5,342.5C 442.5,344.167 442.5,345.833 442.5,347.5C 444.5,347.5 446.5,347.5 448.5,347.5C 448.666,354.841 448.5,362.174 448,369.5C 446.301,370.406 444.467,370.739 442.5,370.5C 442.5,371.833 442.5,373.167 442.5,374.5C 441.167,374.5 439.833,374.5 438.5,374.5C 436.744,373.448 436.077,371.781 436.5,369.5C 438.167,369.5 439.833,369.5 441.5,369.5C 441.5,367.5 441.5,365.5 441.5,363.5C 443.5,363.5 445.5,363.5 447.5,363.5C 447.5,360.167 447.5,356.833 447.5,353.5C 445.5,353.5 443.5,353.5 441.5,353.5C 441.5,351.833 441.5,350.167 441.5,348.5C 439.833,348.5 438.167,348.5 436.5,348.5C 436.286,346.856 436.62,345.356 437.5,344C 426.839,343.5 416.172,343.333 405.5,343.5C 405.168,329.087 405.501,315.42 406.5,302.5 Z"/></g>
<g><path style="opacity:0.612" fill="#4e4e4f" d="M 322.5,343.5 C 324.167,343.5 325.833,343.5 327.5,343.5C 327.5,345.167 327.5,346.833 327.5,348.5C 329.167,348.5 330.833,348.5 332.5,348.5C 332.5,350.167 332.5,351.833 332.5,353.5C 336.167,353.5 339.833,353.5 343.5,353.5C 343.5,351.833 343.5,350.167 343.5,348.5C 345.167,348.5 346.833,348.5 348.5,348.5C 348.5,350.5 348.5,352.5 348.5,354.5C 341.052,355.108 333.885,354.441 327,352.5C 326.667,352.833 326.333,353.167 326,353.5C 325.682,351.939 324.849,350.772 323.5,350C 325.932,348.913 325.598,348.413 322.5,348.5C 322.5,346.833 322.5,345.167 322.5,343.5 Z"/></g>
<g><path style="opacity:1" fill="#7f7e7e" d="M 124.5,358.5 C 126.311,358.572 127.644,359.405 128.5,361C 129.063,363.727 129.73,366.393 130.5,369C 134.897,368.869 138.564,370.369 141.5,373.5C 137.702,374.483 133.702,374.817 129.5,374.5C 129.5,372.833 129.5,371.167 129.5,369.5C 127.833,369.5 126.167,369.5 124.5,369.5C 124.5,365.833 124.5,362.167 124.5,358.5 Z"/></g>
<g><path style="opacity:1" fill="#777779" d="M 374.5,358.5 C 374.5,362.167 374.5,365.833 374.5,369.5C 372.833,369.5 371.167,369.5 369.5,369.5C 368.389,364.475 370.056,360.808 374.5,358.5 Z"/></g>
<g><path style="opacity:0.935" fill="#3a3839" d="M 51.5,347.5 C 53.3792,348.341 55.3792,348.675 57.5,348.5C 57.5,350.5 57.5,352.5 57.5,354.5C 55.5328,354.739 53.6995,354.406 52,353.5C 51.5017,356.817 51.335,360.15 51.5,363.5C 53.5,363.5 55.5,363.5 57.5,363.5C 57.5,365.5 57.5,367.5 57.5,369.5C 59.1667,369.5 60.8333,369.5 62.5,369.5C 62.8799,371.698 62.2132,373.365 60.5,374.5C 58.1432,374.663 55.8098,374.497 53.5,374C 52.4844,373.481 51.8178,372.647 51.5,371.5C 50.2138,363.352 50.2138,355.352 51.5,347.5 Z"/></g>
<g><path style="opacity:0.987" fill="#7e7c7e" d="M 369.5,369.5 C 369.5,371.167 369.5,372.833 369.5,374.5C 365.629,374.815 361.962,374.482 358.5,373.5C 361.239,369.991 364.906,368.657 369.5,369.5 Z"/></g>
<g><path style="opacity:1" fill="#5d5c5e" d="M 91.5,375.5 C 93.6074,374.532 95.9407,374.198 98.5,374.5C 98.5,376.167 98.5,377.833 98.5,379.5C 100.5,379.5 102.5,379.5 104.5,379.5C 104.5,382.833 104.5,386.167 104.5,389.5C 108.5,388.833 110.167,390.5 109.5,394.5C 112.833,394.5 116.167,394.5 119.5,394.5C 119.5,396.5 119.5,398.5 119.5,400.5C 121.167,400.5 122.833,400.5 124.5,400.5C 124.5,402.5 124.5,404.5 124.5,406.5C 122.989,405.498 121.322,404.831 119.5,404.5C 119.5,403.5 119.5,402.5 119.5,401.5C 117.5,401.5 115.5,401.5 113.5,401.5C 113.822,399.278 113.155,397.444 111.5,396C 105.288,395.953 102.288,392.786 102.5,386.5C 100.929,385.691 99.2624,385.357 97.5,385.5C 97.5,383.5 97.5,381.5 97.5,379.5C 96.1667,379.5 94.8333,379.5 93.5,379.5C 93.7709,377.62 93.1042,376.287 91.5,375.5 Z"/></g>
<g><path style="opacity:0.906" fill="#5f5c5e" d="M 407.5,375.5 C 405.984,376.9 404.317,378.233 402.5,379.5C 401.534,381.396 401.201,383.396 401.5,385.5C 399.459,385.854 397.626,385.854 396,385.5C 395.304,388.478 394.804,391.478 394.5,394.5C 391.518,394.963 388.518,395.296 385.5,395.5C 385.5,397.5 385.5,399.5 385.5,401.5C 383.5,401.5 381.5,401.5 379.5,401.5C 379.037,404.255 377.37,405.922 374.5,406.5C 374.5,404.5 374.5,402.5 374.5,400.5C 376.167,400.5 377.833,400.5 379.5,400.5C 379.5,398.5 379.5,396.5 379.5,394.5C 382.833,394.5 386.167,394.5 389.5,394.5C 389.5,392.833 389.5,391.167 389.5,389.5C 391.167,389.5 392.833,389.5 394.5,389.5C 394.5,386.167 394.5,382.833 394.5,379.5C 396.5,379.5 398.5,379.5 400.5,379.5C 400.5,377.833 400.5,376.167 400.5,374.5C 403.059,374.198 405.393,374.532 407.5,375.5 Z"/></g>
<g><path style="opacity:0.924" fill="#393738" d="M 301.5,406.5 C 315.323,405.504 329.323,405.171 343.5,405.5C 343.5,415.833 343.5,426.167 343.5,436.5C 347.5,435.833 349.167,437.5 348.5,441.5C 350.167,441.5 351.833,441.5 353.5,441.5C 353.5,443.5 353.5,445.5 353.5,447.5C 356.833,447.5 360.167,447.5 363.5,447.5C 363.5,445.5 363.5,443.5 363.5,441.5C 365.5,441.5 367.5,441.5 369.5,441.5C 369.5,439.833 369.5,438.167 369.5,436.5C 371.167,436.5 372.833,436.5 374.5,436.5C 374.5,437.833 374.5,439.167 374.5,440.5C 373.817,442.176 372.483,442.843 370.5,442.5C 370.739,444.467 370.406,446.301 369.5,448C 362.174,448.5 354.841,448.666 347.5,448.5C 347.662,446.473 347.495,444.473 347,442.5C 345.657,443.214 344.324,442.88 343,441.5C 342.5,429.838 342.333,418.171 342.5,406.5C 328.833,406.5 315.167,406.5 301.5,406.5 Z"/></g>
<g><path style="opacity:0.22" fill="#3d3c3d" d="M 197.5,406.5 C 183.833,406.5 170.167,406.5 156.5,406.5C 156.5,418.5 156.5,430.5 156.5,442.5C 154.833,442.5 153.167,442.5 151.5,442.5C 151.5,444.5 151.5,446.5 151.5,448.5C 144.159,448.666 136.826,448.5 129.5,448C 128.594,446.301 128.261,444.467 128.5,442.5C 127.167,442.5 125.833,442.5 124.5,442.5C 124.5,440.833 124.5,439.167 124.5,437.5C 126.042,436.699 127.708,436.366 129.5,436.5C 129.5,438.167 129.5,439.833 129.5,441.5C 131.5,441.5 133.5,441.5 135.5,441.5C 135.5,443.5 135.5,445.5 135.5,447.5C 138.833,447.5 142.167,447.5 145.5,447.5C 145.5,445.5 145.5,443.5 145.5,441.5C 147.167,441.5 148.833,441.5 150.5,441.5C 150.5,439.833 150.5,438.167 150.5,436.5C 152.167,436.5 153.833,436.5 155.5,436.5C 155.5,426.167 155.5,415.833 155.5,405.5C 169.677,405.171 183.677,405.504 197.5,406.5 Z"/></g>
<g><path style="opacity:0.224" fill="#3d3c3d" d="M 301.5,437.5 C 301.5,439.167 301.5,440.833 301.5,442.5C 299.799,442.966 298.299,442.966 297,442.5C 297.046,444.313 296.88,445.979 296.5,447.5C 289.532,448.497 282.532,448.83 275.5,448.5C 275.662,446.473 275.495,444.473 275,442.5C 273.374,442.854 271.541,442.854 269.5,442.5C 269.5,430.5 269.5,418.5 269.5,406.5C 256.167,406.5 242.833,406.5 229.5,406.5C 229.5,418.5 229.5,430.5 229.5,442.5C 227.5,442.5 225.5,442.5 223.5,442.5C 223.5,444.5 223.5,446.5 223.5,448.5C 216.492,448.666 209.492,448.5 202.5,448C 201.098,446.18 199.765,444.346 198.5,442.5C 197.548,440.955 197.215,439.288 197.5,437.5C 199.167,437.5 200.833,437.5 202.5,437.5C 202.5,438.833 202.5,440.167 202.5,441.5C 204.167,441.5 205.833,441.5 207.5,441.5C 207.5,443.5 207.5,445.5 207.5,447.5C 211.167,447.5 214.833,447.5 218.5,447.5C 218.5,445.5 218.5,443.5 218.5,441.5C 220.167,441.5 221.833,441.5 223.5,441.5C 223.5,439.833 223.5,438.167 223.5,436.5C 225.167,436.5 226.833,436.5 228.5,436.5C 228.5,426.167 228.5,415.833 228.5,405.5C 242.5,405.5 256.5,405.5 270.5,405.5C 270.5,415.833 270.5,426.167 270.5,436.5C 272.167,436.5 273.833,436.5 275.5,436.5C 275.5,438.167 275.5,439.833 275.5,441.5C 277.167,441.5 278.833,441.5 280.5,441.5C 280.5,443.5 280.5,445.5 280.5,447.5C 284.167,447.5 287.833,447.5 291.5,447.5C 291.5,445.5 291.5,443.5 291.5,441.5C 293.167,441.5 294.833,441.5 296.5,441.5C 296.5,440.167 296.5,438.833 296.5,437.5C 298.167,437.5 299.833,437.5 301.5,437.5 Z"/></g>
<g><path style="opacity:0.004" fill="#000000" d="M 224.5,443.5 C 225.833,444.167 225.833,444.167 224.5,443.5 Z"/></g>
</svg>